<svg xmlns="http://www.w3.org/2000/svg" width="828.970703125" height="150.0"><line x1="30.0" x2="798.970703125" y1="25.0" y2="25.0" stroke="#1967d2" stroke-width="1" /><line x1="30.0" x2="798.970703125" y1="75.0" y2="75.0" stroke="#1967d2" stroke-width="1" /><line x1="30.0" x2="798.970703125" y1="125.0" y2="125.0" stroke="#1967d2" stroke-width="1" /><line x1="210.0" x2="210.0" y1="25.0" y2="125.0" stroke="black" stroke-width="3" /><line x1="332.990234375" x2="332.990234375" y1="25.0" y2="75.0" stroke="black" stroke-width="3" /><line x1="392.990234375" x2="392.990234375" y1="75.0" y2="125.0" stroke="black" stroke-width="3" /><line x1="515.98046875" x2="515.98046875" y1="75.0" y2="125.0" stroke="black" stroke-width="3" /><line x1="575.98046875" x2="575.98046875" y1="25.0" y2="125.0" stroke="black" stroke-width="3" /><line x1="698.970703125" x2="698.970703125" y1="25.0" y2="75.0" stroke="black" stroke-width="3" /><rect x="10.0" y="5.0" width="40" height="40" stroke="black" fill="white" stroke-width="0" /><text x="30.0" y="25.0" dominant-baseline="middle" text-anchor="middle" font-size="14px">q0: </text><rect x="10.0" y="55.0" width="40" height="40" stroke="black" fill="white" stroke-width="0" /><text x="30.0" y="75.0" dominant-baseline="middle" text-anchor="middle" font-size="14px">q1: </text><rect x="10.0" y="105.0" width="40" height="40" stroke="black" fill="white" stroke-width="0" /><text x="30.0" y="125.0" dominant-baseline="middle" text-anchor="middle" font-size="14px">q2: </text><rect x="70.0" y="105.0" width="40" height="40" stroke="black" fill="white" stroke-width="1" /><text x="90.0" y="125.0" dominant-baseline="middle" text-anchor="middle" font-size="18px">H</text><rect x="130.0" y="5.0" width="40" height="40" stroke="black" fill="white" stroke-width="1" /><text x="150.0" y="25.0" dominant-baseline="middle" text-anchor="middle" font-size="18px">T</text><rect x="130.0" y="55.0" width="40" height="40" stroke="black" fill="white" stroke-width="1" /><text x="150.0" y="75.0" dominant-baseline="middle" text-anchor="middle" font-size="18px">T</text><rect x="130.0" y="105.0" width="40" height="40" stroke="black" fill="white" stroke-width="1" /><text x="150.0" y="125.0" dominant-baseline="middle" text-anchor="middle" font-size="18px">T</text><circle cx="210.0" cy="125.0" r="10.0" /><rect x="190.0" y="5.0" width="40" height="40" stroke="black" fill="white" stroke-width="1" /><text x="210.0" y="25.0" dominant-baseline="middle" text-anchor="middle" font-size="18px">X</text><rect x="250.0" y="5.0" width="42.990234375" height="40" stroke="black" fill="white" stroke-width="1" /><text x="271.4951171875" y="25.0" dominant-baseline="middle" text-anchor="middle" font-size="14px">T^-1</text><circle cx="332.990234375" cy="75.0" r="10.0" /><rect x="312.990234375" y="5.0" width="40" height="40" stroke="black" fill="white" stroke-width="1" /><text x="332.990234375" y="25.0" dominant-baseline="middle" text-anchor="middle" font-size="18px">X</text><circle cx="392.990234375" cy="75.0" r="10.0" /><rect x="372.990234375" y="105.0" width="40" height="40" stroke="black" fill="white" stroke-width="1" /><text x="392.990234375" y="125.0" dominant-baseline="middle" text-anchor="middle" font-size="18px">X</text><rect x="432.990234375" y="5.0" width="42.990234375" height="40" stroke="black" fill="white" stroke-width="1" /><text x="454.4853515625" y="25.0" dominant-baseline="middle" text-anchor="middle" font-size="18px">T</text><rect x="432.990234375" y="105.0" width="42.990234375" height="40" stroke="black" fill="white" stroke-width="1" /><text x="454.4853515625" y="125.0" dominant-baseline="middle" text-anchor="middle" font-size="14px">T^-1</text><circle cx="515.98046875" cy="75.0" r="10.0" /><rect x="495.98046875" y="105.0" width="40" height="40" stroke="black" fill="white" stroke-width="1" /><text x="515.98046875" y="125.0" dominant-baseline="middle" text-anchor="middle" font-size="18px">X</text><circle cx="575.98046875" cy="125.0" r="10.0" /><rect x="555.98046875" y="5.0" width="40" height="40" stroke="black" fill="white" stroke-width="1" /><text x="575.98046875" y="25.0" dominant-baseline="middle" text-anchor="middle" font-size="18px">X</text><rect x="615.98046875" y="5.0" width="42.990234375" height="40" stroke="black" fill="white" stroke-width="1" /><text x="637.4755859375" y="25.0" dominant-baseline="middle" text-anchor="middle" font-size="14px">T^-1</text><circle cx="698.970703125" cy="75.0" r="10.0" /><rect x="678.970703125" y="5.0" width="40" height="40" stroke="black" fill="white" stroke-width="1" /><text x="698.970703125" y="25.0" dominant-baseline="middle" text-anchor="middle" font-size="18px">X</text><rect x="738.970703125" y="105.0" width="40" height="40" stroke="black" fill="white" stroke-width="1" /><text x="758.970703125" y="125.0" dominant-baseline="middle" text-anchor="middle" font-size="18px">H</text></svg>