<svg xmlns="http://www.w3.org/2000/svg" width="1084.2451171875" height="490.0"><line x1="37.63720703125" x2="1054.2451171875" y1="45.0" y2="45.0" stroke="#1967d2" stroke-width="1" /><line x1="37.63720703125" x2="1054.2451171875" y1="95.0" y2="95.0" stroke="#1967d2" stroke-width="1" /><line x1="37.63720703125" x2="1054.2451171875" y1="145.0" y2="145.0" stroke="#1967d2" stroke-width="1" /><line x1="37.63720703125" x2="1054.2451171875" y1="195.0" y2="195.0" stroke="#1967d2" stroke-width="1" /><line x1="37.63720703125" x2="1054.2451171875" y1="245.0" y2="245.0" stroke="#1967d2" stroke-width="1" /><line x1="37.63720703125" x2="1054.2451171875" y1="295.0" y2="295.0" stroke="#1967d2" stroke-width="1" /><line x1="37.63720703125" x2="1054.2451171875" y1="345.0" y2="345.0" stroke="#1967d2" stroke-width="1" /><line x1="37.63720703125" x2="1054.2451171875" y1="395.0" y2="395.0" stroke="#1967d2" stroke-width="1" /><line x1="37.63720703125" x2="1054.2451171875" y1="445.0" y2="445.0" stroke="#1967d2" stroke-width="1" /><line x1="681.2548828125" x2="851.2548828125" y1="5.0" y2="5.0" stroke="black" stroke-width="1" /><line x1="681.2548828125" x2="851.2548828125" y1="485.0" y2="485.0" stroke="black" stroke-width="1" /><line x1="195.2744140625" x2="365.2744140625" y1="5.0" y2="5.0" stroke="black" stroke-width="1" /><line x1="195.2744140625" x2="365.2744140625" y1="485.0" y2="485.0" stroke="black" stroke-width="1" /><line x1="215.2744140625" x2="215.2744140625" y1="95.0" y2="245.0" stroke="black" stroke-width="3" /><line x1="255.2744140625" x2="255.2744140625" y1="195.0" y2="295.0" stroke="black" stroke-width="3" /><line x1="295.2744140625" x2="295.2744140625" y1="45.0" y2="345.0" stroke="black" stroke-width="3" /><line x1="335.2744140625" x2="335.2744140625" y1="145.0" y2="395.0" stroke="black" stroke-width="3" /><line x1="528.2646484375" x2="528.2646484375" y1="45.0" y2="445.0" stroke="black" stroke-width="3" /><line x1="651.2548828125" x2="651.2548828125" y1="245.0" y2="445.0" stroke="black" stroke-width="3" /><line x1="701.2548828125" x2="701.2548828125" y1="95.0" y2="245.0" stroke="black" stroke-width="3" /><line x1="741.2548828125" x2="741.2548828125" y1="195.0" y2="295.0" stroke="black" stroke-width="3" /><line x1="781.2548828125" x2="781.2548828125" y1="45.0" y2="345.0" stroke="black" stroke-width="3" /><line x1="821.2548828125" x2="821.2548828125" y1="145.0" y2="395.0" stroke="black" stroke-width="3" /><line x1="954.2451171875" x2="954.2451171875" y1="45.0" y2="445.0" stroke="black" stroke-width="3" /><line x1="681.2548828125" x2="681.2548828125" y1="5.0" y2="15.0" stroke="black" stroke-width="3" /><line x1="851.2548828125" x2="851.2548828125" y1="5.0" y2="15.0" stroke="black" stroke-width="3" /><line x1="681.2548828125" x2="681.2548828125" y1="475.0" y2="485.0" stroke="black" stroke-width="3" /><line x1="851.2548828125" x2="851.2548828125" y1="475.0" y2="485.0" stroke="black" stroke-width="3" /><line x1="195.2744140625" x2="195.2744140625" y1="5.0" y2="15.0" stroke="black" stroke-width="3" /><line x1="365.2744140625" x2="365.2744140625" y1="5.0" y2="15.0" stroke="black" stroke-width="3" /><line x1="195.2744140625" x2="195.2744140625" y1="475.0" y2="485.0" stroke="black" stroke-width="3" /><line x1="365.2744140625" x2="365.2744140625" y1="475.0" y2="485.0" stroke="black" stroke-width="3" /><rect x="10.0" y="25.0" width="55.2744140625" height="40" stroke="black" fill="white" stroke-width="0" /><text x="37.63720703125" y="45.0" dominant-baseline="middle" text-anchor="middle" font-size="14px">b_00: </text><rect x="10.0" y="75.0" width="55.2744140625" height="40" stroke="black" fill="white" stroke-width="0" /><text x="37.63720703125" y="95.0" dominant-baseline="middle" text-anchor="middle" font-size="14px">b_01: </text><rect x="10.0" y="125.0" width="55.2744140625" height="40" stroke="black" fill="white" stroke-width="0" /><text x="37.63720703125" y="145.0" dominant-baseline="middle" text-anchor="middle" font-size="14px">b_10: </text><rect x="10.0" y="175.0" width="55.2744140625" height="40" stroke="black" fill="white" stroke-width="0" /><text x="37.63720703125" y="195.0" dominant-baseline="middle" text-anchor="middle" font-size="14px">b_11: </text><rect x="10.0" y="225.0" width="55.2744140625" height="40" stroke="black" fill="white" stroke-width="0" /><text x="37.63720703125" y="245.0" dominant-baseline="middle" text-anchor="middle" font-size="14px">m00: </text><rect x="10.0" y="275.0" width="55.2744140625" height="40" stroke="black" fill="white" stroke-width="0" /><text x="37.63720703125" y="295.0" dominant-baseline="middle" text-anchor="middle" font-size="14px">m01: </text><rect x="10.0" y="325.0" width="55.2744140625" height="40" stroke="black" fill="white" stroke-width="0" /><text x="37.63720703125" y="345.0" dominant-baseline="middle" text-anchor="middle" font-size="14px">m10: </text><rect x="10.0" y="375.0" width="55.2744140625" height="40" stroke="black" fill="white" stroke-width="0" /><text x="37.63720703125" y="395.0" dominant-baseline="middle" text-anchor="middle" font-size="14px">m11: </text><rect x="10.0" y="425.0" width="55.2744140625" height="40" stroke="black" fill="white" stroke-width="0" /><text x="37.63720703125" y="445.0" dominant-baseline="middle" text-anchor="middle" font-size="14px">target: </text><rect x="85.2744140625" y="425.0" width="40" height="40" stroke="black" fill="white" stroke-width="1" /><text x="105.2744140625" y="445.0" dominant-baseline="middle" text-anchor="middle" font-size="18px">H</text><rect x="145.2744140625" y="75.0" width="40" height="40" stroke="black" fill="white" stroke-width="1" /><text x="165.2744140625" y="95.0" dominant-baseline="middle" text-anchor="middle" font-size="18px">T</text><rect x="145.2744140625" y="425.0" width="40" height="40" stroke="black" fill="white" stroke-width="1" /><text x="165.2744140625" y="445.0" dominant-baseline="middle" text-anchor="middle" font-size="18px">T</text><rect x="145.2744140625" y="225.0" width="40" height="40" stroke="black" fill="white" stroke-width="1" /><text x="165.2744140625" y="245.0" dominant-baseline="middle" text-anchor="middle" font-size="18px">T</text><rect x="145.2744140625" y="175.0" width="40" height="40" stroke="black" fill="white" stroke-width="1" /><text x="165.2744140625" y="195.0" dominant-baseline="middle" text-anchor="middle" font-size="18px">T</text><rect x="145.2744140625" y="275.0" width="40" height="40" stroke="black" fill="white" stroke-width="1" /><text x="165.2744140625" y="295.0" dominant-baseline="middle" text-anchor="middle" font-size="18px">T</text><rect x="145.2744140625" y="25.0" width="40" height="40" stroke="black" fill="white" stroke-width="1" /><text x="165.2744140625" y="45.0" dominant-baseline="middle" text-anchor="middle" font-size="18px">T</text><rect x="145.2744140625" y="325.0" width="40" height="40" stroke="black" fill="white" stroke-width="1" /><text x="165.2744140625" y="345.0" dominant-baseline="middle" text-anchor="middle" font-size="18px">T</text><rect x="145.2744140625" y="125.0" width="40" height="40" stroke="black" fill="white" stroke-width="1" /><text x="165.2744140625" y="145.0" dominant-baseline="middle" text-anchor="middle" font-size="18px">T</text><rect x="145.2744140625" y="375.0" width="40" height="40" stroke="black" fill="white" stroke-width="1" /><text x="165.2744140625" y="395.0" dominant-baseline="middle" text-anchor="middle" font-size="18px">T</text><rect x="195.2744140625" y="425.0" width="40" height="40" stroke="black" fill="white" stroke-width="1" /><text x="215.2744140625" y="445.0" dominant-baseline="middle" text-anchor="middle" font-size="18px">T</text><circle cx="215.2744140625" cy="245.0" r="10.0" /><rect x="195.2744140625" y="75.0" width="40" height="40" stroke="black" fill="white" stroke-width="1" /><text x="215.2744140625" y="95.0" dominant-baseline="middle" text-anchor="middle" font-size="18px">X</text><circle cx="255.2744140625" cy="295.0" r="10.0" /><rect x="235.2744140625" y="175.0" width="40" height="40" stroke="black" fill="white" stroke-width="1" /><text x="255.2744140625" y="195.0" dominant-baseline="middle" text-anchor="middle" font-size="18px">X</text><circle cx="295.2744140625" cy="345.0" r="10.0" /><rect x="275.2744140625" y="25.0" width="40" height="40" stroke="black" fill="white" stroke-width="1" /><text x="295.2744140625" y="45.0" dominant-baseline="middle" text-anchor="middle" font-size="18px">X</text><circle cx="335.2744140625" cy="395.0" r="10.0" /><rect x="315.2744140625" y="125.0" width="40" height="40" stroke="black" fill="white" stroke-width="1" /><text x="335.2744140625" y="145.0" dominant-baseline="middle" text-anchor="middle" font-size="18px">X</text><rect x="385.2744140625" y="425.0" width="42.990234375" height="40" stroke="black" fill="white" stroke-width="1" /><text x="406.76953125" y="445.0" dominant-baseline="middle" text-anchor="middle" font-size="18px">T</text><rect x="385.2744140625" y="75.0" width="42.990234375" height="40" stroke="black" fill="white" stroke-width="1" /><text x="406.76953125" y="95.0" dominant-baseline="middle" text-anchor="middle" font-size="14px">T^-1</text><rect x="385.2744140625" y="175.0" width="42.990234375" height="40" stroke="black" fill="white" stroke-width="1" /><text x="406.76953125" y="195.0" dominant-baseline="middle" text-anchor="middle" font-size="14px">T^-1</text><rect x="385.2744140625" y="25.0" width="42.990234375" height="40" stroke="black" fill="white" stroke-width="1" /><text x="406.76953125" y="45.0" dominant-baseline="middle" text-anchor="middle" font-size="14px">T^-1</text><rect x="385.2744140625" y="125.0" width="42.990234375" height="40" stroke="black" fill="white" stroke-width="1" /><text x="406.76953125" y="145.0" dominant-baseline="middle" text-anchor="middle" font-size="14px">T^-1</text><rect x="448.2646484375" y="425.0" width="40" height="40" stroke="black" fill="white" stroke-width="1" /><text x="468.2646484375" y="445.0" dominant-baseline="middle" text-anchor="middle" font-size="18px">T</text><circle cx="528.2646484375" cy="445.0" r="10.0" /><rect x="508.2646484375" y="375.0" width="40" height="40" stroke="black" fill="white" stroke-width="1" /><text x="528.2646484375" y="395.0" dominant-baseline="middle" text-anchor="middle" font-size="18px">X</text><rect x="508.2646484375" y="125.0" width="40" height="40" stroke="black" fill="white" stroke-width="1" /><text x="528.2646484375" y="145.0" dominant-baseline="middle" text-anchor="middle" font-size="18px">X</text><rect x="508.2646484375" y="325.0" width="40" height="40" stroke="black" fill="white" stroke-width="1" /><text x="528.2646484375" y="345.0" dominant-baseline="middle" text-anchor="middle" font-size="18px">X</text><rect x="508.2646484375" y="25.0" width="40" height="40" stroke="black" fill="white" stroke-width="1" /><text x="528.2646484375" y="45.0" dominant-baseline="middle" text-anchor="middle" font-size="18px">X</text><rect x="508.2646484375" y="275.0" width="40" height="40" stroke="black" fill="white" stroke-width="1" /><text x="528.2646484375" y="295.0" dominant-baseline="middle" text-anchor="middle" font-size="18px">X</text><rect x="508.2646484375" y="175.0" width="40" height="40" stroke="black" fill="white" stroke-width="1" /><text x="528.2646484375" y="195.0" dominant-baseline="middle" text-anchor="middle" font-size="18px">X</text><rect x="508.2646484375" y="225.0" width="40" height="40" stroke="black" fill="white" stroke-width="1" /><text x="528.2646484375" y="245.0" dominant-baseline="middle" text-anchor="middle" font-size="18px">X</text><rect x="508.2646484375" y="75.0" width="40" height="40" stroke="black" fill="white" stroke-width="1" /><text x="528.2646484375" y="95.0" dominant-baseline="middle" text-anchor="middle" font-size="18px">X</text><rect x="568.2646484375" y="75.0" width="42.990234375" height="40" stroke="black" fill="white" stroke-width="1" /><text x="589.759765625" y="95.0" dominant-baseline="middle" text-anchor="middle" font-size="18px">T</text><rect x="568.2646484375" y="225.0" width="42.990234375" height="40" stroke="black" fill="white" stroke-width="1" /><text x="589.759765625" y="245.0" dominant-baseline="middle" text-anchor="middle" font-size="14px">T^-1</text><rect x="568.2646484375" y="175.0" width="42.990234375" height="40" stroke="black" fill="white" stroke-width="1" /><text x="589.759765625" y="195.0" dominant-baseline="middle" text-anchor="middle" font-size="18px">T</text><rect x="568.2646484375" y="275.0" width="42.990234375" height="40" stroke="black" fill="white" stroke-width="1" /><text x="589.759765625" y="295.0" dominant-baseline="middle" text-anchor="middle" font-size="14px">T^-1</text><rect x="568.2646484375" y="25.0" width="42.990234375" height="40" stroke="black" fill="white" stroke-width="1" /><text x="589.759765625" y="45.0" dominant-baseline="middle" text-anchor="middle" font-size="18px">T</text><rect x="568.2646484375" y="325.0" width="42.990234375" height="40" stroke="black" fill="white" stroke-width="1" /><text x="589.759765625" y="345.0" dominant-baseline="middle" text-anchor="middle" font-size="14px">T^-1</text><rect x="568.2646484375" y="125.0" width="42.990234375" height="40" stroke="black" fill="white" stroke-width="1" /><text x="589.759765625" y="145.0" dominant-baseline="middle" text-anchor="middle" font-size="18px">T</text><rect x="568.2646484375" y="375.0" width="42.990234375" height="40" stroke="black" fill="white" stroke-width="1" /><text x="589.759765625" y="395.0" dominant-baseline="middle" text-anchor="middle" font-size="14px">T^-1</text><circle cx="651.2548828125" cy="445.0" r="10.0" /><rect x="631.2548828125" y="375.0" width="40" height="40" stroke="black" fill="white" stroke-width="1" /><text x="651.2548828125" y="395.0" dominant-baseline="middle" text-anchor="middle" font-size="18px">X</text><rect x="631.2548828125" y="325.0" width="40" height="40" stroke="black" fill="white" stroke-width="1" /><text x="651.2548828125" y="345.0" dominant-baseline="middle" text-anchor="middle" font-size="18px">X</text><rect x="631.2548828125" y="275.0" width="40" height="40" stroke="black" fill="white" stroke-width="1" /><text x="651.2548828125" y="295.0" dominant-baseline="middle" text-anchor="middle" font-size="18px">X</text><rect x="631.2548828125" y="225.0" width="40" height="40" stroke="black" fill="white" stroke-width="1" /><text x="651.2548828125" y="245.0" dominant-baseline="middle" text-anchor="middle" font-size="18px">X</text><circle cx="701.2548828125" cy="245.0" r="10.0" /><rect x="681.2548828125" y="75.0" width="40" height="40" stroke="black" fill="white" stroke-width="1" /><text x="701.2548828125" y="95.0" dominant-baseline="middle" text-anchor="middle" font-size="18px">X</text><circle cx="741.2548828125" cy="295.0" r="10.0" /><rect x="721.2548828125" y="175.0" width="40" height="40" stroke="black" fill="white" stroke-width="1" /><text x="741.2548828125" y="195.0" dominant-baseline="middle" text-anchor="middle" font-size="18px">X</text><circle cx="781.2548828125" cy="345.0" r="10.0" /><rect x="761.2548828125" y="25.0" width="40" height="40" stroke="black" fill="white" stroke-width="1" /><text x="781.2548828125" y="45.0" dominant-baseline="middle" text-anchor="middle" font-size="18px">X</text><circle cx="821.2548828125" cy="395.0" r="10.0" /><rect x="801.2548828125" y="125.0" width="40" height="40" stroke="black" fill="white" stroke-width="1" /><text x="821.2548828125" y="145.0" dominant-baseline="middle" text-anchor="middle" font-size="18px">X</text><rect x="871.2548828125" y="75.0" width="42.990234375" height="40" stroke="black" fill="white" stroke-width="1" /><text x="892.75" y="95.0" dominant-baseline="middle" text-anchor="middle" font-size="14px">T^-1</text><rect x="871.2548828125" y="175.0" width="42.990234375" height="40" stroke="black" fill="white" stroke-width="1" /><text x="892.75" y="195.0" dominant-baseline="middle" text-anchor="middle" font-size="14px">T^-1</text><rect x="871.2548828125" y="25.0" width="42.990234375" height="40" stroke="black" fill="white" stroke-width="1" /><text x="892.75" y="45.0" dominant-baseline="middle" text-anchor="middle" font-size="14px">T^-1</text><rect x="871.2548828125" y="125.0" width="42.990234375" height="40" stroke="black" fill="white" stroke-width="1" /><text x="892.75" y="145.0" dominant-baseline="middle" text-anchor="middle" font-size="14px">T^-1</text><circle cx="954.2451171875" cy="445.0" r="10.0" /><rect x="934.2451171875" y="125.0" width="40" height="40" stroke="black" fill="white" stroke-width="1" /><text x="954.2451171875" y="145.0" dominant-baseline="middle" text-anchor="middle" font-size="18px">X</text><rect x="934.2451171875" y="25.0" width="40" height="40" stroke="black" fill="white" stroke-width="1" /><text x="954.2451171875" y="45.0" dominant-baseline="middle" text-anchor="middle" font-size="18px">X</text><rect x="934.2451171875" y="175.0" width="40" height="40" stroke="black" fill="white" stroke-width="1" /><text x="954.2451171875" y="195.0" dominant-baseline="middle" text-anchor="middle" font-size="18px">X</text><rect x="934.2451171875" y="75.0" width="40" height="40" stroke="black" fill="white" stroke-width="1" /><text x="954.2451171875" y="95.0" dominant-baseline="middle" text-anchor="middle" font-size="18px">X</text><rect x="994.2451171875" y="425.0" width="40" height="40" stroke="black" fill="white" stroke-width="1" /><text x="1014.2451171875" y="445.0" dominant-baseline="middle" text-anchor="middle" font-size="18px">H</text></svg>