<svg xmlns="http://www.w3.org/2000/svg" width="2636.2060546875" height="590.0"><line x1="37.63720703125" x2="2606.2060546875" y1="45.0" y2="45.0" stroke="#1967d2" stroke-width="1" /><line x1="37.63720703125" x2="2606.2060546875" y1="95.0" y2="95.0" stroke="#1967d2" stroke-width="1" /><line x1="37.63720703125" x2="2606.2060546875" y1="145.0" y2="145.0" stroke="#1967d2" stroke-width="1" /><line x1="37.63720703125" x2="2606.2060546875" y1="195.0" y2="195.0" stroke="#1967d2" stroke-width="1" /><line x1="37.63720703125" x2="2606.2060546875" y1="245.0" y2="245.0" stroke="#1967d2" stroke-width="1" /><line x1="37.63720703125" x2="2606.2060546875" y1="295.0" y2="295.0" stroke="#1967d2" stroke-width="1" /><line x1="37.63720703125" x2="2606.2060546875" y1="345.0" y2="345.0" stroke="#1967d2" stroke-width="1" /><line x1="37.63720703125" x2="2606.2060546875" y1="395.0" y2="395.0" stroke="#1967d2" stroke-width="1" /><line x1="37.63720703125" x2="2606.2060546875" y1="445.0" y2="445.0" stroke="#1967d2" stroke-width="1" /><line x1="37.63720703125" x2="2606.2060546875" y1="495.0" y2="495.0" stroke="#1967d2" stroke-width="1" /><line x1="37.63720703125" x2="2606.2060546875" y1="545.0" y2="545.0" stroke="#1967d2" stroke-width="1" /><line x1="2010.2255859375" x2="2100.2255859375" y1="5.0" y2="5.0" stroke="black" stroke-width="1" /><line x1="2010.2255859375" x2="2100.2255859375" y1="585.0" y2="585.0" stroke="black" stroke-width="1" /><line x1="1790.2255859375" x2="1880.2255859375" y1="5.0" y2="5.0" stroke="black" stroke-width="1" /><line x1="1790.2255859375" x2="1880.2255859375" y1="585.0" y2="585.0" stroke="black" stroke-width="1" /><line x1="1427.2353515625" x2="1597.2353515625" y1="5.0" y2="5.0" stroke="black" stroke-width="1" /><line x1="1427.2353515625" x2="1597.2353515625" y1="585.0" y2="585.0" stroke="black" stroke-width="1" /><line x1="941.2548828125" x2="1111.2548828125" y1="5.0" y2="5.0" stroke="black" stroke-width="1" /><line x1="941.2548828125" x2="1111.2548828125" y1="585.0" y2="585.0" stroke="black" stroke-width="1" /><line x1="781.2548828125" x2="871.2548828125" y1="5.0" y2="5.0" stroke="black" stroke-width="1" /><line x1="781.2548828125" x2="871.2548828125" y1="585.0" y2="585.0" stroke="black" stroke-width="1" /><line x1="558.2646484375" x2="648.2646484375" y1="5.0" y2="5.0" stroke="black" stroke-width="1" /><line x1="558.2646484375" x2="648.2646484375" y1="585.0" y2="585.0" stroke="black" stroke-width="1" /><line x1="225.2744140625" x2="225.2744140625" y1="45.0" y2="145.0" stroke="black" stroke-width="3" /><line x1="285.2744140625" x2="285.2744140625" y1="145.0" y2="245.0" stroke="black" stroke-width="3" /><line x1="345.2744140625" x2="345.2744140625" y1="195.0" y2="295.0" stroke="black" stroke-width="3" /><line x1="468.2646484375" x2="468.2646484375" y1="95.0" y2="295.0" stroke="black" stroke-width="3" /><line x1="578.2646484375" x2="578.2646484375" y1="145.0" y2="245.0" stroke="black" stroke-width="3" /><line x1="618.2646484375" x2="618.2646484375" y1="195.0" y2="295.0" stroke="black" stroke-width="3" /><line x1="801.2548828125" x2="801.2548828125" y1="145.0" y2="245.0" stroke="black" stroke-width="3" /><line x1="841.2548828125" x2="841.2548828125" y1="195.0" y2="295.0" stroke="black" stroke-width="3" /><line x1="961.2548828125" x2="961.2548828125" y1="145.0" y2="445.0" stroke="black" stroke-width="3" /><line x1="1001.2548828125" x2="1001.2548828125" y1="195.0" y2="345.0" stroke="black" stroke-width="3" /><line x1="1041.2548828125" x2="1041.2548828125" y1="245.0" y2="495.0" stroke="black" stroke-width="3" /><line x1="1081.2548828125" x2="1081.2548828125" y1="295.0" y2="395.0" stroke="black" stroke-width="3" /><line x1="1214.2451171875" x2="1214.2451171875" y1="145.0" y2="545.0" stroke="black" stroke-width="3" /><line x1="1397.2353515625" x2="1397.2353515625" y1="345.0" y2="545.0" stroke="black" stroke-width="3" /><line x1="1447.2353515625" x2="1447.2353515625" y1="145.0" y2="445.0" stroke="black" stroke-width="3" /><line x1="1487.2353515625" x2="1487.2353515625" y1="195.0" y2="345.0" stroke="black" stroke-width="3" /><line x1="1527.2353515625" x2="1527.2353515625" y1="245.0" y2="495.0" stroke="black" stroke-width="3" /><line x1="1567.2353515625" x2="1567.2353515625" y1="295.0" y2="395.0" stroke="black" stroke-width="3" /><line x1="1700.2255859375" x2="1700.2255859375" y1="145.0" y2="545.0" stroke="black" stroke-width="3" /><line x1="1810.2255859375" x2="1810.2255859375" y1="145.0" y2="245.0" stroke="black" stroke-width="3" /><line x1="1850.2255859375" x2="1850.2255859375" y1="195.0" y2="295.0" stroke="black" stroke-width="3" /><line x1="2030.2255859375" x2="2030.2255859375" y1="145.0" y2="245.0" stroke="black" stroke-width="3" /><line x1="2070.2255859375" x2="2070.2255859375" y1="195.0" y2="295.0" stroke="black" stroke-width="3" /><line x1="2203.2158203125" x2="2203.2158203125" y1="95.0" y2="295.0" stroke="black" stroke-width="3" /><line x1="2323.2158203125" x2="2323.2158203125" y1="195.0" y2="295.0" stroke="black" stroke-width="3" /><line x1="2383.2158203125" x2="2383.2158203125" y1="145.0" y2="245.0" stroke="black" stroke-width="3" /><line x1="2443.2158203125" x2="2443.2158203125" y1="45.0" y2="145.0" stroke="black" stroke-width="3" /><line x1="2010.2255859375" x2="2010.2255859375" y1="5.0" y2="15.0" stroke="black" stroke-width="3" /><line x1="2100.2255859375" x2="2100.2255859375" y1="5.0" y2="15.0" stroke="black" stroke-width="3" /><line x1="2010.2255859375" x2="2010.2255859375" y1="575.0" y2="585.0" stroke="black" stroke-width="3" /><line x1="2100.2255859375" x2="2100.2255859375" y1="575.0" y2="585.0" stroke="black" stroke-width="3" /><line x1="1790.2255859375" x2="1790.2255859375" y1="5.0" y2="15.0" stroke="black" stroke-width="3" /><line x1="1880.2255859375" x2="1880.2255859375" y1="5.0" y2="15.0" stroke="black" stroke-width="3" /><line x1="1790.2255859375" x2="1790.2255859375" y1="575.0" y2="585.0" stroke="black" stroke-width="3" /><line x1="1880.2255859375" x2="1880.2255859375" y1="575.0" y2="585.0" stroke="black" stroke-width="3" /><line x1="1427.2353515625" x2="1427.2353515625" y1="5.0" y2="15.0" stroke="black" stroke-width="3" /><line x1="1597.2353515625" x2="1597.2353515625" y1="5.0" y2="15.0" stroke="black" stroke-width="3" /><line x1="1427.2353515625" x2="1427.2353515625" y1="575.0" y2="585.0" stroke="black" stroke-width="3" /><line x1="1597.2353515625" x2="1597.2353515625" y1="575.0" y2="585.0" stroke="black" stroke-width="3" /><line x1="941.2548828125" x2="941.2548828125" y1="5.0" y2="15.0" stroke="black" stroke-width="3" /><line x1="1111.2548828125" x2="1111.2548828125" y1="5.0" y2="15.0" stroke="black" stroke-width="3" /><line x1="941.2548828125" x2="941.2548828125" y1="575.0" y2="585.0" stroke="black" stroke-width="3" /><line x1="1111.2548828125" x2="1111.2548828125" y1="575.0" y2="585.0" stroke="black" stroke-width="3" /><line x1="781.2548828125" x2="781.2548828125" y1="5.0" y2="15.0" stroke="black" stroke-width="3" /><line x1="871.2548828125" x2="871.2548828125" y1="5.0" y2="15.0" stroke="black" stroke-width="3" /><line x1="781.2548828125" x2="781.2548828125" y1="575.0" y2="585.0" stroke="black" stroke-width="3" /><line x1="871.2548828125" x2="871.2548828125" y1="575.0" y2="585.0" stroke="black" stroke-width="3" /><line x1="558.2646484375" x2="558.2646484375" y1="5.0" y2="15.0" stroke="black" stroke-width="3" /><line x1="648.2646484375" x2="648.2646484375" y1="5.0" y2="15.0" stroke="black" stroke-width="3" /><line x1="558.2646484375" x2="558.2646484375" y1="575.0" y2="585.0" stroke="black" stroke-width="3" /><line x1="648.2646484375" x2="648.2646484375" y1="575.0" y2="585.0" stroke="black" stroke-width="3" /><rect x="10.0" y="25.0" width="55.2744140625" height="40" stroke="black" fill="white" stroke-width="0" /><text x="37.63720703125" y="45.0" dominant-baseline="middle" text-anchor="middle" font-size="14px">a0: </text><rect x="10.0" y="75.0" width="55.2744140625" height="40" stroke="black" fill="white" stroke-width="0" /><text x="37.63720703125" y="95.0" dominant-baseline="middle" text-anchor="middle" font-size="14px">a1: </text><rect x="10.0" y="125.0" width="55.2744140625" height="40" stroke="black" fill="white" stroke-width="0" /><text x="37.63720703125" y="145.0" dominant-baseline="middle" text-anchor="middle" font-size="14px">b_00: </text><rect x="10.0" y="175.0" width="55.2744140625" height="40" stroke="black" fill="white" stroke-width="0" /><text x="37.63720703125" y="195.0" dominant-baseline="middle" text-anchor="middle" font-size="14px">b_01: </text><rect x="10.0" y="225.0" width="55.2744140625" height="40" stroke="black" fill="white" stroke-width="0" /><text x="37.63720703125" y="245.0" dominant-baseline="middle" text-anchor="middle" font-size="14px">b_10: </text><rect x="10.0" y="275.0" width="55.2744140625" height="40" stroke="black" fill="white" stroke-width="0" /><text x="37.63720703125" y="295.0" dominant-baseline="middle" text-anchor="middle" font-size="14px">b_11: </text><rect x="10.0" y="325.0" width="55.2744140625" height="40" stroke="black" fill="white" stroke-width="0" /><text x="37.63720703125" y="345.0" dominant-baseline="middle" text-anchor="middle" font-size="14px">m00: </text><rect x="10.0" y="375.0" width="55.2744140625" height="40" stroke="black" fill="white" stroke-width="0" /><text x="37.63720703125" y="395.0" dominant-baseline="middle" text-anchor="middle" font-size="14px">m01: </text><rect x="10.0" y="425.0" width="55.2744140625" height="40" stroke="black" fill="white" stroke-width="0" /><text x="37.63720703125" y="445.0" dominant-baseline="middle" text-anchor="middle" font-size="14px">m10: </text><rect x="10.0" y="475.0" width="55.2744140625" height="40" stroke="black" fill="white" stroke-width="0" /><text x="37.63720703125" y="495.0" dominant-baseline="middle" text-anchor="middle" font-size="14px">m11: </text><rect x="10.0" y="525.0" width="55.2744140625" height="40" stroke="black" fill="white" stroke-width="0" /><text x="37.63720703125" y="545.0" dominant-baseline="middle" text-anchor="middle" font-size="14px">target: </text><rect x="85.2744140625" y="225.0" width="40" height="40" stroke="black" fill="white" stroke-width="1" /><text x="105.2744140625" y="245.0" dominant-baseline="middle" text-anchor="middle" font-size="18px">H</text><rect x="85.2744140625" y="275.0" width="40" height="40" stroke="black" fill="white" stroke-width="1" /><text x="105.2744140625" y="295.0" dominant-baseline="middle" text-anchor="middle" font-size="18px">H</text><rect x="85.2744140625" y="525.0" width="40" height="40" stroke="black" fill="white" stroke-width="1" /><text x="105.2744140625" y="545.0" dominant-baseline="middle" text-anchor="middle" font-size="18px">H</text><rect x="145.2744140625" y="225.0" width="40" height="40" stroke="black" fill="white" stroke-width="1" /><text x="165.2744140625" y="245.0" dominant-baseline="middle" text-anchor="middle" font-size="18px">T</text><rect x="145.2744140625" y="275.0" width="40" height="40" stroke="black" fill="white" stroke-width="1" /><text x="165.2744140625" y="295.0" dominant-baseline="middle" text-anchor="middle" font-size="18px">T</text><rect x="145.2744140625" y="325.0" width="40" height="40" stroke="black" fill="white" stroke-width="1" /><text x="165.2744140625" y="345.0" dominant-baseline="middle" text-anchor="middle" font-size="18px">T</text><rect x="145.2744140625" y="375.0" width="40" height="40" stroke="black" fill="white" stroke-width="1" /><text x="165.2744140625" y="395.0" dominant-baseline="middle" text-anchor="middle" font-size="18px">T</text><rect x="145.2744140625" y="425.0" width="40" height="40" stroke="black" fill="white" stroke-width="1" /><text x="165.2744140625" y="445.0" dominant-baseline="middle" text-anchor="middle" font-size="18px">T</text><rect x="145.2744140625" y="475.0" width="40" height="40" stroke="black" fill="white" stroke-width="1" /><text x="165.2744140625" y="495.0" dominant-baseline="middle" text-anchor="middle" font-size="18px">T</text><circle cx="225.2744140625" cy="45.0" r="10.0" /><rect x="205.2744140625" y="125.0" width="40" height="40" stroke="black" fill="white" stroke-width="1" /><text x="225.2744140625" y="145.0" dominant-baseline="middle" text-anchor="middle" font-size="18px">X</text><rect x="205.2744140625" y="525.0" width="40" height="40" stroke="black" fill="white" stroke-width="1" /><text x="225.2744140625" y="545.0" dominant-baseline="middle" text-anchor="middle" font-size="18px">Z</text><circle cx="285.2744140625" cy="145.0" r="10.0" /><rect x="265.2744140625" y="225.0" width="40" height="40" stroke="black" fill="white" stroke-width="1" /><text x="285.2744140625" y="245.0" dominant-baseline="middle" text-anchor="middle" font-size="18px">X</text><rect x="265.2744140625" y="175.0" width="40" height="40" stroke="black" fill="white" stroke-width="1" /><text x="285.2744140625" y="195.0" dominant-baseline="middle" text-anchor="middle" font-size="18px">X</text><circle cx="345.2744140625" cy="195.0" r="10.0" /><rect x="325.2744140625" y="275.0" width="40" height="40" stroke="black" fill="white" stroke-width="1" /><text x="345.2744140625" y="295.0" dominant-baseline="middle" text-anchor="middle" font-size="18px">X</text><rect x="385.2744140625" y="225.0" width="42.990234375" height="40" stroke="black" fill="white" stroke-width="1" /><text x="406.76953125" y="245.0" dominant-baseline="middle" text-anchor="middle" font-size="14px">T^-1</text><rect x="385.2744140625" y="275.0" width="42.990234375" height="40" stroke="black" fill="white" stroke-width="1" /><text x="406.76953125" y="295.0" dominant-baseline="middle" text-anchor="middle" font-size="14px">T^-1</text><circle cx="468.2646484375" cy="95.0" r="10.0" /><rect x="448.2646484375" y="275.0" width="40" height="40" stroke="black" fill="white" stroke-width="1" /><text x="468.2646484375" y="295.0" dominant-baseline="middle" text-anchor="middle" font-size="18px">X</text><rect x="448.2646484375" y="225.0" width="40" height="40" stroke="black" fill="white" stroke-width="1" /><text x="468.2646484375" y="245.0" dominant-baseline="middle" text-anchor="middle" font-size="18px">X</text><rect x="508.2646484375" y="225.0" width="40" height="40" stroke="black" fill="white" stroke-width="1" /><text x="528.2646484375" y="245.0" dominant-baseline="middle" text-anchor="middle" font-size="18px">T</text><rect x="508.2646484375" y="275.0" width="40" height="40" stroke="black" fill="white" stroke-width="1" /><text x="528.2646484375" y="295.0" dominant-baseline="middle" text-anchor="middle" font-size="18px">T</text><circle cx="578.2646484375" cy="145.0" r="10.0" /><rect x="558.2646484375" y="225.0" width="40" height="40" stroke="black" fill="white" stroke-width="1" /><text x="578.2646484375" y="245.0" dominant-baseline="middle" text-anchor="middle" font-size="18px">X</text><circle cx="618.2646484375" cy="195.0" r="10.0" /><rect x="598.2646484375" y="275.0" width="40" height="40" stroke="black" fill="white" stroke-width="1" /><text x="618.2646484375" y="295.0" dominant-baseline="middle" text-anchor="middle" font-size="18px">X</text><rect x="668.2646484375" y="225.0" width="42.990234375" height="40" stroke="black" fill="white" stroke-width="1" /><text x="689.759765625" y="245.0" dominant-baseline="middle" text-anchor="middle" font-size="14px">T^-1</text><rect x="668.2646484375" y="275.0" width="42.990234375" height="40" stroke="black" fill="white" stroke-width="1" /><text x="689.759765625" y="295.0" dominant-baseline="middle" text-anchor="middle" font-size="14px">T^-1</text><rect x="731.2548828125" y="225.0" width="40" height="40" stroke="black" fill="white" stroke-width="1" /><text x="751.2548828125" y="245.0" dominant-baseline="middle" text-anchor="middle" font-size="18px">H</text><rect x="731.2548828125" y="275.0" width="40" height="40" stroke="black" fill="white" stroke-width="1" /><text x="751.2548828125" y="295.0" dominant-baseline="middle" text-anchor="middle" font-size="18px">H</text><circle cx="801.2548828125" cy="245.0" r="10.0" /><rect x="781.2548828125" y="125.0" width="40" height="40" stroke="black" fill="white" stroke-width="1" /><text x="801.2548828125" y="145.0" dominant-baseline="middle" text-anchor="middle" font-size="18px">X</text><circle cx="841.2548828125" cy="295.0" r="10.0" /><rect x="821.2548828125" y="175.0" width="40" height="40" stroke="black" fill="white" stroke-width="1" /><text x="841.2548828125" y="195.0" dominant-baseline="middle" text-anchor="middle" font-size="18px">X</text><rect x="891.2548828125" y="125.0" width="40" height="40" stroke="black" fill="white" stroke-width="1" /><text x="911.2548828125" y="145.0" dominant-baseline="middle" text-anchor="middle" font-size="18px">T</text><rect x="891.2548828125" y="175.0" width="40" height="40" stroke="black" fill="white" stroke-width="1" /><text x="911.2548828125" y="195.0" dominant-baseline="middle" text-anchor="middle" font-size="18px">T</text><rect x="891.2548828125" y="225.0" width="40" height="40" stroke="black" fill="white" stroke-width="1" /><text x="911.2548828125" y="245.0" dominant-baseline="middle" text-anchor="middle" font-size="18px">T</text><rect x="891.2548828125" y="275.0" width="40" height="40" stroke="black" fill="white" stroke-width="1" /><text x="911.2548828125" y="295.0" dominant-baseline="middle" text-anchor="middle" font-size="18px">T</text><circle cx="961.2548828125" cy="445.0" r="10.0" /><rect x="941.2548828125" y="125.0" width="40" height="40" stroke="black" fill="white" stroke-width="1" /><text x="961.2548828125" y="145.0" dominant-baseline="middle" text-anchor="middle" font-size="18px">X</text><circle cx="1001.2548828125" cy="345.0" r="10.0" /><rect x="981.2548828125" y="175.0" width="40" height="40" stroke="black" fill="white" stroke-width="1" /><text x="1001.2548828125" y="195.0" dominant-baseline="middle" text-anchor="middle" font-size="18px">X</text><circle cx="1041.2548828125" cy="495.0" r="10.0" /><rect x="1021.2548828125" y="225.0" width="40" height="40" stroke="black" fill="white" stroke-width="1" /><text x="1041.2548828125" y="245.0" dominant-baseline="middle" text-anchor="middle" font-size="18px">X</text><circle cx="1081.2548828125" cy="395.0" r="10.0" /><rect x="1061.2548828125" y="275.0" width="40" height="40" stroke="black" fill="white" stroke-width="1" /><text x="1081.2548828125" y="295.0" dominant-baseline="middle" text-anchor="middle" font-size="18px">X</text><rect x="1131.2548828125" y="125.0" width="42.990234375" height="40" stroke="black" fill="white" stroke-width="1" /><text x="1152.75" y="145.0" dominant-baseline="middle" text-anchor="middle" font-size="14px">T^-1</text><rect x="1131.2548828125" y="175.0" width="42.990234375" height="40" stroke="black" fill="white" stroke-width="1" /><text x="1152.75" y="195.0" dominant-baseline="middle" text-anchor="middle" font-size="14px">T^-1</text><rect x="1131.2548828125" y="225.0" width="42.990234375" height="40" stroke="black" fill="white" stroke-width="1" /><text x="1152.75" y="245.0" dominant-baseline="middle" text-anchor="middle" font-size="14px">T^-1</text><rect x="1131.2548828125" y="275.0" width="42.990234375" height="40" stroke="black" fill="white" stroke-width="1" /><text x="1152.75" y="295.0" dominant-baseline="middle" text-anchor="middle" font-size="14px">T^-1</text><circle cx="1214.2451171875" cy="545.0" r="10.0" /><rect x="1194.2451171875" y="475.0" width="40" height="40" stroke="black" fill="white" stroke-width="1" /><text x="1214.2451171875" y="495.0" dominant-baseline="middle" text-anchor="middle" font-size="18px">X</text><rect x="1194.2451171875" y="225.0" width="40" height="40" stroke="black" fill="white" stroke-width="1" /><text x="1214.2451171875" y="245.0" dominant-baseline="middle" text-anchor="middle" font-size="18px">X</text><rect x="1194.2451171875" y="425.0" width="40" height="40" stroke="black" fill="white" stroke-width="1" /><text x="1214.2451171875" y="445.0" dominant-baseline="middle" text-anchor="middle" font-size="18px">X</text><rect x="1194.2451171875" y="125.0" width="40" height="40" stroke="black" fill="white" stroke-width="1" /><text x="1214.2451171875" y="145.0" dominant-baseline="middle" text-anchor="middle" font-size="18px">X</text><rect x="1194.2451171875" y="375.0" width="40" height="40" stroke="black" fill="white" stroke-width="1" /><text x="1214.2451171875" y="395.0" dominant-baseline="middle" text-anchor="middle" font-size="18px">X</text><rect x="1194.2451171875" y="275.0" width="40" height="40" stroke="black" fill="white" stroke-width="1" /><text x="1214.2451171875" y="295.0" dominant-baseline="middle" text-anchor="middle" font-size="18px">X</text><rect x="1194.2451171875" y="325.0" width="40" height="40" stroke="black" fill="white" stroke-width="1" /><text x="1214.2451171875" y="345.0" dominant-baseline="middle" text-anchor="middle" font-size="18px">X</text><rect x="1194.2451171875" y="175.0" width="40" height="40" stroke="black" fill="white" stroke-width="1" /><text x="1214.2451171875" y="195.0" dominant-baseline="middle" text-anchor="middle" font-size="18px">X</text><rect x="1254.2451171875" y="125.0" width="40" height="40" stroke="black" fill="white" stroke-width="1" /><text x="1274.2451171875" y="145.0" dominant-baseline="middle" text-anchor="middle" font-size="18px">T</text><rect x="1254.2451171875" y="175.0" width="40" height="40" stroke="black" fill="white" stroke-width="1" /><text x="1274.2451171875" y="195.0" dominant-baseline="middle" text-anchor="middle" font-size="18px">T</text><rect x="1254.2451171875" y="225.0" width="40" height="40" stroke="black" fill="white" stroke-width="1" /><text x="1274.2451171875" y="245.0" dominant-baseline="middle" text-anchor="middle" font-size="18px">T</text><rect x="1254.2451171875" y="275.0" width="40" height="40" stroke="black" fill="white" stroke-width="1" /><text x="1274.2451171875" y="295.0" dominant-baseline="middle" text-anchor="middle" font-size="18px">T</text><rect x="1314.2451171875" y="325.0" width="42.990234375" height="40" stroke="black" fill="white" stroke-width="1" /><text x="1335.740234375" y="345.0" dominant-baseline="middle" text-anchor="middle" font-size="14px">T^-1</text><rect x="1314.2451171875" y="375.0" width="42.990234375" height="40" stroke="black" fill="white" stroke-width="1" /><text x="1335.740234375" y="395.0" dominant-baseline="middle" text-anchor="middle" font-size="14px">T^-1</text><rect x="1314.2451171875" y="425.0" width="42.990234375" height="40" stroke="black" fill="white" stroke-width="1" /><text x="1335.740234375" y="445.0" dominant-baseline="middle" text-anchor="middle" font-size="14px">T^-1</text><rect x="1314.2451171875" y="475.0" width="42.990234375" height="40" stroke="black" fill="white" stroke-width="1" /><text x="1335.740234375" y="495.0" dominant-baseline="middle" text-anchor="middle" font-size="14px">T^-1</text><circle cx="1397.2353515625" cy="545.0" r="10.0" /><rect x="1377.2353515625" y="475.0" width="40" height="40" stroke="black" fill="white" stroke-width="1" /><text x="1397.2353515625" y="495.0" dominant-baseline="middle" text-anchor="middle" font-size="18px">X</text><rect x="1377.2353515625" y="425.0" width="40" height="40" stroke="black" fill="white" stroke-width="1" /><text x="1397.2353515625" y="445.0" dominant-baseline="middle" text-anchor="middle" font-size="18px">X</text><rect x="1377.2353515625" y="375.0" width="40" height="40" stroke="black" fill="white" stroke-width="1" /><text x="1397.2353515625" y="395.0" dominant-baseline="middle" text-anchor="middle" font-size="18px">X</text><rect x="1377.2353515625" y="325.0" width="40" height="40" stroke="black" fill="white" stroke-width="1" /><text x="1397.2353515625" y="345.0" dominant-baseline="middle" text-anchor="middle" font-size="18px">X</text><circle cx="1447.2353515625" cy="445.0" r="10.0" /><rect x="1427.2353515625" y="125.0" width="40" height="40" stroke="black" fill="white" stroke-width="1" /><text x="1447.2353515625" y="145.0" dominant-baseline="middle" text-anchor="middle" font-size="18px">X</text><circle cx="1487.2353515625" cy="345.0" r="10.0" /><rect x="1467.2353515625" y="175.0" width="40" height="40" stroke="black" fill="white" stroke-width="1" /><text x="1487.2353515625" y="195.0" dominant-baseline="middle" text-anchor="middle" font-size="18px">X</text><circle cx="1527.2353515625" cy="495.0" r="10.0" /><rect x="1507.2353515625" y="225.0" width="40" height="40" stroke="black" fill="white" stroke-width="1" /><text x="1527.2353515625" y="245.0" dominant-baseline="middle" text-anchor="middle" font-size="18px">X</text><circle cx="1567.2353515625" cy="395.0" r="10.0" /><rect x="1547.2353515625" y="275.0" width="40" height="40" stroke="black" fill="white" stroke-width="1" /><text x="1567.2353515625" y="295.0" dominant-baseline="middle" text-anchor="middle" font-size="18px">X</text><rect x="1617.2353515625" y="125.0" width="42.990234375" height="40" stroke="black" fill="white" stroke-width="1" /><text x="1638.73046875" y="145.0" dominant-baseline="middle" text-anchor="middle" font-size="14px">T^-1</text><rect x="1617.2353515625" y="175.0" width="42.990234375" height="40" stroke="black" fill="white" stroke-width="1" /><text x="1638.73046875" y="195.0" dominant-baseline="middle" text-anchor="middle" font-size="14px">T^-1</text><rect x="1617.2353515625" y="225.0" width="42.990234375" height="40" stroke="black" fill="white" stroke-width="1" /><text x="1638.73046875" y="245.0" dominant-baseline="middle" text-anchor="middle" font-size="14px">T^-1</text><rect x="1617.2353515625" y="275.0" width="42.990234375" height="40" stroke="black" fill="white" stroke-width="1" /><text x="1638.73046875" y="295.0" dominant-baseline="middle" text-anchor="middle" font-size="14px">T^-1</text><circle cx="1700.2255859375" cy="545.0" r="10.0" /><rect x="1680.2255859375" y="225.0" width="40" height="40" stroke="black" fill="white" stroke-width="1" /><text x="1700.2255859375" y="245.0" dominant-baseline="middle" text-anchor="middle" font-size="18px">X</text><rect x="1680.2255859375" y="125.0" width="40" height="40" stroke="black" fill="white" stroke-width="1" /><text x="1700.2255859375" y="145.0" dominant-baseline="middle" text-anchor="middle" font-size="18px">X</text><rect x="1680.2255859375" y="275.0" width="40" height="40" stroke="black" fill="white" stroke-width="1" /><text x="1700.2255859375" y="295.0" dominant-baseline="middle" text-anchor="middle" font-size="18px">X</text><rect x="1680.2255859375" y="175.0" width="40" height="40" stroke="black" fill="white" stroke-width="1" /><text x="1700.2255859375" y="195.0" dominant-baseline="middle" text-anchor="middle" font-size="18px">X</text><rect x="1740.2255859375" y="525.0" width="40" height="40" stroke="black" fill="white" stroke-width="1" /><text x="1760.2255859375" y="545.0" dominant-baseline="middle" text-anchor="middle" font-size="18px">H</text><circle cx="1810.2255859375" cy="245.0" r="10.0" /><rect x="1790.2255859375" y="125.0" width="40" height="40" stroke="black" fill="white" stroke-width="1" /><text x="1810.2255859375" y="145.0" dominant-baseline="middle" text-anchor="middle" font-size="18px">X</text><circle cx="1850.2255859375" cy="295.0" r="10.0" /><rect x="1830.2255859375" y="175.0" width="40" height="40" stroke="black" fill="white" stroke-width="1" /><text x="1850.2255859375" y="195.0" dominant-baseline="middle" text-anchor="middle" font-size="18px">X</text><rect x="1900.2255859375" y="225.0" width="40" height="40" stroke="black" fill="white" stroke-width="1" /><text x="1920.2255859375" y="245.0" dominant-baseline="middle" text-anchor="middle" font-size="18px">H</text><rect x="1900.2255859375" y="275.0" width="40" height="40" stroke="black" fill="white" stroke-width="1" /><text x="1920.2255859375" y="295.0" dominant-baseline="middle" text-anchor="middle" font-size="18px">H</text><rect x="1960.2255859375" y="225.0" width="40" height="40" stroke="black" fill="white" stroke-width="1" /><text x="1980.2255859375" y="245.0" dominant-baseline="middle" text-anchor="middle" font-size="18px">T</text><rect x="1960.2255859375" y="275.0" width="40" height="40" stroke="black" fill="white" stroke-width="1" /><text x="1980.2255859375" y="295.0" dominant-baseline="middle" text-anchor="middle" font-size="18px">T</text><circle cx="2030.2255859375" cy="145.0" r="10.0" /><rect x="2010.2255859375" y="225.0" width="40" height="40" stroke="black" fill="white" stroke-width="1" /><text x="2030.2255859375" y="245.0" dominant-baseline="middle" text-anchor="middle" font-size="18px">X</text><circle cx="2070.2255859375" cy="195.0" r="10.0" /><rect x="2050.2255859375" y="275.0" width="40" height="40" stroke="black" fill="white" stroke-width="1" /><text x="2070.2255859375" y="295.0" dominant-baseline="middle" text-anchor="middle" font-size="18px">X</text><rect x="2120.2255859375" y="225.0" width="42.990234375" height="40" stroke="black" fill="white" stroke-width="1" /><text x="2141.720703125" y="245.0" dominant-baseline="middle" text-anchor="middle" font-size="14px">T^-1</text><rect x="2120.2255859375" y="275.0" width="42.990234375" height="40" stroke="black" fill="white" stroke-width="1" /><text x="2141.720703125" y="295.0" dominant-baseline="middle" text-anchor="middle" font-size="14px">T^-1</text><circle cx="2203.2158203125" cy="95.0" r="10.0" /><rect x="2183.2158203125" y="275.0" width="40" height="40" stroke="black" fill="white" stroke-width="1" /><text x="2203.2158203125" y="295.0" dominant-baseline="middle" text-anchor="middle" font-size="18px">X</text><rect x="2183.2158203125" y="225.0" width="40" height="40" stroke="black" fill="white" stroke-width="1" /><text x="2203.2158203125" y="245.0" dominant-baseline="middle" text-anchor="middle" font-size="18px">X</text><rect x="2243.2158203125" y="225.0" width="40" height="40" stroke="black" fill="white" stroke-width="1" /><text x="2263.2158203125" y="245.0" dominant-baseline="middle" text-anchor="middle" font-size="18px">T</text><rect x="2243.2158203125" y="275.0" width="40" height="40" stroke="black" fill="white" stroke-width="1" /><text x="2263.2158203125" y="295.0" dominant-baseline="middle" text-anchor="middle" font-size="18px">T</text><circle cx="2323.2158203125" cy="195.0" r="10.0" /><rect x="2303.2158203125" y="275.0" width="40" height="40" stroke="black" fill="white" stroke-width="1" /><text x="2323.2158203125" y="295.0" dominant-baseline="middle" text-anchor="middle" font-size="18px">X</text><circle cx="2383.2158203125" cy="145.0" r="10.0" /><rect x="2363.2158203125" y="225.0" width="40" height="40" stroke="black" fill="white" stroke-width="1" /><text x="2383.2158203125" y="245.0" dominant-baseline="middle" text-anchor="middle" font-size="18px">X</text><rect x="2363.2158203125" y="175.0" width="40" height="40" stroke="black" fill="white" stroke-width="1" /><text x="2383.2158203125" y="195.0" dominant-baseline="middle" text-anchor="middle" font-size="18px">X</text><circle cx="2443.2158203125" cy="45.0" r="10.0" /><rect x="2423.2158203125" y="125.0" width="40" height="40" stroke="black" fill="white" stroke-width="1" /><text x="2443.2158203125" y="145.0" dominant-baseline="middle" text-anchor="middle" font-size="18px">X</text><rect x="2483.2158203125" y="225.0" width="42.990234375" height="40" stroke="black" fill="white" stroke-width="1" /><text x="2504.7109375" y="245.0" dominant-baseline="middle" text-anchor="middle" font-size="14px">T^-1</text><rect x="2483.2158203125" y="275.0" width="42.990234375" height="40" stroke="black" fill="white" stroke-width="1" /><text x="2504.7109375" y="295.0" dominant-baseline="middle" text-anchor="middle" font-size="14px">T^-1</text><rect x="2546.2060546875" y="225.0" width="40" height="40" stroke="black" fill="white" stroke-width="1" /><text x="2566.2060546875" y="245.0" dominant-baseline="middle" text-anchor="middle" font-size="18px">H</text><rect x="2546.2060546875" y="275.0" width="40" height="40" stroke="black" fill="white" stroke-width="1" /><text x="2566.2060546875" y="295.0" dominant-baseline="middle" text-anchor="middle" font-size="18px">H</text></svg>