<svg xmlns="http://www.w3.org/2000/svg" width="2796.2060546875" height="590.0"><line x1="37.63720703125" x2="2766.2060546875" y1="45.0" y2="45.0" stroke="#1967d2" stroke-width="1" /><line x1="37.63720703125" x2="2766.2060546875" y1="95.0" y2="95.0" stroke="#1967d2" stroke-width="1" /><line x1="37.63720703125" x2="2766.2060546875" y1="145.0" y2="145.0" stroke="#1967d2" stroke-width="1" /><line x1="37.63720703125" x2="2766.2060546875" y1="195.0" y2="195.0" stroke="#1967d2" stroke-width="1" /><line x1="37.63720703125" x2="2766.2060546875" y1="245.0" y2="245.0" stroke="#1967d2" stroke-width="1" /><line x1="37.63720703125" x2="2766.2060546875" y1="295.0" y2="295.0" stroke="#1967d2" stroke-width="1" /><line x1="37.63720703125" x2="2766.2060546875" y1="345.0" y2="345.0" stroke="#1967d2" stroke-width="1" /><line x1="37.63720703125" x2="2766.2060546875" y1="395.0" y2="395.0" stroke="#1967d2" stroke-width="1" /><line x1="37.63720703125" x2="2766.2060546875" y1="445.0" y2="445.0" stroke="#1967d2" stroke-width="1" /><line x1="37.63720703125" x2="2766.2060546875" y1="495.0" y2="495.0" stroke="#1967d2" stroke-width="1" /><line x1="37.63720703125" x2="2766.2060546875" y1="545.0" y2="545.0" stroke="#1967d2" stroke-width="1" /><line x1="2533.2158203125" x2="2623.2158203125" y1="5.0" y2="5.0" stroke="black" stroke-width="1" /><line x1="2533.2158203125" x2="2623.2158203125" y1="585.0" y2="585.0" stroke="black" stroke-width="1" /><line x1="2313.2158203125" x2="2403.2158203125" y1="5.0" y2="5.0" stroke="black" stroke-width="1" /><line x1="2313.2158203125" x2="2403.2158203125" y1="585.0" y2="585.0" stroke="black" stroke-width="1" /><line x1="2030.2255859375" x2="2120.2255859375" y1="5.0" y2="5.0" stroke="black" stroke-width="1" /><line x1="2030.2255859375" x2="2120.2255859375" y1="585.0" y2="585.0" stroke="black" stroke-width="1" /><line x1="1870.2255859375" x2="1960.2255859375" y1="5.0" y2="5.0" stroke="black" stroke-width="1" /><line x1="1870.2255859375" x2="1960.2255859375" y1="585.0" y2="585.0" stroke="black" stroke-width="1" /><line x1="1507.2353515625" x2="1677.2353515625" y1="5.0" y2="5.0" stroke="black" stroke-width="1" /><line x1="1507.2353515625" x2="1677.2353515625" y1="585.0" y2="585.0" stroke="black" stroke-width="1" /><line x1="1021.2548828125" x2="1191.2548828125" y1="5.0" y2="5.0" stroke="black" stroke-width="1" /><line x1="1021.2548828125" x2="1191.2548828125" y1="585.0" y2="585.0" stroke="black" stroke-width="1" /><line x1="861.2548828125" x2="951.2548828125" y1="5.0" y2="5.0" stroke="black" stroke-width="1" /><line x1="861.2548828125" x2="951.2548828125" y1="585.0" y2="585.0" stroke="black" stroke-width="1" /><line x1="701.2548828125" x2="791.2548828125" y1="5.0" y2="5.0" stroke="black" stroke-width="1" /><line x1="701.2548828125" x2="791.2548828125" y1="585.0" y2="585.0" stroke="black" stroke-width="1" /><line x1="418.2646484375" x2="508.2646484375" y1="5.0" y2="5.0" stroke="black" stroke-width="1" /><line x1="418.2646484375" x2="508.2646484375" y1="585.0" y2="585.0" stroke="black" stroke-width="1" /><line x1="195.2744140625" x2="285.2744140625" y1="5.0" y2="5.0" stroke="black" stroke-width="1" /><line x1="195.2744140625" x2="285.2744140625" y1="585.0" y2="585.0" stroke="black" stroke-width="1" /><line x1="215.2744140625" x2="215.2744140625" y1="45.0" y2="145.0" stroke="black" stroke-width="3" /><line x1="255.2744140625" x2="255.2744140625" y1="95.0" y2="295.0" stroke="black" stroke-width="3" /><line x1="325.2744140625" x2="325.2744140625" y1="145.0" y2="195.0" stroke="black" stroke-width="3" /><line x1="438.2646484375" x2="438.2646484375" y1="145.0" y2="245.0" stroke="black" stroke-width="3" /><line x1="478.2646484375" x2="478.2646484375" y1="195.0" y2="295.0" stroke="black" stroke-width="3" /><line x1="608.2646484375" x2="608.2646484375" y1="95.0" y2="295.0" stroke="black" stroke-width="3" /><line x1="721.2548828125" x2="721.2548828125" y1="145.0" y2="245.0" stroke="black" stroke-width="3" /><line x1="761.2548828125" x2="761.2548828125" y1="195.0" y2="295.0" stroke="black" stroke-width="3" /><line x1="881.2548828125" x2="881.2548828125" y1="145.0" y2="245.0" stroke="black" stroke-width="3" /><line x1="921.2548828125" x2="921.2548828125" y1="195.0" y2="295.0" stroke="black" stroke-width="3" /><line x1="1041.2548828125" x2="1041.2548828125" y1="145.0" y2="445.0" stroke="black" stroke-width="3" /><line x1="1081.2548828125" x2="1081.2548828125" y1="195.0" y2="345.0" stroke="black" stroke-width="3" /><line x1="1121.2548828125" x2="1121.2548828125" y1="245.0" y2="495.0" stroke="black" stroke-width="3" /><line x1="1161.2548828125" x2="1161.2548828125" y1="295.0" y2="395.0" stroke="black" stroke-width="3" /><line x1="1294.2451171875" x2="1294.2451171875" y1="145.0" y2="545.0" stroke="black" stroke-width="3" /><line x1="1477.2353515625" x2="1477.2353515625" y1="345.0" y2="545.0" stroke="black" stroke-width="3" /><line x1="1527.2353515625" x2="1527.2353515625" y1="145.0" y2="445.0" stroke="black" stroke-width="3" /><line x1="1567.2353515625" x2="1567.2353515625" y1="195.0" y2="345.0" stroke="black" stroke-width="3" /><line x1="1607.2353515625" x2="1607.2353515625" y1="245.0" y2="495.0" stroke="black" stroke-width="3" /><line x1="1647.2353515625" x2="1647.2353515625" y1="295.0" y2="395.0" stroke="black" stroke-width="3" /><line x1="1780.2255859375" x2="1780.2255859375" y1="145.0" y2="545.0" stroke="black" stroke-width="3" /><line x1="1890.2255859375" x2="1890.2255859375" y1="145.0" y2="245.0" stroke="black" stroke-width="3" /><line x1="1930.2255859375" x2="1930.2255859375" y1="195.0" y2="295.0" stroke="black" stroke-width="3" /><line x1="2050.2255859375" x2="2050.2255859375" y1="145.0" y2="245.0" stroke="black" stroke-width="3" /><line x1="2090.2255859375" x2="2090.2255859375" y1="195.0" y2="295.0" stroke="black" stroke-width="3" /><line x1="2220.2255859375" x2="2220.2255859375" y1="95.0" y2="295.0" stroke="black" stroke-width="3" /><line x1="2333.2158203125" x2="2333.2158203125" y1="145.0" y2="245.0" stroke="black" stroke-width="3" /><line x1="2373.2158203125" x2="2373.2158203125" y1="195.0" y2="295.0" stroke="black" stroke-width="3" /><line x1="2503.2158203125" x2="2503.2158203125" y1="145.0" y2="195.0" stroke="black" stroke-width="3" /><line x1="2553.2158203125" x2="2553.2158203125" y1="45.0" y2="145.0" stroke="black" stroke-width="3" /><line x1="2593.2158203125" x2="2593.2158203125" y1="95.0" y2="295.0" stroke="black" stroke-width="3" /><line x1="2533.2158203125" x2="2533.2158203125" y1="5.0" y2="15.0" stroke="black" stroke-width="3" /><line x1="2623.2158203125" x2="2623.2158203125" y1="5.0" y2="15.0" stroke="black" stroke-width="3" /><line x1="2533.2158203125" x2="2533.2158203125" y1="575.0" y2="585.0" stroke="black" stroke-width="3" /><line x1="2623.2158203125" x2="2623.2158203125" y1="575.0" y2="585.0" stroke="black" stroke-width="3" /><line x1="2313.2158203125" x2="2313.2158203125" y1="5.0" y2="15.0" stroke="black" stroke-width="3" /><line x1="2403.2158203125" x2="2403.2158203125" y1="5.0" y2="15.0" stroke="black" stroke-width="3" /><line x1="2313.2158203125" x2="2313.2158203125" y1="575.0" y2="585.0" stroke="black" stroke-width="3" /><line x1="2403.2158203125" x2="2403.2158203125" y1="575.0" y2="585.0" stroke="black" stroke-width="3" /><line x1="2030.2255859375" x2="2030.2255859375" y1="5.0" y2="15.0" stroke="black" stroke-width="3" /><line x1="2120.2255859375" x2="2120.2255859375" y1="5.0" y2="15.0" stroke="black" stroke-width="3" /><line x1="2030.2255859375" x2="2030.2255859375" y1="575.0" y2="585.0" stroke="black" stroke-width="3" /><line x1="2120.2255859375" x2="2120.2255859375" y1="575.0" y2="585.0" stroke="black" stroke-width="3" /><line x1="1870.2255859375" x2="1870.2255859375" y1="5.0" y2="15.0" stroke="black" stroke-width="3" /><line x1="1960.2255859375" x2="1960.2255859375" y1="5.0" y2="15.0" stroke="black" stroke-width="3" /><line x1="1870.2255859375" x2="1870.2255859375" y1="575.0" y2="585.0" stroke="black" stroke-width="3" /><line x1="1960.2255859375" x2="1960.2255859375" y1="575.0" y2="585.0" stroke="black" stroke-width="3" /><line x1="1507.2353515625" x2="1507.2353515625" y1="5.0" y2="15.0" stroke="black" stroke-width="3" /><line x1="1677.2353515625" x2="1677.2353515625" y1="5.0" y2="15.0" stroke="black" stroke-width="3" /><line x1="1507.2353515625" x2="1507.2353515625" y1="575.0" y2="585.0" stroke="black" stroke-width="3" /><line x1="1677.2353515625" x2="1677.2353515625" y1="575.0" y2="585.0" stroke="black" stroke-width="3" /><line x1="1021.2548828125" x2="1021.2548828125" y1="5.0" y2="15.0" stroke="black" stroke-width="3" /><line x1="1191.2548828125" x2="1191.2548828125" y1="5.0" y2="15.0" stroke="black" stroke-width="3" /><line x1="1021.2548828125" x2="1021.2548828125" y1="575.0" y2="585.0" stroke="black" stroke-width="3" /><line x1="1191.2548828125" x2="1191.2548828125" y1="575.0" y2="585.0" stroke="black" stroke-width="3" /><line x1="861.2548828125" x2="861.2548828125" y1="5.0" y2="15.0" stroke="black" stroke-width="3" /><line x1="951.2548828125" x2="951.2548828125" y1="5.0" y2="15.0" stroke="black" stroke-width="3" /><line x1="861.2548828125" x2="861.2548828125" y1="575.0" y2="585.0" stroke="black" stroke-width="3" /><line x1="951.2548828125" x2="951.2548828125" y1="575.0" y2="585.0" stroke="black" stroke-width="3" /><line x1="701.2548828125" x2="701.2548828125" y1="5.0" y2="15.0" stroke="black" stroke-width="3" /><line x1="791.2548828125" x2="791.2548828125" y1="5.0" y2="15.0" stroke="black" stroke-width="3" /><line x1="701.2548828125" x2="701.2548828125" y1="575.0" y2="585.0" stroke="black" stroke-width="3" /><line x1="791.2548828125" x2="791.2548828125" y1="575.0" y2="585.0" stroke="black" stroke-width="3" /><line x1="418.2646484375" x2="418.2646484375" y1="5.0" y2="15.0" stroke="black" stroke-width="3" /><line x1="508.2646484375" x2="508.2646484375" y1="5.0" y2="15.0" stroke="black" stroke-width="3" /><line x1="418.2646484375" x2="418.2646484375" y1="575.0" y2="585.0" stroke="black" stroke-width="3" /><line x1="508.2646484375" x2="508.2646484375" y1="575.0" y2="585.0" stroke="black" stroke-width="3" /><line x1="195.2744140625" x2="195.2744140625" y1="5.0" y2="15.0" stroke="black" stroke-width="3" /><line x1="285.2744140625" x2="285.2744140625" y1="5.0" y2="15.0" stroke="black" stroke-width="3" /><line x1="195.2744140625" x2="195.2744140625" y1="575.0" y2="585.0" stroke="black" stroke-width="3" /><line x1="285.2744140625" x2="285.2744140625" y1="575.0" y2="585.0" stroke="black" stroke-width="3" /><rect x="10.0" y="25.0" width="55.2744140625" height="40" stroke="black" fill="white" stroke-width="0" /><text x="37.63720703125" y="45.0" dominant-baseline="middle" text-anchor="middle" font-size="14px">a0: </text><rect x="10.0" y="75.0" width="55.2744140625" height="40" stroke="black" fill="white" stroke-width="0" /><text x="37.63720703125" y="95.0" dominant-baseline="middle" text-anchor="middle" font-size="14px">a1: </text><rect x="10.0" y="125.0" width="55.2744140625" height="40" stroke="black" fill="white" stroke-width="0" /><text x="37.63720703125" y="145.0" dominant-baseline="middle" text-anchor="middle" font-size="14px">b_00: </text><rect x="10.0" y="175.0" width="55.2744140625" height="40" stroke="black" fill="white" stroke-width="0" /><text x="37.63720703125" y="195.0" dominant-baseline="middle" text-anchor="middle" font-size="14px">b_01: </text><rect x="10.0" y="225.0" width="55.2744140625" height="40" stroke="black" fill="white" stroke-width="0" /><text x="37.63720703125" y="245.0" dominant-baseline="middle" text-anchor="middle" font-size="14px">b_10: </text><rect x="10.0" y="275.0" width="55.2744140625" height="40" stroke="black" fill="white" stroke-width="0" /><text x="37.63720703125" y="295.0" dominant-baseline="middle" text-anchor="middle" font-size="14px">b_11: </text><rect x="10.0" y="325.0" width="55.2744140625" height="40" stroke="black" fill="white" stroke-width="0" /><text x="37.63720703125" y="345.0" dominant-baseline="middle" text-anchor="middle" font-size="14px">m00: </text><rect x="10.0" y="375.0" width="55.2744140625" height="40" stroke="black" fill="white" stroke-width="0" /><text x="37.63720703125" y="395.0" dominant-baseline="middle" text-anchor="middle" font-size="14px">m01: </text><rect x="10.0" y="425.0" width="55.2744140625" height="40" stroke="black" fill="white" stroke-width="0" /><text x="37.63720703125" y="445.0" dominant-baseline="middle" text-anchor="middle" font-size="14px">m10: </text><rect x="10.0" y="475.0" width="55.2744140625" height="40" stroke="black" fill="white" stroke-width="0" /><text x="37.63720703125" y="495.0" dominant-baseline="middle" text-anchor="middle" font-size="14px">m11: </text><rect x="10.0" y="525.0" width="55.2744140625" height="40" stroke="black" fill="white" stroke-width="0" /><text x="37.63720703125" y="545.0" dominant-baseline="middle" text-anchor="middle" font-size="14px">target: </text><rect x="85.2744140625" y="225.0" width="40" height="40" stroke="black" fill="white" stroke-width="1" /><text x="105.2744140625" y="245.0" dominant-baseline="middle" text-anchor="middle" font-size="18px">H</text><rect x="85.2744140625" y="275.0" width="40" height="40" stroke="black" fill="white" stroke-width="1" /><text x="105.2744140625" y="295.0" dominant-baseline="middle" text-anchor="middle" font-size="18px">H</text><rect x="85.2744140625" y="525.0" width="40" height="40" stroke="black" fill="white" stroke-width="1" /><text x="105.2744140625" y="545.0" dominant-baseline="middle" text-anchor="middle" font-size="18px">H</text><rect x="145.2744140625" y="225.0" width="40" height="40" stroke="black" fill="white" stroke-width="1" /><text x="165.2744140625" y="245.0" dominant-baseline="middle" text-anchor="middle" font-size="18px">T</text><rect x="145.2744140625" y="275.0" width="40" height="40" stroke="black" fill="white" stroke-width="1" /><text x="165.2744140625" y="295.0" dominant-baseline="middle" text-anchor="middle" font-size="18px">T</text><rect x="145.2744140625" y="325.0" width="40" height="40" stroke="black" fill="white" stroke-width="1" /><text x="165.2744140625" y="345.0" dominant-baseline="middle" text-anchor="middle" font-size="18px">T</text><rect x="145.2744140625" y="375.0" width="40" height="40" stroke="black" fill="white" stroke-width="1" /><text x="165.2744140625" y="395.0" dominant-baseline="middle" text-anchor="middle" font-size="18px">T</text><rect x="145.2744140625" y="425.0" width="40" height="40" stroke="black" fill="white" stroke-width="1" /><text x="165.2744140625" y="445.0" dominant-baseline="middle" text-anchor="middle" font-size="18px">T</text><rect x="145.2744140625" y="475.0" width="40" height="40" stroke="black" fill="white" stroke-width="1" /><text x="165.2744140625" y="495.0" dominant-baseline="middle" text-anchor="middle" font-size="18px">T</text><circle cx="215.2744140625" cy="45.0" r="10.0" /><rect x="195.2744140625" y="125.0" width="40" height="40" stroke="black" fill="white" stroke-width="1" /><text x="215.2744140625" y="145.0" dominant-baseline="middle" text-anchor="middle" font-size="18px">X</text><circle cx="255.2744140625" cy="95.0" r="10.0" /><rect x="235.2744140625" y="275.0" width="40" height="40" stroke="black" fill="white" stroke-width="1" /><text x="255.2744140625" y="295.0" dominant-baseline="middle" text-anchor="middle" font-size="18px">X</text><rect x="235.2744140625" y="225.0" width="40" height="40" stroke="black" fill="white" stroke-width="1" /><text x="255.2744140625" y="245.0" dominant-baseline="middle" text-anchor="middle" font-size="18px">X</text><rect x="195.2744140625" y="525.0" width="40" height="40" stroke="black" fill="white" stroke-width="1" /><text x="215.2744140625" y="545.0" dominant-baseline="middle" text-anchor="middle" font-size="18px">Z</text><circle cx="325.2744140625" cy="145.0" r="10.0" /><rect x="305.2744140625" y="175.0" width="40" height="40" stroke="black" fill="white" stroke-width="1" /><text x="325.2744140625" y="195.0" dominant-baseline="middle" text-anchor="middle" font-size="18px">X</text><rect x="365.2744140625" y="225.0" width="42.990234375" height="40" stroke="black" fill="white" stroke-width="1" /><text x="386.76953125" y="245.0" dominant-baseline="middle" text-anchor="middle" font-size="14px">T^-1</text><rect x="365.2744140625" y="275.0" width="42.990234375" height="40" stroke="black" fill="white" stroke-width="1" /><text x="386.76953125" y="295.0" dominant-baseline="middle" text-anchor="middle" font-size="14px">T^-1</text><circle cx="438.2646484375" cy="145.0" r="10.0" /><rect x="418.2646484375" y="225.0" width="40" height="40" stroke="black" fill="white" stroke-width="1" /><text x="438.2646484375" y="245.0" dominant-baseline="middle" text-anchor="middle" font-size="18px">X</text><circle cx="478.2646484375" cy="195.0" r="10.0" /><rect x="458.2646484375" y="275.0" width="40" height="40" stroke="black" fill="white" stroke-width="1" /><text x="478.2646484375" y="295.0" dominant-baseline="middle" text-anchor="middle" font-size="18px">X</text><rect x="528.2646484375" y="225.0" width="40" height="40" stroke="black" fill="white" stroke-width="1" /><text x="548.2646484375" y="245.0" dominant-baseline="middle" text-anchor="middle" font-size="18px">T</text><rect x="528.2646484375" y="275.0" width="40" height="40" stroke="black" fill="white" stroke-width="1" /><text x="548.2646484375" y="295.0" dominant-baseline="middle" text-anchor="middle" font-size="18px">T</text><circle cx="608.2646484375" cy="95.0" r="10.0" /><rect x="588.2646484375" y="275.0" width="40" height="40" stroke="black" fill="white" stroke-width="1" /><text x="608.2646484375" y="295.0" dominant-baseline="middle" text-anchor="middle" font-size="18px">X</text><rect x="588.2646484375" y="225.0" width="40" height="40" stroke="black" fill="white" stroke-width="1" /><text x="608.2646484375" y="245.0" dominant-baseline="middle" text-anchor="middle" font-size="18px">X</text><rect x="648.2646484375" y="225.0" width="42.990234375" height="40" stroke="black" fill="white" stroke-width="1" /><text x="669.759765625" y="245.0" dominant-baseline="middle" text-anchor="middle" font-size="14px">T^-1</text><rect x="648.2646484375" y="275.0" width="42.990234375" height="40" stroke="black" fill="white" stroke-width="1" /><text x="669.759765625" y="295.0" dominant-baseline="middle" text-anchor="middle" font-size="14px">T^-1</text><circle cx="721.2548828125" cy="145.0" r="10.0" /><rect x="701.2548828125" y="225.0" width="40" height="40" stroke="black" fill="white" stroke-width="1" /><text x="721.2548828125" y="245.0" dominant-baseline="middle" text-anchor="middle" font-size="18px">X</text><circle cx="761.2548828125" cy="195.0" r="10.0" /><rect x="741.2548828125" y="275.0" width="40" height="40" stroke="black" fill="white" stroke-width="1" /><text x="761.2548828125" y="295.0" dominant-baseline="middle" text-anchor="middle" font-size="18px">X</text><rect x="811.2548828125" y="225.0" width="40" height="40" stroke="black" fill="white" stroke-width="1" /><text x="831.2548828125" y="245.0" dominant-baseline="middle" text-anchor="middle" font-size="18px">H</text><rect x="811.2548828125" y="275.0" width="40" height="40" stroke="black" fill="white" stroke-width="1" /><text x="831.2548828125" y="295.0" dominant-baseline="middle" text-anchor="middle" font-size="18px">H</text><circle cx="881.2548828125" cy="245.0" r="10.0" /><rect x="861.2548828125" y="125.0" width="40" height="40" stroke="black" fill="white" stroke-width="1" /><text x="881.2548828125" y="145.0" dominant-baseline="middle" text-anchor="middle" font-size="18px">X</text><circle cx="921.2548828125" cy="295.0" r="10.0" /><rect x="901.2548828125" y="175.0" width="40" height="40" stroke="black" fill="white" stroke-width="1" /><text x="921.2548828125" y="195.0" dominant-baseline="middle" text-anchor="middle" font-size="18px">X</text><rect x="971.2548828125" y="125.0" width="40" height="40" stroke="black" fill="white" stroke-width="1" /><text x="991.2548828125" y="145.0" dominant-baseline="middle" text-anchor="middle" font-size="18px">T</text><rect x="971.2548828125" y="175.0" width="40" height="40" stroke="black" fill="white" stroke-width="1" /><text x="991.2548828125" y="195.0" dominant-baseline="middle" text-anchor="middle" font-size="18px">T</text><rect x="971.2548828125" y="225.0" width="40" height="40" stroke="black" fill="white" stroke-width="1" /><text x="991.2548828125" y="245.0" dominant-baseline="middle" text-anchor="middle" font-size="18px">T</text><rect x="971.2548828125" y="275.0" width="40" height="40" stroke="black" fill="white" stroke-width="1" /><text x="991.2548828125" y="295.0" dominant-baseline="middle" text-anchor="middle" font-size="18px">T</text><circle cx="1041.2548828125" cy="445.0" r="10.0" /><rect x="1021.2548828125" y="125.0" width="40" height="40" stroke="black" fill="white" stroke-width="1" /><text x="1041.2548828125" y="145.0" dominant-baseline="middle" text-anchor="middle" font-size="18px">X</text><circle cx="1081.2548828125" cy="345.0" r="10.0" /><rect x="1061.2548828125" y="175.0" width="40" height="40" stroke="black" fill="white" stroke-width="1" /><text x="1081.2548828125" y="195.0" dominant-baseline="middle" text-anchor="middle" font-size="18px">X</text><circle cx="1121.2548828125" cy="495.0" r="10.0" /><rect x="1101.2548828125" y="225.0" width="40" height="40" stroke="black" fill="white" stroke-width="1" /><text x="1121.2548828125" y="245.0" dominant-baseline="middle" text-anchor="middle" font-size="18px">X</text><circle cx="1161.2548828125" cy="395.0" r="10.0" /><rect x="1141.2548828125" y="275.0" width="40" height="40" stroke="black" fill="white" stroke-width="1" /><text x="1161.2548828125" y="295.0" dominant-baseline="middle" text-anchor="middle" font-size="18px">X</text><rect x="1211.2548828125" y="125.0" width="42.990234375" height="40" stroke="black" fill="white" stroke-width="1" /><text x="1232.75" y="145.0" dominant-baseline="middle" text-anchor="middle" font-size="14px">T^-1</text><rect x="1211.2548828125" y="175.0" width="42.990234375" height="40" stroke="black" fill="white" stroke-width="1" /><text x="1232.75" y="195.0" dominant-baseline="middle" text-anchor="middle" font-size="14px">T^-1</text><rect x="1211.2548828125" y="225.0" width="42.990234375" height="40" stroke="black" fill="white" stroke-width="1" /><text x="1232.75" y="245.0" dominant-baseline="middle" text-anchor="middle" font-size="14px">T^-1</text><rect x="1211.2548828125" y="275.0" width="42.990234375" height="40" stroke="black" fill="white" stroke-width="1" /><text x="1232.75" y="295.0" dominant-baseline="middle" text-anchor="middle" font-size="14px">T^-1</text><circle cx="1294.2451171875" cy="545.0" r="10.0" /><rect x="1274.2451171875" y="475.0" width="40" height="40" stroke="black" fill="white" stroke-width="1" /><text x="1294.2451171875" y="495.0" dominant-baseline="middle" text-anchor="middle" font-size="18px">X</text><rect x="1274.2451171875" y="225.0" width="40" height="40" stroke="black" fill="white" stroke-width="1" /><text x="1294.2451171875" y="245.0" dominant-baseline="middle" text-anchor="middle" font-size="18px">X</text><rect x="1274.2451171875" y="425.0" width="40" height="40" stroke="black" fill="white" stroke-width="1" /><text x="1294.2451171875" y="445.0" dominant-baseline="middle" text-anchor="middle" font-size="18px">X</text><rect x="1274.2451171875" y="125.0" width="40" height="40" stroke="black" fill="white" stroke-width="1" /><text x="1294.2451171875" y="145.0" dominant-baseline="middle" text-anchor="middle" font-size="18px">X</text><rect x="1274.2451171875" y="375.0" width="40" height="40" stroke="black" fill="white" stroke-width="1" /><text x="1294.2451171875" y="395.0" dominant-baseline="middle" text-anchor="middle" font-size="18px">X</text><rect x="1274.2451171875" y="275.0" width="40" height="40" stroke="black" fill="white" stroke-width="1" /><text x="1294.2451171875" y="295.0" dominant-baseline="middle" text-anchor="middle" font-size="18px">X</text><rect x="1274.2451171875" y="325.0" width="40" height="40" stroke="black" fill="white" stroke-width="1" /><text x="1294.2451171875" y="345.0" dominant-baseline="middle" text-anchor="middle" font-size="18px">X</text><rect x="1274.2451171875" y="175.0" width="40" height="40" stroke="black" fill="white" stroke-width="1" /><text x="1294.2451171875" y="195.0" dominant-baseline="middle" text-anchor="middle" font-size="18px">X</text><rect x="1334.2451171875" y="125.0" width="40" height="40" stroke="black" fill="white" stroke-width="1" /><text x="1354.2451171875" y="145.0" dominant-baseline="middle" text-anchor="middle" font-size="18px">T</text><rect x="1334.2451171875" y="175.0" width="40" height="40" stroke="black" fill="white" stroke-width="1" /><text x="1354.2451171875" y="195.0" dominant-baseline="middle" text-anchor="middle" font-size="18px">T</text><rect x="1334.2451171875" y="225.0" width="40" height="40" stroke="black" fill="white" stroke-width="1" /><text x="1354.2451171875" y="245.0" dominant-baseline="middle" text-anchor="middle" font-size="18px">T</text><rect x="1334.2451171875" y="275.0" width="40" height="40" stroke="black" fill="white" stroke-width="1" /><text x="1354.2451171875" y="295.0" dominant-baseline="middle" text-anchor="middle" font-size="18px">T</text><rect x="1394.2451171875" y="325.0" width="42.990234375" height="40" stroke="black" fill="white" stroke-width="1" /><text x="1415.740234375" y="345.0" dominant-baseline="middle" text-anchor="middle" font-size="14px">T^-1</text><rect x="1394.2451171875" y="375.0" width="42.990234375" height="40" stroke="black" fill="white" stroke-width="1" /><text x="1415.740234375" y="395.0" dominant-baseline="middle" text-anchor="middle" font-size="14px">T^-1</text><rect x="1394.2451171875" y="425.0" width="42.990234375" height="40" stroke="black" fill="white" stroke-width="1" /><text x="1415.740234375" y="445.0" dominant-baseline="middle" text-anchor="middle" font-size="14px">T^-1</text><rect x="1394.2451171875" y="475.0" width="42.990234375" height="40" stroke="black" fill="white" stroke-width="1" /><text x="1415.740234375" y="495.0" dominant-baseline="middle" text-anchor="middle" font-size="14px">T^-1</text><circle cx="1477.2353515625" cy="545.0" r="10.0" /><rect x="1457.2353515625" y="475.0" width="40" height="40" stroke="black" fill="white" stroke-width="1" /><text x="1477.2353515625" y="495.0" dominant-baseline="middle" text-anchor="middle" font-size="18px">X</text><rect x="1457.2353515625" y="425.0" width="40" height="40" stroke="black" fill="white" stroke-width="1" /><text x="1477.2353515625" y="445.0" dominant-baseline="middle" text-anchor="middle" font-size="18px">X</text><rect x="1457.2353515625" y="375.0" width="40" height="40" stroke="black" fill="white" stroke-width="1" /><text x="1477.2353515625" y="395.0" dominant-baseline="middle" text-anchor="middle" font-size="18px">X</text><rect x="1457.2353515625" y="325.0" width="40" height="40" stroke="black" fill="white" stroke-width="1" /><text x="1477.2353515625" y="345.0" dominant-baseline="middle" text-anchor="middle" font-size="18px">X</text><circle cx="1527.2353515625" cy="445.0" r="10.0" /><rect x="1507.2353515625" y="125.0" width="40" height="40" stroke="black" fill="white" stroke-width="1" /><text x="1527.2353515625" y="145.0" dominant-baseline="middle" text-anchor="middle" font-size="18px">X</text><circle cx="1567.2353515625" cy="345.0" r="10.0" /><rect x="1547.2353515625" y="175.0" width="40" height="40" stroke="black" fill="white" stroke-width="1" /><text x="1567.2353515625" y="195.0" dominant-baseline="middle" text-anchor="middle" font-size="18px">X</text><circle cx="1607.2353515625" cy="495.0" r="10.0" /><rect x="1587.2353515625" y="225.0" width="40" height="40" stroke="black" fill="white" stroke-width="1" /><text x="1607.2353515625" y="245.0" dominant-baseline="middle" text-anchor="middle" font-size="18px">X</text><circle cx="1647.2353515625" cy="395.0" r="10.0" /><rect x="1627.2353515625" y="275.0" width="40" height="40" stroke="black" fill="white" stroke-width="1" /><text x="1647.2353515625" y="295.0" dominant-baseline="middle" text-anchor="middle" font-size="18px">X</text><rect x="1697.2353515625" y="125.0" width="42.990234375" height="40" stroke="black" fill="white" stroke-width="1" /><text x="1718.73046875" y="145.0" dominant-baseline="middle" text-anchor="middle" font-size="14px">T^-1</text><rect x="1697.2353515625" y="175.0" width="42.990234375" height="40" stroke="black" fill="white" stroke-width="1" /><text x="1718.73046875" y="195.0" dominant-baseline="middle" text-anchor="middle" font-size="14px">T^-1</text><rect x="1697.2353515625" y="225.0" width="42.990234375" height="40" stroke="black" fill="white" stroke-width="1" /><text x="1718.73046875" y="245.0" dominant-baseline="middle" text-anchor="middle" font-size="14px">T^-1</text><rect x="1697.2353515625" y="275.0" width="42.990234375" height="40" stroke="black" fill="white" stroke-width="1" /><text x="1718.73046875" y="295.0" dominant-baseline="middle" text-anchor="middle" font-size="14px">T^-1</text><circle cx="1780.2255859375" cy="545.0" r="10.0" /><rect x="1760.2255859375" y="225.0" width="40" height="40" stroke="black" fill="white" stroke-width="1" /><text x="1780.2255859375" y="245.0" dominant-baseline="middle" text-anchor="middle" font-size="18px">X</text><rect x="1760.2255859375" y="125.0" width="40" height="40" stroke="black" fill="white" stroke-width="1" /><text x="1780.2255859375" y="145.0" dominant-baseline="middle" text-anchor="middle" font-size="18px">X</text><rect x="1760.2255859375" y="275.0" width="40" height="40" stroke="black" fill="white" stroke-width="1" /><text x="1780.2255859375" y="295.0" dominant-baseline="middle" text-anchor="middle" font-size="18px">X</text><rect x="1760.2255859375" y="175.0" width="40" height="40" stroke="black" fill="white" stroke-width="1" /><text x="1780.2255859375" y="195.0" dominant-baseline="middle" text-anchor="middle" font-size="18px">X</text><rect x="1820.2255859375" y="525.0" width="40" height="40" stroke="black" fill="white" stroke-width="1" /><text x="1840.2255859375" y="545.0" dominant-baseline="middle" text-anchor="middle" font-size="18px">H</text><circle cx="1890.2255859375" cy="245.0" r="10.0" /><rect x="1870.2255859375" y="125.0" width="40" height="40" stroke="black" fill="white" stroke-width="1" /><text x="1890.2255859375" y="145.0" dominant-baseline="middle" text-anchor="middle" font-size="18px">X</text><circle cx="1930.2255859375" cy="295.0" r="10.0" /><rect x="1910.2255859375" y="175.0" width="40" height="40" stroke="black" fill="white" stroke-width="1" /><text x="1930.2255859375" y="195.0" dominant-baseline="middle" text-anchor="middle" font-size="18px">X</text><rect x="1980.2255859375" y="225.0" width="40" height="40" stroke="black" fill="white" stroke-width="1" /><text x="2000.2255859375" y="245.0" dominant-baseline="middle" text-anchor="middle" font-size="18px">H</text><rect x="1980.2255859375" y="275.0" width="40" height="40" stroke="black" fill="white" stroke-width="1" /><text x="2000.2255859375" y="295.0" dominant-baseline="middle" text-anchor="middle" font-size="18px">H</text><circle cx="2050.2255859375" cy="145.0" r="10.0" /><rect x="2030.2255859375" y="225.0" width="40" height="40" stroke="black" fill="white" stroke-width="1" /><text x="2050.2255859375" y="245.0" dominant-baseline="middle" text-anchor="middle" font-size="18px">X</text><circle cx="2090.2255859375" cy="195.0" r="10.0" /><rect x="2070.2255859375" y="275.0" width="40" height="40" stroke="black" fill="white" stroke-width="1" /><text x="2090.2255859375" y="295.0" dominant-baseline="middle" text-anchor="middle" font-size="18px">X</text><rect x="2140.2255859375" y="225.0" width="40" height="40" stroke="black" fill="white" stroke-width="1" /><text x="2160.2255859375" y="245.0" dominant-baseline="middle" text-anchor="middle" font-size="18px">T</text><rect x="2140.2255859375" y="275.0" width="40" height="40" stroke="black" fill="white" stroke-width="1" /><text x="2160.2255859375" y="295.0" dominant-baseline="middle" text-anchor="middle" font-size="18px">T</text><circle cx="2220.2255859375" cy="95.0" r="10.0" /><rect x="2200.2255859375" y="275.0" width="40" height="40" stroke="black" fill="white" stroke-width="1" /><text x="2220.2255859375" y="295.0" dominant-baseline="middle" text-anchor="middle" font-size="18px">X</text><rect x="2200.2255859375" y="225.0" width="40" height="40" stroke="black" fill="white" stroke-width="1" /><text x="2220.2255859375" y="245.0" dominant-baseline="middle" text-anchor="middle" font-size="18px">X</text><rect x="2260.2255859375" y="225.0" width="42.990234375" height="40" stroke="black" fill="white" stroke-width="1" /><text x="2281.720703125" y="245.0" dominant-baseline="middle" text-anchor="middle" font-size="14px">T^-1</text><rect x="2260.2255859375" y="275.0" width="42.990234375" height="40" stroke="black" fill="white" stroke-width="1" /><text x="2281.720703125" y="295.0" dominant-baseline="middle" text-anchor="middle" font-size="14px">T^-1</text><circle cx="2333.2158203125" cy="145.0" r="10.0" /><rect x="2313.2158203125" y="225.0" width="40" height="40" stroke="black" fill="white" stroke-width="1" /><text x="2333.2158203125" y="245.0" dominant-baseline="middle" text-anchor="middle" font-size="18px">X</text><circle cx="2373.2158203125" cy="195.0" r="10.0" /><rect x="2353.2158203125" y="275.0" width="40" height="40" stroke="black" fill="white" stroke-width="1" /><text x="2373.2158203125" y="295.0" dominant-baseline="middle" text-anchor="middle" font-size="18px">X</text><rect x="2423.2158203125" y="225.0" width="40" height="40" stroke="black" fill="white" stroke-width="1" /><text x="2443.2158203125" y="245.0" dominant-baseline="middle" text-anchor="middle" font-size="18px">T</text><rect x="2423.2158203125" y="275.0" width="40" height="40" stroke="black" fill="white" stroke-width="1" /><text x="2443.2158203125" y="295.0" dominant-baseline="middle" text-anchor="middle" font-size="18px">T</text><circle cx="2503.2158203125" cy="145.0" r="10.0" /><rect x="2483.2158203125" y="175.0" width="40" height="40" stroke="black" fill="white" stroke-width="1" /><text x="2503.2158203125" y="195.0" dominant-baseline="middle" text-anchor="middle" font-size="18px">X</text><circle cx="2553.2158203125" cy="45.0" r="10.0" /><rect x="2533.2158203125" y="125.0" width="40" height="40" stroke="black" fill="white" stroke-width="1" /><text x="2553.2158203125" y="145.0" dominant-baseline="middle" text-anchor="middle" font-size="18px">X</text><circle cx="2593.2158203125" cy="95.0" r="10.0" /><rect x="2573.2158203125" y="275.0" width="40" height="40" stroke="black" fill="white" stroke-width="1" /><text x="2593.2158203125" y="295.0" dominant-baseline="middle" text-anchor="middle" font-size="18px">X</text><rect x="2573.2158203125" y="225.0" width="40" height="40" stroke="black" fill="white" stroke-width="1" /><text x="2593.2158203125" y="245.0" dominant-baseline="middle" text-anchor="middle" font-size="18px">X</text><rect x="2643.2158203125" y="225.0" width="42.990234375" height="40" stroke="black" fill="white" stroke-width="1" /><text x="2664.7109375" y="245.0" dominant-baseline="middle" text-anchor="middle" font-size="14px">T^-1</text><rect x="2643.2158203125" y="275.0" width="42.990234375" height="40" stroke="black" fill="white" stroke-width="1" /><text x="2664.7109375" y="295.0" dominant-baseline="middle" text-anchor="middle" font-size="14px">T^-1</text><rect x="2706.2060546875" y="225.0" width="40" height="40" stroke="black" fill="white" stroke-width="1" /><text x="2726.2060546875" y="245.0" dominant-baseline="middle" text-anchor="middle" font-size="18px">H</text><rect x="2706.2060546875" y="275.0" width="40" height="40" stroke="black" fill="white" stroke-width="1" /><text x="2726.2060546875" y="295.0" dominant-baseline="middle" text-anchor="middle" font-size="18px">H</text></svg>