<svg xmlns="http://www.w3.org/2000/svg" width="2330.2255859375" height="590.0"><line x1="37.63720703125" x2="2300.2255859375" y1="45.0" y2="45.0" stroke="#1967d2" stroke-width="1" /><line x1="37.63720703125" x2="2300.2255859375" y1="95.0" y2="95.0" stroke="#1967d2" stroke-width="1" /><line x1="37.63720703125" x2="2300.2255859375" y1="145.0" y2="145.0" stroke="#1967d2" stroke-width="1" /><line x1="37.63720703125" x2="2300.2255859375" y1="195.0" y2="195.0" stroke="#1967d2" stroke-width="1" /><line x1="37.63720703125" x2="2300.2255859375" y1="245.0" y2="245.0" stroke="#1967d2" stroke-width="1" /><line x1="37.63720703125" x2="2300.2255859375" y1="295.0" y2="295.0" stroke="#1967d2" stroke-width="1" /><line x1="37.63720703125" x2="2300.2255859375" y1="345.0" y2="345.0" stroke="#1967d2" stroke-width="1" /><line x1="37.63720703125" x2="2300.2255859375" y1="395.0" y2="395.0" stroke="#1967d2" stroke-width="1" /><line x1="37.63720703125" x2="2300.2255859375" y1="445.0" y2="445.0" stroke="#1967d2" stroke-width="1" /><line x1="37.63720703125" x2="2300.2255859375" y1="495.0" y2="495.0" stroke="#1967d2" stroke-width="1" /><line x1="37.63720703125" x2="2300.2255859375" y1="545.0" y2="545.0" stroke="#1967d2" stroke-width="1" /><line x1="1890.2255859375" x2="1980.2255859375" y1="5.0" y2="5.0" stroke="black" stroke-width="1" /><line x1="1890.2255859375" x2="1980.2255859375" y1="585.0" y2="585.0" stroke="black" stroke-width="1" /><line x1="1527.2353515625" x2="1697.2353515625" y1="5.0" y2="5.0" stroke="black" stroke-width="1" /><line x1="1527.2353515625" x2="1697.2353515625" y1="585.0" y2="585.0" stroke="black" stroke-width="1" /><line x1="1041.2548828125" x2="1211.2548828125" y1="5.0" y2="5.0" stroke="black" stroke-width="1" /><line x1="1041.2548828125" x2="1211.2548828125" y1="585.0" y2="585.0" stroke="black" stroke-width="1" /><line x1="821.2548828125" x2="911.2548828125" y1="5.0" y2="5.0" stroke="black" stroke-width="1" /><line x1="821.2548828125" x2="911.2548828125" y1="585.0" y2="585.0" stroke="black" stroke-width="1" /><line x1="661.2548828125" x2="751.2548828125" y1="5.0" y2="5.0" stroke="black" stroke-width="1" /><line x1="661.2548828125" x2="751.2548828125" y1="585.0" y2="585.0" stroke="black" stroke-width="1" /><line x1="378.2646484375" x2="468.2646484375" y1="5.0" y2="5.0" stroke="black" stroke-width="1" /><line x1="378.2646484375" x2="468.2646484375" y1="585.0" y2="585.0" stroke="black" stroke-width="1" /><line x1="105.2744140625" x2="105.2744140625" y1="45.0" y2="145.0" stroke="black" stroke-width="3" /><line x1="165.2744140625" x2="165.2744140625" y1="145.0" y2="195.0" stroke="black" stroke-width="3" /><line x1="285.2744140625" x2="285.2744140625" y1="95.0" y2="295.0" stroke="black" stroke-width="3" /><line x1="398.2646484375" x2="398.2646484375" y1="145.0" y2="245.0" stroke="black" stroke-width="3" /><line x1="438.2646484375" x2="438.2646484375" y1="195.0" y2="295.0" stroke="black" stroke-width="3" /><line x1="568.2646484375" x2="568.2646484375" y1="95.0" y2="295.0" stroke="black" stroke-width="3" /><line x1="681.2548828125" x2="681.2548828125" y1="145.0" y2="245.0" stroke="black" stroke-width="3" /><line x1="721.2548828125" x2="721.2548828125" y1="195.0" y2="295.0" stroke="black" stroke-width="3" /><line x1="841.2548828125" x2="841.2548828125" y1="145.0" y2="245.0" stroke="black" stroke-width="3" /><line x1="881.2548828125" x2="881.2548828125" y1="195.0" y2="295.0" stroke="black" stroke-width="3" /><line x1="1061.2548828125" x2="1061.2548828125" y1="195.0" y2="345.0" stroke="black" stroke-width="3" /><line x1="1101.2548828125" x2="1101.2548828125" y1="295.0" y2="395.0" stroke="black" stroke-width="3" /><line x1="1141.2548828125" x2="1141.2548828125" y1="145.0" y2="445.0" stroke="black" stroke-width="3" /><line x1="1181.2548828125" x2="1181.2548828125" y1="245.0" y2="495.0" stroke="black" stroke-width="3" /><line x1="1374.2451171875" x2="1374.2451171875" y1="145.0" y2="545.0" stroke="black" stroke-width="3" /><line x1="1497.2353515625" x2="1497.2353515625" y1="345.0" y2="545.0" stroke="black" stroke-width="3" /><line x1="1547.2353515625" x2="1547.2353515625" y1="195.0" y2="345.0" stroke="black" stroke-width="3" /><line x1="1587.2353515625" x2="1587.2353515625" y1="295.0" y2="395.0" stroke="black" stroke-width="3" /><line x1="1627.2353515625" x2="1627.2353515625" y1="145.0" y2="445.0" stroke="black" stroke-width="3" /><line x1="1667.2353515625" x2="1667.2353515625" y1="245.0" y2="495.0" stroke="black" stroke-width="3" /><line x1="1800.2255859375" x2="1800.2255859375" y1="145.0" y2="545.0" stroke="black" stroke-width="3" /><line x1="1910.2255859375" x2="1910.2255859375" y1="145.0" y2="245.0" stroke="black" stroke-width="3" /><line x1="1950.2255859375" x2="1950.2255859375" y1="195.0" y2="295.0" stroke="black" stroke-width="3" /><line x1="2080.2255859375" x2="2080.2255859375" y1="95.0" y2="195.0" stroke="black" stroke-width="3" /><line x1="2200.2255859375" x2="2200.2255859375" y1="145.0" y2="195.0" stroke="black" stroke-width="3" /><line x1="2260.2255859375" x2="2260.2255859375" y1="45.0" y2="145.0" stroke="black" stroke-width="3" /><line x1="1890.2255859375" x2="1890.2255859375" y1="5.0" y2="15.0" stroke="black" stroke-width="3" /><line x1="1980.2255859375" x2="1980.2255859375" y1="5.0" y2="15.0" stroke="black" stroke-width="3" /><line x1="1890.2255859375" x2="1890.2255859375" y1="575.0" y2="585.0" stroke="black" stroke-width="3" /><line x1="1980.2255859375" x2="1980.2255859375" y1="575.0" y2="585.0" stroke="black" stroke-width="3" /><line x1="1527.2353515625" x2="1527.2353515625" y1="5.0" y2="15.0" stroke="black" stroke-width="3" /><line x1="1697.2353515625" x2="1697.2353515625" y1="5.0" y2="15.0" stroke="black" stroke-width="3" /><line x1="1527.2353515625" x2="1527.2353515625" y1="575.0" y2="585.0" stroke="black" stroke-width="3" /><line x1="1697.2353515625" x2="1697.2353515625" y1="575.0" y2="585.0" stroke="black" stroke-width="3" /><line x1="1041.2548828125" x2="1041.2548828125" y1="5.0" y2="15.0" stroke="black" stroke-width="3" /><line x1="1211.2548828125" x2="1211.2548828125" y1="5.0" y2="15.0" stroke="black" stroke-width="3" /><line x1="1041.2548828125" x2="1041.2548828125" y1="575.0" y2="585.0" stroke="black" stroke-width="3" /><line x1="1211.2548828125" x2="1211.2548828125" y1="575.0" y2="585.0" stroke="black" stroke-width="3" /><line x1="821.2548828125" x2="821.2548828125" y1="5.0" y2="15.0" stroke="black" stroke-width="3" /><line x1="911.2548828125" x2="911.2548828125" y1="5.0" y2="15.0" stroke="black" stroke-width="3" /><line x1="821.2548828125" x2="821.2548828125" y1="575.0" y2="585.0" stroke="black" stroke-width="3" /><line x1="911.2548828125" x2="911.2548828125" y1="575.0" y2="585.0" stroke="black" stroke-width="3" /><line x1="661.2548828125" x2="661.2548828125" y1="5.0" y2="15.0" stroke="black" stroke-width="3" /><line x1="751.2548828125" x2="751.2548828125" y1="5.0" y2="15.0" stroke="black" stroke-width="3" /><line x1="661.2548828125" x2="661.2548828125" y1="575.0" y2="585.0" stroke="black" stroke-width="3" /><line x1="751.2548828125" x2="751.2548828125" y1="575.0" y2="585.0" stroke="black" stroke-width="3" /><line x1="378.2646484375" x2="378.2646484375" y1="5.0" y2="15.0" stroke="black" stroke-width="3" /><line x1="468.2646484375" x2="468.2646484375" y1="5.0" y2="15.0" stroke="black" stroke-width="3" /><line x1="378.2646484375" x2="378.2646484375" y1="575.0" y2="585.0" stroke="black" stroke-width="3" /><line x1="468.2646484375" x2="468.2646484375" y1="575.0" y2="585.0" stroke="black" stroke-width="3" /><rect x="10.0" y="25.0" width="55.2744140625" height="40" stroke="black" fill="white" stroke-width="0" /><text x="37.63720703125" y="45.0" dominant-baseline="middle" text-anchor="middle" font-size="14px">a0: </text><rect x="10.0" y="75.0" width="55.2744140625" height="40" stroke="black" fill="white" stroke-width="0" /><text x="37.63720703125" y="95.0" dominant-baseline="middle" text-anchor="middle" font-size="14px">a1: </text><rect x="10.0" y="125.0" width="55.2744140625" height="40" stroke="black" fill="white" stroke-width="0" /><text x="37.63720703125" y="145.0" dominant-baseline="middle" text-anchor="middle" font-size="14px">b_00: </text><rect x="10.0" y="175.0" width="55.2744140625" height="40" stroke="black" fill="white" stroke-width="0" /><text x="37.63720703125" y="195.0" dominant-baseline="middle" text-anchor="middle" font-size="14px">b_01: </text><rect x="10.0" y="225.0" width="55.2744140625" height="40" stroke="black" fill="white" stroke-width="0" /><text x="37.63720703125" y="245.0" dominant-baseline="middle" text-anchor="middle" font-size="14px">b_10: </text><rect x="10.0" y="275.0" width="55.2744140625" height="40" stroke="black" fill="white" stroke-width="0" /><text x="37.63720703125" y="295.0" dominant-baseline="middle" text-anchor="middle" font-size="14px">b_11: </text><rect x="10.0" y="325.0" width="55.2744140625" height="40" stroke="black" fill="white" stroke-width="0" /><text x="37.63720703125" y="345.0" dominant-baseline="middle" text-anchor="middle" font-size="14px">m00: </text><rect x="10.0" y="375.0" width="55.2744140625" height="40" stroke="black" fill="white" stroke-width="0" /><text x="37.63720703125" y="395.0" dominant-baseline="middle" text-anchor="middle" font-size="14px">m01: </text><rect x="10.0" y="425.0" width="55.2744140625" height="40" stroke="black" fill="white" stroke-width="0" /><text x="37.63720703125" y="445.0" dominant-baseline="middle" text-anchor="middle" font-size="14px">m10: </text><rect x="10.0" y="475.0" width="55.2744140625" height="40" stroke="black" fill="white" stroke-width="0" /><text x="37.63720703125" y="495.0" dominant-baseline="middle" text-anchor="middle" font-size="14px">m11: </text><rect x="10.0" y="525.0" width="55.2744140625" height="40" stroke="black" fill="white" stroke-width="0" /><text x="37.63720703125" y="545.0" dominant-baseline="middle" text-anchor="middle" font-size="14px">target: </text><circle cx="105.2744140625" cy="45.0" r="10.0" /><rect x="85.2744140625" y="125.0" width="40" height="40" stroke="black" fill="white" stroke-width="1" /><text x="105.2744140625" y="145.0" dominant-baseline="middle" text-anchor="middle" font-size="18px">X</text><circle cx="165.2744140625" cy="145.0" r="10.0" /><rect x="145.2744140625" y="175.0" width="40" height="40" stroke="black" fill="white" stroke-width="1" /><text x="165.2744140625" y="195.0" dominant-baseline="middle" text-anchor="middle" font-size="18px">X</text><rect x="145.2744140625" y="225.0" width="40" height="40" stroke="black" fill="white" stroke-width="1" /><text x="165.2744140625" y="245.0" dominant-baseline="middle" text-anchor="middle" font-size="18px">H</text><rect x="145.2744140625" y="275.0" width="40" height="40" stroke="black" fill="white" stroke-width="1" /><text x="165.2744140625" y="295.0" dominant-baseline="middle" text-anchor="middle" font-size="18px">H</text><rect x="205.2744140625" y="225.0" width="40" height="40" stroke="black" fill="white" stroke-width="1" /><text x="225.2744140625" y="245.0" dominant-baseline="middle" text-anchor="middle" font-size="18px">T</text><rect x="205.2744140625" y="275.0" width="40" height="40" stroke="black" fill="white" stroke-width="1" /><text x="225.2744140625" y="295.0" dominant-baseline="middle" text-anchor="middle" font-size="18px">T</text><circle cx="285.2744140625" cy="95.0" r="10.0" /><rect x="265.2744140625" y="275.0" width="40" height="40" stroke="black" fill="white" stroke-width="1" /><text x="285.2744140625" y="295.0" dominant-baseline="middle" text-anchor="middle" font-size="18px">X</text><rect x="265.2744140625" y="225.0" width="40" height="40" stroke="black" fill="white" stroke-width="1" /><text x="285.2744140625" y="245.0" dominant-baseline="middle" text-anchor="middle" font-size="18px">X</text><rect x="325.2744140625" y="225.0" width="42.990234375" height="40" stroke="black" fill="white" stroke-width="1" /><text x="346.76953125" y="245.0" dominant-baseline="middle" text-anchor="middle" font-size="14px">T^-1</text><rect x="325.2744140625" y="275.0" width="42.990234375" height="40" stroke="black" fill="white" stroke-width="1" /><text x="346.76953125" y="295.0" dominant-baseline="middle" text-anchor="middle" font-size="14px">T^-1</text><circle cx="398.2646484375" cy="145.0" r="10.0" /><rect x="378.2646484375" y="225.0" width="40" height="40" stroke="black" fill="white" stroke-width="1" /><text x="398.2646484375" y="245.0" dominant-baseline="middle" text-anchor="middle" font-size="18px">X</text><circle cx="438.2646484375" cy="195.0" r="10.0" /><rect x="418.2646484375" y="275.0" width="40" height="40" stroke="black" fill="white" stroke-width="1" /><text x="438.2646484375" y="295.0" dominant-baseline="middle" text-anchor="middle" font-size="18px">X</text><rect x="488.2646484375" y="225.0" width="40" height="40" stroke="black" fill="white" stroke-width="1" /><text x="508.2646484375" y="245.0" dominant-baseline="middle" text-anchor="middle" font-size="18px">T</text><rect x="488.2646484375" y="275.0" width="40" height="40" stroke="black" fill="white" stroke-width="1" /><text x="508.2646484375" y="295.0" dominant-baseline="middle" text-anchor="middle" font-size="18px">T</text><circle cx="568.2646484375" cy="95.0" r="10.0" /><rect x="548.2646484375" y="275.0" width="40" height="40" stroke="black" fill="white" stroke-width="1" /><text x="568.2646484375" y="295.0" dominant-baseline="middle" text-anchor="middle" font-size="18px">X</text><rect x="548.2646484375" y="225.0" width="40" height="40" stroke="black" fill="white" stroke-width="1" /><text x="568.2646484375" y="245.0" dominant-baseline="middle" text-anchor="middle" font-size="18px">X</text><rect x="608.2646484375" y="225.0" width="42.990234375" height="40" stroke="black" fill="white" stroke-width="1" /><text x="629.759765625" y="245.0" dominant-baseline="middle" text-anchor="middle" font-size="14px">T^-1</text><rect x="608.2646484375" y="275.0" width="42.990234375" height="40" stroke="black" fill="white" stroke-width="1" /><text x="629.759765625" y="295.0" dominant-baseline="middle" text-anchor="middle" font-size="14px">T^-1</text><circle cx="681.2548828125" cy="145.0" r="10.0" /><rect x="661.2548828125" y="225.0" width="40" height="40" stroke="black" fill="white" stroke-width="1" /><text x="681.2548828125" y="245.0" dominant-baseline="middle" text-anchor="middle" font-size="18px">X</text><circle cx="721.2548828125" cy="195.0" r="10.0" /><rect x="701.2548828125" y="275.0" width="40" height="40" stroke="black" fill="white" stroke-width="1" /><text x="721.2548828125" y="295.0" dominant-baseline="middle" text-anchor="middle" font-size="18px">X</text><rect x="771.2548828125" y="225.0" width="40" height="40" stroke="black" fill="white" stroke-width="1" /><text x="791.2548828125" y="245.0" dominant-baseline="middle" text-anchor="middle" font-size="18px">H</text><rect x="771.2548828125" y="275.0" width="40" height="40" stroke="black" fill="white" stroke-width="1" /><text x="791.2548828125" y="295.0" dominant-baseline="middle" text-anchor="middle" font-size="18px">H</text><circle cx="841.2548828125" cy="245.0" r="10.0" /><rect x="821.2548828125" y="125.0" width="40" height="40" stroke="black" fill="white" stroke-width="1" /><text x="841.2548828125" y="145.0" dominant-baseline="middle" text-anchor="middle" font-size="18px">X</text><circle cx="881.2548828125" cy="295.0" r="10.0" /><rect x="861.2548828125" y="175.0" width="40" height="40" stroke="black" fill="white" stroke-width="1" /><text x="881.2548828125" y="195.0" dominant-baseline="middle" text-anchor="middle" font-size="18px">X</text><rect x="931.2548828125" y="525.0" width="40" height="40" stroke="black" fill="white" stroke-width="1" /><text x="951.2548828125" y="545.0" dominant-baseline="middle" text-anchor="middle" font-size="18px">H</text><rect x="991.2548828125" y="175.0" width="40" height="40" stroke="black" fill="white" stroke-width="1" /><text x="1011.2548828125" y="195.0" dominant-baseline="middle" text-anchor="middle" font-size="18px">T</text><rect x="991.2548828125" y="525.0" width="40" height="40" stroke="black" fill="white" stroke-width="1" /><text x="1011.2548828125" y="545.0" dominant-baseline="middle" text-anchor="middle" font-size="18px">T</text><rect x="991.2548828125" y="325.0" width="40" height="40" stroke="black" fill="white" stroke-width="1" /><text x="1011.2548828125" y="345.0" dominant-baseline="middle" text-anchor="middle" font-size="18px">T</text><rect x="991.2548828125" y="275.0" width="40" height="40" stroke="black" fill="white" stroke-width="1" /><text x="1011.2548828125" y="295.0" dominant-baseline="middle" text-anchor="middle" font-size="18px">T</text><rect x="991.2548828125" y="375.0" width="40" height="40" stroke="black" fill="white" stroke-width="1" /><text x="1011.2548828125" y="395.0" dominant-baseline="middle" text-anchor="middle" font-size="18px">T</text><rect x="991.2548828125" y="125.0" width="40" height="40" stroke="black" fill="white" stroke-width="1" /><text x="1011.2548828125" y="145.0" dominant-baseline="middle" text-anchor="middle" font-size="18px">T</text><rect x="991.2548828125" y="425.0" width="40" height="40" stroke="black" fill="white" stroke-width="1" /><text x="1011.2548828125" y="445.0" dominant-baseline="middle" text-anchor="middle" font-size="18px">T</text><rect x="991.2548828125" y="225.0" width="40" height="40" stroke="black" fill="white" stroke-width="1" /><text x="1011.2548828125" y="245.0" dominant-baseline="middle" text-anchor="middle" font-size="18px">T</text><rect x="991.2548828125" y="475.0" width="40" height="40" stroke="black" fill="white" stroke-width="1" /><text x="1011.2548828125" y="495.0" dominant-baseline="middle" text-anchor="middle" font-size="18px">T</text><rect x="1041.2548828125" y="525.0" width="40" height="40" stroke="black" fill="white" stroke-width="1" /><text x="1061.2548828125" y="545.0" dominant-baseline="middle" text-anchor="middle" font-size="18px">T</text><circle cx="1061.2548828125" cy="345.0" r="10.0" /><rect x="1041.2548828125" y="175.0" width="40" height="40" stroke="black" fill="white" stroke-width="1" /><text x="1061.2548828125" y="195.0" dominant-baseline="middle" text-anchor="middle" font-size="18px">X</text><circle cx="1101.2548828125" cy="395.0" r="10.0" /><rect x="1081.2548828125" y="275.0" width="40" height="40" stroke="black" fill="white" stroke-width="1" /><text x="1101.2548828125" y="295.0" dominant-baseline="middle" text-anchor="middle" font-size="18px">X</text><circle cx="1141.2548828125" cy="445.0" r="10.0" /><rect x="1121.2548828125" y="125.0" width="40" height="40" stroke="black" fill="white" stroke-width="1" /><text x="1141.2548828125" y="145.0" dominant-baseline="middle" text-anchor="middle" font-size="18px">X</text><circle cx="1181.2548828125" cy="495.0" r="10.0" /><rect x="1161.2548828125" y="225.0" width="40" height="40" stroke="black" fill="white" stroke-width="1" /><text x="1181.2548828125" y="245.0" dominant-baseline="middle" text-anchor="middle" font-size="18px">X</text><rect x="1231.2548828125" y="525.0" width="42.990234375" height="40" stroke="black" fill="white" stroke-width="1" /><text x="1252.75" y="545.0" dominant-baseline="middle" text-anchor="middle" font-size="18px">T</text><rect x="1231.2548828125" y="175.0" width="42.990234375" height="40" stroke="black" fill="white" stroke-width="1" /><text x="1252.75" y="195.0" dominant-baseline="middle" text-anchor="middle" font-size="14px">T^-1</text><rect x="1231.2548828125" y="275.0" width="42.990234375" height="40" stroke="black" fill="white" stroke-width="1" /><text x="1252.75" y="295.0" dominant-baseline="middle" text-anchor="middle" font-size="14px">T^-1</text><rect x="1231.2548828125" y="125.0" width="42.990234375" height="40" stroke="black" fill="white" stroke-width="1" /><text x="1252.75" y="145.0" dominant-baseline="middle" text-anchor="middle" font-size="14px">T^-1</text><rect x="1231.2548828125" y="225.0" width="42.990234375" height="40" stroke="black" fill="white" stroke-width="1" /><text x="1252.75" y="245.0" dominant-baseline="middle" text-anchor="middle" font-size="14px">T^-1</text><rect x="1294.2451171875" y="525.0" width="40" height="40" stroke="black" fill="white" stroke-width="1" /><text x="1314.2451171875" y="545.0" dominant-baseline="middle" text-anchor="middle" font-size="18px">T</text><circle cx="1374.2451171875" cy="545.0" r="10.0" /><rect x="1354.2451171875" y="475.0" width="40" height="40" stroke="black" fill="white" stroke-width="1" /><text x="1374.2451171875" y="495.0" dominant-baseline="middle" text-anchor="middle" font-size="18px">X</text><rect x="1354.2451171875" y="225.0" width="40" height="40" stroke="black" fill="white" stroke-width="1" /><text x="1374.2451171875" y="245.0" dominant-baseline="middle" text-anchor="middle" font-size="18px">X</text><rect x="1354.2451171875" y="425.0" width="40" height="40" stroke="black" fill="white" stroke-width="1" /><text x="1374.2451171875" y="445.0" dominant-baseline="middle" text-anchor="middle" font-size="18px">X</text><rect x="1354.2451171875" y="125.0" width="40" height="40" stroke="black" fill="white" stroke-width="1" /><text x="1374.2451171875" y="145.0" dominant-baseline="middle" text-anchor="middle" font-size="18px">X</text><rect x="1354.2451171875" y="375.0" width="40" height="40" stroke="black" fill="white" stroke-width="1" /><text x="1374.2451171875" y="395.0" dominant-baseline="middle" text-anchor="middle" font-size="18px">X</text><rect x="1354.2451171875" y="275.0" width="40" height="40" stroke="black" fill="white" stroke-width="1" /><text x="1374.2451171875" y="295.0" dominant-baseline="middle" text-anchor="middle" font-size="18px">X</text><rect x="1354.2451171875" y="325.0" width="40" height="40" stroke="black" fill="white" stroke-width="1" /><text x="1374.2451171875" y="345.0" dominant-baseline="middle" text-anchor="middle" font-size="18px">X</text><rect x="1354.2451171875" y="175.0" width="40" height="40" stroke="black" fill="white" stroke-width="1" /><text x="1374.2451171875" y="195.0" dominant-baseline="middle" text-anchor="middle" font-size="18px">X</text><rect x="1414.2451171875" y="175.0" width="42.990234375" height="40" stroke="black" fill="white" stroke-width="1" /><text x="1435.740234375" y="195.0" dominant-baseline="middle" text-anchor="middle" font-size="18px">T</text><rect x="1414.2451171875" y="325.0" width="42.990234375" height="40" stroke="black" fill="white" stroke-width="1" /><text x="1435.740234375" y="345.0" dominant-baseline="middle" text-anchor="middle" font-size="14px">T^-1</text><rect x="1414.2451171875" y="275.0" width="42.990234375" height="40" stroke="black" fill="white" stroke-width="1" /><text x="1435.740234375" y="295.0" dominant-baseline="middle" text-anchor="middle" font-size="18px">T</text><rect x="1414.2451171875" y="375.0" width="42.990234375" height="40" stroke="black" fill="white" stroke-width="1" /><text x="1435.740234375" y="395.0" dominant-baseline="middle" text-anchor="middle" font-size="14px">T^-1</text><rect x="1414.2451171875" y="125.0" width="42.990234375" height="40" stroke="black" fill="white" stroke-width="1" /><text x="1435.740234375" y="145.0" dominant-baseline="middle" text-anchor="middle" font-size="18px">T</text><rect x="1414.2451171875" y="425.0" width="42.990234375" height="40" stroke="black" fill="white" stroke-width="1" /><text x="1435.740234375" y="445.0" dominant-baseline="middle" text-anchor="middle" font-size="14px">T^-1</text><rect x="1414.2451171875" y="225.0" width="42.990234375" height="40" stroke="black" fill="white" stroke-width="1" /><text x="1435.740234375" y="245.0" dominant-baseline="middle" text-anchor="middle" font-size="18px">T</text><rect x="1414.2451171875" y="475.0" width="42.990234375" height="40" stroke="black" fill="white" stroke-width="1" /><text x="1435.740234375" y="495.0" dominant-baseline="middle" text-anchor="middle" font-size="14px">T^-1</text><circle cx="1497.2353515625" cy="545.0" r="10.0" /><rect x="1477.2353515625" y="475.0" width="40" height="40" stroke="black" fill="white" stroke-width="1" /><text x="1497.2353515625" y="495.0" dominant-baseline="middle" text-anchor="middle" font-size="18px">X</text><rect x="1477.2353515625" y="425.0" width="40" height="40" stroke="black" fill="white" stroke-width="1" /><text x="1497.2353515625" y="445.0" dominant-baseline="middle" text-anchor="middle" font-size="18px">X</text><rect x="1477.2353515625" y="375.0" width="40" height="40" stroke="black" fill="white" stroke-width="1" /><text x="1497.2353515625" y="395.0" dominant-baseline="middle" text-anchor="middle" font-size="18px">X</text><rect x="1477.2353515625" y="325.0" width="40" height="40" stroke="black" fill="white" stroke-width="1" /><text x="1497.2353515625" y="345.0" dominant-baseline="middle" text-anchor="middle" font-size="18px">X</text><circle cx="1547.2353515625" cy="345.0" r="10.0" /><rect x="1527.2353515625" y="175.0" width="40" height="40" stroke="black" fill="white" stroke-width="1" /><text x="1547.2353515625" y="195.0" dominant-baseline="middle" text-anchor="middle" font-size="18px">X</text><circle cx="1587.2353515625" cy="395.0" r="10.0" /><rect x="1567.2353515625" y="275.0" width="40" height="40" stroke="black" fill="white" stroke-width="1" /><text x="1587.2353515625" y="295.0" dominant-baseline="middle" text-anchor="middle" font-size="18px">X</text><circle cx="1627.2353515625" cy="445.0" r="10.0" /><rect x="1607.2353515625" y="125.0" width="40" height="40" stroke="black" fill="white" stroke-width="1" /><text x="1627.2353515625" y="145.0" dominant-baseline="middle" text-anchor="middle" font-size="18px">X</text><circle cx="1667.2353515625" cy="495.0" r="10.0" /><rect x="1647.2353515625" y="225.0" width="40" height="40" stroke="black" fill="white" stroke-width="1" /><text x="1667.2353515625" y="245.0" dominant-baseline="middle" text-anchor="middle" font-size="18px">X</text><rect x="1717.2353515625" y="175.0" width="42.990234375" height="40" stroke="black" fill="white" stroke-width="1" /><text x="1738.73046875" y="195.0" dominant-baseline="middle" text-anchor="middle" font-size="14px">T^-1</text><rect x="1717.2353515625" y="275.0" width="42.990234375" height="40" stroke="black" fill="white" stroke-width="1" /><text x="1738.73046875" y="295.0" dominant-baseline="middle" text-anchor="middle" font-size="14px">T^-1</text><rect x="1717.2353515625" y="125.0" width="42.990234375" height="40" stroke="black" fill="white" stroke-width="1" /><text x="1738.73046875" y="145.0" dominant-baseline="middle" text-anchor="middle" font-size="14px">T^-1</text><rect x="1717.2353515625" y="225.0" width="42.990234375" height="40" stroke="black" fill="white" stroke-width="1" /><text x="1738.73046875" y="245.0" dominant-baseline="middle" text-anchor="middle" font-size="14px">T^-1</text><circle cx="1800.2255859375" cy="545.0" r="10.0" /><rect x="1780.2255859375" y="225.0" width="40" height="40" stroke="black" fill="white" stroke-width="1" /><text x="1800.2255859375" y="245.0" dominant-baseline="middle" text-anchor="middle" font-size="18px">X</text><rect x="1780.2255859375" y="125.0" width="40" height="40" stroke="black" fill="white" stroke-width="1" /><text x="1800.2255859375" y="145.0" dominant-baseline="middle" text-anchor="middle" font-size="18px">X</text><rect x="1780.2255859375" y="275.0" width="40" height="40" stroke="black" fill="white" stroke-width="1" /><text x="1800.2255859375" y="295.0" dominant-baseline="middle" text-anchor="middle" font-size="18px">X</text><rect x="1780.2255859375" y="175.0" width="40" height="40" stroke="black" fill="white" stroke-width="1" /><text x="1800.2255859375" y="195.0" dominant-baseline="middle" text-anchor="middle" font-size="18px">X</text><rect x="1840.2255859375" y="525.0" width="40" height="40" stroke="black" fill="white" stroke-width="1" /><text x="1860.2255859375" y="545.0" dominant-baseline="middle" text-anchor="middle" font-size="18px">H</text><circle cx="1910.2255859375" cy="245.0" r="10.0" /><rect x="1890.2255859375" y="125.0" width="40" height="40" stroke="black" fill="white" stroke-width="1" /><text x="1910.2255859375" y="145.0" dominant-baseline="middle" text-anchor="middle" font-size="18px">X</text><circle cx="1950.2255859375" cy="295.0" r="10.0" /><rect x="1930.2255859375" y="175.0" width="40" height="40" stroke="black" fill="white" stroke-width="1" /><text x="1950.2255859375" y="195.0" dominant-baseline="middle" text-anchor="middle" font-size="18px">X</text><rect x="2000.2255859375" y="275.0" width="40" height="40" stroke="black" fill="white" stroke-width="1" /><text x="2020.2255859375" y="295.0" dominant-baseline="middle" text-anchor="middle" font-size="18px">H</text><rect x="2000.2255859375" y="175.0" width="40" height="40" stroke="black" fill="white" stroke-width="1" /><text x="2020.2255859375" y="195.0" dominant-baseline="middle" text-anchor="middle" font-size="18px">H</text><rect x="2000.2255859375" y="225.0" width="40" height="40" stroke="black" fill="white" stroke-width="1" /><text x="2020.2255859375" y="245.0" dominant-baseline="middle" text-anchor="middle" font-size="18px">H</text><rect x="2000.2255859375" y="125.0" width="40" height="40" stroke="black" fill="white" stroke-width="1" /><text x="2020.2255859375" y="145.0" dominant-baseline="middle" text-anchor="middle" font-size="18px">H</text><circle cx="2080.2255859375" cy="95.0" r="10.0" /><rect x="2060.2255859375" y="125.0" width="40" height="40" stroke="black" fill="white" stroke-width="1" /><text x="2080.2255859375" y="145.0" dominant-baseline="middle" text-anchor="middle" font-size="18px">X</text><rect x="2060.2255859375" y="175.0" width="40" height="40" stroke="black" fill="white" stroke-width="1" /><text x="2080.2255859375" y="195.0" dominant-baseline="middle" text-anchor="middle" font-size="18px">X</text><rect x="2120.2255859375" y="175.0" width="40" height="40" stroke="black" fill="white" stroke-width="1" /><text x="2140.2255859375" y="195.0" dominant-baseline="middle" text-anchor="middle" font-size="18px">H</text><rect x="2120.2255859375" y="125.0" width="40" height="40" stroke="black" fill="white" stroke-width="1" /><text x="2140.2255859375" y="145.0" dominant-baseline="middle" text-anchor="middle" font-size="18px">H</text><circle cx="2200.2255859375" cy="145.0" r="10.0" /><rect x="2180.2255859375" y="175.0" width="40" height="40" stroke="black" fill="white" stroke-width="1" /><text x="2200.2255859375" y="195.0" dominant-baseline="middle" text-anchor="middle" font-size="18px">X</text><circle cx="2260.2255859375" cy="45.0" r="10.0" /><rect x="2240.2255859375" y="125.0" width="40" height="40" stroke="black" fill="white" stroke-width="1" /><text x="2260.2255859375" y="145.0" dominant-baseline="middle" text-anchor="middle" font-size="18px">X</text></svg>