<svg xmlns="http://www.w3.org/2000/svg" width="2150.2255859375" height="590.0"><line x1="37.63720703125" x2="2120.2255859375" y1="45.0" y2="45.0" stroke="#1967d2" stroke-width="1" /><line x1="37.63720703125" x2="2120.2255859375" y1="95.0" y2="95.0" stroke="#1967d2" stroke-width="1" /><line x1="37.63720703125" x2="2120.2255859375" y1="145.0" y2="145.0" stroke="#1967d2" stroke-width="1" /><line x1="37.63720703125" x2="2120.2255859375" y1="195.0" y2="195.0" stroke="#1967d2" stroke-width="1" /><line x1="37.63720703125" x2="2120.2255859375" y1="245.0" y2="245.0" stroke="#1967d2" stroke-width="1" /><line x1="37.63720703125" x2="2120.2255859375" y1="295.0" y2="295.0" stroke="#1967d2" stroke-width="1" /><line x1="37.63720703125" x2="2120.2255859375" y1="345.0" y2="345.0" stroke="#1967d2" stroke-width="1" /><line x1="37.63720703125" x2="2120.2255859375" y1="395.0" y2="395.0" stroke="#1967d2" stroke-width="1" /><line x1="37.63720703125" x2="2120.2255859375" y1="445.0" y2="445.0" stroke="#1967d2" stroke-width="1" /><line x1="37.63720703125" x2="2120.2255859375" y1="495.0" y2="495.0" stroke="#1967d2" stroke-width="1" /><line x1="37.63720703125" x2="2120.2255859375" y1="545.0" y2="545.0" stroke="#1967d2" stroke-width="1" /><line x1="1710.2255859375" x2="1800.2255859375" y1="5.0" y2="5.0" stroke="black" stroke-width="1" /><line x1="1710.2255859375" x2="1800.2255859375" y1="585.0" y2="585.0" stroke="black" stroke-width="1" /><line x1="1347.2353515625" x2="1517.2353515625" y1="5.0" y2="5.0" stroke="black" stroke-width="1" /><line x1="1347.2353515625" x2="1517.2353515625" y1="585.0" y2="585.0" stroke="black" stroke-width="1" /><line x1="921.2548828125" x2="1091.2548828125" y1="5.0" y2="5.0" stroke="black" stroke-width="1" /><line x1="921.2548828125" x2="1091.2548828125" y1="585.0" y2="585.0" stroke="black" stroke-width="1" /><line x1="761.2548828125" x2="851.2548828125" y1="5.0" y2="5.0" stroke="black" stroke-width="1" /><line x1="761.2548828125" x2="851.2548828125" y1="585.0" y2="585.0" stroke="black" stroke-width="1" /><line x1="601.2548828125" x2="691.2548828125" y1="5.0" y2="5.0" stroke="black" stroke-width="1" /><line x1="601.2548828125" x2="691.2548828125" y1="585.0" y2="585.0" stroke="black" stroke-width="1" /><line x1="318.2646484375" x2="408.2646484375" y1="5.0" y2="5.0" stroke="black" stroke-width="1" /><line x1="318.2646484375" x2="408.2646484375" y1="585.0" y2="585.0" stroke="black" stroke-width="1" /><line x1="105.2744140625" x2="105.2744140625" y1="45.0" y2="145.0" stroke="black" stroke-width="3" /><line x1="165.2744140625" x2="165.2744140625" y1="145.0" y2="195.0" stroke="black" stroke-width="3" /><line x1="225.2744140625" x2="225.2744140625" y1="95.0" y2="295.0" stroke="black" stroke-width="3" /><line x1="338.2646484375" x2="338.2646484375" y1="145.0" y2="245.0" stroke="black" stroke-width="3" /><line x1="378.2646484375" x2="378.2646484375" y1="195.0" y2="295.0" stroke="black" stroke-width="3" /><line x1="508.2646484375" x2="508.2646484375" y1="95.0" y2="295.0" stroke="black" stroke-width="3" /><line x1="621.2548828125" x2="621.2548828125" y1="145.0" y2="245.0" stroke="black" stroke-width="3" /><line x1="661.2548828125" x2="661.2548828125" y1="195.0" y2="295.0" stroke="black" stroke-width="3" /><line x1="781.2548828125" x2="781.2548828125" y1="145.0" y2="245.0" stroke="black" stroke-width="3" /><line x1="821.2548828125" x2="821.2548828125" y1="195.0" y2="295.0" stroke="black" stroke-width="3" /><line x1="941.2548828125" x2="941.2548828125" y1="195.0" y2="345.0" stroke="black" stroke-width="3" /><line x1="981.2548828125" x2="981.2548828125" y1="295.0" y2="395.0" stroke="black" stroke-width="3" /><line x1="1021.2548828125" x2="1021.2548828125" y1="145.0" y2="445.0" stroke="black" stroke-width="3" /><line x1="1061.2548828125" x2="1061.2548828125" y1="245.0" y2="495.0" stroke="black" stroke-width="3" /><line x1="1194.2451171875" x2="1194.2451171875" y1="145.0" y2="545.0" stroke="black" stroke-width="3" /><line x1="1317.2353515625" x2="1317.2353515625" y1="345.0" y2="545.0" stroke="black" stroke-width="3" /><line x1="1367.2353515625" x2="1367.2353515625" y1="195.0" y2="345.0" stroke="black" stroke-width="3" /><line x1="1407.2353515625" x2="1407.2353515625" y1="295.0" y2="395.0" stroke="black" stroke-width="3" /><line x1="1447.2353515625" x2="1447.2353515625" y1="145.0" y2="445.0" stroke="black" stroke-width="3" /><line x1="1487.2353515625" x2="1487.2353515625" y1="245.0" y2="495.0" stroke="black" stroke-width="3" /><line x1="1620.2255859375" x2="1620.2255859375" y1="145.0" y2="545.0" stroke="black" stroke-width="3" /><line x1="1730.2255859375" x2="1730.2255859375" y1="145.0" y2="245.0" stroke="black" stroke-width="3" /><line x1="1770.2255859375" x2="1770.2255859375" y1="195.0" y2="295.0" stroke="black" stroke-width="3" /><line x1="1900.2255859375" x2="1900.2255859375" y1="95.0" y2="195.0" stroke="black" stroke-width="3" /><line x1="2020.2255859375" x2="2020.2255859375" y1="145.0" y2="195.0" stroke="black" stroke-width="3" /><line x1="2080.2255859375" x2="2080.2255859375" y1="45.0" y2="145.0" stroke="black" stroke-width="3" /><line x1="1710.2255859375" x2="1710.2255859375" y1="5.0" y2="15.0" stroke="black" stroke-width="3" /><line x1="1800.2255859375" x2="1800.2255859375" y1="5.0" y2="15.0" stroke="black" stroke-width="3" /><line x1="1710.2255859375" x2="1710.2255859375" y1="575.0" y2="585.0" stroke="black" stroke-width="3" /><line x1="1800.2255859375" x2="1800.2255859375" y1="575.0" y2="585.0" stroke="black" stroke-width="3" /><line x1="1347.2353515625" x2="1347.2353515625" y1="5.0" y2="15.0" stroke="black" stroke-width="3" /><line x1="1517.2353515625" x2="1517.2353515625" y1="5.0" y2="15.0" stroke="black" stroke-width="3" /><line x1="1347.2353515625" x2="1347.2353515625" y1="575.0" y2="585.0" stroke="black" stroke-width="3" /><line x1="1517.2353515625" x2="1517.2353515625" y1="575.0" y2="585.0" stroke="black" stroke-width="3" /><line x1="921.2548828125" x2="921.2548828125" y1="5.0" y2="15.0" stroke="black" stroke-width="3" /><line x1="1091.2548828125" x2="1091.2548828125" y1="5.0" y2="15.0" stroke="black" stroke-width="3" /><line x1="921.2548828125" x2="921.2548828125" y1="575.0" y2="585.0" stroke="black" stroke-width="3" /><line x1="1091.2548828125" x2="1091.2548828125" y1="575.0" y2="585.0" stroke="black" stroke-width="3" /><line x1="761.2548828125" x2="761.2548828125" y1="5.0" y2="15.0" stroke="black" stroke-width="3" /><line x1="851.2548828125" x2="851.2548828125" y1="5.0" y2="15.0" stroke="black" stroke-width="3" /><line x1="761.2548828125" x2="761.2548828125" y1="575.0" y2="585.0" stroke="black" stroke-width="3" /><line x1="851.2548828125" x2="851.2548828125" y1="575.0" y2="585.0" stroke="black" stroke-width="3" /><line x1="601.2548828125" x2="601.2548828125" y1="5.0" y2="15.0" stroke="black" stroke-width="3" /><line x1="691.2548828125" x2="691.2548828125" y1="5.0" y2="15.0" stroke="black" stroke-width="3" /><line x1="601.2548828125" x2="601.2548828125" y1="575.0" y2="585.0" stroke="black" stroke-width="3" /><line x1="691.2548828125" x2="691.2548828125" y1="575.0" y2="585.0" stroke="black" stroke-width="3" /><line x1="318.2646484375" x2="318.2646484375" y1="5.0" y2="15.0" stroke="black" stroke-width="3" /><line x1="408.2646484375" x2="408.2646484375" y1="5.0" y2="15.0" stroke="black" stroke-width="3" /><line x1="318.2646484375" x2="318.2646484375" y1="575.0" y2="585.0" stroke="black" stroke-width="3" /><line x1="408.2646484375" x2="408.2646484375" y1="575.0" y2="585.0" stroke="black" stroke-width="3" /><rect x="10.0" y="25.0" width="55.2744140625" height="40" stroke="black" fill="white" stroke-width="0" /><text x="37.63720703125" y="45.0" dominant-baseline="middle" text-anchor="middle" font-size="14px">a0: </text><rect x="10.0" y="75.0" width="55.2744140625" height="40" stroke="black" fill="white" stroke-width="0" /><text x="37.63720703125" y="95.0" dominant-baseline="middle" text-anchor="middle" font-size="14px">a1: </text><rect x="10.0" y="125.0" width="55.2744140625" height="40" stroke="black" fill="white" stroke-width="0" /><text x="37.63720703125" y="145.0" dominant-baseline="middle" text-anchor="middle" font-size="14px">b_00: </text><rect x="10.0" y="175.0" width="55.2744140625" height="40" stroke="black" fill="white" stroke-width="0" /><text x="37.63720703125" y="195.0" dominant-baseline="middle" text-anchor="middle" font-size="14px">b_01: </text><rect x="10.0" y="225.0" width="55.2744140625" height="40" stroke="black" fill="white" stroke-width="0" /><text x="37.63720703125" y="245.0" dominant-baseline="middle" text-anchor="middle" font-size="14px">b_10: </text><rect x="10.0" y="275.0" width="55.2744140625" height="40" stroke="black" fill="white" stroke-width="0" /><text x="37.63720703125" y="295.0" dominant-baseline="middle" text-anchor="middle" font-size="14px">b_11: </text><rect x="10.0" y="325.0" width="55.2744140625" height="40" stroke="black" fill="white" stroke-width="0" /><text x="37.63720703125" y="345.0" dominant-baseline="middle" text-anchor="middle" font-size="14px">m00: </text><rect x="10.0" y="375.0" width="55.2744140625" height="40" stroke="black" fill="white" stroke-width="0" /><text x="37.63720703125" y="395.0" dominant-baseline="middle" text-anchor="middle" font-size="14px">m01: </text><rect x="10.0" y="425.0" width="55.2744140625" height="40" stroke="black" fill="white" stroke-width="0" /><text x="37.63720703125" y="445.0" dominant-baseline="middle" text-anchor="middle" font-size="14px">m10: </text><rect x="10.0" y="475.0" width="55.2744140625" height="40" stroke="black" fill="white" stroke-width="0" /><text x="37.63720703125" y="495.0" dominant-baseline="middle" text-anchor="middle" font-size="14px">m11: </text><rect x="10.0" y="525.0" width="55.2744140625" height="40" stroke="black" fill="white" stroke-width="0" /><text x="37.63720703125" y="545.0" dominant-baseline="middle" text-anchor="middle" font-size="14px">target: </text><circle cx="105.2744140625" cy="45.0" r="10.0" /><rect x="85.2744140625" y="125.0" width="40" height="40" stroke="black" fill="white" stroke-width="1" /><text x="105.2744140625" y="145.0" dominant-baseline="middle" text-anchor="middle" font-size="18px">X</text><rect x="85.2744140625" y="225.0" width="40" height="40" stroke="black" fill="white" stroke-width="1" /><text x="105.2744140625" y="245.0" dominant-baseline="middle" text-anchor="middle" font-size="18px">H</text><rect x="85.2744140625" y="275.0" width="40" height="40" stroke="black" fill="white" stroke-width="1" /><text x="105.2744140625" y="295.0" dominant-baseline="middle" text-anchor="middle" font-size="18px">H</text><circle cx="165.2744140625" cy="145.0" r="10.0" /><rect x="145.2744140625" y="175.0" width="40" height="40" stroke="black" fill="white" stroke-width="1" /><text x="165.2744140625" y="195.0" dominant-baseline="middle" text-anchor="middle" font-size="18px">X</text><rect x="145.2744140625" y="225.0" width="40" height="40" stroke="black" fill="white" stroke-width="1" /><text x="165.2744140625" y="245.0" dominant-baseline="middle" text-anchor="middle" font-size="18px">T</text><rect x="145.2744140625" y="275.0" width="40" height="40" stroke="black" fill="white" stroke-width="1" /><text x="165.2744140625" y="295.0" dominant-baseline="middle" text-anchor="middle" font-size="18px">T</text><circle cx="225.2744140625" cy="95.0" r="10.0" /><rect x="205.2744140625" y="275.0" width="40" height="40" stroke="black" fill="white" stroke-width="1" /><text x="225.2744140625" y="295.0" dominant-baseline="middle" text-anchor="middle" font-size="18px">X</text><rect x="205.2744140625" y="225.0" width="40" height="40" stroke="black" fill="white" stroke-width="1" /><text x="225.2744140625" y="245.0" dominant-baseline="middle" text-anchor="middle" font-size="18px">X</text><rect x="265.2744140625" y="225.0" width="42.990234375" height="40" stroke="black" fill="white" stroke-width="1" /><text x="286.76953125" y="245.0" dominant-baseline="middle" text-anchor="middle" font-size="14px">T^-1</text><rect x="265.2744140625" y="275.0" width="42.990234375" height="40" stroke="black" fill="white" stroke-width="1" /><text x="286.76953125" y="295.0" dominant-baseline="middle" text-anchor="middle" font-size="14px">T^-1</text><circle cx="338.2646484375" cy="145.0" r="10.0" /><rect x="318.2646484375" y="225.0" width="40" height="40" stroke="black" fill="white" stroke-width="1" /><text x="338.2646484375" y="245.0" dominant-baseline="middle" text-anchor="middle" font-size="18px">X</text><circle cx="378.2646484375" cy="195.0" r="10.0" /><rect x="358.2646484375" y="275.0" width="40" height="40" stroke="black" fill="white" stroke-width="1" /><text x="378.2646484375" y="295.0" dominant-baseline="middle" text-anchor="middle" font-size="18px">X</text><rect x="428.2646484375" y="225.0" width="40" height="40" stroke="black" fill="white" stroke-width="1" /><text x="448.2646484375" y="245.0" dominant-baseline="middle" text-anchor="middle" font-size="18px">T</text><rect x="428.2646484375" y="275.0" width="40" height="40" stroke="black" fill="white" stroke-width="1" /><text x="448.2646484375" y="295.0" dominant-baseline="middle" text-anchor="middle" font-size="18px">T</text><circle cx="508.2646484375" cy="95.0" r="10.0" /><rect x="488.2646484375" y="275.0" width="40" height="40" stroke="black" fill="white" stroke-width="1" /><text x="508.2646484375" y="295.0" dominant-baseline="middle" text-anchor="middle" font-size="18px">X</text><rect x="488.2646484375" y="225.0" width="40" height="40" stroke="black" fill="white" stroke-width="1" /><text x="508.2646484375" y="245.0" dominant-baseline="middle" text-anchor="middle" font-size="18px">X</text><rect x="548.2646484375" y="225.0" width="42.990234375" height="40" stroke="black" fill="white" stroke-width="1" /><text x="569.759765625" y="245.0" dominant-baseline="middle" text-anchor="middle" font-size="14px">T^-1</text><rect x="548.2646484375" y="275.0" width="42.990234375" height="40" stroke="black" fill="white" stroke-width="1" /><text x="569.759765625" y="295.0" dominant-baseline="middle" text-anchor="middle" font-size="14px">T^-1</text><circle cx="621.2548828125" cy="145.0" r="10.0" /><rect x="601.2548828125" y="225.0" width="40" height="40" stroke="black" fill="white" stroke-width="1" /><text x="621.2548828125" y="245.0" dominant-baseline="middle" text-anchor="middle" font-size="18px">X</text><circle cx="661.2548828125" cy="195.0" r="10.0" /><rect x="641.2548828125" y="275.0" width="40" height="40" stroke="black" fill="white" stroke-width="1" /><text x="661.2548828125" y="295.0" dominant-baseline="middle" text-anchor="middle" font-size="18px">X</text><rect x="711.2548828125" y="225.0" width="40" height="40" stroke="black" fill="white" stroke-width="1" /><text x="731.2548828125" y="245.0" dominant-baseline="middle" text-anchor="middle" font-size="18px">H</text><rect x="711.2548828125" y="275.0" width="40" height="40" stroke="black" fill="white" stroke-width="1" /><text x="731.2548828125" y="295.0" dominant-baseline="middle" text-anchor="middle" font-size="18px">H</text><circle cx="781.2548828125" cy="245.0" r="10.0" /><rect x="761.2548828125" y="125.0" width="40" height="40" stroke="black" fill="white" stroke-width="1" /><text x="781.2548828125" y="145.0" dominant-baseline="middle" text-anchor="middle" font-size="18px">X</text><circle cx="821.2548828125" cy="295.0" r="10.0" /><rect x="801.2548828125" y="175.0" width="40" height="40" stroke="black" fill="white" stroke-width="1" /><text x="821.2548828125" y="195.0" dominant-baseline="middle" text-anchor="middle" font-size="18px">X</text><rect x="871.2548828125" y="525.0" width="40" height="40" stroke="black" fill="white" stroke-width="1" /><text x="891.2548828125" y="545.0" dominant-baseline="middle" text-anchor="middle" font-size="18px">H</text><rect x="871.2548828125" y="175.0" width="40" height="40" stroke="black" fill="white" stroke-width="1" /><text x="891.2548828125" y="195.0" dominant-baseline="middle" text-anchor="middle" font-size="18px">T</text><rect x="871.2548828125" y="325.0" width="40" height="40" stroke="black" fill="white" stroke-width="1" /><text x="891.2548828125" y="345.0" dominant-baseline="middle" text-anchor="middle" font-size="18px">T</text><rect x="871.2548828125" y="275.0" width="40" height="40" stroke="black" fill="white" stroke-width="1" /><text x="891.2548828125" y="295.0" dominant-baseline="middle" text-anchor="middle" font-size="18px">T</text><rect x="871.2548828125" y="375.0" width="40" height="40" stroke="black" fill="white" stroke-width="1" /><text x="891.2548828125" y="395.0" dominant-baseline="middle" text-anchor="middle" font-size="18px">T</text><rect x="871.2548828125" y="125.0" width="40" height="40" stroke="black" fill="white" stroke-width="1" /><text x="891.2548828125" y="145.0" dominant-baseline="middle" text-anchor="middle" font-size="18px">T</text><rect x="871.2548828125" y="425.0" width="40" height="40" stroke="black" fill="white" stroke-width="1" /><text x="891.2548828125" y="445.0" dominant-baseline="middle" text-anchor="middle" font-size="18px">T</text><rect x="871.2548828125" y="225.0" width="40" height="40" stroke="black" fill="white" stroke-width="1" /><text x="891.2548828125" y="245.0" dominant-baseline="middle" text-anchor="middle" font-size="18px">T</text><rect x="871.2548828125" y="475.0" width="40" height="40" stroke="black" fill="white" stroke-width="1" /><text x="891.2548828125" y="495.0" dominant-baseline="middle" text-anchor="middle" font-size="18px">T</text><rect x="921.2548828125" y="525.0" width="40" height="40" stroke="black" fill="white" stroke-width="1" /><text x="941.2548828125" y="545.0" dominant-baseline="middle" text-anchor="middle" font-size="18px">Z</text><circle cx="941.2548828125" cy="345.0" r="10.0" /><rect x="921.2548828125" y="175.0" width="40" height="40" stroke="black" fill="white" stroke-width="1" /><text x="941.2548828125" y="195.0" dominant-baseline="middle" text-anchor="middle" font-size="18px">X</text><circle cx="981.2548828125" cy="395.0" r="10.0" /><rect x="961.2548828125" y="275.0" width="40" height="40" stroke="black" fill="white" stroke-width="1" /><text x="981.2548828125" y="295.0" dominant-baseline="middle" text-anchor="middle" font-size="18px">X</text><circle cx="1021.2548828125" cy="445.0" r="10.0" /><rect x="1001.2548828125" y="125.0" width="40" height="40" stroke="black" fill="white" stroke-width="1" /><text x="1021.2548828125" y="145.0" dominant-baseline="middle" text-anchor="middle" font-size="18px">X</text><circle cx="1061.2548828125" cy="495.0" r="10.0" /><rect x="1041.2548828125" y="225.0" width="40" height="40" stroke="black" fill="white" stroke-width="1" /><text x="1061.2548828125" y="245.0" dominant-baseline="middle" text-anchor="middle" font-size="18px">X</text><rect x="1111.2548828125" y="175.0" width="42.990234375" height="40" stroke="black" fill="white" stroke-width="1" /><text x="1132.75" y="195.0" dominant-baseline="middle" text-anchor="middle" font-size="14px">T^-1</text><rect x="1111.2548828125" y="275.0" width="42.990234375" height="40" stroke="black" fill="white" stroke-width="1" /><text x="1132.75" y="295.0" dominant-baseline="middle" text-anchor="middle" font-size="14px">T^-1</text><rect x="1111.2548828125" y="125.0" width="42.990234375" height="40" stroke="black" fill="white" stroke-width="1" /><text x="1132.75" y="145.0" dominant-baseline="middle" text-anchor="middle" font-size="14px">T^-1</text><rect x="1111.2548828125" y="225.0" width="42.990234375" height="40" stroke="black" fill="white" stroke-width="1" /><text x="1132.75" y="245.0" dominant-baseline="middle" text-anchor="middle" font-size="14px">T^-1</text><circle cx="1194.2451171875" cy="545.0" r="10.0" /><rect x="1174.2451171875" y="475.0" width="40" height="40" stroke="black" fill="white" stroke-width="1" /><text x="1194.2451171875" y="495.0" dominant-baseline="middle" text-anchor="middle" font-size="18px">X</text><rect x="1174.2451171875" y="225.0" width="40" height="40" stroke="black" fill="white" stroke-width="1" /><text x="1194.2451171875" y="245.0" dominant-baseline="middle" text-anchor="middle" font-size="18px">X</text><rect x="1174.2451171875" y="425.0" width="40" height="40" stroke="black" fill="white" stroke-width="1" /><text x="1194.2451171875" y="445.0" dominant-baseline="middle" text-anchor="middle" font-size="18px">X</text><rect x="1174.2451171875" y="125.0" width="40" height="40" stroke="black" fill="white" stroke-width="1" /><text x="1194.2451171875" y="145.0" dominant-baseline="middle" text-anchor="middle" font-size="18px">X</text><rect x="1174.2451171875" y="375.0" width="40" height="40" stroke="black" fill="white" stroke-width="1" /><text x="1194.2451171875" y="395.0" dominant-baseline="middle" text-anchor="middle" font-size="18px">X</text><rect x="1174.2451171875" y="275.0" width="40" height="40" stroke="black" fill="white" stroke-width="1" /><text x="1194.2451171875" y="295.0" dominant-baseline="middle" text-anchor="middle" font-size="18px">X</text><rect x="1174.2451171875" y="325.0" width="40" height="40" stroke="black" fill="white" stroke-width="1" /><text x="1194.2451171875" y="345.0" dominant-baseline="middle" text-anchor="middle" font-size="18px">X</text><rect x="1174.2451171875" y="175.0" width="40" height="40" stroke="black" fill="white" stroke-width="1" /><text x="1194.2451171875" y="195.0" dominant-baseline="middle" text-anchor="middle" font-size="18px">X</text><rect x="1234.2451171875" y="175.0" width="42.990234375" height="40" stroke="black" fill="white" stroke-width="1" /><text x="1255.740234375" y="195.0" dominant-baseline="middle" text-anchor="middle" font-size="18px">T</text><rect x="1234.2451171875" y="325.0" width="42.990234375" height="40" stroke="black" fill="white" stroke-width="1" /><text x="1255.740234375" y="345.0" dominant-baseline="middle" text-anchor="middle" font-size="14px">T^-1</text><rect x="1234.2451171875" y="275.0" width="42.990234375" height="40" stroke="black" fill="white" stroke-width="1" /><text x="1255.740234375" y="295.0" dominant-baseline="middle" text-anchor="middle" font-size="18px">T</text><rect x="1234.2451171875" y="375.0" width="42.990234375" height="40" stroke="black" fill="white" stroke-width="1" /><text x="1255.740234375" y="395.0" dominant-baseline="middle" text-anchor="middle" font-size="14px">T^-1</text><rect x="1234.2451171875" y="125.0" width="42.990234375" height="40" stroke="black" fill="white" stroke-width="1" /><text x="1255.740234375" y="145.0" dominant-baseline="middle" text-anchor="middle" font-size="18px">T</text><rect x="1234.2451171875" y="425.0" width="42.990234375" height="40" stroke="black" fill="white" stroke-width="1" /><text x="1255.740234375" y="445.0" dominant-baseline="middle" text-anchor="middle" font-size="14px">T^-1</text><rect x="1234.2451171875" y="225.0" width="42.990234375" height="40" stroke="black" fill="white" stroke-width="1" /><text x="1255.740234375" y="245.0" dominant-baseline="middle" text-anchor="middle" font-size="18px">T</text><rect x="1234.2451171875" y="475.0" width="42.990234375" height="40" stroke="black" fill="white" stroke-width="1" /><text x="1255.740234375" y="495.0" dominant-baseline="middle" text-anchor="middle" font-size="14px">T^-1</text><circle cx="1317.2353515625" cy="545.0" r="10.0" /><rect x="1297.2353515625" y="475.0" width="40" height="40" stroke="black" fill="white" stroke-width="1" /><text x="1317.2353515625" y="495.0" dominant-baseline="middle" text-anchor="middle" font-size="18px">X</text><rect x="1297.2353515625" y="425.0" width="40" height="40" stroke="black" fill="white" stroke-width="1" /><text x="1317.2353515625" y="445.0" dominant-baseline="middle" text-anchor="middle" font-size="18px">X</text><rect x="1297.2353515625" y="375.0" width="40" height="40" stroke="black" fill="white" stroke-width="1" /><text x="1317.2353515625" y="395.0" dominant-baseline="middle" text-anchor="middle" font-size="18px">X</text><rect x="1297.2353515625" y="325.0" width="40" height="40" stroke="black" fill="white" stroke-width="1" /><text x="1317.2353515625" y="345.0" dominant-baseline="middle" text-anchor="middle" font-size="18px">X</text><circle cx="1367.2353515625" cy="345.0" r="10.0" /><rect x="1347.2353515625" y="175.0" width="40" height="40" stroke="black" fill="white" stroke-width="1" /><text x="1367.2353515625" y="195.0" dominant-baseline="middle" text-anchor="middle" font-size="18px">X</text><circle cx="1407.2353515625" cy="395.0" r="10.0" /><rect x="1387.2353515625" y="275.0" width="40" height="40" stroke="black" fill="white" stroke-width="1" /><text x="1407.2353515625" y="295.0" dominant-baseline="middle" text-anchor="middle" font-size="18px">X</text><circle cx="1447.2353515625" cy="445.0" r="10.0" /><rect x="1427.2353515625" y="125.0" width="40" height="40" stroke="black" fill="white" stroke-width="1" /><text x="1447.2353515625" y="145.0" dominant-baseline="middle" text-anchor="middle" font-size="18px">X</text><circle cx="1487.2353515625" cy="495.0" r="10.0" /><rect x="1467.2353515625" y="225.0" width="40" height="40" stroke="black" fill="white" stroke-width="1" /><text x="1487.2353515625" y="245.0" dominant-baseline="middle" text-anchor="middle" font-size="18px">X</text><rect x="1537.2353515625" y="175.0" width="42.990234375" height="40" stroke="black" fill="white" stroke-width="1" /><text x="1558.73046875" y="195.0" dominant-baseline="middle" text-anchor="middle" font-size="14px">T^-1</text><rect x="1537.2353515625" y="275.0" width="42.990234375" height="40" stroke="black" fill="white" stroke-width="1" /><text x="1558.73046875" y="295.0" dominant-baseline="middle" text-anchor="middle" font-size="14px">T^-1</text><rect x="1537.2353515625" y="125.0" width="42.990234375" height="40" stroke="black" fill="white" stroke-width="1" /><text x="1558.73046875" y="145.0" dominant-baseline="middle" text-anchor="middle" font-size="14px">T^-1</text><rect x="1537.2353515625" y="225.0" width="42.990234375" height="40" stroke="black" fill="white" stroke-width="1" /><text x="1558.73046875" y="245.0" dominant-baseline="middle" text-anchor="middle" font-size="14px">T^-1</text><circle cx="1620.2255859375" cy="545.0" r="10.0" /><rect x="1600.2255859375" y="225.0" width="40" height="40" stroke="black" fill="white" stroke-width="1" /><text x="1620.2255859375" y="245.0" dominant-baseline="middle" text-anchor="middle" font-size="18px">X</text><rect x="1600.2255859375" y="125.0" width="40" height="40" stroke="black" fill="white" stroke-width="1" /><text x="1620.2255859375" y="145.0" dominant-baseline="middle" text-anchor="middle" font-size="18px">X</text><rect x="1600.2255859375" y="275.0" width="40" height="40" stroke="black" fill="white" stroke-width="1" /><text x="1620.2255859375" y="295.0" dominant-baseline="middle" text-anchor="middle" font-size="18px">X</text><rect x="1600.2255859375" y="175.0" width="40" height="40" stroke="black" fill="white" stroke-width="1" /><text x="1620.2255859375" y="195.0" dominant-baseline="middle" text-anchor="middle" font-size="18px">X</text><rect x="1660.2255859375" y="525.0" width="40" height="40" stroke="black" fill="white" stroke-width="1" /><text x="1680.2255859375" y="545.0" dominant-baseline="middle" text-anchor="middle" font-size="18px">H</text><circle cx="1730.2255859375" cy="245.0" r="10.0" /><rect x="1710.2255859375" y="125.0" width="40" height="40" stroke="black" fill="white" stroke-width="1" /><text x="1730.2255859375" y="145.0" dominant-baseline="middle" text-anchor="middle" font-size="18px">X</text><circle cx="1770.2255859375" cy="295.0" r="10.0" /><rect x="1750.2255859375" y="175.0" width="40" height="40" stroke="black" fill="white" stroke-width="1" /><text x="1770.2255859375" y="195.0" dominant-baseline="middle" text-anchor="middle" font-size="18px">X</text><rect x="1820.2255859375" y="275.0" width="40" height="40" stroke="black" fill="white" stroke-width="1" /><text x="1840.2255859375" y="295.0" dominant-baseline="middle" text-anchor="middle" font-size="18px">H</text><rect x="1820.2255859375" y="175.0" width="40" height="40" stroke="black" fill="white" stroke-width="1" /><text x="1840.2255859375" y="195.0" dominant-baseline="middle" text-anchor="middle" font-size="18px">H</text><rect x="1820.2255859375" y="225.0" width="40" height="40" stroke="black" fill="white" stroke-width="1" /><text x="1840.2255859375" y="245.0" dominant-baseline="middle" text-anchor="middle" font-size="18px">H</text><rect x="1820.2255859375" y="125.0" width="40" height="40" stroke="black" fill="white" stroke-width="1" /><text x="1840.2255859375" y="145.0" dominant-baseline="middle" text-anchor="middle" font-size="18px">H</text><circle cx="1900.2255859375" cy="95.0" r="10.0" /><rect x="1880.2255859375" y="125.0" width="40" height="40" stroke="black" fill="white" stroke-width="1" /><text x="1900.2255859375" y="145.0" dominant-baseline="middle" text-anchor="middle" font-size="18px">X</text><rect x="1880.2255859375" y="175.0" width="40" height="40" stroke="black" fill="white" stroke-width="1" /><text x="1900.2255859375" y="195.0" dominant-baseline="middle" text-anchor="middle" font-size="18px">X</text><rect x="1940.2255859375" y="175.0" width="40" height="40" stroke="black" fill="white" stroke-width="1" /><text x="1960.2255859375" y="195.0" dominant-baseline="middle" text-anchor="middle" font-size="18px">H</text><rect x="1940.2255859375" y="125.0" width="40" height="40" stroke="black" fill="white" stroke-width="1" /><text x="1960.2255859375" y="145.0" dominant-baseline="middle" text-anchor="middle" font-size="18px">H</text><circle cx="2020.2255859375" cy="145.0" r="10.0" /><rect x="2000.2255859375" y="175.0" width="40" height="40" stroke="black" fill="white" stroke-width="1" /><text x="2020.2255859375" y="195.0" dominant-baseline="middle" text-anchor="middle" font-size="18px">X</text><circle cx="2080.2255859375" cy="45.0" r="10.0" /><rect x="2060.2255859375" y="125.0" width="40" height="40" stroke="black" fill="white" stroke-width="1" /><text x="2080.2255859375" y="145.0" dominant-baseline="middle" text-anchor="middle" font-size="18px">X</text></svg>