<svg xmlns="http://www.w3.org/2000/svg" width="964.2451171875" height="490.0"><line x1="37.63720703125" x2="934.2451171875" y1="45.0" y2="45.0" stroke="#1967d2" stroke-width="1" /><line x1="37.63720703125" x2="934.2451171875" y1="95.0" y2="95.0" stroke="#1967d2" stroke-width="1" /><line x1="37.63720703125" x2="934.2451171875" y1="145.0" y2="145.0" stroke="#1967d2" stroke-width="1" /><line x1="37.63720703125" x2="934.2451171875" y1="195.0" y2="195.0" stroke="#1967d2" stroke-width="1" /><line x1="37.63720703125" x2="934.2451171875" y1="245.0" y2="245.0" stroke="#1967d2" stroke-width="1" /><line x1="37.63720703125" x2="934.2451171875" y1="295.0" y2="295.0" stroke="#1967d2" stroke-width="1" /><line x1="37.63720703125" x2="934.2451171875" y1="345.0" y2="345.0" stroke="#1967d2" stroke-width="1" /><line x1="37.63720703125" x2="934.2451171875" y1="395.0" y2="395.0" stroke="#1967d2" stroke-width="1" /><line x1="37.63720703125" x2="934.2451171875" y1="445.0" y2="445.0" stroke="#1967d2" stroke-width="1" /><line x1="561.2548828125" x2="731.2548828125" y1="5.0" y2="5.0" stroke="black" stroke-width="1" /><line x1="561.2548828125" x2="731.2548828125" y1="485.0" y2="485.0" stroke="black" stroke-width="1" /><line x1="135.2744140625" x2="305.2744140625" y1="5.0" y2="5.0" stroke="black" stroke-width="1" /><line x1="135.2744140625" x2="305.2744140625" y1="485.0" y2="485.0" stroke="black" stroke-width="1" /><line x1="155.2744140625" x2="155.2744140625" y1="95.0" y2="245.0" stroke="black" stroke-width="3" /><line x1="195.2744140625" x2="195.2744140625" y1="195.0" y2="295.0" stroke="black" stroke-width="3" /><line x1="235.2744140625" x2="235.2744140625" y1="45.0" y2="345.0" stroke="black" stroke-width="3" /><line x1="275.2744140625" x2="275.2744140625" y1="145.0" y2="395.0" stroke="black" stroke-width="3" /><line x1="408.2646484375" x2="408.2646484375" y1="45.0" y2="445.0" stroke="black" stroke-width="3" /><line x1="531.2548828125" x2="531.2548828125" y1="245.0" y2="445.0" stroke="black" stroke-width="3" /><line x1="581.2548828125" x2="581.2548828125" y1="95.0" y2="245.0" stroke="black" stroke-width="3" /><line x1="621.2548828125" x2="621.2548828125" y1="195.0" y2="295.0" stroke="black" stroke-width="3" /><line x1="661.2548828125" x2="661.2548828125" y1="45.0" y2="345.0" stroke="black" stroke-width="3" /><line x1="701.2548828125" x2="701.2548828125" y1="145.0" y2="395.0" stroke="black" stroke-width="3" /><line x1="834.2451171875" x2="834.2451171875" y1="45.0" y2="445.0" stroke="black" stroke-width="3" /><line x1="561.2548828125" x2="561.2548828125" y1="5.0" y2="15.0" stroke="black" stroke-width="3" /><line x1="731.2548828125" x2="731.2548828125" y1="5.0" y2="15.0" stroke="black" stroke-width="3" /><line x1="561.2548828125" x2="561.2548828125" y1="475.0" y2="485.0" stroke="black" stroke-width="3" /><line x1="731.2548828125" x2="731.2548828125" y1="475.0" y2="485.0" stroke="black" stroke-width="3" /><line x1="135.2744140625" x2="135.2744140625" y1="5.0" y2="15.0" stroke="black" stroke-width="3" /><line x1="305.2744140625" x2="305.2744140625" y1="5.0" y2="15.0" stroke="black" stroke-width="3" /><line x1="135.2744140625" x2="135.2744140625" y1="475.0" y2="485.0" stroke="black" stroke-width="3" /><line x1="305.2744140625" x2="305.2744140625" y1="475.0" y2="485.0" stroke="black" stroke-width="3" /><rect x="10.0" y="25.0" width="55.2744140625" height="40" stroke="black" fill="white" stroke-width="0" /><text x="37.63720703125" y="45.0" dominant-baseline="middle" text-anchor="middle" font-size="14px">b_00: </text><rect x="10.0" y="75.0" width="55.2744140625" height="40" stroke="black" fill="white" stroke-width="0" /><text x="37.63720703125" y="95.0" dominant-baseline="middle" text-anchor="middle" font-size="14px">b_01: </text><rect x="10.0" y="125.0" width="55.2744140625" height="40" stroke="black" fill="white" stroke-width="0" /><text x="37.63720703125" y="145.0" dominant-baseline="middle" text-anchor="middle" font-size="14px">b_10: </text><rect x="10.0" y="175.0" width="55.2744140625" height="40" stroke="black" fill="white" stroke-width="0" /><text x="37.63720703125" y="195.0" dominant-baseline="middle" text-anchor="middle" font-size="14px">b_11: </text><rect x="10.0" y="225.0" width="55.2744140625" height="40" stroke="black" fill="white" stroke-width="0" /><text x="37.63720703125" y="245.0" dominant-baseline="middle" text-anchor="middle" font-size="14px">m00: </text><rect x="10.0" y="275.0" width="55.2744140625" height="40" stroke="black" fill="white" stroke-width="0" /><text x="37.63720703125" y="295.0" dominant-baseline="middle" text-anchor="middle" font-size="14px">m01: </text><rect x="10.0" y="325.0" width="55.2744140625" height="40" stroke="black" fill="white" stroke-width="0" /><text x="37.63720703125" y="345.0" dominant-baseline="middle" text-anchor="middle" font-size="14px">m10: </text><rect x="10.0" y="375.0" width="55.2744140625" height="40" stroke="black" fill="white" stroke-width="0" /><text x="37.63720703125" y="395.0" dominant-baseline="middle" text-anchor="middle" font-size="14px">m11: </text><rect x="10.0" y="425.0" width="55.2744140625" height="40" stroke="black" fill="white" stroke-width="0" /><text x="37.63720703125" y="445.0" dominant-baseline="middle" text-anchor="middle" font-size="14px">target: </text><rect x="85.2744140625" y="425.0" width="40" height="40" stroke="black" fill="white" stroke-width="1" /><text x="105.2744140625" y="445.0" dominant-baseline="middle" text-anchor="middle" font-size="18px">H</text><rect x="85.2744140625" y="75.0" width="40" height="40" stroke="black" fill="white" stroke-width="1" /><text x="105.2744140625" y="95.0" dominant-baseline="middle" text-anchor="middle" font-size="18px">T</text><rect x="85.2744140625" y="225.0" width="40" height="40" stroke="black" fill="white" stroke-width="1" /><text x="105.2744140625" y="245.0" dominant-baseline="middle" text-anchor="middle" font-size="18px">T</text><rect x="85.2744140625" y="175.0" width="40" height="40" stroke="black" fill="white" stroke-width="1" /><text x="105.2744140625" y="195.0" dominant-baseline="middle" text-anchor="middle" font-size="18px">T</text><rect x="85.2744140625" y="275.0" width="40" height="40" stroke="black" fill="white" stroke-width="1" /><text x="105.2744140625" y="295.0" dominant-baseline="middle" text-anchor="middle" font-size="18px">T</text><rect x="85.2744140625" y="25.0" width="40" height="40" stroke="black" fill="white" stroke-width="1" /><text x="105.2744140625" y="45.0" dominant-baseline="middle" text-anchor="middle" font-size="18px">T</text><rect x="85.2744140625" y="325.0" width="40" height="40" stroke="black" fill="white" stroke-width="1" /><text x="105.2744140625" y="345.0" dominant-baseline="middle" text-anchor="middle" font-size="18px">T</text><rect x="85.2744140625" y="125.0" width="40" height="40" stroke="black" fill="white" stroke-width="1" /><text x="105.2744140625" y="145.0" dominant-baseline="middle" text-anchor="middle" font-size="18px">T</text><rect x="85.2744140625" y="375.0" width="40" height="40" stroke="black" fill="white" stroke-width="1" /><text x="105.2744140625" y="395.0" dominant-baseline="middle" text-anchor="middle" font-size="18px">T</text><rect x="135.2744140625" y="425.0" width="40" height="40" stroke="black" fill="white" stroke-width="1" /><text x="155.2744140625" y="445.0" dominant-baseline="middle" text-anchor="middle" font-size="18px">Z</text><circle cx="155.2744140625" cy="245.0" r="10.0" /><rect x="135.2744140625" y="75.0" width="40" height="40" stroke="black" fill="white" stroke-width="1" /><text x="155.2744140625" y="95.0" dominant-baseline="middle" text-anchor="middle" font-size="18px">X</text><circle cx="195.2744140625" cy="295.0" r="10.0" /><rect x="175.2744140625" y="175.0" width="40" height="40" stroke="black" fill="white" stroke-width="1" /><text x="195.2744140625" y="195.0" dominant-baseline="middle" text-anchor="middle" font-size="18px">X</text><circle cx="235.2744140625" cy="345.0" r="10.0" /><rect x="215.2744140625" y="25.0" width="40" height="40" stroke="black" fill="white" stroke-width="1" /><text x="235.2744140625" y="45.0" dominant-baseline="middle" text-anchor="middle" font-size="18px">X</text><circle cx="275.2744140625" cy="395.0" r="10.0" /><rect x="255.2744140625" y="125.0" width="40" height="40" stroke="black" fill="white" stroke-width="1" /><text x="275.2744140625" y="145.0" dominant-baseline="middle" text-anchor="middle" font-size="18px">X</text><rect x="325.2744140625" y="75.0" width="42.990234375" height="40" stroke="black" fill="white" stroke-width="1" /><text x="346.76953125" y="95.0" dominant-baseline="middle" text-anchor="middle" font-size="14px">T^-1</text><rect x="325.2744140625" y="175.0" width="42.990234375" height="40" stroke="black" fill="white" stroke-width="1" /><text x="346.76953125" y="195.0" dominant-baseline="middle" text-anchor="middle" font-size="14px">T^-1</text><rect x="325.2744140625" y="25.0" width="42.990234375" height="40" stroke="black" fill="white" stroke-width="1" /><text x="346.76953125" y="45.0" dominant-baseline="middle" text-anchor="middle" font-size="14px">T^-1</text><rect x="325.2744140625" y="125.0" width="42.990234375" height="40" stroke="black" fill="white" stroke-width="1" /><text x="346.76953125" y="145.0" dominant-baseline="middle" text-anchor="middle" font-size="14px">T^-1</text><circle cx="408.2646484375" cy="445.0" r="10.0" /><rect x="388.2646484375" y="375.0" width="40" height="40" stroke="black" fill="white" stroke-width="1" /><text x="408.2646484375" y="395.0" dominant-baseline="middle" text-anchor="middle" font-size="18px">X</text><rect x="388.2646484375" y="125.0" width="40" height="40" stroke="black" fill="white" stroke-width="1" /><text x="408.2646484375" y="145.0" dominant-baseline="middle" text-anchor="middle" font-size="18px">X</text><rect x="388.2646484375" y="325.0" width="40" height="40" stroke="black" fill="white" stroke-width="1" /><text x="408.2646484375" y="345.0" dominant-baseline="middle" text-anchor="middle" font-size="18px">X</text><rect x="388.2646484375" y="25.0" width="40" height="40" stroke="black" fill="white" stroke-width="1" /><text x="408.2646484375" y="45.0" dominant-baseline="middle" text-anchor="middle" font-size="18px">X</text><rect x="388.2646484375" y="275.0" width="40" height="40" stroke="black" fill="white" stroke-width="1" /><text x="408.2646484375" y="295.0" dominant-baseline="middle" text-anchor="middle" font-size="18px">X</text><rect x="388.2646484375" y="175.0" width="40" height="40" stroke="black" fill="white" stroke-width="1" /><text x="408.2646484375" y="195.0" dominant-baseline="middle" text-anchor="middle" font-size="18px">X</text><rect x="388.2646484375" y="225.0" width="40" height="40" stroke="black" fill="white" stroke-width="1" /><text x="408.2646484375" y="245.0" dominant-baseline="middle" text-anchor="middle" font-size="18px">X</text><rect x="388.2646484375" y="75.0" width="40" height="40" stroke="black" fill="white" stroke-width="1" /><text x="408.2646484375" y="95.0" dominant-baseline="middle" text-anchor="middle" font-size="18px">X</text><rect x="448.2646484375" y="75.0" width="42.990234375" height="40" stroke="black" fill="white" stroke-width="1" /><text x="469.759765625" y="95.0" dominant-baseline="middle" text-anchor="middle" font-size="18px">T</text><rect x="448.2646484375" y="225.0" width="42.990234375" height="40" stroke="black" fill="white" stroke-width="1" /><text x="469.759765625" y="245.0" dominant-baseline="middle" text-anchor="middle" font-size="14px">T^-1</text><rect x="448.2646484375" y="175.0" width="42.990234375" height="40" stroke="black" fill="white" stroke-width="1" /><text x="469.759765625" y="195.0" dominant-baseline="middle" text-anchor="middle" font-size="18px">T</text><rect x="448.2646484375" y="275.0" width="42.990234375" height="40" stroke="black" fill="white" stroke-width="1" /><text x="469.759765625" y="295.0" dominant-baseline="middle" text-anchor="middle" font-size="14px">T^-1</text><rect x="448.2646484375" y="25.0" width="42.990234375" height="40" stroke="black" fill="white" stroke-width="1" /><text x="469.759765625" y="45.0" dominant-baseline="middle" text-anchor="middle" font-size="18px">T</text><rect x="448.2646484375" y="325.0" width="42.990234375" height="40" stroke="black" fill="white" stroke-width="1" /><text x="469.759765625" y="345.0" dominant-baseline="middle" text-anchor="middle" font-size="14px">T^-1</text><rect x="448.2646484375" y="125.0" width="42.990234375" height="40" stroke="black" fill="white" stroke-width="1" /><text x="469.759765625" y="145.0" dominant-baseline="middle" text-anchor="middle" font-size="18px">T</text><rect x="448.2646484375" y="375.0" width="42.990234375" height="40" stroke="black" fill="white" stroke-width="1" /><text x="469.759765625" y="395.0" dominant-baseline="middle" text-anchor="middle" font-size="14px">T^-1</text><circle cx="531.2548828125" cy="445.0" r="10.0" /><rect x="511.2548828125" y="375.0" width="40" height="40" stroke="black" fill="white" stroke-width="1" /><text x="531.2548828125" y="395.0" dominant-baseline="middle" text-anchor="middle" font-size="18px">X</text><rect x="511.2548828125" y="325.0" width="40" height="40" stroke="black" fill="white" stroke-width="1" /><text x="531.2548828125" y="345.0" dominant-baseline="middle" text-anchor="middle" font-size="18px">X</text><rect x="511.2548828125" y="275.0" width="40" height="40" stroke="black" fill="white" stroke-width="1" /><text x="531.2548828125" y="295.0" dominant-baseline="middle" text-anchor="middle" font-size="18px">X</text><rect x="511.2548828125" y="225.0" width="40" height="40" stroke="black" fill="white" stroke-width="1" /><text x="531.2548828125" y="245.0" dominant-baseline="middle" text-anchor="middle" font-size="18px">X</text><circle cx="581.2548828125" cy="245.0" r="10.0" /><rect x="561.2548828125" y="75.0" width="40" height="40" stroke="black" fill="white" stroke-width="1" /><text x="581.2548828125" y="95.0" dominant-baseline="middle" text-anchor="middle" font-size="18px">X</text><circle cx="621.2548828125" cy="295.0" r="10.0" /><rect x="601.2548828125" y="175.0" width="40" height="40" stroke="black" fill="white" stroke-width="1" /><text x="621.2548828125" y="195.0" dominant-baseline="middle" text-anchor="middle" font-size="18px">X</text><circle cx="661.2548828125" cy="345.0" r="10.0" /><rect x="641.2548828125" y="25.0" width="40" height="40" stroke="black" fill="white" stroke-width="1" /><text x="661.2548828125" y="45.0" dominant-baseline="middle" text-anchor="middle" font-size="18px">X</text><circle cx="701.2548828125" cy="395.0" r="10.0" /><rect x="681.2548828125" y="125.0" width="40" height="40" stroke="black" fill="white" stroke-width="1" /><text x="701.2548828125" y="145.0" dominant-baseline="middle" text-anchor="middle" font-size="18px">X</text><rect x="751.2548828125" y="75.0" width="42.990234375" height="40" stroke="black" fill="white" stroke-width="1" /><text x="772.75" y="95.0" dominant-baseline="middle" text-anchor="middle" font-size="14px">T^-1</text><rect x="751.2548828125" y="175.0" width="42.990234375" height="40" stroke="black" fill="white" stroke-width="1" /><text x="772.75" y="195.0" dominant-baseline="middle" text-anchor="middle" font-size="14px">T^-1</text><rect x="751.2548828125" y="25.0" width="42.990234375" height="40" stroke="black" fill="white" stroke-width="1" /><text x="772.75" y="45.0" dominant-baseline="middle" text-anchor="middle" font-size="14px">T^-1</text><rect x="751.2548828125" y="125.0" width="42.990234375" height="40" stroke="black" fill="white" stroke-width="1" /><text x="772.75" y="145.0" dominant-baseline="middle" text-anchor="middle" font-size="14px">T^-1</text><circle cx="834.2451171875" cy="445.0" r="10.0" /><rect x="814.2451171875" y="125.0" width="40" height="40" stroke="black" fill="white" stroke-width="1" /><text x="834.2451171875" y="145.0" dominant-baseline="middle" text-anchor="middle" font-size="18px">X</text><rect x="814.2451171875" y="25.0" width="40" height="40" stroke="black" fill="white" stroke-width="1" /><text x="834.2451171875" y="45.0" dominant-baseline="middle" text-anchor="middle" font-size="18px">X</text><rect x="814.2451171875" y="175.0" width="40" height="40" stroke="black" fill="white" stroke-width="1" /><text x="834.2451171875" y="195.0" dominant-baseline="middle" text-anchor="middle" font-size="18px">X</text><rect x="814.2451171875" y="75.0" width="40" height="40" stroke="black" fill="white" stroke-width="1" /><text x="834.2451171875" y="95.0" dominant-baseline="middle" text-anchor="middle" font-size="18px">X</text><rect x="874.2451171875" y="425.0" width="40" height="40" stroke="black" fill="white" stroke-width="1" /><text x="894.2451171875" y="445.0" dominant-baseline="middle" text-anchor="middle" font-size="18px">H</text></svg>