<svg xmlns="http://www.w3.org/2000/svg" width="1284.2451171875" height="890.0"><line x1="37.63720703125" x2="1254.2451171875" y1="45.0" y2="45.0" stroke="#1967d2" stroke-width="1" /><line x1="37.63720703125" x2="1254.2451171875" y1="95.0" y2="95.0" stroke="#1967d2" stroke-width="1" /><line x1="37.63720703125" x2="1254.2451171875" y1="145.0" y2="145.0" stroke="#1967d2" stroke-width="1" /><line x1="37.63720703125" x2="1254.2451171875" y1="195.0" y2="195.0" stroke="#1967d2" stroke-width="1" /><line x1="37.63720703125" x2="1254.2451171875" y1="245.0" y2="245.0" stroke="#1967d2" stroke-width="1" /><line x1="37.63720703125" x2="1254.2451171875" y1="295.0" y2="295.0" stroke="#1967d2" stroke-width="1" /><line x1="37.63720703125" x2="1254.2451171875" y1="345.0" y2="345.0" stroke="#1967d2" stroke-width="1" /><line x1="37.63720703125" x2="1254.2451171875" y1="395.0" y2="395.0" stroke="#1967d2" stroke-width="1" /><line x1="37.63720703125" x2="1254.2451171875" y1="445.0" y2="445.0" stroke="#1967d2" stroke-width="1" /><line x1="37.63720703125" x2="1254.2451171875" y1="495.0" y2="495.0" stroke="#1967d2" stroke-width="1" /><line x1="37.63720703125" x2="1254.2451171875" y1="545.0" y2="545.0" stroke="#1967d2" stroke-width="1" /><line x1="37.63720703125" x2="1254.2451171875" y1="595.0" y2="595.0" stroke="#1967d2" stroke-width="1" /><line x1="37.63720703125" x2="1254.2451171875" y1="645.0" y2="645.0" stroke="#1967d2" stroke-width="1" /><line x1="37.63720703125" x2="1254.2451171875" y1="695.0" y2="695.0" stroke="#1967d2" stroke-width="1" /><line x1="37.63720703125" x2="1254.2451171875" y1="745.0" y2="745.0" stroke="#1967d2" stroke-width="1" /><line x1="37.63720703125" x2="1254.2451171875" y1="795.0" y2="795.0" stroke="#1967d2" stroke-width="1" /><line x1="37.63720703125" x2="1254.2451171875" y1="845.0" y2="845.0" stroke="#1967d2" stroke-width="1" /><line x1="721.2548828125" x2="1051.2548828125" y1="5.0" y2="5.0" stroke="black" stroke-width="1" /><line x1="721.2548828125" x2="1051.2548828125" y1="885.0" y2="885.0" stroke="black" stroke-width="1" /><line x1="135.2744140625" x2="465.2744140625" y1="5.0" y2="5.0" stroke="black" stroke-width="1" /><line x1="135.2744140625" x2="465.2744140625" y1="885.0" y2="885.0" stroke="black" stroke-width="1" /><line x1="155.2744140625" x2="155.2744140625" y1="95.0" y2="445.0" stroke="black" stroke-width="3" /><line x1="195.2744140625" x2="195.2744140625" y1="395.0" y2="495.0" stroke="black" stroke-width="3" /><line x1="235.2744140625" x2="235.2744140625" y1="195.0" y2="545.0" stroke="black" stroke-width="3" /><line x1="275.2744140625" x2="275.2744140625" y1="345.0" y2="595.0" stroke="black" stroke-width="3" /><line x1="315.2744140625" x2="315.2744140625" y1="45.0" y2="645.0" stroke="black" stroke-width="3" /><line x1="355.2744140625" x2="355.2744140625" y1="295.0" y2="695.0" stroke="black" stroke-width="3" /><line x1="395.2744140625" x2="395.2744140625" y1="145.0" y2="745.0" stroke="black" stroke-width="3" /><line x1="435.2744140625" x2="435.2744140625" y1="245.0" y2="795.0" stroke="black" stroke-width="3" /><line x1="568.2646484375" x2="568.2646484375" y1="45.0" y2="845.0" stroke="black" stroke-width="3" /><line x1="691.2548828125" x2="691.2548828125" y1="445.0" y2="845.0" stroke="black" stroke-width="3" /><line x1="741.2548828125" x2="741.2548828125" y1="95.0" y2="445.0" stroke="black" stroke-width="3" /><line x1="781.2548828125" x2="781.2548828125" y1="395.0" y2="495.0" stroke="black" stroke-width="3" /><line x1="821.2548828125" x2="821.2548828125" y1="195.0" y2="545.0" stroke="black" stroke-width="3" /><line x1="861.2548828125" x2="861.2548828125" y1="345.0" y2="595.0" stroke="black" stroke-width="3" /><line x1="901.2548828125" x2="901.2548828125" y1="45.0" y2="645.0" stroke="black" stroke-width="3" /><line x1="941.2548828125" x2="941.2548828125" y1="295.0" y2="695.0" stroke="black" stroke-width="3" /><line x1="981.2548828125" x2="981.2548828125" y1="145.0" y2="745.0" stroke="black" stroke-width="3" /><line x1="1021.2548828125" x2="1021.2548828125" y1="245.0" y2="795.0" stroke="black" stroke-width="3" /><line x1="1154.2451171875" x2="1154.2451171875" y1="45.0" y2="845.0" stroke="black" stroke-width="3" /><line x1="721.2548828125" x2="721.2548828125" y1="5.0" y2="15.0" stroke="black" stroke-width="3" /><line x1="1051.2548828125" x2="1051.2548828125" y1="5.0" y2="15.0" stroke="black" stroke-width="3" /><line x1="721.2548828125" x2="721.2548828125" y1="875.0" y2="885.0" stroke="black" stroke-width="3" /><line x1="1051.2548828125" x2="1051.2548828125" y1="875.0" y2="885.0" stroke="black" stroke-width="3" /><line x1="135.2744140625" x2="135.2744140625" y1="5.0" y2="15.0" stroke="black" stroke-width="3" /><line x1="465.2744140625" x2="465.2744140625" y1="5.0" y2="15.0" stroke="black" stroke-width="3" /><line x1="135.2744140625" x2="135.2744140625" y1="875.0" y2="885.0" stroke="black" stroke-width="3" /><line x1="465.2744140625" x2="465.2744140625" y1="875.0" y2="885.0" stroke="black" stroke-width="3" /><rect x="10.0" y="25.0" width="55.2744140625" height="40" stroke="black" fill="white" stroke-width="0" /><text x="37.63720703125" y="45.0" dominant-baseline="middle" text-anchor="middle" font-size="14px">b_000: </text><rect x="10.0" y="75.0" width="55.2744140625" height="40" stroke="black" fill="white" stroke-width="0" /><text x="37.63720703125" y="95.0" dominant-baseline="middle" text-anchor="middle" font-size="14px">b_001: </text><rect x="10.0" y="125.0" width="55.2744140625" height="40" stroke="black" fill="white" stroke-width="0" /><text x="37.63720703125" y="145.0" dominant-baseline="middle" text-anchor="middle" font-size="14px">b_010: </text><rect x="10.0" y="175.0" width="55.2744140625" height="40" stroke="black" fill="white" stroke-width="0" /><text x="37.63720703125" y="195.0" dominant-baseline="middle" text-anchor="middle" font-size="14px">b_011: </text><rect x="10.0" y="225.0" width="55.2744140625" height="40" stroke="black" fill="white" stroke-width="0" /><text x="37.63720703125" y="245.0" dominant-baseline="middle" text-anchor="middle" font-size="14px">b_100: </text><rect x="10.0" y="275.0" width="55.2744140625" height="40" stroke="black" fill="white" stroke-width="0" /><text x="37.63720703125" y="295.0" dominant-baseline="middle" text-anchor="middle" font-size="14px">b_101: </text><rect x="10.0" y="325.0" width="55.2744140625" height="40" stroke="black" fill="white" stroke-width="0" /><text x="37.63720703125" y="345.0" dominant-baseline="middle" text-anchor="middle" font-size="14px">b_110: </text><rect x="10.0" y="375.0" width="55.2744140625" height="40" stroke="black" fill="white" stroke-width="0" /><text x="37.63720703125" y="395.0" dominant-baseline="middle" text-anchor="middle" font-size="14px">b_111: </text><rect x="10.0" y="425.0" width="55.2744140625" height="40" stroke="black" fill="white" stroke-width="0" /><text x="37.63720703125" y="445.0" dominant-baseline="middle" text-anchor="middle" font-size="14px">m000: </text><rect x="10.0" y="475.0" width="55.2744140625" height="40" stroke="black" fill="white" stroke-width="0" /><text x="37.63720703125" y="495.0" dominant-baseline="middle" text-anchor="middle" font-size="14px">m001: </text><rect x="10.0" y="525.0" width="55.2744140625" height="40" stroke="black" fill="white" stroke-width="0" /><text x="37.63720703125" y="545.0" dominant-baseline="middle" text-anchor="middle" font-size="14px">m010: </text><rect x="10.0" y="575.0" width="55.2744140625" height="40" stroke="black" fill="white" stroke-width="0" /><text x="37.63720703125" y="595.0" dominant-baseline="middle" text-anchor="middle" font-size="14px">m011: </text><rect x="10.0" y="625.0" width="55.2744140625" height="40" stroke="black" fill="white" stroke-width="0" /><text x="37.63720703125" y="645.0" dominant-baseline="middle" text-anchor="middle" font-size="14px">m100: </text><rect x="10.0" y="675.0" width="55.2744140625" height="40" stroke="black" fill="white" stroke-width="0" /><text x="37.63720703125" y="695.0" dominant-baseline="middle" text-anchor="middle" font-size="14px">m101: </text><rect x="10.0" y="725.0" width="55.2744140625" height="40" stroke="black" fill="white" stroke-width="0" /><text x="37.63720703125" y="745.0" dominant-baseline="middle" text-anchor="middle" font-size="14px">m110: </text><rect x="10.0" y="775.0" width="55.2744140625" height="40" stroke="black" fill="white" stroke-width="0" /><text x="37.63720703125" y="795.0" dominant-baseline="middle" text-anchor="middle" font-size="14px">m111: </text><rect x="10.0" y="825.0" width="55.2744140625" height="40" stroke="black" fill="white" stroke-width="0" /><text x="37.63720703125" y="845.0" dominant-baseline="middle" text-anchor="middle" font-size="14px">target: </text><rect x="85.2744140625" y="825.0" width="40" height="40" stroke="black" fill="white" stroke-width="1" /><text x="105.2744140625" y="845.0" dominant-baseline="middle" text-anchor="middle" font-size="18px">H</text><rect x="85.2744140625" y="75.0" width="40" height="40" stroke="black" fill="white" stroke-width="1" /><text x="105.2744140625" y="95.0" dominant-baseline="middle" text-anchor="middle" font-size="18px">T</text><rect x="85.2744140625" y="425.0" width="40" height="40" stroke="black" fill="white" stroke-width="1" /><text x="105.2744140625" y="445.0" dominant-baseline="middle" text-anchor="middle" font-size="18px">T</text><rect x="85.2744140625" y="375.0" width="40" height="40" stroke="black" fill="white" stroke-width="1" /><text x="105.2744140625" y="395.0" dominant-baseline="middle" text-anchor="middle" font-size="18px">T</text><rect x="85.2744140625" y="475.0" width="40" height="40" stroke="black" fill="white" stroke-width="1" /><text x="105.2744140625" y="495.0" dominant-baseline="middle" text-anchor="middle" font-size="18px">T</text><rect x="85.2744140625" y="175.0" width="40" height="40" stroke="black" fill="white" stroke-width="1" /><text x="105.2744140625" y="195.0" dominant-baseline="middle" text-anchor="middle" font-size="18px">T</text><rect x="85.2744140625" y="525.0" width="40" height="40" stroke="black" fill="white" stroke-width="1" /><text x="105.2744140625" y="545.0" dominant-baseline="middle" text-anchor="middle" font-size="18px">T</text><rect x="85.2744140625" y="325.0" width="40" height="40" stroke="black" fill="white" stroke-width="1" /><text x="105.2744140625" y="345.0" dominant-baseline="middle" text-anchor="middle" font-size="18px">T</text><rect x="85.2744140625" y="575.0" width="40" height="40" stroke="black" fill="white" stroke-width="1" /><text x="105.2744140625" y="595.0" dominant-baseline="middle" text-anchor="middle" font-size="18px">T</text><rect x="85.2744140625" y="25.0" width="40" height="40" stroke="black" fill="white" stroke-width="1" /><text x="105.2744140625" y="45.0" dominant-baseline="middle" text-anchor="middle" font-size="18px">T</text><rect x="85.2744140625" y="625.0" width="40" height="40" stroke="black" fill="white" stroke-width="1" /><text x="105.2744140625" y="645.0" dominant-baseline="middle" text-anchor="middle" font-size="18px">T</text><rect x="85.2744140625" y="275.0" width="40" height="40" stroke="black" fill="white" stroke-width="1" /><text x="105.2744140625" y="295.0" dominant-baseline="middle" text-anchor="middle" font-size="18px">T</text><rect x="85.2744140625" y="675.0" width="40" height="40" stroke="black" fill="white" stroke-width="1" /><text x="105.2744140625" y="695.0" dominant-baseline="middle" text-anchor="middle" font-size="18px">T</text><rect x="85.2744140625" y="125.0" width="40" height="40" stroke="black" fill="white" stroke-width="1" /><text x="105.2744140625" y="145.0" dominant-baseline="middle" text-anchor="middle" font-size="18px">T</text><rect x="85.2744140625" y="725.0" width="40" height="40" stroke="black" fill="white" stroke-width="1" /><text x="105.2744140625" y="745.0" dominant-baseline="middle" text-anchor="middle" font-size="18px">T</text><rect x="85.2744140625" y="225.0" width="40" height="40" stroke="black" fill="white" stroke-width="1" /><text x="105.2744140625" y="245.0" dominant-baseline="middle" text-anchor="middle" font-size="18px">T</text><rect x="85.2744140625" y="775.0" width="40" height="40" stroke="black" fill="white" stroke-width="1" /><text x="105.2744140625" y="795.0" dominant-baseline="middle" text-anchor="middle" font-size="18px">T</text><circle cx="155.2744140625" cy="445.0" r="10.0" /><rect x="135.2744140625" y="75.0" width="40" height="40" stroke="black" fill="white" stroke-width="1" /><text x="155.2744140625" y="95.0" dominant-baseline="middle" text-anchor="middle" font-size="18px">X</text><circle cx="195.2744140625" cy="495.0" r="10.0" /><rect x="175.2744140625" y="375.0" width="40" height="40" stroke="black" fill="white" stroke-width="1" /><text x="195.2744140625" y="395.0" dominant-baseline="middle" text-anchor="middle" font-size="18px">X</text><circle cx="235.2744140625" cy="545.0" r="10.0" /><rect x="215.2744140625" y="175.0" width="40" height="40" stroke="black" fill="white" stroke-width="1" /><text x="235.2744140625" y="195.0" dominant-baseline="middle" text-anchor="middle" font-size="18px">X</text><circle cx="275.2744140625" cy="595.0" r="10.0" /><rect x="255.2744140625" y="325.0" width="40" height="40" stroke="black" fill="white" stroke-width="1" /><text x="275.2744140625" y="345.0" dominant-baseline="middle" text-anchor="middle" font-size="18px">X</text><circle cx="315.2744140625" cy="645.0" r="10.0" /><rect x="295.2744140625" y="25.0" width="40" height="40" stroke="black" fill="white" stroke-width="1" /><text x="315.2744140625" y="45.0" dominant-baseline="middle" text-anchor="middle" font-size="18px">X</text><circle cx="355.2744140625" cy="695.0" r="10.0" /><rect x="335.2744140625" y="275.0" width="40" height="40" stroke="black" fill="white" stroke-width="1" /><text x="355.2744140625" y="295.0" dominant-baseline="middle" text-anchor="middle" font-size="18px">X</text><circle cx="395.2744140625" cy="745.0" r="10.0" /><rect x="375.2744140625" y="125.0" width="40" height="40" stroke="black" fill="white" stroke-width="1" /><text x="395.2744140625" y="145.0" dominant-baseline="middle" text-anchor="middle" font-size="18px">X</text><circle cx="435.2744140625" cy="795.0" r="10.0" /><rect x="415.2744140625" y="225.0" width="40" height="40" stroke="black" fill="white" stroke-width="1" /><text x="435.2744140625" y="245.0" dominant-baseline="middle" text-anchor="middle" font-size="18px">X</text><rect x="485.2744140625" y="75.0" width="42.990234375" height="40" stroke="black" fill="white" stroke-width="1" /><text x="506.76953125" y="95.0" dominant-baseline="middle" text-anchor="middle" font-size="14px">T^-1</text><rect x="485.2744140625" y="375.0" width="42.990234375" height="40" stroke="black" fill="white" stroke-width="1" /><text x="506.76953125" y="395.0" dominant-baseline="middle" text-anchor="middle" font-size="14px">T^-1</text><rect x="485.2744140625" y="175.0" width="42.990234375" height="40" stroke="black" fill="white" stroke-width="1" /><text x="506.76953125" y="195.0" dominant-baseline="middle" text-anchor="middle" font-size="14px">T^-1</text><rect x="485.2744140625" y="325.0" width="42.990234375" height="40" stroke="black" fill="white" stroke-width="1" /><text x="506.76953125" y="345.0" dominant-baseline="middle" text-anchor="middle" font-size="14px">T^-1</text><rect x="485.2744140625" y="25.0" width="42.990234375" height="40" stroke="black" fill="white" stroke-width="1" /><text x="506.76953125" y="45.0" dominant-baseline="middle" text-anchor="middle" font-size="14px">T^-1</text><rect x="485.2744140625" y="275.0" width="42.990234375" height="40" stroke="black" fill="white" stroke-width="1" /><text x="506.76953125" y="295.0" dominant-baseline="middle" text-anchor="middle" font-size="14px">T^-1</text><rect x="485.2744140625" y="125.0" width="42.990234375" height="40" stroke="black" fill="white" stroke-width="1" /><text x="506.76953125" y="145.0" dominant-baseline="middle" text-anchor="middle" font-size="14px">T^-1</text><rect x="485.2744140625" y="225.0" width="42.990234375" height="40" stroke="black" fill="white" stroke-width="1" /><text x="506.76953125" y="245.0" dominant-baseline="middle" text-anchor="middle" font-size="14px">T^-1</text><circle cx="568.2646484375" cy="845.0" r="10.0" /><rect x="548.2646484375" y="775.0" width="40" height="40" stroke="black" fill="white" stroke-width="1" /><text x="568.2646484375" y="795.0" dominant-baseline="middle" text-anchor="middle" font-size="18px">X</text><rect x="548.2646484375" y="225.0" width="40" height="40" stroke="black" fill="white" stroke-width="1" /><text x="568.2646484375" y="245.0" dominant-baseline="middle" text-anchor="middle" font-size="18px">X</text><rect x="548.2646484375" y="725.0" width="40" height="40" stroke="black" fill="white" stroke-width="1" /><text x="568.2646484375" y="745.0" dominant-baseline="middle" text-anchor="middle" font-size="18px">X</text><rect x="548.2646484375" y="125.0" width="40" height="40" stroke="black" fill="white" stroke-width="1" /><text x="568.2646484375" y="145.0" dominant-baseline="middle" text-anchor="middle" font-size="18px">X</text><rect x="548.2646484375" y="675.0" width="40" height="40" stroke="black" fill="white" stroke-width="1" /><text x="568.2646484375" y="695.0" dominant-baseline="middle" text-anchor="middle" font-size="18px">X</text><rect x="548.2646484375" y="275.0" width="40" height="40" stroke="black" fill="white" stroke-width="1" /><text x="568.2646484375" y="295.0" dominant-baseline="middle" text-anchor="middle" font-size="18px">X</text><rect x="548.2646484375" y="625.0" width="40" height="40" stroke="black" fill="white" stroke-width="1" /><text x="568.2646484375" y="645.0" dominant-baseline="middle" text-anchor="middle" font-size="18px">X</text><rect x="548.2646484375" y="25.0" width="40" height="40" stroke="black" fill="white" stroke-width="1" /><text x="568.2646484375" y="45.0" dominant-baseline="middle" text-anchor="middle" font-size="18px">X</text><rect x="548.2646484375" y="575.0" width="40" height="40" stroke="black" fill="white" stroke-width="1" /><text x="568.2646484375" y="595.0" dominant-baseline="middle" text-anchor="middle" font-size="18px">X</text><rect x="548.2646484375" y="325.0" width="40" height="40" stroke="black" fill="white" stroke-width="1" /><text x="568.2646484375" y="345.0" dominant-baseline="middle" text-anchor="middle" font-size="18px">X</text><rect x="548.2646484375" y="525.0" width="40" height="40" stroke="black" fill="white" stroke-width="1" /><text x="568.2646484375" y="545.0" dominant-baseline="middle" text-anchor="middle" font-size="18px">X</text><rect x="548.2646484375" y="175.0" width="40" height="40" stroke="black" fill="white" stroke-width="1" /><text x="568.2646484375" y="195.0" dominant-baseline="middle" text-anchor="middle" font-size="18px">X</text><rect x="548.2646484375" y="475.0" width="40" height="40" stroke="black" fill="white" stroke-width="1" /><text x="568.2646484375" y="495.0" dominant-baseline="middle" text-anchor="middle" font-size="18px">X</text><rect x="548.2646484375" y="375.0" width="40" height="40" stroke="black" fill="white" stroke-width="1" /><text x="568.2646484375" y="395.0" dominant-baseline="middle" text-anchor="middle" font-size="18px">X</text><rect x="548.2646484375" y="425.0" width="40" height="40" stroke="black" fill="white" stroke-width="1" /><text x="568.2646484375" y="445.0" dominant-baseline="middle" text-anchor="middle" font-size="18px">X</text><rect x="548.2646484375" y="75.0" width="40" height="40" stroke="black" fill="white" stroke-width="1" /><text x="568.2646484375" y="95.0" dominant-baseline="middle" text-anchor="middle" font-size="18px">X</text><rect x="608.2646484375" y="75.0" width="42.990234375" height="40" stroke="black" fill="white" stroke-width="1" /><text x="629.759765625" y="95.0" dominant-baseline="middle" text-anchor="middle" font-size="18px">T</text><rect x="608.2646484375" y="425.0" width="42.990234375" height="40" stroke="black" fill="white" stroke-width="1" /><text x="629.759765625" y="445.0" dominant-baseline="middle" text-anchor="middle" font-size="14px">T^-1</text><rect x="608.2646484375" y="375.0" width="42.990234375" height="40" stroke="black" fill="white" stroke-width="1" /><text x="629.759765625" y="395.0" dominant-baseline="middle" text-anchor="middle" font-size="18px">T</text><rect x="608.2646484375" y="475.0" width="42.990234375" height="40" stroke="black" fill="white" stroke-width="1" /><text x="629.759765625" y="495.0" dominant-baseline="middle" text-anchor="middle" font-size="14px">T^-1</text><rect x="608.2646484375" y="175.0" width="42.990234375" height="40" stroke="black" fill="white" stroke-width="1" /><text x="629.759765625" y="195.0" dominant-baseline="middle" text-anchor="middle" font-size="18px">T</text><rect x="608.2646484375" y="525.0" width="42.990234375" height="40" stroke="black" fill="white" stroke-width="1" /><text x="629.759765625" y="545.0" dominant-baseline="middle" text-anchor="middle" font-size="14px">T^-1</text><rect x="608.2646484375" y="325.0" width="42.990234375" height="40" stroke="black" fill="white" stroke-width="1" /><text x="629.759765625" y="345.0" dominant-baseline="middle" text-anchor="middle" font-size="18px">T</text><rect x="608.2646484375" y="575.0" width="42.990234375" height="40" stroke="black" fill="white" stroke-width="1" /><text x="629.759765625" y="595.0" dominant-baseline="middle" text-anchor="middle" font-size="14px">T^-1</text><rect x="608.2646484375" y="25.0" width="42.990234375" height="40" stroke="black" fill="white" stroke-width="1" /><text x="629.759765625" y="45.0" dominant-baseline="middle" text-anchor="middle" font-size="18px">T</text><rect x="608.2646484375" y="625.0" width="42.990234375" height="40" stroke="black" fill="white" stroke-width="1" /><text x="629.759765625" y="645.0" dominant-baseline="middle" text-anchor="middle" font-size="14px">T^-1</text><rect x="608.2646484375" y="275.0" width="42.990234375" height="40" stroke="black" fill="white" stroke-width="1" /><text x="629.759765625" y="295.0" dominant-baseline="middle" text-anchor="middle" font-size="18px">T</text><rect x="608.2646484375" y="675.0" width="42.990234375" height="40" stroke="black" fill="white" stroke-width="1" /><text x="629.759765625" y="695.0" dominant-baseline="middle" text-anchor="middle" font-size="14px">T^-1</text><rect x="608.2646484375" y="125.0" width="42.990234375" height="40" stroke="black" fill="white" stroke-width="1" /><text x="629.759765625" y="145.0" dominant-baseline="middle" text-anchor="middle" font-size="18px">T</text><rect x="608.2646484375" y="725.0" width="42.990234375" height="40" stroke="black" fill="white" stroke-width="1" /><text x="629.759765625" y="745.0" dominant-baseline="middle" text-anchor="middle" font-size="14px">T^-1</text><rect x="608.2646484375" y="225.0" width="42.990234375" height="40" stroke="black" fill="white" stroke-width="1" /><text x="629.759765625" y="245.0" dominant-baseline="middle" text-anchor="middle" font-size="18px">T</text><rect x="608.2646484375" y="775.0" width="42.990234375" height="40" stroke="black" fill="white" stroke-width="1" /><text x="629.759765625" y="795.0" dominant-baseline="middle" text-anchor="middle" font-size="14px">T^-1</text><circle cx="691.2548828125" cy="845.0" r="10.0" /><rect x="671.2548828125" y="775.0" width="40" height="40" stroke="black" fill="white" stroke-width="1" /><text x="691.2548828125" y="795.0" dominant-baseline="middle" text-anchor="middle" font-size="18px">X</text><rect x="671.2548828125" y="725.0" width="40" height="40" stroke="black" fill="white" stroke-width="1" /><text x="691.2548828125" y="745.0" dominant-baseline="middle" text-anchor="middle" font-size="18px">X</text><rect x="671.2548828125" y="675.0" width="40" height="40" stroke="black" fill="white" stroke-width="1" /><text x="691.2548828125" y="695.0" dominant-baseline="middle" text-anchor="middle" font-size="18px">X</text><rect x="671.2548828125" y="625.0" width="40" height="40" stroke="black" fill="white" stroke-width="1" /><text x="691.2548828125" y="645.0" dominant-baseline="middle" text-anchor="middle" font-size="18px">X</text><rect x="671.2548828125" y="575.0" width="40" height="40" stroke="black" fill="white" stroke-width="1" /><text x="691.2548828125" y="595.0" dominant-baseline="middle" text-anchor="middle" font-size="18px">X</text><rect x="671.2548828125" y="525.0" width="40" height="40" stroke="black" fill="white" stroke-width="1" /><text x="691.2548828125" y="545.0" dominant-baseline="middle" text-anchor="middle" font-size="18px">X</text><rect x="671.2548828125" y="475.0" width="40" height="40" stroke="black" fill="white" stroke-width="1" /><text x="691.2548828125" y="495.0" dominant-baseline="middle" text-anchor="middle" font-size="18px">X</text><rect x="671.2548828125" y="425.0" width="40" height="40" stroke="black" fill="white" stroke-width="1" /><text x="691.2548828125" y="445.0" dominant-baseline="middle" text-anchor="middle" font-size="18px">X</text><circle cx="741.2548828125" cy="445.0" r="10.0" /><rect x="721.2548828125" y="75.0" width="40" height="40" stroke="black" fill="white" stroke-width="1" /><text x="741.2548828125" y="95.0" dominant-baseline="middle" text-anchor="middle" font-size="18px">X</text><circle cx="781.2548828125" cy="495.0" r="10.0" /><rect x="761.2548828125" y="375.0" width="40" height="40" stroke="black" fill="white" stroke-width="1" /><text x="781.2548828125" y="395.0" dominant-baseline="middle" text-anchor="middle" font-size="18px">X</text><circle cx="821.2548828125" cy="545.0" r="10.0" /><rect x="801.2548828125" y="175.0" width="40" height="40" stroke="black" fill="white" stroke-width="1" /><text x="821.2548828125" y="195.0" dominant-baseline="middle" text-anchor="middle" font-size="18px">X</text><circle cx="861.2548828125" cy="595.0" r="10.0" /><rect x="841.2548828125" y="325.0" width="40" height="40" stroke="black" fill="white" stroke-width="1" /><text x="861.2548828125" y="345.0" dominant-baseline="middle" text-anchor="middle" font-size="18px">X</text><circle cx="901.2548828125" cy="645.0" r="10.0" /><rect x="881.2548828125" y="25.0" width="40" height="40" stroke="black" fill="white" stroke-width="1" /><text x="901.2548828125" y="45.0" dominant-baseline="middle" text-anchor="middle" font-size="18px">X</text><circle cx="941.2548828125" cy="695.0" r="10.0" /><rect x="921.2548828125" y="275.0" width="40" height="40" stroke="black" fill="white" stroke-width="1" /><text x="941.2548828125" y="295.0" dominant-baseline="middle" text-anchor="middle" font-size="18px">X</text><circle cx="981.2548828125" cy="745.0" r="10.0" /><rect x="961.2548828125" y="125.0" width="40" height="40" stroke="black" fill="white" stroke-width="1" /><text x="981.2548828125" y="145.0" dominant-baseline="middle" text-anchor="middle" font-size="18px">X</text><circle cx="1021.2548828125" cy="795.0" r="10.0" /><rect x="1001.2548828125" y="225.0" width="40" height="40" stroke="black" fill="white" stroke-width="1" /><text x="1021.2548828125" y="245.0" dominant-baseline="middle" text-anchor="middle" font-size="18px">X</text><rect x="1071.2548828125" y="75.0" width="42.990234375" height="40" stroke="black" fill="white" stroke-width="1" /><text x="1092.75" y="95.0" dominant-baseline="middle" text-anchor="middle" font-size="14px">T^-1</text><rect x="1071.2548828125" y="375.0" width="42.990234375" height="40" stroke="black" fill="white" stroke-width="1" /><text x="1092.75" y="395.0" dominant-baseline="middle" text-anchor="middle" font-size="14px">T^-1</text><rect x="1071.2548828125" y="175.0" width="42.990234375" height="40" stroke="black" fill="white" stroke-width="1" /><text x="1092.75" y="195.0" dominant-baseline="middle" text-anchor="middle" font-size="14px">T^-1</text><rect x="1071.2548828125" y="325.0" width="42.990234375" height="40" stroke="black" fill="white" stroke-width="1" /><text x="1092.75" y="345.0" dominant-baseline="middle" text-anchor="middle" font-size="14px">T^-1</text><rect x="1071.2548828125" y="25.0" width="42.990234375" height="40" stroke="black" fill="white" stroke-width="1" /><text x="1092.75" y="45.0" dominant-baseline="middle" text-anchor="middle" font-size="14px">T^-1</text><rect x="1071.2548828125" y="275.0" width="42.990234375" height="40" stroke="black" fill="white" stroke-width="1" /><text x="1092.75" y="295.0" dominant-baseline="middle" text-anchor="middle" font-size="14px">T^-1</text><rect x="1071.2548828125" y="125.0" width="42.990234375" height="40" stroke="black" fill="white" stroke-width="1" /><text x="1092.75" y="145.0" dominant-baseline="middle" text-anchor="middle" font-size="14px">T^-1</text><rect x="1071.2548828125" y="225.0" width="42.990234375" height="40" stroke="black" fill="white" stroke-width="1" /><text x="1092.75" y="245.0" dominant-baseline="middle" text-anchor="middle" font-size="14px">T^-1</text><circle cx="1154.2451171875" cy="845.0" r="10.0" /><rect x="1134.2451171875" y="225.0" width="40" height="40" stroke="black" fill="white" stroke-width="1" /><text x="1154.2451171875" y="245.0" dominant-baseline="middle" text-anchor="middle" font-size="18px">X</text><rect x="1134.2451171875" y="125.0" width="40" height="40" stroke="black" fill="white" stroke-width="1" /><text x="1154.2451171875" y="145.0" dominant-baseline="middle" text-anchor="middle" font-size="18px">X</text><rect x="1134.2451171875" y="275.0" width="40" height="40" stroke="black" fill="white" stroke-width="1" /><text x="1154.2451171875" y="295.0" dominant-baseline="middle" text-anchor="middle" font-size="18px">X</text><rect x="1134.2451171875" y="25.0" width="40" height="40" stroke="black" fill="white" stroke-width="1" /><text x="1154.2451171875" y="45.0" dominant-baseline="middle" text-anchor="middle" font-size="18px">X</text><rect x="1134.2451171875" y="325.0" width="40" height="40" stroke="black" fill="white" stroke-width="1" /><text x="1154.2451171875" y="345.0" dominant-baseline="middle" text-anchor="middle" font-size="18px">X</text><rect x="1134.2451171875" y="175.0" width="40" height="40" stroke="black" fill="white" stroke-width="1" /><text x="1154.2451171875" y="195.0" dominant-baseline="middle" text-anchor="middle" font-size="18px">X</text><rect x="1134.2451171875" y="375.0" width="40" height="40" stroke="black" fill="white" stroke-width="1" /><text x="1154.2451171875" y="395.0" dominant-baseline="middle" text-anchor="middle" font-size="18px">X</text><rect x="1134.2451171875" y="75.0" width="40" height="40" stroke="black" fill="white" stroke-width="1" /><text x="1154.2451171875" y="95.0" dominant-baseline="middle" text-anchor="middle" font-size="18px">X</text><rect x="1194.2451171875" y="825.0" width="40" height="40" stroke="black" fill="white" stroke-width="1" /><text x="1214.2451171875" y="845.0" dominant-baseline="middle" text-anchor="middle" font-size="18px">H</text></svg>