<svg xmlns="http://www.w3.org/2000/svg" width="1947.2353515625" height="390.0"><line x1="37.63720703125" x2="1917.2353515625" y1="45.0" y2="45.0" stroke="#1967d2" stroke-width="1" /><line x1="37.63720703125" x2="1917.2353515625" y1="95.0" y2="95.0" stroke="#1967d2" stroke-width="1" /><line x1="37.63720703125" x2="1917.2353515625" y1="145.0" y2="145.0" stroke="#1967d2" stroke-width="1" /><line x1="37.63720703125" x2="1917.2353515625" y1="195.0" y2="195.0" stroke="#1967d2" stroke-width="1" /><line x1="37.63720703125" x2="1917.2353515625" y1="245.0" y2="245.0" stroke="#1967d2" stroke-width="1" /><line x1="37.63720703125" x2="1917.2353515625" y1="295.0" y2="295.0" stroke="#1967d2" stroke-width="1" /><line x1="37.63720703125" x2="1917.2353515625" y1="345.0" y2="345.0" stroke="#1967d2" stroke-width="1" /><line x1="1684.2451171875" x2="1774.2451171875" y1="5.0" y2="5.0" stroke="black" stroke-width="1" /><line x1="1684.2451171875" x2="1774.2451171875" y1="385.0" y2="385.0" stroke="black" stroke-width="1" /><line x1="1464.2451171875" x2="1554.2451171875" y1="5.0" y2="5.0" stroke="black" stroke-width="1" /><line x1="1464.2451171875" x2="1554.2451171875" y1="385.0" y2="385.0" stroke="black" stroke-width="1" /><line x1="1181.2548828125" x2="1271.2548828125" y1="5.0" y2="5.0" stroke="black" stroke-width="1" /><line x1="1181.2548828125" x2="1271.2548828125" y1="385.0" y2="385.0" stroke="black" stroke-width="1" /><line x1="1021.2548828125" x2="1111.2548828125" y1="5.0" y2="5.0" stroke="black" stroke-width="1" /><line x1="1021.2548828125" x2="1111.2548828125" y1="385.0" y2="385.0" stroke="black" stroke-width="1" /><line x1="861.2548828125" x2="951.2548828125" y1="5.0" y2="5.0" stroke="black" stroke-width="1" /><line x1="861.2548828125" x2="951.2548828125" y1="385.0" y2="385.0" stroke="black" stroke-width="1" /><line x1="701.2548828125" x2="791.2548828125" y1="5.0" y2="5.0" stroke="black" stroke-width="1" /><line x1="701.2548828125" x2="791.2548828125" y1="385.0" y2="385.0" stroke="black" stroke-width="1" /><line x1="418.2646484375" x2="508.2646484375" y1="5.0" y2="5.0" stroke="black" stroke-width="1" /><line x1="418.2646484375" x2="508.2646484375" y1="385.0" y2="385.0" stroke="black" stroke-width="1" /><line x1="195.2744140625" x2="285.2744140625" y1="5.0" y2="5.0" stroke="black" stroke-width="1" /><line x1="195.2744140625" x2="285.2744140625" y1="385.0" y2="385.0" stroke="black" stroke-width="1" /><line x1="215.2744140625" x2="215.2744140625" y1="45.0" y2="145.0" stroke="black" stroke-width="3" /><line x1="255.2744140625" x2="255.2744140625" y1="95.0" y2="295.0" stroke="black" stroke-width="3" /><line x1="325.2744140625" x2="325.2744140625" y1="145.0" y2="195.0" stroke="black" stroke-width="3" /><line x1="438.2646484375" x2="438.2646484375" y1="145.0" y2="245.0" stroke="black" stroke-width="3" /><line x1="478.2646484375" x2="478.2646484375" y1="195.0" y2="295.0" stroke="black" stroke-width="3" /><line x1="608.2646484375" x2="608.2646484375" y1="95.0" y2="295.0" stroke="black" stroke-width="3" /><line x1="721.2548828125" x2="721.2548828125" y1="145.0" y2="245.0" stroke="black" stroke-width="3" /><line x1="761.2548828125" x2="761.2548828125" y1="195.0" y2="295.0" stroke="black" stroke-width="3" /><line x1="881.2548828125" x2="881.2548828125" y1="145.0" y2="245.0" stroke="black" stroke-width="3" /><line x1="921.2548828125" x2="921.2548828125" y1="195.0" y2="295.0" stroke="black" stroke-width="3" /><line x1="991.2548828125" x2="991.2548828125" y1="45.0" y2="345.0" stroke="black" stroke-width="3" /><line x1="1041.2548828125" x2="1041.2548828125" y1="145.0" y2="245.0" stroke="black" stroke-width="3" /><line x1="1081.2548828125" x2="1081.2548828125" y1="195.0" y2="295.0" stroke="black" stroke-width="3" /><line x1="1201.2548828125" x2="1201.2548828125" y1="145.0" y2="245.0" stroke="black" stroke-width="3" /><line x1="1241.2548828125" x2="1241.2548828125" y1="195.0" y2="295.0" stroke="black" stroke-width="3" /><line x1="1371.2548828125" x2="1371.2548828125" y1="95.0" y2="295.0" stroke="black" stroke-width="3" /><line x1="1484.2451171875" x2="1484.2451171875" y1="145.0" y2="245.0" stroke="black" stroke-width="3" /><line x1="1524.2451171875" x2="1524.2451171875" y1="195.0" y2="295.0" stroke="black" stroke-width="3" /><line x1="1654.2451171875" x2="1654.2451171875" y1="145.0" y2="195.0" stroke="black" stroke-width="3" /><line x1="1704.2451171875" x2="1704.2451171875" y1="45.0" y2="145.0" stroke="black" stroke-width="3" /><line x1="1744.2451171875" x2="1744.2451171875" y1="95.0" y2="295.0" stroke="black" stroke-width="3" /><line x1="1684.2451171875" x2="1684.2451171875" y1="5.0" y2="15.0" stroke="black" stroke-width="3" /><line x1="1774.2451171875" x2="1774.2451171875" y1="5.0" y2="15.0" stroke="black" stroke-width="3" /><line x1="1684.2451171875" x2="1684.2451171875" y1="375.0" y2="385.0" stroke="black" stroke-width="3" /><line x1="1774.2451171875" x2="1774.2451171875" y1="375.0" y2="385.0" stroke="black" stroke-width="3" /><line x1="1464.2451171875" x2="1464.2451171875" y1="5.0" y2="15.0" stroke="black" stroke-width="3" /><line x1="1554.2451171875" x2="1554.2451171875" y1="5.0" y2="15.0" stroke="black" stroke-width="3" /><line x1="1464.2451171875" x2="1464.2451171875" y1="375.0" y2="385.0" stroke="black" stroke-width="3" /><line x1="1554.2451171875" x2="1554.2451171875" y1="375.0" y2="385.0" stroke="black" stroke-width="3" /><line x1="1181.2548828125" x2="1181.2548828125" y1="5.0" y2="15.0" stroke="black" stroke-width="3" /><line x1="1271.2548828125" x2="1271.2548828125" y1="5.0" y2="15.0" stroke="black" stroke-width="3" /><line x1="1181.2548828125" x2="1181.2548828125" y1="375.0" y2="385.0" stroke="black" stroke-width="3" /><line x1="1271.2548828125" x2="1271.2548828125" y1="375.0" y2="385.0" stroke="black" stroke-width="3" /><line x1="1021.2548828125" x2="1021.2548828125" y1="5.0" y2="15.0" stroke="black" stroke-width="3" /><line x1="1111.2548828125" x2="1111.2548828125" y1="5.0" y2="15.0" stroke="black" stroke-width="3" /><line x1="1021.2548828125" x2="1021.2548828125" y1="375.0" y2="385.0" stroke="black" stroke-width="3" /><line x1="1111.2548828125" x2="1111.2548828125" y1="375.0" y2="385.0" stroke="black" stroke-width="3" /><line x1="861.2548828125" x2="861.2548828125" y1="5.0" y2="15.0" stroke="black" stroke-width="3" /><line x1="951.2548828125" x2="951.2548828125" y1="5.0" y2="15.0" stroke="black" stroke-width="3" /><line x1="861.2548828125" x2="861.2548828125" y1="375.0" y2="385.0" stroke="black" stroke-width="3" /><line x1="951.2548828125" x2="951.2548828125" y1="375.0" y2="385.0" stroke="black" stroke-width="3" /><line x1="701.2548828125" x2="701.2548828125" y1="5.0" y2="15.0" stroke="black" stroke-width="3" /><line x1="791.2548828125" x2="791.2548828125" y1="5.0" y2="15.0" stroke="black" stroke-width="3" /><line x1="701.2548828125" x2="701.2548828125" y1="375.0" y2="385.0" stroke="black" stroke-width="3" /><line x1="791.2548828125" x2="791.2548828125" y1="375.0" y2="385.0" stroke="black" stroke-width="3" /><line x1="418.2646484375" x2="418.2646484375" y1="5.0" y2="15.0" stroke="black" stroke-width="3" /><line x1="508.2646484375" x2="508.2646484375" y1="5.0" y2="15.0" stroke="black" stroke-width="3" /><line x1="418.2646484375" x2="418.2646484375" y1="375.0" y2="385.0" stroke="black" stroke-width="3" /><line x1="508.2646484375" x2="508.2646484375" y1="375.0" y2="385.0" stroke="black" stroke-width="3" /><line x1="195.2744140625" x2="195.2744140625" y1="5.0" y2="15.0" stroke="black" stroke-width="3" /><line x1="285.2744140625" x2="285.2744140625" y1="5.0" y2="15.0" stroke="black" stroke-width="3" /><line x1="195.2744140625" x2="195.2744140625" y1="375.0" y2="385.0" stroke="black" stroke-width="3" /><line x1="285.2744140625" x2="285.2744140625" y1="375.0" y2="385.0" stroke="black" stroke-width="3" /><rect x="10.0" y="25.0" width="55.2744140625" height="40" stroke="black" fill="white" stroke-width="0" /><text x="37.63720703125" y="45.0" dominant-baseline="middle" text-anchor="middle" font-size="14px">a0: </text><rect x="10.0" y="75.0" width="55.2744140625" height="40" stroke="black" fill="white" stroke-width="0" /><text x="37.63720703125" y="95.0" dominant-baseline="middle" text-anchor="middle" font-size="14px">a1: </text><rect x="10.0" y="125.0" width="55.2744140625" height="40" stroke="black" fill="white" stroke-width="0" /><text x="37.63720703125" y="145.0" dominant-baseline="middle" text-anchor="middle" font-size="14px">b_00: </text><rect x="10.0" y="175.0" width="55.2744140625" height="40" stroke="black" fill="white" stroke-width="0" /><text x="37.63720703125" y="195.0" dominant-baseline="middle" text-anchor="middle" font-size="14px">b_01: </text><rect x="10.0" y="225.0" width="55.2744140625" height="40" stroke="black" fill="white" stroke-width="0" /><text x="37.63720703125" y="245.0" dominant-baseline="middle" text-anchor="middle" font-size="14px">b_10: </text><rect x="10.0" y="275.0" width="55.2744140625" height="40" stroke="black" fill="white" stroke-width="0" /><text x="37.63720703125" y="295.0" dominant-baseline="middle" text-anchor="middle" font-size="14px">b_11: </text><rect x="10.0" y="325.0" width="55.2744140625" height="40" stroke="black" fill="white" stroke-width="0" /><text x="37.63720703125" y="345.0" dominant-baseline="middle" text-anchor="middle" font-size="14px">target: </text><rect x="85.2744140625" y="225.0" width="40" height="40" stroke="black" fill="white" stroke-width="1" /><text x="105.2744140625" y="245.0" dominant-baseline="middle" text-anchor="middle" font-size="18px">H</text><rect x="85.2744140625" y="275.0" width="40" height="40" stroke="black" fill="white" stroke-width="1" /><text x="105.2744140625" y="295.0" dominant-baseline="middle" text-anchor="middle" font-size="18px">H</text><rect x="145.2744140625" y="225.0" width="40" height="40" stroke="black" fill="white" stroke-width="1" /><text x="165.2744140625" y="245.0" dominant-baseline="middle" text-anchor="middle" font-size="18px">T</text><rect x="145.2744140625" y="275.0" width="40" height="40" stroke="black" fill="white" stroke-width="1" /><text x="165.2744140625" y="295.0" dominant-baseline="middle" text-anchor="middle" font-size="18px">T</text><circle cx="215.2744140625" cy="45.0" r="10.0" /><rect x="195.2744140625" y="125.0" width="40" height="40" stroke="black" fill="white" stroke-width="1" /><text x="215.2744140625" y="145.0" dominant-baseline="middle" text-anchor="middle" font-size="18px">X</text><circle cx="255.2744140625" cy="95.0" r="10.0" /><rect x="235.2744140625" y="275.0" width="40" height="40" stroke="black" fill="white" stroke-width="1" /><text x="255.2744140625" y="295.0" dominant-baseline="middle" text-anchor="middle" font-size="18px">X</text><rect x="235.2744140625" y="225.0" width="40" height="40" stroke="black" fill="white" stroke-width="1" /><text x="255.2744140625" y="245.0" dominant-baseline="middle" text-anchor="middle" font-size="18px">X</text><circle cx="325.2744140625" cy="145.0" r="10.0" /><rect x="305.2744140625" y="175.0" width="40" height="40" stroke="black" fill="white" stroke-width="1" /><text x="325.2744140625" y="195.0" dominant-baseline="middle" text-anchor="middle" font-size="18px">X</text><rect x="365.2744140625" y="225.0" width="42.990234375" height="40" stroke="black" fill="white" stroke-width="1" /><text x="386.76953125" y="245.0" dominant-baseline="middle" text-anchor="middle" font-size="14px">T^-1</text><rect x="365.2744140625" y="275.0" width="42.990234375" height="40" stroke="black" fill="white" stroke-width="1" /><text x="386.76953125" y="295.0" dominant-baseline="middle" text-anchor="middle" font-size="14px">T^-1</text><circle cx="438.2646484375" cy="145.0" r="10.0" /><rect x="418.2646484375" y="225.0" width="40" height="40" stroke="black" fill="white" stroke-width="1" /><text x="438.2646484375" y="245.0" dominant-baseline="middle" text-anchor="middle" font-size="18px">X</text><circle cx="478.2646484375" cy="195.0" r="10.0" /><rect x="458.2646484375" y="275.0" width="40" height="40" stroke="black" fill="white" stroke-width="1" /><text x="478.2646484375" y="295.0" dominant-baseline="middle" text-anchor="middle" font-size="18px">X</text><rect x="528.2646484375" y="225.0" width="40" height="40" stroke="black" fill="white" stroke-width="1" /><text x="548.2646484375" y="245.0" dominant-baseline="middle" text-anchor="middle" font-size="18px">T</text><rect x="528.2646484375" y="275.0" width="40" height="40" stroke="black" fill="white" stroke-width="1" /><text x="548.2646484375" y="295.0" dominant-baseline="middle" text-anchor="middle" font-size="18px">T</text><circle cx="608.2646484375" cy="95.0" r="10.0" /><rect x="588.2646484375" y="275.0" width="40" height="40" stroke="black" fill="white" stroke-width="1" /><text x="608.2646484375" y="295.0" dominant-baseline="middle" text-anchor="middle" font-size="18px">X</text><rect x="588.2646484375" y="225.0" width="40" height="40" stroke="black" fill="white" stroke-width="1" /><text x="608.2646484375" y="245.0" dominant-baseline="middle" text-anchor="middle" font-size="18px">X</text><rect x="648.2646484375" y="225.0" width="42.990234375" height="40" stroke="black" fill="white" stroke-width="1" /><text x="669.759765625" y="245.0" dominant-baseline="middle" text-anchor="middle" font-size="14px">T^-1</text><rect x="648.2646484375" y="275.0" width="42.990234375" height="40" stroke="black" fill="white" stroke-width="1" /><text x="669.759765625" y="295.0" dominant-baseline="middle" text-anchor="middle" font-size="14px">T^-1</text><circle cx="721.2548828125" cy="145.0" r="10.0" /><rect x="701.2548828125" y="225.0" width="40" height="40" stroke="black" fill="white" stroke-width="1" /><text x="721.2548828125" y="245.0" dominant-baseline="middle" text-anchor="middle" font-size="18px">X</text><circle cx="761.2548828125" cy="195.0" r="10.0" /><rect x="741.2548828125" y="275.0" width="40" height="40" stroke="black" fill="white" stroke-width="1" /><text x="761.2548828125" y="295.0" dominant-baseline="middle" text-anchor="middle" font-size="18px">X</text><rect x="811.2548828125" y="225.0" width="40" height="40" stroke="black" fill="white" stroke-width="1" /><text x="831.2548828125" y="245.0" dominant-baseline="middle" text-anchor="middle" font-size="18px">H</text><rect x="811.2548828125" y="275.0" width="40" height="40" stroke="black" fill="white" stroke-width="1" /><text x="831.2548828125" y="295.0" dominant-baseline="middle" text-anchor="middle" font-size="18px">H</text><circle cx="881.2548828125" cy="245.0" r="10.0" /><rect x="861.2548828125" y="125.0" width="40" height="40" stroke="black" fill="white" stroke-width="1" /><text x="881.2548828125" y="145.0" dominant-baseline="middle" text-anchor="middle" font-size="18px">X</text><circle cx="921.2548828125" cy="295.0" r="10.0" /><rect x="901.2548828125" y="175.0" width="40" height="40" stroke="black" fill="white" stroke-width="1" /><text x="921.2548828125" y="195.0" dominant-baseline="middle" text-anchor="middle" font-size="18px">X</text><circle cx="991.2548828125" cy="45.0" r="10.0" /><circle cx="991.2548828125" cy="345.0" r="10.0" /><circle cx="1041.2548828125" cy="245.0" r="10.0" /><rect x="1021.2548828125" y="125.0" width="40" height="40" stroke="black" fill="white" stroke-width="1" /><text x="1041.2548828125" y="145.0" dominant-baseline="middle" text-anchor="middle" font-size="18px">X</text><circle cx="1081.2548828125" cy="295.0" r="10.0" /><rect x="1061.2548828125" y="175.0" width="40" height="40" stroke="black" fill="white" stroke-width="1" /><text x="1081.2548828125" y="195.0" dominant-baseline="middle" text-anchor="middle" font-size="18px">X</text><rect x="1131.2548828125" y="225.0" width="40" height="40" stroke="black" fill="white" stroke-width="1" /><text x="1151.2548828125" y="245.0" dominant-baseline="middle" text-anchor="middle" font-size="18px">H</text><rect x="1131.2548828125" y="275.0" width="40" height="40" stroke="black" fill="white" stroke-width="1" /><text x="1151.2548828125" y="295.0" dominant-baseline="middle" text-anchor="middle" font-size="18px">H</text><circle cx="1201.2548828125" cy="145.0" r="10.0" /><rect x="1181.2548828125" y="225.0" width="40" height="40" stroke="black" fill="white" stroke-width="1" /><text x="1201.2548828125" y="245.0" dominant-baseline="middle" text-anchor="middle" font-size="18px">X</text><circle cx="1241.2548828125" cy="195.0" r="10.0" /><rect x="1221.2548828125" y="275.0" width="40" height="40" stroke="black" fill="white" stroke-width="1" /><text x="1241.2548828125" y="295.0" dominant-baseline="middle" text-anchor="middle" font-size="18px">X</text><rect x="1291.2548828125" y="225.0" width="40" height="40" stroke="black" fill="white" stroke-width="1" /><text x="1311.2548828125" y="245.0" dominant-baseline="middle" text-anchor="middle" font-size="18px">T</text><rect x="1291.2548828125" y="275.0" width="40" height="40" stroke="black" fill="white" stroke-width="1" /><text x="1311.2548828125" y="295.0" dominant-baseline="middle" text-anchor="middle" font-size="18px">T</text><circle cx="1371.2548828125" cy="95.0" r="10.0" /><rect x="1351.2548828125" y="275.0" width="40" height="40" stroke="black" fill="white" stroke-width="1" /><text x="1371.2548828125" y="295.0" dominant-baseline="middle" text-anchor="middle" font-size="18px">X</text><rect x="1351.2548828125" y="225.0" width="40" height="40" stroke="black" fill="white" stroke-width="1" /><text x="1371.2548828125" y="245.0" dominant-baseline="middle" text-anchor="middle" font-size="18px">X</text><rect x="1411.2548828125" y="225.0" width="42.990234375" height="40" stroke="black" fill="white" stroke-width="1" /><text x="1432.75" y="245.0" dominant-baseline="middle" text-anchor="middle" font-size="14px">T^-1</text><rect x="1411.2548828125" y="275.0" width="42.990234375" height="40" stroke="black" fill="white" stroke-width="1" /><text x="1432.75" y="295.0" dominant-baseline="middle" text-anchor="middle" font-size="14px">T^-1</text><circle cx="1484.2451171875" cy="145.0" r="10.0" /><rect x="1464.2451171875" y="225.0" width="40" height="40" stroke="black" fill="white" stroke-width="1" /><text x="1484.2451171875" y="245.0" dominant-baseline="middle" text-anchor="middle" font-size="18px">X</text><circle cx="1524.2451171875" cy="195.0" r="10.0" /><rect x="1504.2451171875" y="275.0" width="40" height="40" stroke="black" fill="white" stroke-width="1" /><text x="1524.2451171875" y="295.0" dominant-baseline="middle" text-anchor="middle" font-size="18px">X</text><rect x="1574.2451171875" y="225.0" width="40" height="40" stroke="black" fill="white" stroke-width="1" /><text x="1594.2451171875" y="245.0" dominant-baseline="middle" text-anchor="middle" font-size="18px">T</text><rect x="1574.2451171875" y="275.0" width="40" height="40" stroke="black" fill="white" stroke-width="1" /><text x="1594.2451171875" y="295.0" dominant-baseline="middle" text-anchor="middle" font-size="18px">T</text><circle cx="1654.2451171875" cy="145.0" r="10.0" /><rect x="1634.2451171875" y="175.0" width="40" height="40" stroke="black" fill="white" stroke-width="1" /><text x="1654.2451171875" y="195.0" dominant-baseline="middle" text-anchor="middle" font-size="18px">X</text><circle cx="1704.2451171875" cy="45.0" r="10.0" /><rect x="1684.2451171875" y="125.0" width="40" height="40" stroke="black" fill="white" stroke-width="1" /><text x="1704.2451171875" y="145.0" dominant-baseline="middle" text-anchor="middle" font-size="18px">X</text><circle cx="1744.2451171875" cy="95.0" r="10.0" /><rect x="1724.2451171875" y="275.0" width="40" height="40" stroke="black" fill="white" stroke-width="1" /><text x="1744.2451171875" y="295.0" dominant-baseline="middle" text-anchor="middle" font-size="18px">X</text><rect x="1724.2451171875" y="225.0" width="40" height="40" stroke="black" fill="white" stroke-width="1" /><text x="1744.2451171875" y="245.0" dominant-baseline="middle" text-anchor="middle" font-size="18px">X</text><rect x="1794.2451171875" y="225.0" width="42.990234375" height="40" stroke="black" fill="white" stroke-width="1" /><text x="1815.740234375" y="245.0" dominant-baseline="middle" text-anchor="middle" font-size="14px">T^-1</text><rect x="1794.2451171875" y="275.0" width="42.990234375" height="40" stroke="black" fill="white" stroke-width="1" /><text x="1815.740234375" y="295.0" dominant-baseline="middle" text-anchor="middle" font-size="14px">T^-1</text><rect x="1857.2353515625" y="225.0" width="40" height="40" stroke="black" fill="white" stroke-width="1" /><text x="1877.2353515625" y="245.0" dominant-baseline="middle" text-anchor="middle" font-size="18px">H</text><rect x="1857.2353515625" y="275.0" width="40" height="40" stroke="black" fill="white" stroke-width="1" /><text x="1877.2353515625" y="295.0" dominant-baseline="middle" text-anchor="middle" font-size="18px">H</text></svg>