<svg xmlns="http://www.w3.org/2000/svg" width="2115.2744140625" height="1040.0"><line x1="37.63720703125" x2="2085.2744140625" y1="45.0" y2="45.0" stroke="#1967d2" stroke-width="1" /><line x1="37.63720703125" x2="2085.2744140625" y1="95.0" y2="95.0" stroke="#1967d2" stroke-width="1" /><line x1="37.63720703125" x2="2085.2744140625" y1="145.0" y2="145.0" stroke="#1967d2" stroke-width="1" /><line x1="37.63720703125" x2="2085.2744140625" y1="195.0" y2="195.0" stroke="#1967d2" stroke-width="1" /><line x1="37.63720703125" x2="2085.2744140625" y1="245.0" y2="245.0" stroke="#1967d2" stroke-width="1" /><line x1="37.63720703125" x2="2085.2744140625" y1="295.0" y2="295.0" stroke="#1967d2" stroke-width="1" /><line x1="37.63720703125" x2="2085.2744140625" y1="345.0" y2="345.0" stroke="#1967d2" stroke-width="1" /><line x1="37.63720703125" x2="2085.2744140625" y1="395.0" y2="395.0" stroke="#1967d2" stroke-width="1" /><line x1="37.63720703125" x2="2085.2744140625" y1="445.0" y2="445.0" stroke="#1967d2" stroke-width="1" /><line x1="37.63720703125" x2="2085.2744140625" y1="495.0" y2="495.0" stroke="#1967d2" stroke-width="1" /><line x1="37.63720703125" x2="2085.2744140625" y1="545.0" y2="545.0" stroke="#1967d2" stroke-width="1" /><line x1="37.63720703125" x2="2085.2744140625" y1="595.0" y2="595.0" stroke="#1967d2" stroke-width="1" /><line x1="37.63720703125" x2="2085.2744140625" y1="645.0" y2="645.0" stroke="#1967d2" stroke-width="1" /><line x1="37.63720703125" x2="2085.2744140625" y1="695.0" y2="695.0" stroke="#1967d2" stroke-width="1" /><line x1="37.63720703125" x2="2085.2744140625" y1="745.0" y2="745.0" stroke="#1967d2" stroke-width="1" /><line x1="37.63720703125" x2="2085.2744140625" y1="795.0" y2="795.0" stroke="#1967d2" stroke-width="1" /><line x1="37.63720703125" x2="2085.2744140625" y1="845.0" y2="845.0" stroke="#1967d2" stroke-width="1" /><line x1="37.63720703125" x2="2085.2744140625" y1="895.0" y2="895.0" stroke="#1967d2" stroke-width="1" /><line x1="37.63720703125" x2="2085.2744140625" y1="945.0" y2="945.0" stroke="#1967d2" stroke-width="1" /><line x1="37.63720703125" x2="2085.2744140625" y1="995.0" y2="995.0" stroke="#1967d2" stroke-width="1" /><line x1="1735.2744140625" x2="1825.2744140625" y1="5.0" y2="5.0" stroke="black" stroke-width="1" /><line x1="1735.2744140625" x2="1825.2744140625" y1="1035.0" y2="1035.0" stroke="black" stroke-width="1" /><line x1="1315.2744140625" x2="1485.2744140625" y1="5.0" y2="5.0" stroke="black" stroke-width="1" /><line x1="1315.2744140625" x2="1485.2744140625" y1="1035.0" y2="1035.0" stroke="black" stroke-width="1" /><line x1="655.2744140625" x2="825.2744140625" y1="5.0" y2="5.0" stroke="black" stroke-width="1" /><line x1="655.2744140625" x2="825.2744140625" y1="1035.0" y2="1035.0" stroke="black" stroke-width="1" /><line x1="315.2744140625" x2="405.2744140625" y1="5.0" y2="5.0" stroke="black" stroke-width="1" /><line x1="315.2744140625" x2="405.2744140625" y1="1035.0" y2="1035.0" stroke="black" stroke-width="1" /><line x1="105.2744140625" x2="105.2744140625" y1="45.0" y2="195.0" stroke="black" stroke-width="3" /><line x1="165.2744140625" x2="165.2744140625" y1="195.0" y2="245.0" stroke="black" stroke-width="3" /><line x1="225.2744140625" x2="225.2744140625" y1="95.0" y2="295.0" stroke="black" stroke-width="3" /><line x1="285.2744140625" x2="285.2744140625" y1="95.0" y2="345.0" stroke="black" stroke-width="3" /><line x1="335.2744140625" x2="335.2744140625" y1="195.0" y2="295.0" stroke="black" stroke-width="3" /><line x1="375.2744140625" x2="375.2744140625" y1="245.0" y2="345.0" stroke="black" stroke-width="3" /><line x1="445.2744140625" x2="445.2744140625" y1="145.0" y2="395.0" stroke="black" stroke-width="3" /><line x1="505.2744140625" x2="505.2744140625" y1="145.0" y2="445.0" stroke="black" stroke-width="3" /><line x1="565.2744140625" x2="565.2744140625" y1="145.0" y2="495.0" stroke="black" stroke-width="3" /><line x1="625.2744140625" x2="625.2744140625" y1="145.0" y2="545.0" stroke="black" stroke-width="3" /><line x1="675.2744140625" x2="675.2744140625" y1="295.0" y2="395.0" stroke="black" stroke-width="3" /><line x1="715.2744140625" x2="715.2744140625" y1="195.0" y2="445.0" stroke="black" stroke-width="3" /><line x1="755.2744140625" x2="755.2744140625" y1="345.0" y2="495.0" stroke="black" stroke-width="3" /><line x1="795.2744140625" x2="795.2744140625" y1="245.0" y2="545.0" stroke="black" stroke-width="3" /><line x1="865.2744140625" x2="865.2744140625" y1="245.0" y2="995.0" stroke="black" stroke-width="3" /><line x1="925.2744140625" x2="925.2744140625" y1="545.0" y2="995.0" stroke="black" stroke-width="3" /><line x1="985.2744140625" x2="985.2744140625" y1="345.0" y2="995.0" stroke="black" stroke-width="3" /><line x1="1045.2744140625" x2="1045.2744140625" y1="495.0" y2="995.0" stroke="black" stroke-width="3" /><line x1="1105.2744140625" x2="1105.2744140625" y1="195.0" y2="995.0" stroke="black" stroke-width="3" /><line x1="1165.2744140625" x2="1165.2744140625" y1="445.0" y2="995.0" stroke="black" stroke-width="3" /><line x1="1225.2744140625" x2="1225.2744140625" y1="295.0" y2="995.0" stroke="black" stroke-width="3" /><line x1="1285.2744140625" x2="1285.2744140625" y1="395.0" y2="995.0" stroke="black" stroke-width="3" /><line x1="1335.2744140625" x2="1335.2744140625" y1="295.0" y2="395.0" stroke="black" stroke-width="3" /><line x1="1375.2744140625" x2="1375.2744140625" y1="195.0" y2="445.0" stroke="black" stroke-width="3" /><line x1="1415.2744140625" x2="1415.2744140625" y1="345.0" y2="495.0" stroke="black" stroke-width="3" /><line x1="1455.2744140625" x2="1455.2744140625" y1="245.0" y2="545.0" stroke="black" stroke-width="3" /><line x1="1525.2744140625" x2="1525.2744140625" y1="145.0" y2="545.0" stroke="black" stroke-width="3" /><line x1="1585.2744140625" x2="1585.2744140625" y1="145.0" y2="495.0" stroke="black" stroke-width="3" /><line x1="1645.2744140625" x2="1645.2744140625" y1="145.0" y2="445.0" stroke="black" stroke-width="3" /><line x1="1705.2744140625" x2="1705.2744140625" y1="145.0" y2="395.0" stroke="black" stroke-width="3" /><line x1="1755.2744140625" x2="1755.2744140625" y1="195.0" y2="295.0" stroke="black" stroke-width="3" /><line x1="1795.2744140625" x2="1795.2744140625" y1="245.0" y2="345.0" stroke="black" stroke-width="3" /><line x1="1865.2744140625" x2="1865.2744140625" y1="95.0" y2="345.0" stroke="black" stroke-width="3" /><line x1="1925.2744140625" x2="1925.2744140625" y1="95.0" y2="295.0" stroke="black" stroke-width="3" /><line x1="1985.2744140625" x2="1985.2744140625" y1="195.0" y2="245.0" stroke="black" stroke-width="3" /><line x1="2045.2744140625" x2="2045.2744140625" y1="45.0" y2="195.0" stroke="black" stroke-width="3" /><line x1="1735.2744140625" x2="1735.2744140625" y1="5.0" y2="15.0" stroke="black" stroke-width="3" /><line x1="1825.2744140625" x2="1825.2744140625" y1="5.0" y2="15.0" stroke="black" stroke-width="3" /><line x1="1735.2744140625" x2="1735.2744140625" y1="1025.0" y2="1035.0" stroke="black" stroke-width="3" /><line x1="1825.2744140625" x2="1825.2744140625" y1="1025.0" y2="1035.0" stroke="black" stroke-width="3" /><line x1="1315.2744140625" x2="1315.2744140625" y1="5.0" y2="15.0" stroke="black" stroke-width="3" /><line x1="1485.2744140625" x2="1485.2744140625" y1="5.0" y2="15.0" stroke="black" stroke-width="3" /><line x1="1315.2744140625" x2="1315.2744140625" y1="1025.0" y2="1035.0" stroke="black" stroke-width="3" /><line x1="1485.2744140625" x2="1485.2744140625" y1="1025.0" y2="1035.0" stroke="black" stroke-width="3" /><line x1="655.2744140625" x2="655.2744140625" y1="5.0" y2="15.0" stroke="black" stroke-width="3" /><line x1="825.2744140625" x2="825.2744140625" y1="5.0" y2="15.0" stroke="black" stroke-width="3" /><line x1="655.2744140625" x2="655.2744140625" y1="1025.0" y2="1035.0" stroke="black" stroke-width="3" /><line x1="825.2744140625" x2="825.2744140625" y1="1025.0" y2="1035.0" stroke="black" stroke-width="3" /><line x1="315.2744140625" x2="315.2744140625" y1="5.0" y2="15.0" stroke="black" stroke-width="3" /><line x1="405.2744140625" x2="405.2744140625" y1="5.0" y2="15.0" stroke="black" stroke-width="3" /><line x1="315.2744140625" x2="315.2744140625" y1="1025.0" y2="1035.0" stroke="black" stroke-width="3" /><line x1="405.2744140625" x2="405.2744140625" y1="1025.0" y2="1035.0" stroke="black" stroke-width="3" /><rect x="10.0" y="25.0" width="55.2744140625" height="40" stroke="black" fill="white" stroke-width="0" /><text x="37.63720703125" y="45.0" dominant-baseline="middle" text-anchor="middle" font-size="14px">a0: </text><rect x="10.0" y="75.0" width="55.2744140625" height="40" stroke="black" fill="white" stroke-width="0" /><text x="37.63720703125" y="95.0" dominant-baseline="middle" text-anchor="middle" font-size="14px">a1: </text><rect x="10.0" y="125.0" width="55.2744140625" height="40" stroke="black" fill="white" stroke-width="0" /><text x="37.63720703125" y="145.0" dominant-baseline="middle" text-anchor="middle" font-size="14px">a2: </text><rect x="10.0" y="175.0" width="55.2744140625" height="40" stroke="black" fill="white" stroke-width="0" /><text x="37.63720703125" y="195.0" dominant-baseline="middle" text-anchor="middle" font-size="14px">b_000: </text><rect x="10.0" y="225.0" width="55.2744140625" height="40" stroke="black" fill="white" stroke-width="0" /><text x="37.63720703125" y="245.0" dominant-baseline="middle" text-anchor="middle" font-size="14px">b_001: </text><rect x="10.0" y="275.0" width="55.2744140625" height="40" stroke="black" fill="white" stroke-width="0" /><text x="37.63720703125" y="295.0" dominant-baseline="middle" text-anchor="middle" font-size="14px">b_010: </text><rect x="10.0" y="325.0" width="55.2744140625" height="40" stroke="black" fill="white" stroke-width="0" /><text x="37.63720703125" y="345.0" dominant-baseline="middle" text-anchor="middle" font-size="14px">b_011: </text><rect x="10.0" y="375.0" width="55.2744140625" height="40" stroke="black" fill="white" stroke-width="0" /><text x="37.63720703125" y="395.0" dominant-baseline="middle" text-anchor="middle" font-size="14px">b_100: </text><rect x="10.0" y="425.0" width="55.2744140625" height="40" stroke="black" fill="white" stroke-width="0" /><text x="37.63720703125" y="445.0" dominant-baseline="middle" text-anchor="middle" font-size="14px">b_101: </text><rect x="10.0" y="475.0" width="55.2744140625" height="40" stroke="black" fill="white" stroke-width="0" /><text x="37.63720703125" y="495.0" dominant-baseline="middle" text-anchor="middle" font-size="14px">b_110: </text><rect x="10.0" y="525.0" width="55.2744140625" height="40" stroke="black" fill="white" stroke-width="0" /><text x="37.63720703125" y="545.0" dominant-baseline="middle" text-anchor="middle" font-size="14px">b_111: </text><rect x="10.0" y="575.0" width="55.2744140625" height="40" stroke="black" fill="white" stroke-width="0" /><text x="37.63720703125" y="595.0" dominant-baseline="middle" text-anchor="middle" font-size="14px">m000: </text><rect x="10.0" y="625.0" width="55.2744140625" height="40" stroke="black" fill="white" stroke-width="0" /><text x="37.63720703125" y="645.0" dominant-baseline="middle" text-anchor="middle" font-size="14px">m001: </text><rect x="10.0" y="675.0" width="55.2744140625" height="40" stroke="black" fill="white" stroke-width="0" /><text x="37.63720703125" y="695.0" dominant-baseline="middle" text-anchor="middle" font-size="14px">m010: </text><rect x="10.0" y="725.0" width="55.2744140625" height="40" stroke="black" fill="white" stroke-width="0" /><text x="37.63720703125" y="745.0" dominant-baseline="middle" text-anchor="middle" font-size="14px">m011: </text><rect x="10.0" y="775.0" width="55.2744140625" height="40" stroke="black" fill="white" stroke-width="0" /><text x="37.63720703125" y="795.0" dominant-baseline="middle" text-anchor="middle" font-size="14px">m100: </text><rect x="10.0" y="825.0" width="55.2744140625" height="40" stroke="black" fill="white" stroke-width="0" /><text x="37.63720703125" y="845.0" dominant-baseline="middle" text-anchor="middle" font-size="14px">m101: </text><rect x="10.0" y="875.0" width="55.2744140625" height="40" stroke="black" fill="white" stroke-width="0" /><text x="37.63720703125" y="895.0" dominant-baseline="middle" text-anchor="middle" font-size="14px">m110: </text><rect x="10.0" y="925.0" width="55.2744140625" height="40" stroke="black" fill="white" stroke-width="0" /><text x="37.63720703125" y="945.0" dominant-baseline="middle" text-anchor="middle" font-size="14px">m111: </text><rect x="10.0" y="975.0" width="55.2744140625" height="40" stroke="black" fill="white" stroke-width="0" /><text x="37.63720703125" y="995.0" dominant-baseline="middle" text-anchor="middle" font-size="14px">target: </text><circle cx="105.2744140625" cy="45.0" r="10.0" /><rect x="85.2744140625" y="175.0" width="40" height="40" stroke="black" fill="white" stroke-width="1" /><text x="105.2744140625" y="195.0" dominant-baseline="middle" text-anchor="middle" font-size="18px">X</text><circle cx="165.2744140625" cy="195.0" r="10.0" /><rect x="145.2744140625" y="225.0" width="40" height="40" stroke="black" fill="white" stroke-width="1" /><text x="165.2744140625" y="245.0" dominant-baseline="middle" text-anchor="middle" font-size="18px">X</text><circle cx="225.2744140625" cy="95.0" r="10.0" /><circle cx="225.2744140625" cy="195.0" r="10.0" /><rect x="205.2744140625" y="275.0" width="40" height="40" stroke="black" fill="white" stroke-width="1" /><text x="225.2744140625" y="295.0" dominant-baseline="middle" text-anchor="middle" font-size="18px">X</text><circle cx="285.2744140625" cy="95.0" r="10.0" /><circle cx="285.2744140625" cy="245.0" r="10.0" /><rect x="265.2744140625" y="325.0" width="40" height="40" stroke="black" fill="white" stroke-width="1" /><text x="285.2744140625" y="345.0" dominant-baseline="middle" text-anchor="middle" font-size="18px">X</text><circle cx="335.2744140625" cy="295.0" r="10.0" /><rect x="315.2744140625" y="175.0" width="40" height="40" stroke="black" fill="white" stroke-width="1" /><text x="335.2744140625" y="195.0" dominant-baseline="middle" text-anchor="middle" font-size="18px">X</text><circle cx="375.2744140625" cy="345.0" r="10.0" /><rect x="355.2744140625" y="225.0" width="40" height="40" stroke="black" fill="white" stroke-width="1" /><text x="375.2744140625" y="245.0" dominant-baseline="middle" text-anchor="middle" font-size="18px">X</text><circle cx="445.2744140625" cy="145.0" r="10.0" /><circle cx="445.2744140625" cy="295.0" r="10.0" /><rect x="425.2744140625" y="375.0" width="40" height="40" stroke="black" fill="white" stroke-width="1" /><text x="445.2744140625" y="395.0" dominant-baseline="middle" text-anchor="middle" font-size="18px">X</text><circle cx="505.2744140625" cy="145.0" r="10.0" /><circle cx="505.2744140625" cy="195.0" r="10.0" /><rect x="485.2744140625" y="425.0" width="40" height="40" stroke="black" fill="white" stroke-width="1" /><text x="505.2744140625" y="445.0" dominant-baseline="middle" text-anchor="middle" font-size="18px">X</text><circle cx="565.2744140625" cy="145.0" r="10.0" /><circle cx="565.2744140625" cy="345.0" r="10.0" /><rect x="545.2744140625" y="475.0" width="40" height="40" stroke="black" fill="white" stroke-width="1" /><text x="565.2744140625" y="495.0" dominant-baseline="middle" text-anchor="middle" font-size="18px">X</text><circle cx="625.2744140625" cy="145.0" r="10.0" /><circle cx="625.2744140625" cy="245.0" r="10.0" /><rect x="605.2744140625" y="525.0" width="40" height="40" stroke="black" fill="white" stroke-width="1" /><text x="625.2744140625" y="545.0" dominant-baseline="middle" text-anchor="middle" font-size="18px">X</text><circle cx="675.2744140625" cy="395.0" r="10.0" /><rect x="655.2744140625" y="275.0" width="40" height="40" stroke="black" fill="white" stroke-width="1" /><text x="675.2744140625" y="295.0" dominant-baseline="middle" text-anchor="middle" font-size="18px">X</text><circle cx="715.2744140625" cy="445.0" r="10.0" /><rect x="695.2744140625" y="175.0" width="40" height="40" stroke="black" fill="white" stroke-width="1" /><text x="715.2744140625" y="195.0" dominant-baseline="middle" text-anchor="middle" font-size="18px">X</text><circle cx="755.2744140625" cy="495.0" r="10.0" /><rect x="735.2744140625" y="325.0" width="40" height="40" stroke="black" fill="white" stroke-width="1" /><text x="755.2744140625" y="345.0" dominant-baseline="middle" text-anchor="middle" font-size="18px">X</text><circle cx="795.2744140625" cy="545.0" r="10.0" /><rect x="775.2744140625" y="225.0" width="40" height="40" stroke="black" fill="white" stroke-width="1" /><text x="795.2744140625" y="245.0" dominant-baseline="middle" text-anchor="middle" font-size="18px">X</text><circle cx="865.2744140625" cy="245.0" r="10.0" /><circle cx="865.2744140625" cy="595.0" r="10.0" /><rect x="845.2744140625" y="975.0" width="40" height="40" stroke="black" fill="white" stroke-width="1" /><text x="865.2744140625" y="995.0" dominant-baseline="middle" text-anchor="middle" font-size="18px">X</text><circle cx="925.2744140625" cy="545.0" r="10.0" /><circle cx="925.2744140625" cy="645.0" r="10.0" /><rect x="905.2744140625" y="975.0" width="40" height="40" stroke="black" fill="white" stroke-width="1" /><text x="925.2744140625" y="995.0" dominant-baseline="middle" text-anchor="middle" font-size="18px">X</text><circle cx="985.2744140625" cy="345.0" r="10.0" /><circle cx="985.2744140625" cy="695.0" r="10.0" /><rect x="965.2744140625" y="975.0" width="40" height="40" stroke="black" fill="white" stroke-width="1" /><text x="985.2744140625" y="995.0" dominant-baseline="middle" text-anchor="middle" font-size="18px">X</text><circle cx="1045.2744140625" cy="495.0" r="10.0" /><circle cx="1045.2744140625" cy="745.0" r="10.0" /><rect x="1025.2744140625" y="975.0" width="40" height="40" stroke="black" fill="white" stroke-width="1" /><text x="1045.2744140625" y="995.0" dominant-baseline="middle" text-anchor="middle" font-size="18px">X</text><circle cx="1105.2744140625" cy="195.0" r="10.0" /><circle cx="1105.2744140625" cy="795.0" r="10.0" /><rect x="1085.2744140625" y="975.0" width="40" height="40" stroke="black" fill="white" stroke-width="1" /><text x="1105.2744140625" y="995.0" dominant-baseline="middle" text-anchor="middle" font-size="18px">X</text><circle cx="1165.2744140625" cy="445.0" r="10.0" /><circle cx="1165.2744140625" cy="845.0" r="10.0" /><rect x="1145.2744140625" y="975.0" width="40" height="40" stroke="black" fill="white" stroke-width="1" /><text x="1165.2744140625" y="995.0" dominant-baseline="middle" text-anchor="middle" font-size="18px">X</text><circle cx="1225.2744140625" cy="295.0" r="10.0" /><circle cx="1225.2744140625" cy="895.0" r="10.0" /><rect x="1205.2744140625" y="975.0" width="40" height="40" stroke="black" fill="white" stroke-width="1" /><text x="1225.2744140625" y="995.0" dominant-baseline="middle" text-anchor="middle" font-size="18px">X</text><circle cx="1285.2744140625" cy="395.0" r="10.0" /><circle cx="1285.2744140625" cy="945.0" r="10.0" /><rect x="1265.2744140625" y="975.0" width="40" height="40" stroke="black" fill="white" stroke-width="1" /><text x="1285.2744140625" y="995.0" dominant-baseline="middle" text-anchor="middle" font-size="18px">X</text><circle cx="1335.2744140625" cy="395.0" r="10.0" /><rect x="1315.2744140625" y="275.0" width="40" height="40" stroke="black" fill="white" stroke-width="1" /><text x="1335.2744140625" y="295.0" dominant-baseline="middle" text-anchor="middle" font-size="18px">X</text><circle cx="1375.2744140625" cy="445.0" r="10.0" /><rect x="1355.2744140625" y="175.0" width="40" height="40" stroke="black" fill="white" stroke-width="1" /><text x="1375.2744140625" y="195.0" dominant-baseline="middle" text-anchor="middle" font-size="18px">X</text><circle cx="1415.2744140625" cy="495.0" r="10.0" /><rect x="1395.2744140625" y="325.0" width="40" height="40" stroke="black" fill="white" stroke-width="1" /><text x="1415.2744140625" y="345.0" dominant-baseline="middle" text-anchor="middle" font-size="18px">X</text><circle cx="1455.2744140625" cy="545.0" r="10.0" /><rect x="1435.2744140625" y="225.0" width="40" height="40" stroke="black" fill="white" stroke-width="1" /><text x="1455.2744140625" y="245.0" dominant-baseline="middle" text-anchor="middle" font-size="18px">X</text><circle cx="1525.2744140625" cy="245.0" r="10.0" /><circle cx="1525.2744140625" cy="145.0" r="10.0" /><rect x="1505.2744140625" y="525.0" width="40" height="40" stroke="black" fill="white" stroke-width="1" /><text x="1525.2744140625" y="545.0" dominant-baseline="middle" text-anchor="middle" font-size="18px">X</text><circle cx="1585.2744140625" cy="345.0" r="10.0" /><circle cx="1585.2744140625" cy="145.0" r="10.0" /><rect x="1565.2744140625" y="475.0" width="40" height="40" stroke="black" fill="white" stroke-width="1" /><text x="1585.2744140625" y="495.0" dominant-baseline="middle" text-anchor="middle" font-size="18px">X</text><circle cx="1645.2744140625" cy="195.0" r="10.0" /><circle cx="1645.2744140625" cy="145.0" r="10.0" /><rect x="1625.2744140625" y="425.0" width="40" height="40" stroke="black" fill="white" stroke-width="1" /><text x="1645.2744140625" y="445.0" dominant-baseline="middle" text-anchor="middle" font-size="18px">X</text><circle cx="1705.2744140625" cy="295.0" r="10.0" /><circle cx="1705.2744140625" cy="145.0" r="10.0" /><rect x="1685.2744140625" y="375.0" width="40" height="40" stroke="black" fill="white" stroke-width="1" /><text x="1705.2744140625" y="395.0" dominant-baseline="middle" text-anchor="middle" font-size="18px">X</text><circle cx="1755.2744140625" cy="295.0" r="10.0" /><rect x="1735.2744140625" y="175.0" width="40" height="40" stroke="black" fill="white" stroke-width="1" /><text x="1755.2744140625" y="195.0" dominant-baseline="middle" text-anchor="middle" font-size="18px">X</text><circle cx="1795.2744140625" cy="345.0" r="10.0" /><rect x="1775.2744140625" y="225.0" width="40" height="40" stroke="black" fill="white" stroke-width="1" /><text x="1795.2744140625" y="245.0" dominant-baseline="middle" text-anchor="middle" font-size="18px">X</text><circle cx="1865.2744140625" cy="245.0" r="10.0" /><circle cx="1865.2744140625" cy="95.0" r="10.0" /><rect x="1845.2744140625" y="325.0" width="40" height="40" stroke="black" fill="white" stroke-width="1" /><text x="1865.2744140625" y="345.0" dominant-baseline="middle" text-anchor="middle" font-size="18px">X</text><circle cx="1925.2744140625" cy="195.0" r="10.0" /><circle cx="1925.2744140625" cy="95.0" r="10.0" /><rect x="1905.2744140625" y="275.0" width="40" height="40" stroke="black" fill="white" stroke-width="1" /><text x="1925.2744140625" y="295.0" dominant-baseline="middle" text-anchor="middle" font-size="18px">X</text><circle cx="1985.2744140625" cy="195.0" r="10.0" /><rect x="1965.2744140625" y="225.0" width="40" height="40" stroke="black" fill="white" stroke-width="1" /><text x="1985.2744140625" y="245.0" dominant-baseline="middle" text-anchor="middle" font-size="18px">X</text><circle cx="2045.2744140625" cy="45.0" r="10.0" /><rect x="2025.2744140625" y="175.0" width="40" height="40" stroke="black" fill="white" stroke-width="1" /><text x="2045.2744140625" y="195.0" dominant-baseline="middle" text-anchor="middle" font-size="18px">X</text></svg>