<svg xmlns="http://www.w3.org/2000/svg" width="1787.2353515625" height="390.0"><line x1="37.63720703125" x2="1757.2353515625" y1="45.0" y2="45.0" stroke="#1967d2" stroke-width="1" /><line x1="37.63720703125" x2="1757.2353515625" y1="95.0" y2="95.0" stroke="#1967d2" stroke-width="1" /><line x1="37.63720703125" x2="1757.2353515625" y1="145.0" y2="145.0" stroke="#1967d2" stroke-width="1" /><line x1="37.63720703125" x2="1757.2353515625" y1="195.0" y2="195.0" stroke="#1967d2" stroke-width="1" /><line x1="37.63720703125" x2="1757.2353515625" y1="245.0" y2="245.0" stroke="#1967d2" stroke-width="1" /><line x1="37.63720703125" x2="1757.2353515625" y1="295.0" y2="295.0" stroke="#1967d2" stroke-width="1" /><line x1="37.63720703125" x2="1757.2353515625" y1="345.0" y2="345.0" stroke="#1967d2" stroke-width="1" /><line x1="1161.2548828125" x2="1251.2548828125" y1="5.0" y2="5.0" stroke="black" stroke-width="1" /><line x1="1161.2548828125" x2="1251.2548828125" y1="385.0" y2="385.0" stroke="black" stroke-width="1" /><line x1="941.2548828125" x2="1031.2548828125" y1="5.0" y2="5.0" stroke="black" stroke-width="1" /><line x1="941.2548828125" x2="1031.2548828125" y1="385.0" y2="385.0" stroke="black" stroke-width="1" /><line x1="781.2548828125" x2="871.2548828125" y1="5.0" y2="5.0" stroke="black" stroke-width="1" /><line x1="781.2548828125" x2="871.2548828125" y1="385.0" y2="385.0" stroke="black" stroke-width="1" /><line x1="558.2646484375" x2="648.2646484375" y1="5.0" y2="5.0" stroke="black" stroke-width="1" /><line x1="558.2646484375" x2="648.2646484375" y1="385.0" y2="385.0" stroke="black" stroke-width="1" /><line x1="225.2744140625" x2="225.2744140625" y1="45.0" y2="145.0" stroke="black" stroke-width="3" /><line x1="285.2744140625" x2="285.2744140625" y1="145.0" y2="245.0" stroke="black" stroke-width="3" /><line x1="345.2744140625" x2="345.2744140625" y1="195.0" y2="295.0" stroke="black" stroke-width="3" /><line x1="468.2646484375" x2="468.2646484375" y1="95.0" y2="295.0" stroke="black" stroke-width="3" /><line x1="578.2646484375" x2="578.2646484375" y1="145.0" y2="245.0" stroke="black" stroke-width="3" /><line x1="618.2646484375" x2="618.2646484375" y1="195.0" y2="295.0" stroke="black" stroke-width="3" /><line x1="801.2548828125" x2="801.2548828125" y1="145.0" y2="245.0" stroke="black" stroke-width="3" /><line x1="841.2548828125" x2="841.2548828125" y1="195.0" y2="295.0" stroke="black" stroke-width="3" /><line x1="911.2548828125" x2="911.2548828125" y1="45.0" y2="345.0" stroke="black" stroke-width="3" /><line x1="961.2548828125" x2="961.2548828125" y1="145.0" y2="245.0" stroke="black" stroke-width="3" /><line x1="1001.2548828125" x2="1001.2548828125" y1="195.0" y2="295.0" stroke="black" stroke-width="3" /><line x1="1181.2548828125" x2="1181.2548828125" y1="145.0" y2="245.0" stroke="black" stroke-width="3" /><line x1="1221.2548828125" x2="1221.2548828125" y1="195.0" y2="295.0" stroke="black" stroke-width="3" /><line x1="1354.2451171875" x2="1354.2451171875" y1="95.0" y2="295.0" stroke="black" stroke-width="3" /><line x1="1474.2451171875" x2="1474.2451171875" y1="195.0" y2="295.0" stroke="black" stroke-width="3" /><line x1="1534.2451171875" x2="1534.2451171875" y1="145.0" y2="245.0" stroke="black" stroke-width="3" /><line x1="1594.2451171875" x2="1594.2451171875" y1="45.0" y2="145.0" stroke="black" stroke-width="3" /><line x1="1161.2548828125" x2="1161.2548828125" y1="5.0" y2="15.0" stroke="black" stroke-width="3" /><line x1="1251.2548828125" x2="1251.2548828125" y1="5.0" y2="15.0" stroke="black" stroke-width="3" /><line x1="1161.2548828125" x2="1161.2548828125" y1="375.0" y2="385.0" stroke="black" stroke-width="3" /><line x1="1251.2548828125" x2="1251.2548828125" y1="375.0" y2="385.0" stroke="black" stroke-width="3" /><line x1="941.2548828125" x2="941.2548828125" y1="5.0" y2="15.0" stroke="black" stroke-width="3" /><line x1="1031.2548828125" x2="1031.2548828125" y1="5.0" y2="15.0" stroke="black" stroke-width="3" /><line x1="941.2548828125" x2="941.2548828125" y1="375.0" y2="385.0" stroke="black" stroke-width="3" /><line x1="1031.2548828125" x2="1031.2548828125" y1="375.0" y2="385.0" stroke="black" stroke-width="3" /><line x1="781.2548828125" x2="781.2548828125" y1="5.0" y2="15.0" stroke="black" stroke-width="3" /><line x1="871.2548828125" x2="871.2548828125" y1="5.0" y2="15.0" stroke="black" stroke-width="3" /><line x1="781.2548828125" x2="781.2548828125" y1="375.0" y2="385.0" stroke="black" stroke-width="3" /><line x1="871.2548828125" x2="871.2548828125" y1="375.0" y2="385.0" stroke="black" stroke-width="3" /><line x1="558.2646484375" x2="558.2646484375" y1="5.0" y2="15.0" stroke="black" stroke-width="3" /><line x1="648.2646484375" x2="648.2646484375" y1="5.0" y2="15.0" stroke="black" stroke-width="3" /><line x1="558.2646484375" x2="558.2646484375" y1="375.0" y2="385.0" stroke="black" stroke-width="3" /><line x1="648.2646484375" x2="648.2646484375" y1="375.0" y2="385.0" stroke="black" stroke-width="3" /><rect x="10.0" y="25.0" width="55.2744140625" height="40" stroke="black" fill="white" stroke-width="0" /><text x="37.63720703125" y="45.0" dominant-baseline="middle" text-anchor="middle" font-size="14px">a0: </text><rect x="10.0" y="75.0" width="55.2744140625" height="40" stroke="black" fill="white" stroke-width="0" /><text x="37.63720703125" y="95.0" dominant-baseline="middle" text-anchor="middle" font-size="14px">a1: </text><rect x="10.0" y="125.0" width="55.2744140625" height="40" stroke="black" fill="white" stroke-width="0" /><text x="37.63720703125" y="145.0" dominant-baseline="middle" text-anchor="middle" font-size="14px">b_00: </text><rect x="10.0" y="175.0" width="55.2744140625" height="40" stroke="black" fill="white" stroke-width="0" /><text x="37.63720703125" y="195.0" dominant-baseline="middle" text-anchor="middle" font-size="14px">b_01: </text><rect x="10.0" y="225.0" width="55.2744140625" height="40" stroke="black" fill="white" stroke-width="0" /><text x="37.63720703125" y="245.0" dominant-baseline="middle" text-anchor="middle" font-size="14px">b_10: </text><rect x="10.0" y="275.0" width="55.2744140625" height="40" stroke="black" fill="white" stroke-width="0" /><text x="37.63720703125" y="295.0" dominant-baseline="middle" text-anchor="middle" font-size="14px">b_11: </text><rect x="10.0" y="325.0" width="55.2744140625" height="40" stroke="black" fill="white" stroke-width="0" /><text x="37.63720703125" y="345.0" dominant-baseline="middle" text-anchor="middle" font-size="14px">target: </text><rect x="85.2744140625" y="225.0" width="40" height="40" stroke="black" fill="white" stroke-width="1" /><text x="105.2744140625" y="245.0" dominant-baseline="middle" text-anchor="middle" font-size="18px">H</text><rect x="85.2744140625" y="275.0" width="40" height="40" stroke="black" fill="white" stroke-width="1" /><text x="105.2744140625" y="295.0" dominant-baseline="middle" text-anchor="middle" font-size="18px">H</text><rect x="145.2744140625" y="225.0" width="40" height="40" stroke="black" fill="white" stroke-width="1" /><text x="165.2744140625" y="245.0" dominant-baseline="middle" text-anchor="middle" font-size="18px">T</text><rect x="145.2744140625" y="275.0" width="40" height="40" stroke="black" fill="white" stroke-width="1" /><text x="165.2744140625" y="295.0" dominant-baseline="middle" text-anchor="middle" font-size="18px">T</text><circle cx="225.2744140625" cy="45.0" r="10.0" /><rect x="205.2744140625" y="125.0" width="40" height="40" stroke="black" fill="white" stroke-width="1" /><text x="225.2744140625" y="145.0" dominant-baseline="middle" text-anchor="middle" font-size="18px">X</text><circle cx="285.2744140625" cy="145.0" r="10.0" /><rect x="265.2744140625" y="225.0" width="40" height="40" stroke="black" fill="white" stroke-width="1" /><text x="285.2744140625" y="245.0" dominant-baseline="middle" text-anchor="middle" font-size="18px">X</text><rect x="265.2744140625" y="175.0" width="40" height="40" stroke="black" fill="white" stroke-width="1" /><text x="285.2744140625" y="195.0" dominant-baseline="middle" text-anchor="middle" font-size="18px">X</text><circle cx="345.2744140625" cy="195.0" r="10.0" /><rect x="325.2744140625" y="275.0" width="40" height="40" stroke="black" fill="white" stroke-width="1" /><text x="345.2744140625" y="295.0" dominant-baseline="middle" text-anchor="middle" font-size="18px">X</text><rect x="385.2744140625" y="225.0" width="42.990234375" height="40" stroke="black" fill="white" stroke-width="1" /><text x="406.76953125" y="245.0" dominant-baseline="middle" text-anchor="middle" font-size="14px">T^-1</text><rect x="385.2744140625" y="275.0" width="42.990234375" height="40" stroke="black" fill="white" stroke-width="1" /><text x="406.76953125" y="295.0" dominant-baseline="middle" text-anchor="middle" font-size="14px">T^-1</text><circle cx="468.2646484375" cy="95.0" r="10.0" /><rect x="448.2646484375" y="275.0" width="40" height="40" stroke="black" fill="white" stroke-width="1" /><text x="468.2646484375" y="295.0" dominant-baseline="middle" text-anchor="middle" font-size="18px">X</text><rect x="448.2646484375" y="225.0" width="40" height="40" stroke="black" fill="white" stroke-width="1" /><text x="468.2646484375" y="245.0" dominant-baseline="middle" text-anchor="middle" font-size="18px">X</text><rect x="508.2646484375" y="225.0" width="40" height="40" stroke="black" fill="white" stroke-width="1" /><text x="528.2646484375" y="245.0" dominant-baseline="middle" text-anchor="middle" font-size="18px">T</text><rect x="508.2646484375" y="275.0" width="40" height="40" stroke="black" fill="white" stroke-width="1" /><text x="528.2646484375" y="295.0" dominant-baseline="middle" text-anchor="middle" font-size="18px">T</text><circle cx="578.2646484375" cy="145.0" r="10.0" /><rect x="558.2646484375" y="225.0" width="40" height="40" stroke="black" fill="white" stroke-width="1" /><text x="578.2646484375" y="245.0" dominant-baseline="middle" text-anchor="middle" font-size="18px">X</text><circle cx="618.2646484375" cy="195.0" r="10.0" /><rect x="598.2646484375" y="275.0" width="40" height="40" stroke="black" fill="white" stroke-width="1" /><text x="618.2646484375" y="295.0" dominant-baseline="middle" text-anchor="middle" font-size="18px">X</text><rect x="668.2646484375" y="225.0" width="42.990234375" height="40" stroke="black" fill="white" stroke-width="1" /><text x="689.759765625" y="245.0" dominant-baseline="middle" text-anchor="middle" font-size="14px">T^-1</text><rect x="668.2646484375" y="275.0" width="42.990234375" height="40" stroke="black" fill="white" stroke-width="1" /><text x="689.759765625" y="295.0" dominant-baseline="middle" text-anchor="middle" font-size="14px">T^-1</text><rect x="731.2548828125" y="225.0" width="40" height="40" stroke="black" fill="white" stroke-width="1" /><text x="751.2548828125" y="245.0" dominant-baseline="middle" text-anchor="middle" font-size="18px">H</text><rect x="731.2548828125" y="275.0" width="40" height="40" stroke="black" fill="white" stroke-width="1" /><text x="751.2548828125" y="295.0" dominant-baseline="middle" text-anchor="middle" font-size="18px">H</text><circle cx="801.2548828125" cy="245.0" r="10.0" /><rect x="781.2548828125" y="125.0" width="40" height="40" stroke="black" fill="white" stroke-width="1" /><text x="801.2548828125" y="145.0" dominant-baseline="middle" text-anchor="middle" font-size="18px">X</text><circle cx="841.2548828125" cy="295.0" r="10.0" /><rect x="821.2548828125" y="175.0" width="40" height="40" stroke="black" fill="white" stroke-width="1" /><text x="841.2548828125" y="195.0" dominant-baseline="middle" text-anchor="middle" font-size="18px">X</text><circle cx="911.2548828125" cy="45.0" r="10.0" /><circle cx="911.2548828125" cy="345.0" r="10.0" /><circle cx="961.2548828125" cy="245.0" r="10.0" /><rect x="941.2548828125" y="125.0" width="40" height="40" stroke="black" fill="white" stroke-width="1" /><text x="961.2548828125" y="145.0" dominant-baseline="middle" text-anchor="middle" font-size="18px">X</text><circle cx="1001.2548828125" cy="295.0" r="10.0" /><rect x="981.2548828125" y="175.0" width="40" height="40" stroke="black" fill="white" stroke-width="1" /><text x="1001.2548828125" y="195.0" dominant-baseline="middle" text-anchor="middle" font-size="18px">X</text><rect x="1051.2548828125" y="225.0" width="40" height="40" stroke="black" fill="white" stroke-width="1" /><text x="1071.2548828125" y="245.0" dominant-baseline="middle" text-anchor="middle" font-size="18px">H</text><rect x="1051.2548828125" y="275.0" width="40" height="40" stroke="black" fill="white" stroke-width="1" /><text x="1071.2548828125" y="295.0" dominant-baseline="middle" text-anchor="middle" font-size="18px">H</text><rect x="1111.2548828125" y="225.0" width="40" height="40" stroke="black" fill="white" stroke-width="1" /><text x="1131.2548828125" y="245.0" dominant-baseline="middle" text-anchor="middle" font-size="18px">T</text><rect x="1111.2548828125" y="275.0" width="40" height="40" stroke="black" fill="white" stroke-width="1" /><text x="1131.2548828125" y="295.0" dominant-baseline="middle" text-anchor="middle" font-size="18px">T</text><circle cx="1181.2548828125" cy="145.0" r="10.0" /><rect x="1161.2548828125" y="225.0" width="40" height="40" stroke="black" fill="white" stroke-width="1" /><text x="1181.2548828125" y="245.0" dominant-baseline="middle" text-anchor="middle" font-size="18px">X</text><circle cx="1221.2548828125" cy="195.0" r="10.0" /><rect x="1201.2548828125" y="275.0" width="40" height="40" stroke="black" fill="white" stroke-width="1" /><text x="1221.2548828125" y="295.0" dominant-baseline="middle" text-anchor="middle" font-size="18px">X</text><rect x="1271.2548828125" y="225.0" width="42.990234375" height="40" stroke="black" fill="white" stroke-width="1" /><text x="1292.75" y="245.0" dominant-baseline="middle" text-anchor="middle" font-size="14px">T^-1</text><rect x="1271.2548828125" y="275.0" width="42.990234375" height="40" stroke="black" fill="white" stroke-width="1" /><text x="1292.75" y="295.0" dominant-baseline="middle" text-anchor="middle" font-size="14px">T^-1</text><circle cx="1354.2451171875" cy="95.0" r="10.0" /><rect x="1334.2451171875" y="275.0" width="40" height="40" stroke="black" fill="white" stroke-width="1" /><text x="1354.2451171875" y="295.0" dominant-baseline="middle" text-anchor="middle" font-size="18px">X</text><rect x="1334.2451171875" y="225.0" width="40" height="40" stroke="black" fill="white" stroke-width="1" /><text x="1354.2451171875" y="245.0" dominant-baseline="middle" text-anchor="middle" font-size="18px">X</text><rect x="1394.2451171875" y="225.0" width="40" height="40" stroke="black" fill="white" stroke-width="1" /><text x="1414.2451171875" y="245.0" dominant-baseline="middle" text-anchor="middle" font-size="18px">T</text><rect x="1394.2451171875" y="275.0" width="40" height="40" stroke="black" fill="white" stroke-width="1" /><text x="1414.2451171875" y="295.0" dominant-baseline="middle" text-anchor="middle" font-size="18px">T</text><circle cx="1474.2451171875" cy="195.0" r="10.0" /><rect x="1454.2451171875" y="275.0" width="40" height="40" stroke="black" fill="white" stroke-width="1" /><text x="1474.2451171875" y="295.0" dominant-baseline="middle" text-anchor="middle" font-size="18px">X</text><circle cx="1534.2451171875" cy="145.0" r="10.0" /><rect x="1514.2451171875" y="225.0" width="40" height="40" stroke="black" fill="white" stroke-width="1" /><text x="1534.2451171875" y="245.0" dominant-baseline="middle" text-anchor="middle" font-size="18px">X</text><rect x="1514.2451171875" y="175.0" width="40" height="40" stroke="black" fill="white" stroke-width="1" /><text x="1534.2451171875" y="195.0" dominant-baseline="middle" text-anchor="middle" font-size="18px">X</text><circle cx="1594.2451171875" cy="45.0" r="10.0" /><rect x="1574.2451171875" y="125.0" width="40" height="40" stroke="black" fill="white" stroke-width="1" /><text x="1594.2451171875" y="145.0" dominant-baseline="middle" text-anchor="middle" font-size="18px">X</text><rect x="1634.2451171875" y="225.0" width="42.990234375" height="40" stroke="black" fill="white" stroke-width="1" /><text x="1655.740234375" y="245.0" dominant-baseline="middle" text-anchor="middle" font-size="14px">T^-1</text><rect x="1634.2451171875" y="275.0" width="42.990234375" height="40" stroke="black" fill="white" stroke-width="1" /><text x="1655.740234375" y="295.0" dominant-baseline="middle" text-anchor="middle" font-size="14px">T^-1</text><rect x="1697.2353515625" y="225.0" width="40" height="40" stroke="black" fill="white" stroke-width="1" /><text x="1717.2353515625" y="245.0" dominant-baseline="middle" text-anchor="middle" font-size="18px">H</text><rect x="1697.2353515625" y="275.0" width="40" height="40" stroke="black" fill="white" stroke-width="1" /><text x="1717.2353515625" y="295.0" dominant-baseline="middle" text-anchor="middle" font-size="18px">H</text></svg>