<svg xmlns="http://www.w3.org/2000/svg" width="3316.2060546875" height="640.0"><line x1="37.63720703125" x2="3286.2060546875" y1="45.0" y2="45.0" stroke="#1967d2" stroke-width="1" /><line x1="37.63720703125" x2="3286.2060546875" y1="95.0" y2="95.0" stroke="#1967d2" stroke-width="1" /><line x1="37.63720703125" x2="3286.2060546875" y1="145.0" y2="145.0" stroke="#1967d2" stroke-width="1" /><line x1="37.63720703125" x2="3286.2060546875" y1="195.0" y2="195.0" stroke="#1967d2" stroke-width="1" /><line x1="37.63720703125" x2="3286.2060546875" y1="245.0" y2="245.0" stroke="#1967d2" stroke-width="1" /><line x1="37.63720703125" x2="3286.2060546875" y1="295.0" y2="295.0" stroke="#1967d2" stroke-width="1" /><line x1="37.63720703125" x2="3286.2060546875" y1="345.0" y2="345.0" stroke="#1967d2" stroke-width="1" /><line x1="37.63720703125" x2="3286.2060546875" y1="395.0" y2="395.0" stroke="#1967d2" stroke-width="1" /><line x1="37.63720703125" x2="3286.2060546875" y1="445.0" y2="445.0" stroke="#1967d2" stroke-width="1" /><line x1="37.63720703125" x2="3286.2060546875" y1="495.0" y2="495.0" stroke="#1967d2" stroke-width="1" /><line x1="37.63720703125" x2="3286.2060546875" y1="545.0" y2="545.0" stroke="#1967d2" stroke-width="1" /><line x1="37.63720703125" x2="3286.2060546875" y1="595.0" y2="595.0" stroke="#1967d2" stroke-width="1" /><line x1="2690.2255859375" x2="2780.2255859375" y1="5.0" y2="5.0" stroke="black" stroke-width="1" /><line x1="2690.2255859375" x2="2780.2255859375" y1="635.0" y2="635.0" stroke="black" stroke-width="1" /><line x1="2470.2255859375" x2="2560.2255859375" y1="5.0" y2="5.0" stroke="black" stroke-width="1" /><line x1="2470.2255859375" x2="2560.2255859375" y1="635.0" y2="635.0" stroke="black" stroke-width="1" /><line x1="2370.2255859375" x2="2460.2255859375" y1="5.0" y2="5.0" stroke="black" stroke-width="1" /><line x1="2370.2255859375" x2="2460.2255859375" y1="635.0" y2="635.0" stroke="black" stroke-width="1" /><line x1="2007.2353515625" x2="2177.2353515625" y1="5.0" y2="5.0" stroke="black" stroke-width="1" /><line x1="2007.2353515625" x2="2177.2353515625" y1="635.0" y2="635.0" stroke="black" stroke-width="1" /><line x1="1707.2353515625" x2="1877.2353515625" y1="5.0" y2="5.0" stroke="black" stroke-width="1" /><line x1="1707.2353515625" x2="1877.2353515625" y1="635.0" y2="635.0" stroke="black" stroke-width="1" /><line x1="1467.2353515625" x2="1637.2353515625" y1="5.0" y2="5.0" stroke="black" stroke-width="1" /><line x1="1467.2353515625" x2="1637.2353515625" y1="635.0" y2="635.0" stroke="black" stroke-width="1" /><line x1="1164.2451171875" x2="1334.2451171875" y1="5.0" y2="5.0" stroke="black" stroke-width="1" /><line x1="1164.2451171875" x2="1334.2451171875" y1="635.0" y2="635.0" stroke="black" stroke-width="1" /><line x1="881.2548828125" x2="971.2548828125" y1="5.0" y2="5.0" stroke="black" stroke-width="1" /><line x1="881.2548828125" x2="971.2548828125" y1="635.0" y2="635.0" stroke="black" stroke-width="1" /><line x1="781.2548828125" x2="871.2548828125" y1="5.0" y2="5.0" stroke="black" stroke-width="1" /><line x1="781.2548828125" x2="871.2548828125" y1="635.0" y2="635.0" stroke="black" stroke-width="1" /><line x1="558.2646484375" x2="648.2646484375" y1="5.0" y2="5.0" stroke="black" stroke-width="1" /><line x1="558.2646484375" x2="648.2646484375" y1="635.0" y2="635.0" stroke="black" stroke-width="1" /><line x1="225.2744140625" x2="225.2744140625" y1="45.0" y2="195.0" stroke="black" stroke-width="3" /><line x1="285.2744140625" x2="285.2744140625" y1="195.0" y2="295.0" stroke="black" stroke-width="3" /><line x1="345.2744140625" x2="345.2744140625" y1="245.0" y2="345.0" stroke="black" stroke-width="3" /><line x1="468.2646484375" x2="468.2646484375" y1="95.0" y2="345.0" stroke="black" stroke-width="3" /><line x1="578.2646484375" x2="578.2646484375" y1="195.0" y2="295.0" stroke="black" stroke-width="3" /><line x1="618.2646484375" x2="618.2646484375" y1="245.0" y2="345.0" stroke="black" stroke-width="3" /><line x1="801.2548828125" x2="801.2548828125" y1="195.0" y2="395.0" stroke="black" stroke-width="3" /><line x1="841.2548828125" x2="841.2548828125" y1="245.0" y2="495.0" stroke="black" stroke-width="3" /><line x1="901.2548828125" x2="901.2548828125" y1="195.0" y2="445.0" stroke="black" stroke-width="3" /><line x1="941.2548828125" x2="941.2548828125" y1="245.0" y2="545.0" stroke="black" stroke-width="3" /><line x1="1074.2451171875" x2="1074.2451171875" y1="145.0" y2="545.0" stroke="black" stroke-width="3" /><line x1="1184.2451171875" x2="1184.2451171875" y1="195.0" y2="445.0" stroke="black" stroke-width="3" /><line x1="1224.2451171875" x2="1224.2451171875" y1="245.0" y2="545.0" stroke="black" stroke-width="3" /><line x1="1264.2451171875" x2="1264.2451171875" y1="295.0" y2="395.0" stroke="black" stroke-width="3" /><line x1="1304.2451171875" x2="1304.2451171875" y1="345.0" y2="495.0" stroke="black" stroke-width="3" /><line x1="1487.2353515625" x2="1487.2353515625" y1="195.0" y2="445.0" stroke="black" stroke-width="3" /><line x1="1527.2353515625" x2="1527.2353515625" y1="245.0" y2="545.0" stroke="black" stroke-width="3" /><line x1="1567.2353515625" x2="1567.2353515625" y1="295.0" y2="395.0" stroke="black" stroke-width="3" /><line x1="1607.2353515625" x2="1607.2353515625" y1="345.0" y2="495.0" stroke="black" stroke-width="3" /><line x1="1677.2353515625" x2="1677.2353515625" y1="45.0" y2="595.0" stroke="black" stroke-width="3" /><line x1="1727.2353515625" x2="1727.2353515625" y1="195.0" y2="445.0" stroke="black" stroke-width="3" /><line x1="1767.2353515625" x2="1767.2353515625" y1="245.0" y2="545.0" stroke="black" stroke-width="3" /><line x1="1807.2353515625" x2="1807.2353515625" y1="295.0" y2="395.0" stroke="black" stroke-width="3" /><line x1="1847.2353515625" x2="1847.2353515625" y1="345.0" y2="495.0" stroke="black" stroke-width="3" /><line x1="2027.2353515625" x2="2027.2353515625" y1="195.0" y2="445.0" stroke="black" stroke-width="3" /><line x1="2067.2353515625" x2="2067.2353515625" y1="245.0" y2="545.0" stroke="black" stroke-width="3" /><line x1="2107.2353515625" x2="2107.2353515625" y1="295.0" y2="395.0" stroke="black" stroke-width="3" /><line x1="2147.2353515625" x2="2147.2353515625" y1="345.0" y2="495.0" stroke="black" stroke-width="3" /><line x1="2280.2255859375" x2="2280.2255859375" y1="145.0" y2="545.0" stroke="black" stroke-width="3" /><line x1="2390.2255859375" x2="2390.2255859375" y1="195.0" y2="445.0" stroke="black" stroke-width="3" /><line x1="2430.2255859375" x2="2430.2255859375" y1="245.0" y2="545.0" stroke="black" stroke-width="3" /><line x1="2490.2255859375" x2="2490.2255859375" y1="195.0" y2="395.0" stroke="black" stroke-width="3" /><line x1="2530.2255859375" x2="2530.2255859375" y1="245.0" y2="495.0" stroke="black" stroke-width="3" /><line x1="2710.2255859375" x2="2710.2255859375" y1="195.0" y2="295.0" stroke="black" stroke-width="3" /><line x1="2750.2255859375" x2="2750.2255859375" y1="245.0" y2="345.0" stroke="black" stroke-width="3" /><line x1="2883.2158203125" x2="2883.2158203125" y1="95.0" y2="345.0" stroke="black" stroke-width="3" /><line x1="3003.2158203125" x2="3003.2158203125" y1="245.0" y2="345.0" stroke="black" stroke-width="3" /><line x1="3063.2158203125" x2="3063.2158203125" y1="195.0" y2="295.0" stroke="black" stroke-width="3" /><line x1="3123.2158203125" x2="3123.2158203125" y1="45.0" y2="195.0" stroke="black" stroke-width="3" /><line x1="2690.2255859375" x2="2690.2255859375" y1="5.0" y2="15.0" stroke="black" stroke-width="3" /><line x1="2780.2255859375" x2="2780.2255859375" y1="5.0" y2="15.0" stroke="black" stroke-width="3" /><line x1="2690.2255859375" x2="2690.2255859375" y1="625.0" y2="635.0" stroke="black" stroke-width="3" /><line x1="2780.2255859375" x2="2780.2255859375" y1="625.0" y2="635.0" stroke="black" stroke-width="3" /><line x1="2470.2255859375" x2="2470.2255859375" y1="5.0" y2="15.0" stroke="black" stroke-width="3" /><line x1="2560.2255859375" x2="2560.2255859375" y1="5.0" y2="15.0" stroke="black" stroke-width="3" /><line x1="2470.2255859375" x2="2470.2255859375" y1="625.0" y2="635.0" stroke="black" stroke-width="3" /><line x1="2560.2255859375" x2="2560.2255859375" y1="625.0" y2="635.0" stroke="black" stroke-width="3" /><line x1="2370.2255859375" x2="2370.2255859375" y1="5.0" y2="15.0" stroke="black" stroke-width="3" /><line x1="2460.2255859375" x2="2460.2255859375" y1="5.0" y2="15.0" stroke="black" stroke-width="3" /><line x1="2370.2255859375" x2="2370.2255859375" y1="625.0" y2="635.0" stroke="black" stroke-width="3" /><line x1="2460.2255859375" x2="2460.2255859375" y1="625.0" y2="635.0" stroke="black" stroke-width="3" /><line x1="2007.2353515625" x2="2007.2353515625" y1="5.0" y2="15.0" stroke="black" stroke-width="3" /><line x1="2177.2353515625" x2="2177.2353515625" y1="5.0" y2="15.0" stroke="black" stroke-width="3" /><line x1="2007.2353515625" x2="2007.2353515625" y1="625.0" y2="635.0" stroke="black" stroke-width="3" /><line x1="2177.2353515625" x2="2177.2353515625" y1="625.0" y2="635.0" stroke="black" stroke-width="3" /><line x1="1707.2353515625" x2="1707.2353515625" y1="5.0" y2="15.0" stroke="black" stroke-width="3" /><line x1="1877.2353515625" x2="1877.2353515625" y1="5.0" y2="15.0" stroke="black" stroke-width="3" /><line x1="1707.2353515625" x2="1707.2353515625" y1="625.0" y2="635.0" stroke="black" stroke-width="3" /><line x1="1877.2353515625" x2="1877.2353515625" y1="625.0" y2="635.0" stroke="black" stroke-width="3" /><line x1="1467.2353515625" x2="1467.2353515625" y1="5.0" y2="15.0" stroke="black" stroke-width="3" /><line x1="1637.2353515625" x2="1637.2353515625" y1="5.0" y2="15.0" stroke="black" stroke-width="3" /><line x1="1467.2353515625" x2="1467.2353515625" y1="625.0" y2="635.0" stroke="black" stroke-width="3" /><line x1="1637.2353515625" x2="1637.2353515625" y1="625.0" y2="635.0" stroke="black" stroke-width="3" /><line x1="1164.2451171875" x2="1164.2451171875" y1="5.0" y2="15.0" stroke="black" stroke-width="3" /><line x1="1334.2451171875" x2="1334.2451171875" y1="5.0" y2="15.0" stroke="black" stroke-width="3" /><line x1="1164.2451171875" x2="1164.2451171875" y1="625.0" y2="635.0" stroke="black" stroke-width="3" /><line x1="1334.2451171875" x2="1334.2451171875" y1="625.0" y2="635.0" stroke="black" stroke-width="3" /><line x1="881.2548828125" x2="881.2548828125" y1="5.0" y2="15.0" stroke="black" stroke-width="3" /><line x1="971.2548828125" x2="971.2548828125" y1="5.0" y2="15.0" stroke="black" stroke-width="3" /><line x1="881.2548828125" x2="881.2548828125" y1="625.0" y2="635.0" stroke="black" stroke-width="3" /><line x1="971.2548828125" x2="971.2548828125" y1="625.0" y2="635.0" stroke="black" stroke-width="3" /><line x1="781.2548828125" x2="781.2548828125" y1="5.0" y2="15.0" stroke="black" stroke-width="3" /><line x1="871.2548828125" x2="871.2548828125" y1="5.0" y2="15.0" stroke="black" stroke-width="3" /><line x1="781.2548828125" x2="781.2548828125" y1="625.0" y2="635.0" stroke="black" stroke-width="3" /><line x1="871.2548828125" x2="871.2548828125" y1="625.0" y2="635.0" stroke="black" stroke-width="3" /><line x1="558.2646484375" x2="558.2646484375" y1="5.0" y2="15.0" stroke="black" stroke-width="3" /><line x1="648.2646484375" x2="648.2646484375" y1="5.0" y2="15.0" stroke="black" stroke-width="3" /><line x1="558.2646484375" x2="558.2646484375" y1="625.0" y2="635.0" stroke="black" stroke-width="3" /><line x1="648.2646484375" x2="648.2646484375" y1="625.0" y2="635.0" stroke="black" stroke-width="3" /><rect x="10.0" y="25.0" width="55.2744140625" height="40" stroke="black" fill="white" stroke-width="0" /><text x="37.63720703125" y="45.0" dominant-baseline="middle" text-anchor="middle" font-size="14px">a0: </text><rect x="10.0" y="75.0" width="55.2744140625" height="40" stroke="black" fill="white" stroke-width="0" /><text x="37.63720703125" y="95.0" dominant-baseline="middle" text-anchor="middle" font-size="14px">a1: </text><rect x="10.0" y="125.0" width="55.2744140625" height="40" stroke="black" fill="white" stroke-width="0" /><text x="37.63720703125" y="145.0" dominant-baseline="middle" text-anchor="middle" font-size="14px">a2: </text><rect x="10.0" y="175.0" width="55.2744140625" height="40" stroke="black" fill="white" stroke-width="0" /><text x="37.63720703125" y="195.0" dominant-baseline="middle" text-anchor="middle" font-size="14px">b_000: </text><rect x="10.0" y="225.0" width="55.2744140625" height="40" stroke="black" fill="white" stroke-width="0" /><text x="37.63720703125" y="245.0" dominant-baseline="middle" text-anchor="middle" font-size="14px">b_001: </text><rect x="10.0" y="275.0" width="55.2744140625" height="40" stroke="black" fill="white" stroke-width="0" /><text x="37.63720703125" y="295.0" dominant-baseline="middle" text-anchor="middle" font-size="14px">b_010: </text><rect x="10.0" y="325.0" width="55.2744140625" height="40" stroke="black" fill="white" stroke-width="0" /><text x="37.63720703125" y="345.0" dominant-baseline="middle" text-anchor="middle" font-size="14px">b_011: </text><rect x="10.0" y="375.0" width="55.2744140625" height="40" stroke="black" fill="white" stroke-width="0" /><text x="37.63720703125" y="395.0" dominant-baseline="middle" text-anchor="middle" font-size="14px">b_100: </text><rect x="10.0" y="425.0" width="55.2744140625" height="40" stroke="black" fill="white" stroke-width="0" /><text x="37.63720703125" y="445.0" dominant-baseline="middle" text-anchor="middle" font-size="14px">b_101: </text><rect x="10.0" y="475.0" width="55.2744140625" height="40" stroke="black" fill="white" stroke-width="0" /><text x="37.63720703125" y="495.0" dominant-baseline="middle" text-anchor="middle" font-size="14px">b_110: </text><rect x="10.0" y="525.0" width="55.2744140625" height="40" stroke="black" fill="white" stroke-width="0" /><text x="37.63720703125" y="545.0" dominant-baseline="middle" text-anchor="middle" font-size="14px">b_111: </text><rect x="10.0" y="575.0" width="55.2744140625" height="40" stroke="black" fill="white" stroke-width="0" /><text x="37.63720703125" y="595.0" dominant-baseline="middle" text-anchor="middle" font-size="14px">target: </text><rect x="85.2744140625" y="275.0" width="40" height="40" stroke="black" fill="white" stroke-width="1" /><text x="105.2744140625" y="295.0" dominant-baseline="middle" text-anchor="middle" font-size="18px">H</text><rect x="85.2744140625" y="325.0" width="40" height="40" stroke="black" fill="white" stroke-width="1" /><text x="105.2744140625" y="345.0" dominant-baseline="middle" text-anchor="middle" font-size="18px">H</text><rect x="85.2744140625" y="375.0" width="40" height="40" stroke="black" fill="white" stroke-width="1" /><text x="105.2744140625" y="395.0" dominant-baseline="middle" text-anchor="middle" font-size="18px">H</text><rect x="85.2744140625" y="425.0" width="40" height="40" stroke="black" fill="white" stroke-width="1" /><text x="105.2744140625" y="445.0" dominant-baseline="middle" text-anchor="middle" font-size="18px">H</text><rect x="85.2744140625" y="475.0" width="40" height="40" stroke="black" fill="white" stroke-width="1" /><text x="105.2744140625" y="495.0" dominant-baseline="middle" text-anchor="middle" font-size="18px">H</text><rect x="85.2744140625" y="525.0" width="40" height="40" stroke="black" fill="white" stroke-width="1" /><text x="105.2744140625" y="545.0" dominant-baseline="middle" text-anchor="middle" font-size="18px">H</text><rect x="145.2744140625" y="275.0" width="40" height="40" stroke="black" fill="white" stroke-width="1" /><text x="165.2744140625" y="295.0" dominant-baseline="middle" text-anchor="middle" font-size="18px">T</text><rect x="145.2744140625" y="325.0" width="40" height="40" stroke="black" fill="white" stroke-width="1" /><text x="165.2744140625" y="345.0" dominant-baseline="middle" text-anchor="middle" font-size="18px">T</text><rect x="145.2744140625" y="375.0" width="40" height="40" stroke="black" fill="white" stroke-width="1" /><text x="165.2744140625" y="395.0" dominant-baseline="middle" text-anchor="middle" font-size="18px">T</text><rect x="145.2744140625" y="425.0" width="40" height="40" stroke="black" fill="white" stroke-width="1" /><text x="165.2744140625" y="445.0" dominant-baseline="middle" text-anchor="middle" font-size="18px">T</text><rect x="145.2744140625" y="475.0" width="40" height="40" stroke="black" fill="white" stroke-width="1" /><text x="165.2744140625" y="495.0" dominant-baseline="middle" text-anchor="middle" font-size="18px">T</text><rect x="145.2744140625" y="525.0" width="40" height="40" stroke="black" fill="white" stroke-width="1" /><text x="165.2744140625" y="545.0" dominant-baseline="middle" text-anchor="middle" font-size="18px">T</text><circle cx="225.2744140625" cy="45.0" r="10.0" /><rect x="205.2744140625" y="175.0" width="40" height="40" stroke="black" fill="white" stroke-width="1" /><text x="225.2744140625" y="195.0" dominant-baseline="middle" text-anchor="middle" font-size="18px">X</text><circle cx="285.2744140625" cy="195.0" r="10.0" /><rect x="265.2744140625" y="275.0" width="40" height="40" stroke="black" fill="white" stroke-width="1" /><text x="285.2744140625" y="295.0" dominant-baseline="middle" text-anchor="middle" font-size="18px">X</text><rect x="265.2744140625" y="225.0" width="40" height="40" stroke="black" fill="white" stroke-width="1" /><text x="285.2744140625" y="245.0" dominant-baseline="middle" text-anchor="middle" font-size="18px">X</text><circle cx="345.2744140625" cy="245.0" r="10.0" /><rect x="325.2744140625" y="325.0" width="40" height="40" stroke="black" fill="white" stroke-width="1" /><text x="345.2744140625" y="345.0" dominant-baseline="middle" text-anchor="middle" font-size="18px">X</text><rect x="385.2744140625" y="275.0" width="42.990234375" height="40" stroke="black" fill="white" stroke-width="1" /><text x="406.76953125" y="295.0" dominant-baseline="middle" text-anchor="middle" font-size="14px">T^-1</text><rect x="385.2744140625" y="325.0" width="42.990234375" height="40" stroke="black" fill="white" stroke-width="1" /><text x="406.76953125" y="345.0" dominant-baseline="middle" text-anchor="middle" font-size="14px">T^-1</text><circle cx="468.2646484375" cy="95.0" r="10.0" /><rect x="448.2646484375" y="325.0" width="40" height="40" stroke="black" fill="white" stroke-width="1" /><text x="468.2646484375" y="345.0" dominant-baseline="middle" text-anchor="middle" font-size="18px">X</text><rect x="448.2646484375" y="275.0" width="40" height="40" stroke="black" fill="white" stroke-width="1" /><text x="468.2646484375" y="295.0" dominant-baseline="middle" text-anchor="middle" font-size="18px">X</text><rect x="508.2646484375" y="275.0" width="40" height="40" stroke="black" fill="white" stroke-width="1" /><text x="528.2646484375" y="295.0" dominant-baseline="middle" text-anchor="middle" font-size="18px">T</text><rect x="508.2646484375" y="325.0" width="40" height="40" stroke="black" fill="white" stroke-width="1" /><text x="528.2646484375" y="345.0" dominant-baseline="middle" text-anchor="middle" font-size="18px">T</text><circle cx="578.2646484375" cy="195.0" r="10.0" /><rect x="558.2646484375" y="275.0" width="40" height="40" stroke="black" fill="white" stroke-width="1" /><text x="578.2646484375" y="295.0" dominant-baseline="middle" text-anchor="middle" font-size="18px">X</text><circle cx="618.2646484375" cy="245.0" r="10.0" /><rect x="598.2646484375" y="325.0" width="40" height="40" stroke="black" fill="white" stroke-width="1" /><text x="618.2646484375" y="345.0" dominant-baseline="middle" text-anchor="middle" font-size="18px">X</text><rect x="668.2646484375" y="275.0" width="42.990234375" height="40" stroke="black" fill="white" stroke-width="1" /><text x="689.759765625" y="295.0" dominant-baseline="middle" text-anchor="middle" font-size="14px">T^-1</text><rect x="668.2646484375" y="325.0" width="42.990234375" height="40" stroke="black" fill="white" stroke-width="1" /><text x="689.759765625" y="345.0" dominant-baseline="middle" text-anchor="middle" font-size="14px">T^-1</text><rect x="731.2548828125" y="275.0" width="40" height="40" stroke="black" fill="white" stroke-width="1" /><text x="751.2548828125" y="295.0" dominant-baseline="middle" text-anchor="middle" font-size="18px">H</text><rect x="731.2548828125" y="325.0" width="40" height="40" stroke="black" fill="white" stroke-width="1" /><text x="751.2548828125" y="345.0" dominant-baseline="middle" text-anchor="middle" font-size="18px">H</text><circle cx="801.2548828125" cy="295.0" r="10.0" /><rect x="781.2548828125" y="375.0" width="40" height="40" stroke="black" fill="white" stroke-width="1" /><text x="801.2548828125" y="395.0" dominant-baseline="middle" text-anchor="middle" font-size="18px">X</text><rect x="781.2548828125" y="175.0" width="40" height="40" stroke="black" fill="white" stroke-width="1" /><text x="801.2548828125" y="195.0" dominant-baseline="middle" text-anchor="middle" font-size="18px">X</text><circle cx="841.2548828125" cy="345.0" r="10.0" /><rect x="821.2548828125" y="475.0" width="40" height="40" stroke="black" fill="white" stroke-width="1" /><text x="841.2548828125" y="495.0" dominant-baseline="middle" text-anchor="middle" font-size="18px">X</text><rect x="821.2548828125" y="225.0" width="40" height="40" stroke="black" fill="white" stroke-width="1" /><text x="841.2548828125" y="245.0" dominant-baseline="middle" text-anchor="middle" font-size="18px">X</text><circle cx="901.2548828125" cy="195.0" r="10.0" /><rect x="881.2548828125" y="425.0" width="40" height="40" stroke="black" fill="white" stroke-width="1" /><text x="901.2548828125" y="445.0" dominant-baseline="middle" text-anchor="middle" font-size="18px">X</text><circle cx="941.2548828125" cy="245.0" r="10.0" /><rect x="921.2548828125" y="525.0" width="40" height="40" stroke="black" fill="white" stroke-width="1" /><text x="941.2548828125" y="545.0" dominant-baseline="middle" text-anchor="middle" font-size="18px">X</text><rect x="991.2548828125" y="375.0" width="42.990234375" height="40" stroke="black" fill="white" stroke-width="1" /><text x="1012.75" y="395.0" dominant-baseline="middle" text-anchor="middle" font-size="14px">T^-1</text><rect x="991.2548828125" y="475.0" width="42.990234375" height="40" stroke="black" fill="white" stroke-width="1" /><text x="1012.75" y="495.0" dominant-baseline="middle" text-anchor="middle" font-size="14px">T^-1</text><rect x="991.2548828125" y="425.0" width="42.990234375" height="40" stroke="black" fill="white" stroke-width="1" /><text x="1012.75" y="445.0" dominant-baseline="middle" text-anchor="middle" font-size="14px">T^-1</text><rect x="991.2548828125" y="525.0" width="42.990234375" height="40" stroke="black" fill="white" stroke-width="1" /><text x="1012.75" y="545.0" dominant-baseline="middle" text-anchor="middle" font-size="14px">T^-1</text><circle cx="1074.2451171875" cy="145.0" r="10.0" /><rect x="1054.2451171875" y="525.0" width="40" height="40" stroke="black" fill="white" stroke-width="1" /><text x="1074.2451171875" y="545.0" dominant-baseline="middle" text-anchor="middle" font-size="18px">X</text><rect x="1054.2451171875" y="475.0" width="40" height="40" stroke="black" fill="white" stroke-width="1" /><text x="1074.2451171875" y="495.0" dominant-baseline="middle" text-anchor="middle" font-size="18px">X</text><rect x="1054.2451171875" y="425.0" width="40" height="40" stroke="black" fill="white" stroke-width="1" /><text x="1074.2451171875" y="445.0" dominant-baseline="middle" text-anchor="middle" font-size="18px">X</text><rect x="1054.2451171875" y="375.0" width="40" height="40" stroke="black" fill="white" stroke-width="1" /><text x="1074.2451171875" y="395.0" dominant-baseline="middle" text-anchor="middle" font-size="18px">X</text><rect x="1114.2451171875" y="375.0" width="40" height="40" stroke="black" fill="white" stroke-width="1" /><text x="1134.2451171875" y="395.0" dominant-baseline="middle" text-anchor="middle" font-size="18px">T</text><rect x="1114.2451171875" y="425.0" width="40" height="40" stroke="black" fill="white" stroke-width="1" /><text x="1134.2451171875" y="445.0" dominant-baseline="middle" text-anchor="middle" font-size="18px">T</text><rect x="1114.2451171875" y="475.0" width="40" height="40" stroke="black" fill="white" stroke-width="1" /><text x="1134.2451171875" y="495.0" dominant-baseline="middle" text-anchor="middle" font-size="18px">T</text><rect x="1114.2451171875" y="525.0" width="40" height="40" stroke="black" fill="white" stroke-width="1" /><text x="1134.2451171875" y="545.0" dominant-baseline="middle" text-anchor="middle" font-size="18px">T</text><circle cx="1184.2451171875" cy="195.0" r="10.0" /><rect x="1164.2451171875" y="425.0" width="40" height="40" stroke="black" fill="white" stroke-width="1" /><text x="1184.2451171875" y="445.0" dominant-baseline="middle" text-anchor="middle" font-size="18px">X</text><circle cx="1224.2451171875" cy="245.0" r="10.0" /><rect x="1204.2451171875" y="525.0" width="40" height="40" stroke="black" fill="white" stroke-width="1" /><text x="1224.2451171875" y="545.0" dominant-baseline="middle" text-anchor="middle" font-size="18px">X</text><circle cx="1264.2451171875" cy="295.0" r="10.0" /><rect x="1244.2451171875" y="375.0" width="40" height="40" stroke="black" fill="white" stroke-width="1" /><text x="1264.2451171875" y="395.0" dominant-baseline="middle" text-anchor="middle" font-size="18px">X</text><circle cx="1304.2451171875" cy="345.0" r="10.0" /><rect x="1284.2451171875" y="475.0" width="40" height="40" stroke="black" fill="white" stroke-width="1" /><text x="1304.2451171875" y="495.0" dominant-baseline="middle" text-anchor="middle" font-size="18px">X</text><rect x="1354.2451171875" y="375.0" width="42.990234375" height="40" stroke="black" fill="white" stroke-width="1" /><text x="1375.740234375" y="395.0" dominant-baseline="middle" text-anchor="middle" font-size="14px">T^-1</text><rect x="1354.2451171875" y="425.0" width="42.990234375" height="40" stroke="black" fill="white" stroke-width="1" /><text x="1375.740234375" y="445.0" dominant-baseline="middle" text-anchor="middle" font-size="14px">T^-1</text><rect x="1354.2451171875" y="475.0" width="42.990234375" height="40" stroke="black" fill="white" stroke-width="1" /><text x="1375.740234375" y="495.0" dominant-baseline="middle" text-anchor="middle" font-size="14px">T^-1</text><rect x="1354.2451171875" y="525.0" width="42.990234375" height="40" stroke="black" fill="white" stroke-width="1" /><text x="1375.740234375" y="545.0" dominant-baseline="middle" text-anchor="middle" font-size="14px">T^-1</text><rect x="1417.2353515625" y="375.0" width="40" height="40" stroke="black" fill="white" stroke-width="1" /><text x="1437.2353515625" y="395.0" dominant-baseline="middle" text-anchor="middle" font-size="18px">H</text><rect x="1417.2353515625" y="425.0" width="40" height="40" stroke="black" fill="white" stroke-width="1" /><text x="1437.2353515625" y="445.0" dominant-baseline="middle" text-anchor="middle" font-size="18px">H</text><rect x="1417.2353515625" y="475.0" width="40" height="40" stroke="black" fill="white" stroke-width="1" /><text x="1437.2353515625" y="495.0" dominant-baseline="middle" text-anchor="middle" font-size="18px">H</text><rect x="1417.2353515625" y="525.0" width="40" height="40" stroke="black" fill="white" stroke-width="1" /><text x="1437.2353515625" y="545.0" dominant-baseline="middle" text-anchor="middle" font-size="18px">H</text><circle cx="1487.2353515625" cy="445.0" r="10.0" /><rect x="1467.2353515625" y="175.0" width="40" height="40" stroke="black" fill="white" stroke-width="1" /><text x="1487.2353515625" y="195.0" dominant-baseline="middle" text-anchor="middle" font-size="18px">X</text><circle cx="1527.2353515625" cy="545.0" r="10.0" /><rect x="1507.2353515625" y="225.0" width="40" height="40" stroke="black" fill="white" stroke-width="1" /><text x="1527.2353515625" y="245.0" dominant-baseline="middle" text-anchor="middle" font-size="18px">X</text><circle cx="1567.2353515625" cy="395.0" r="10.0" /><rect x="1547.2353515625" y="275.0" width="40" height="40" stroke="black" fill="white" stroke-width="1" /><text x="1567.2353515625" y="295.0" dominant-baseline="middle" text-anchor="middle" font-size="18px">X</text><circle cx="1607.2353515625" cy="495.0" r="10.0" /><rect x="1587.2353515625" y="325.0" width="40" height="40" stroke="black" fill="white" stroke-width="1" /><text x="1607.2353515625" y="345.0" dominant-baseline="middle" text-anchor="middle" font-size="18px">X</text><circle cx="1677.2353515625" cy="45.0" r="10.0" /><circle cx="1677.2353515625" cy="595.0" r="10.0" /><circle cx="1727.2353515625" cy="445.0" r="10.0" /><rect x="1707.2353515625" y="175.0" width="40" height="40" stroke="black" fill="white" stroke-width="1" /><text x="1727.2353515625" y="195.0" dominant-baseline="middle" text-anchor="middle" font-size="18px">X</text><circle cx="1767.2353515625" cy="545.0" r="10.0" /><rect x="1747.2353515625" y="225.0" width="40" height="40" stroke="black" fill="white" stroke-width="1" /><text x="1767.2353515625" y="245.0" dominant-baseline="middle" text-anchor="middle" font-size="18px">X</text><circle cx="1807.2353515625" cy="395.0" r="10.0" /><rect x="1787.2353515625" y="275.0" width="40" height="40" stroke="black" fill="white" stroke-width="1" /><text x="1807.2353515625" y="295.0" dominant-baseline="middle" text-anchor="middle" font-size="18px">X</text><circle cx="1847.2353515625" cy="495.0" r="10.0" /><rect x="1827.2353515625" y="325.0" width="40" height="40" stroke="black" fill="white" stroke-width="1" /><text x="1847.2353515625" y="345.0" dominant-baseline="middle" text-anchor="middle" font-size="18px">X</text><rect x="1897.2353515625" y="375.0" width="40" height="40" stroke="black" fill="white" stroke-width="1" /><text x="1917.2353515625" y="395.0" dominant-baseline="middle" text-anchor="middle" font-size="18px">H</text><rect x="1897.2353515625" y="425.0" width="40" height="40" stroke="black" fill="white" stroke-width="1" /><text x="1917.2353515625" y="445.0" dominant-baseline="middle" text-anchor="middle" font-size="18px">H</text><rect x="1897.2353515625" y="475.0" width="40" height="40" stroke="black" fill="white" stroke-width="1" /><text x="1917.2353515625" y="495.0" dominant-baseline="middle" text-anchor="middle" font-size="18px">H</text><rect x="1897.2353515625" y="525.0" width="40" height="40" stroke="black" fill="white" stroke-width="1" /><text x="1917.2353515625" y="545.0" dominant-baseline="middle" text-anchor="middle" font-size="18px">H</text><rect x="1957.2353515625" y="375.0" width="40" height="40" stroke="black" fill="white" stroke-width="1" /><text x="1977.2353515625" y="395.0" dominant-baseline="middle" text-anchor="middle" font-size="18px">T</text><rect x="1957.2353515625" y="425.0" width="40" height="40" stroke="black" fill="white" stroke-width="1" /><text x="1977.2353515625" y="445.0" dominant-baseline="middle" text-anchor="middle" font-size="18px">T</text><rect x="1957.2353515625" y="475.0" width="40" height="40" stroke="black" fill="white" stroke-width="1" /><text x="1977.2353515625" y="495.0" dominant-baseline="middle" text-anchor="middle" font-size="18px">T</text><rect x="1957.2353515625" y="525.0" width="40" height="40" stroke="black" fill="white" stroke-width="1" /><text x="1977.2353515625" y="545.0" dominant-baseline="middle" text-anchor="middle" font-size="18px">T</text><circle cx="2027.2353515625" cy="195.0" r="10.0" /><rect x="2007.2353515625" y="425.0" width="40" height="40" stroke="black" fill="white" stroke-width="1" /><text x="2027.2353515625" y="445.0" dominant-baseline="middle" text-anchor="middle" font-size="18px">X</text><circle cx="2067.2353515625" cy="245.0" r="10.0" /><rect x="2047.2353515625" y="525.0" width="40" height="40" stroke="black" fill="white" stroke-width="1" /><text x="2067.2353515625" y="545.0" dominant-baseline="middle" text-anchor="middle" font-size="18px">X</text><circle cx="2107.2353515625" cy="295.0" r="10.0" /><rect x="2087.2353515625" y="375.0" width="40" height="40" stroke="black" fill="white" stroke-width="1" /><text x="2107.2353515625" y="395.0" dominant-baseline="middle" text-anchor="middle" font-size="18px">X</text><circle cx="2147.2353515625" cy="345.0" r="10.0" /><rect x="2127.2353515625" y="475.0" width="40" height="40" stroke="black" fill="white" stroke-width="1" /><text x="2147.2353515625" y="495.0" dominant-baseline="middle" text-anchor="middle" font-size="18px">X</text><rect x="2197.2353515625" y="375.0" width="42.990234375" height="40" stroke="black" fill="white" stroke-width="1" /><text x="2218.73046875" y="395.0" dominant-baseline="middle" text-anchor="middle" font-size="14px">T^-1</text><rect x="2197.2353515625" y="425.0" width="42.990234375" height="40" stroke="black" fill="white" stroke-width="1" /><text x="2218.73046875" y="445.0" dominant-baseline="middle" text-anchor="middle" font-size="14px">T^-1</text><rect x="2197.2353515625" y="475.0" width="42.990234375" height="40" stroke="black" fill="white" stroke-width="1" /><text x="2218.73046875" y="495.0" dominant-baseline="middle" text-anchor="middle" font-size="14px">T^-1</text><rect x="2197.2353515625" y="525.0" width="42.990234375" height="40" stroke="black" fill="white" stroke-width="1" /><text x="2218.73046875" y="545.0" dominant-baseline="middle" text-anchor="middle" font-size="14px">T^-1</text><circle cx="2280.2255859375" cy="145.0" r="10.0" /><rect x="2260.2255859375" y="525.0" width="40" height="40" stroke="black" fill="white" stroke-width="1" /><text x="2280.2255859375" y="545.0" dominant-baseline="middle" text-anchor="middle" font-size="18px">X</text><rect x="2260.2255859375" y="475.0" width="40" height="40" stroke="black" fill="white" stroke-width="1" /><text x="2280.2255859375" y="495.0" dominant-baseline="middle" text-anchor="middle" font-size="18px">X</text><rect x="2260.2255859375" y="425.0" width="40" height="40" stroke="black" fill="white" stroke-width="1" /><text x="2280.2255859375" y="445.0" dominant-baseline="middle" text-anchor="middle" font-size="18px">X</text><rect x="2260.2255859375" y="375.0" width="40" height="40" stroke="black" fill="white" stroke-width="1" /><text x="2280.2255859375" y="395.0" dominant-baseline="middle" text-anchor="middle" font-size="18px">X</text><rect x="2320.2255859375" y="375.0" width="40" height="40" stroke="black" fill="white" stroke-width="1" /><text x="2340.2255859375" y="395.0" dominant-baseline="middle" text-anchor="middle" font-size="18px">T</text><rect x="2320.2255859375" y="475.0" width="40" height="40" stroke="black" fill="white" stroke-width="1" /><text x="2340.2255859375" y="495.0" dominant-baseline="middle" text-anchor="middle" font-size="18px">T</text><rect x="2320.2255859375" y="425.0" width="40" height="40" stroke="black" fill="white" stroke-width="1" /><text x="2340.2255859375" y="445.0" dominant-baseline="middle" text-anchor="middle" font-size="18px">T</text><rect x="2320.2255859375" y="525.0" width="40" height="40" stroke="black" fill="white" stroke-width="1" /><text x="2340.2255859375" y="545.0" dominant-baseline="middle" text-anchor="middle" font-size="18px">T</text><circle cx="2390.2255859375" cy="195.0" r="10.0" /><rect x="2370.2255859375" y="425.0" width="40" height="40" stroke="black" fill="white" stroke-width="1" /><text x="2390.2255859375" y="445.0" dominant-baseline="middle" text-anchor="middle" font-size="18px">X</text><circle cx="2430.2255859375" cy="245.0" r="10.0" /><rect x="2410.2255859375" y="525.0" width="40" height="40" stroke="black" fill="white" stroke-width="1" /><text x="2430.2255859375" y="545.0" dominant-baseline="middle" text-anchor="middle" font-size="18px">X</text><circle cx="2490.2255859375" cy="295.0" r="10.0" /><rect x="2470.2255859375" y="375.0" width="40" height="40" stroke="black" fill="white" stroke-width="1" /><text x="2490.2255859375" y="395.0" dominant-baseline="middle" text-anchor="middle" font-size="18px">X</text><rect x="2470.2255859375" y="175.0" width="40" height="40" stroke="black" fill="white" stroke-width="1" /><text x="2490.2255859375" y="195.0" dominant-baseline="middle" text-anchor="middle" font-size="18px">X</text><circle cx="2530.2255859375" cy="345.0" r="10.0" /><rect x="2510.2255859375" y="475.0" width="40" height="40" stroke="black" fill="white" stroke-width="1" /><text x="2530.2255859375" y="495.0" dominant-baseline="middle" text-anchor="middle" font-size="18px">X</text><rect x="2510.2255859375" y="225.0" width="40" height="40" stroke="black" fill="white" stroke-width="1" /><text x="2530.2255859375" y="245.0" dominant-baseline="middle" text-anchor="middle" font-size="18px">X</text><rect x="2580.2255859375" y="275.0" width="40" height="40" stroke="black" fill="white" stroke-width="1" /><text x="2600.2255859375" y="295.0" dominant-baseline="middle" text-anchor="middle" font-size="18px">H</text><rect x="2580.2255859375" y="325.0" width="40" height="40" stroke="black" fill="white" stroke-width="1" /><text x="2600.2255859375" y="345.0" dominant-baseline="middle" text-anchor="middle" font-size="18px">H</text><rect x="2640.2255859375" y="275.0" width="40" height="40" stroke="black" fill="white" stroke-width="1" /><text x="2660.2255859375" y="295.0" dominant-baseline="middle" text-anchor="middle" font-size="18px">T</text><rect x="2640.2255859375" y="325.0" width="40" height="40" stroke="black" fill="white" stroke-width="1" /><text x="2660.2255859375" y="345.0" dominant-baseline="middle" text-anchor="middle" font-size="18px">T</text><circle cx="2710.2255859375" cy="195.0" r="10.0" /><rect x="2690.2255859375" y="275.0" width="40" height="40" stroke="black" fill="white" stroke-width="1" /><text x="2710.2255859375" y="295.0" dominant-baseline="middle" text-anchor="middle" font-size="18px">X</text><circle cx="2750.2255859375" cy="245.0" r="10.0" /><rect x="2730.2255859375" y="325.0" width="40" height="40" stroke="black" fill="white" stroke-width="1" /><text x="2750.2255859375" y="345.0" dominant-baseline="middle" text-anchor="middle" font-size="18px">X</text><rect x="2800.2255859375" y="275.0" width="42.990234375" height="40" stroke="black" fill="white" stroke-width="1" /><text x="2821.720703125" y="295.0" dominant-baseline="middle" text-anchor="middle" font-size="14px">T^-1</text><rect x="2800.2255859375" y="325.0" width="42.990234375" height="40" stroke="black" fill="white" stroke-width="1" /><text x="2821.720703125" y="345.0" dominant-baseline="middle" text-anchor="middle" font-size="14px">T^-1</text><circle cx="2883.2158203125" cy="95.0" r="10.0" /><rect x="2863.2158203125" y="325.0" width="40" height="40" stroke="black" fill="white" stroke-width="1" /><text x="2883.2158203125" y="345.0" dominant-baseline="middle" text-anchor="middle" font-size="18px">X</text><rect x="2863.2158203125" y="275.0" width="40" height="40" stroke="black" fill="white" stroke-width="1" /><text x="2883.2158203125" y="295.0" dominant-baseline="middle" text-anchor="middle" font-size="18px">X</text><rect x="2923.2158203125" y="275.0" width="40" height="40" stroke="black" fill="white" stroke-width="1" /><text x="2943.2158203125" y="295.0" dominant-baseline="middle" text-anchor="middle" font-size="18px">T</text><rect x="2923.2158203125" y="325.0" width="40" height="40" stroke="black" fill="white" stroke-width="1" /><text x="2943.2158203125" y="345.0" dominant-baseline="middle" text-anchor="middle" font-size="18px">T</text><circle cx="3003.2158203125" cy="245.0" r="10.0" /><rect x="2983.2158203125" y="325.0" width="40" height="40" stroke="black" fill="white" stroke-width="1" /><text x="3003.2158203125" y="345.0" dominant-baseline="middle" text-anchor="middle" font-size="18px">X</text><circle cx="3063.2158203125" cy="195.0" r="10.0" /><rect x="3043.2158203125" y="275.0" width="40" height="40" stroke="black" fill="white" stroke-width="1" /><text x="3063.2158203125" y="295.0" dominant-baseline="middle" text-anchor="middle" font-size="18px">X</text><rect x="3043.2158203125" y="225.0" width="40" height="40" stroke="black" fill="white" stroke-width="1" /><text x="3063.2158203125" y="245.0" dominant-baseline="middle" text-anchor="middle" font-size="18px">X</text><circle cx="3123.2158203125" cy="45.0" r="10.0" /><rect x="3103.2158203125" y="175.0" width="40" height="40" stroke="black" fill="white" stroke-width="1" /><text x="3123.2158203125" y="195.0" dominant-baseline="middle" text-anchor="middle" font-size="18px">X</text><rect x="3163.2158203125" y="275.0" width="42.990234375" height="40" stroke="black" fill="white" stroke-width="1" /><text x="3184.7109375" y="295.0" dominant-baseline="middle" text-anchor="middle" font-size="14px">T^-1</text><rect x="3163.2158203125" y="325.0" width="42.990234375" height="40" stroke="black" fill="white" stroke-width="1" /><text x="3184.7109375" y="345.0" dominant-baseline="middle" text-anchor="middle" font-size="14px">T^-1</text><rect x="3163.2158203125" y="375.0" width="42.990234375" height="40" stroke="black" fill="white" stroke-width="1" /><text x="3184.7109375" y="395.0" dominant-baseline="middle" text-anchor="middle" font-size="14px">T^-1</text><rect x="3163.2158203125" y="425.0" width="42.990234375" height="40" stroke="black" fill="white" stroke-width="1" /><text x="3184.7109375" y="445.0" dominant-baseline="middle" text-anchor="middle" font-size="14px">T^-1</text><rect x="3163.2158203125" y="475.0" width="42.990234375" height="40" stroke="black" fill="white" stroke-width="1" /><text x="3184.7109375" y="495.0" dominant-baseline="middle" text-anchor="middle" font-size="14px">T^-1</text><rect x="3163.2158203125" y="525.0" width="42.990234375" height="40" stroke="black" fill="white" stroke-width="1" /><text x="3184.7109375" y="545.0" dominant-baseline="middle" text-anchor="middle" font-size="14px">T^-1</text><rect x="3226.2060546875" y="275.0" width="40" height="40" stroke="black" fill="white" stroke-width="1" /><text x="3246.2060546875" y="295.0" dominant-baseline="middle" text-anchor="middle" font-size="18px">H</text><rect x="3226.2060546875" y="325.0" width="40" height="40" stroke="black" fill="white" stroke-width="1" /><text x="3246.2060546875" y="345.0" dominant-baseline="middle" text-anchor="middle" font-size="18px">H</text><rect x="3226.2060546875" y="375.0" width="40" height="40" stroke="black" fill="white" stroke-width="1" /><text x="3246.2060546875" y="395.0" dominant-baseline="middle" text-anchor="middle" font-size="18px">H</text><rect x="3226.2060546875" y="425.0" width="40" height="40" stroke="black" fill="white" stroke-width="1" /><text x="3246.2060546875" y="445.0" dominant-baseline="middle" text-anchor="middle" font-size="18px">H</text><rect x="3226.2060546875" y="475.0" width="40" height="40" stroke="black" fill="white" stroke-width="1" /><text x="3246.2060546875" y="495.0" dominant-baseline="middle" text-anchor="middle" font-size="18px">H</text><rect x="3226.2060546875" y="525.0" width="40" height="40" stroke="black" fill="white" stroke-width="1" /><text x="3246.2060546875" y="545.0" dominant-baseline="middle" text-anchor="middle" font-size="18px">H</text></svg>