<svg xmlns="http://www.w3.org/2000/svg" width="855.2744140625" height="390.0"><line x1="37.63720703125" x2="825.2744140625" y1="45.0" y2="45.0" stroke="#1967d2" stroke-width="1" /><line x1="37.63720703125" x2="825.2744140625" y1="95.0" y2="95.0" stroke="#1967d2" stroke-width="1" /><line x1="37.63720703125" x2="825.2744140625" y1="145.0" y2="145.0" stroke="#1967d2" stroke-width="1" /><line x1="37.63720703125" x2="825.2744140625" y1="195.0" y2="195.0" stroke="#1967d2" stroke-width="1" /><line x1="37.63720703125" x2="825.2744140625" y1="245.0" y2="245.0" stroke="#1967d2" stroke-width="1" /><line x1="37.63720703125" x2="825.2744140625" y1="295.0" y2="295.0" stroke="#1967d2" stroke-width="1" /><line x1="37.63720703125" x2="825.2744140625" y1="345.0" y2="345.0" stroke="#1967d2" stroke-width="1" /><line x1="475.2744140625" x2="565.2744140625" y1="5.0" y2="5.0" stroke="black" stroke-width="1" /><line x1="475.2744140625" x2="565.2744140625" y1="385.0" y2="385.0" stroke="black" stroke-width="1" /><line x1="315.2744140625" x2="405.2744140625" y1="5.0" y2="5.0" stroke="black" stroke-width="1" /><line x1="315.2744140625" x2="405.2744140625" y1="385.0" y2="385.0" stroke="black" stroke-width="1" /><line x1="105.2744140625" x2="105.2744140625" y1="45.0" y2="145.0" stroke="black" stroke-width="3" /><line x1="165.2744140625" x2="165.2744140625" y1="145.0" y2="195.0" stroke="black" stroke-width="3" /><line x1="225.2744140625" x2="225.2744140625" y1="95.0" y2="245.0" stroke="black" stroke-width="3" /><line x1="285.2744140625" x2="285.2744140625" y1="95.0" y2="295.0" stroke="black" stroke-width="3" /><line x1="335.2744140625" x2="335.2744140625" y1="145.0" y2="245.0" stroke="black" stroke-width="3" /><line x1="375.2744140625" x2="375.2744140625" y1="195.0" y2="295.0" stroke="black" stroke-width="3" /><line x1="445.2744140625" x2="445.2744140625" y1="45.0" y2="345.0" stroke="black" stroke-width="3" /><line x1="495.2744140625" x2="495.2744140625" y1="145.0" y2="245.0" stroke="black" stroke-width="3" /><line x1="535.2744140625" x2="535.2744140625" y1="195.0" y2="295.0" stroke="black" stroke-width="3" /><line x1="605.2744140625" x2="605.2744140625" y1="95.0" y2="295.0" stroke="black" stroke-width="3" /><line x1="665.2744140625" x2="665.2744140625" y1="95.0" y2="245.0" stroke="black" stroke-width="3" /><line x1="725.2744140625" x2="725.2744140625" y1="145.0" y2="195.0" stroke="black" stroke-width="3" /><line x1="785.2744140625" x2="785.2744140625" y1="45.0" y2="145.0" stroke="black" stroke-width="3" /><line x1="475.2744140625" x2="475.2744140625" y1="5.0" y2="15.0" stroke="black" stroke-width="3" /><line x1="565.2744140625" x2="565.2744140625" y1="5.0" y2="15.0" stroke="black" stroke-width="3" /><line x1="475.2744140625" x2="475.2744140625" y1="375.0" y2="385.0" stroke="black" stroke-width="3" /><line x1="565.2744140625" x2="565.2744140625" y1="375.0" y2="385.0" stroke="black" stroke-width="3" /><line x1="315.2744140625" x2="315.2744140625" y1="5.0" y2="15.0" stroke="black" stroke-width="3" /><line x1="405.2744140625" x2="405.2744140625" y1="5.0" y2="15.0" stroke="black" stroke-width="3" /><line x1="315.2744140625" x2="315.2744140625" y1="375.0" y2="385.0" stroke="black" stroke-width="3" /><line x1="405.2744140625" x2="405.2744140625" y1="375.0" y2="385.0" stroke="black" stroke-width="3" /><rect x="10.0" y="25.0" width="55.2744140625" height="40" stroke="black" fill="white" stroke-width="0" /><text x="37.63720703125" y="45.0" dominant-baseline="middle" text-anchor="middle" font-size="14px">a0: </text><rect x="10.0" y="75.0" width="55.2744140625" height="40" stroke="black" fill="white" stroke-width="0" /><text x="37.63720703125" y="95.0" dominant-baseline="middle" text-anchor="middle" font-size="14px">a1: </text><rect x="10.0" y="125.0" width="55.2744140625" height="40" stroke="black" fill="white" stroke-width="0" /><text x="37.63720703125" y="145.0" dominant-baseline="middle" text-anchor="middle" font-size="14px">b_00: </text><rect x="10.0" y="175.0" width="55.2744140625" height="40" stroke="black" fill="white" stroke-width="0" /><text x="37.63720703125" y="195.0" dominant-baseline="middle" text-anchor="middle" font-size="14px">b_01: </text><rect x="10.0" y="225.0" width="55.2744140625" height="40" stroke="black" fill="white" stroke-width="0" /><text x="37.63720703125" y="245.0" dominant-baseline="middle" text-anchor="middle" font-size="14px">b_10: </text><rect x="10.0" y="275.0" width="55.2744140625" height="40" stroke="black" fill="white" stroke-width="0" /><text x="37.63720703125" y="295.0" dominant-baseline="middle" text-anchor="middle" font-size="14px">b_11: </text><rect x="10.0" y="325.0" width="55.2744140625" height="40" stroke="black" fill="white" stroke-width="0" /><text x="37.63720703125" y="345.0" dominant-baseline="middle" text-anchor="middle" font-size="14px">target: </text><circle cx="105.2744140625" cy="45.0" r="10.0" /><rect x="85.2744140625" y="125.0" width="40" height="40" stroke="black" fill="white" stroke-width="1" /><text x="105.2744140625" y="145.0" dominant-baseline="middle" text-anchor="middle" font-size="18px">X</text><circle cx="165.2744140625" cy="145.0" r="10.0" /><rect x="145.2744140625" y="175.0" width="40" height="40" stroke="black" fill="white" stroke-width="1" /><text x="165.2744140625" y="195.0" dominant-baseline="middle" text-anchor="middle" font-size="18px">X</text><circle cx="225.2744140625" cy="95.0" r="10.0" /><circle cx="225.2744140625" cy="145.0" r="10.0" /><rect x="205.2744140625" y="225.0" width="40" height="40" stroke="black" fill="white" stroke-width="1" /><text x="225.2744140625" y="245.0" dominant-baseline="middle" text-anchor="middle" font-size="18px">X</text><circle cx="285.2744140625" cy="95.0" r="10.0" /><circle cx="285.2744140625" cy="195.0" r="10.0" /><rect x="265.2744140625" y="275.0" width="40" height="40" stroke="black" fill="white" stroke-width="1" /><text x="285.2744140625" y="295.0" dominant-baseline="middle" text-anchor="middle" font-size="18px">X</text><circle cx="335.2744140625" cy="245.0" r="10.0" /><rect x="315.2744140625" y="125.0" width="40" height="40" stroke="black" fill="white" stroke-width="1" /><text x="335.2744140625" y="145.0" dominant-baseline="middle" text-anchor="middle" font-size="18px">X</text><circle cx="375.2744140625" cy="295.0" r="10.0" /><rect x="355.2744140625" y="175.0" width="40" height="40" stroke="black" fill="white" stroke-width="1" /><text x="375.2744140625" y="195.0" dominant-baseline="middle" text-anchor="middle" font-size="18px">X</text><circle cx="445.2744140625" cy="45.0" r="10.0" /><circle cx="445.2744140625" cy="345.0" r="10.0" /><circle cx="495.2744140625" cy="245.0" r="10.0" /><rect x="475.2744140625" y="125.0" width="40" height="40" stroke="black" fill="white" stroke-width="1" /><text x="495.2744140625" y="145.0" dominant-baseline="middle" text-anchor="middle" font-size="18px">X</text><circle cx="535.2744140625" cy="295.0" r="10.0" /><rect x="515.2744140625" y="175.0" width="40" height="40" stroke="black" fill="white" stroke-width="1" /><text x="535.2744140625" y="195.0" dominant-baseline="middle" text-anchor="middle" font-size="18px">X</text><circle cx="605.2744140625" cy="195.0" r="10.0" /><circle cx="605.2744140625" cy="95.0" r="10.0" /><rect x="585.2744140625" y="275.0" width="40" height="40" stroke="black" fill="white" stroke-width="1" /><text x="605.2744140625" y="295.0" dominant-baseline="middle" text-anchor="middle" font-size="18px">X</text><circle cx="665.2744140625" cy="145.0" r="10.0" /><circle cx="665.2744140625" cy="95.0" r="10.0" /><rect x="645.2744140625" y="225.0" width="40" height="40" stroke="black" fill="white" stroke-width="1" /><text x="665.2744140625" y="245.0" dominant-baseline="middle" text-anchor="middle" font-size="18px">X</text><circle cx="725.2744140625" cy="145.0" r="10.0" /><rect x="705.2744140625" y="175.0" width="40" height="40" stroke="black" fill="white" stroke-width="1" /><text x="725.2744140625" y="195.0" dominant-baseline="middle" text-anchor="middle" font-size="18px">X</text><circle cx="785.2744140625" cy="45.0" r="10.0" /><rect x="765.2744140625" y="125.0" width="40" height="40" stroke="black" fill="white" stroke-width="1" /><text x="785.2744140625" y="145.0" dominant-baseline="middle" text-anchor="middle" font-size="18px">X</text></svg>