<svg xmlns="http://www.w3.org/2000/svg" width="1695.2744140625" height="640.0"><line x1="37.63720703125" x2="1665.2744140625" y1="45.0" y2="45.0" stroke="#1967d2" stroke-width="1" /><line x1="37.63720703125" x2="1665.2744140625" y1="95.0" y2="95.0" stroke="#1967d2" stroke-width="1" /><line x1="37.63720703125" x2="1665.2744140625" y1="145.0" y2="145.0" stroke="#1967d2" stroke-width="1" /><line x1="37.63720703125" x2="1665.2744140625" y1="195.0" y2="195.0" stroke="#1967d2" stroke-width="1" /><line x1="37.63720703125" x2="1665.2744140625" y1="245.0" y2="245.0" stroke="#1967d2" stroke-width="1" /><line x1="37.63720703125" x2="1665.2744140625" y1="295.0" y2="295.0" stroke="#1967d2" stroke-width="1" /><line x1="37.63720703125" x2="1665.2744140625" y1="345.0" y2="345.0" stroke="#1967d2" stroke-width="1" /><line x1="37.63720703125" x2="1665.2744140625" y1="395.0" y2="395.0" stroke="#1967d2" stroke-width="1" /><line x1="37.63720703125" x2="1665.2744140625" y1="445.0" y2="445.0" stroke="#1967d2" stroke-width="1" /><line x1="37.63720703125" x2="1665.2744140625" y1="495.0" y2="495.0" stroke="#1967d2" stroke-width="1" /><line x1="37.63720703125" x2="1665.2744140625" y1="545.0" y2="545.0" stroke="#1967d2" stroke-width="1" /><line x1="37.63720703125" x2="1665.2744140625" y1="595.0" y2="595.0" stroke="#1967d2" stroke-width="1" /><line x1="1315.2744140625" x2="1405.2744140625" y1="5.0" y2="5.0" stroke="black" stroke-width="1" /><line x1="1315.2744140625" x2="1405.2744140625" y1="635.0" y2="635.0" stroke="black" stroke-width="1" /><line x1="895.2744140625" x2="1065.2744140625" y1="5.0" y2="5.0" stroke="black" stroke-width="1" /><line x1="895.2744140625" x2="1065.2744140625" y1="635.0" y2="635.0" stroke="black" stroke-width="1" /><line x1="655.2744140625" x2="825.2744140625" y1="5.0" y2="5.0" stroke="black" stroke-width="1" /><line x1="655.2744140625" x2="825.2744140625" y1="635.0" y2="635.0" stroke="black" stroke-width="1" /><line x1="315.2744140625" x2="405.2744140625" y1="5.0" y2="5.0" stroke="black" stroke-width="1" /><line x1="315.2744140625" x2="405.2744140625" y1="635.0" y2="635.0" stroke="black" stroke-width="1" /><line x1="105.2744140625" x2="105.2744140625" y1="45.0" y2="195.0" stroke="black" stroke-width="3" /><line x1="165.2744140625" x2="165.2744140625" y1="195.0" y2="245.0" stroke="black" stroke-width="3" /><line x1="225.2744140625" x2="225.2744140625" y1="95.0" y2="295.0" stroke="black" stroke-width="3" /><line x1="285.2744140625" x2="285.2744140625" y1="95.0" y2="345.0" stroke="black" stroke-width="3" /><line x1="335.2744140625" x2="335.2744140625" y1="195.0" y2="295.0" stroke="black" stroke-width="3" /><line x1="375.2744140625" x2="375.2744140625" y1="245.0" y2="345.0" stroke="black" stroke-width="3" /><line x1="445.2744140625" x2="445.2744140625" y1="145.0" y2="395.0" stroke="black" stroke-width="3" /><line x1="505.2744140625" x2="505.2744140625" y1="145.0" y2="445.0" stroke="black" stroke-width="3" /><line x1="565.2744140625" x2="565.2744140625" y1="145.0" y2="495.0" stroke="black" stroke-width="3" /><line x1="625.2744140625" x2="625.2744140625" y1="145.0" y2="545.0" stroke="black" stroke-width="3" /><line x1="675.2744140625" x2="675.2744140625" y1="295.0" y2="395.0" stroke="black" stroke-width="3" /><line x1="715.2744140625" x2="715.2744140625" y1="195.0" y2="445.0" stroke="black" stroke-width="3" /><line x1="755.2744140625" x2="755.2744140625" y1="345.0" y2="495.0" stroke="black" stroke-width="3" /><line x1="795.2744140625" x2="795.2744140625" y1="245.0" y2="545.0" stroke="black" stroke-width="3" /><line x1="865.2744140625" x2="865.2744140625" y1="45.0" y2="595.0" stroke="black" stroke-width="3" /><line x1="915.2744140625" x2="915.2744140625" y1="295.0" y2="395.0" stroke="black" stroke-width="3" /><line x1="955.2744140625" x2="955.2744140625" y1="195.0" y2="445.0" stroke="black" stroke-width="3" /><line x1="995.2744140625" x2="995.2744140625" y1="345.0" y2="495.0" stroke="black" stroke-width="3" /><line x1="1035.2744140625" x2="1035.2744140625" y1="245.0" y2="545.0" stroke="black" stroke-width="3" /><line x1="1105.2744140625" x2="1105.2744140625" y1="145.0" y2="545.0" stroke="black" stroke-width="3" /><line x1="1165.2744140625" x2="1165.2744140625" y1="145.0" y2="495.0" stroke="black" stroke-width="3" /><line x1="1225.2744140625" x2="1225.2744140625" y1="145.0" y2="445.0" stroke="black" stroke-width="3" /><line x1="1285.2744140625" x2="1285.2744140625" y1="145.0" y2="395.0" stroke="black" stroke-width="3" /><line x1="1335.2744140625" x2="1335.2744140625" y1="195.0" y2="295.0" stroke="black" stroke-width="3" /><line x1="1375.2744140625" x2="1375.2744140625" y1="245.0" y2="345.0" stroke="black" stroke-width="3" /><line x1="1445.2744140625" x2="1445.2744140625" y1="95.0" y2="345.0" stroke="black" stroke-width="3" /><line x1="1505.2744140625" x2="1505.2744140625" y1="95.0" y2="295.0" stroke="black" stroke-width="3" /><line x1="1565.2744140625" x2="1565.2744140625" y1="195.0" y2="245.0" stroke="black" stroke-width="3" /><line x1="1625.2744140625" x2="1625.2744140625" y1="45.0" y2="195.0" stroke="black" stroke-width="3" /><line x1="1315.2744140625" x2="1315.2744140625" y1="5.0" y2="15.0" stroke="black" stroke-width="3" /><line x1="1405.2744140625" x2="1405.2744140625" y1="5.0" y2="15.0" stroke="black" stroke-width="3" /><line x1="1315.2744140625" x2="1315.2744140625" y1="625.0" y2="635.0" stroke="black" stroke-width="3" /><line x1="1405.2744140625" x2="1405.2744140625" y1="625.0" y2="635.0" stroke="black" stroke-width="3" /><line x1="895.2744140625" x2="895.2744140625" y1="5.0" y2="15.0" stroke="black" stroke-width="3" /><line x1="1065.2744140625" x2="1065.2744140625" y1="5.0" y2="15.0" stroke="black" stroke-width="3" /><line x1="895.2744140625" x2="895.2744140625" y1="625.0" y2="635.0" stroke="black" stroke-width="3" /><line x1="1065.2744140625" x2="1065.2744140625" y1="625.0" y2="635.0" stroke="black" stroke-width="3" /><line x1="655.2744140625" x2="655.2744140625" y1="5.0" y2="15.0" stroke="black" stroke-width="3" /><line x1="825.2744140625" x2="825.2744140625" y1="5.0" y2="15.0" stroke="black" stroke-width="3" /><line x1="655.2744140625" x2="655.2744140625" y1="625.0" y2="635.0" stroke="black" stroke-width="3" /><line x1="825.2744140625" x2="825.2744140625" y1="625.0" y2="635.0" stroke="black" stroke-width="3" /><line x1="315.2744140625" x2="315.2744140625" y1="5.0" y2="15.0" stroke="black" stroke-width="3" /><line x1="405.2744140625" x2="405.2744140625" y1="5.0" y2="15.0" stroke="black" stroke-width="3" /><line x1="315.2744140625" x2="315.2744140625" y1="625.0" y2="635.0" stroke="black" stroke-width="3" /><line x1="405.2744140625" x2="405.2744140625" y1="625.0" y2="635.0" stroke="black" stroke-width="3" /><rect x="10.0" y="25.0" width="55.2744140625" height="40" stroke="black" fill="white" stroke-width="0" /><text x="37.63720703125" y="45.0" dominant-baseline="middle" text-anchor="middle" font-size="14px">a0: </text><rect x="10.0" y="75.0" width="55.2744140625" height="40" stroke="black" fill="white" stroke-width="0" /><text x="37.63720703125" y="95.0" dominant-baseline="middle" text-anchor="middle" font-size="14px">a1: </text><rect x="10.0" y="125.0" width="55.2744140625" height="40" stroke="black" fill="white" stroke-width="0" /><text x="37.63720703125" y="145.0" dominant-baseline="middle" text-anchor="middle" font-size="14px">a2: </text><rect x="10.0" y="175.0" width="55.2744140625" height="40" stroke="black" fill="white" stroke-width="0" /><text x="37.63720703125" y="195.0" dominant-baseline="middle" text-anchor="middle" font-size="14px">b_000: </text><rect x="10.0" y="225.0" width="55.2744140625" height="40" stroke="black" fill="white" stroke-width="0" /><text x="37.63720703125" y="245.0" dominant-baseline="middle" text-anchor="middle" font-size="14px">b_001: </text><rect x="10.0" y="275.0" width="55.2744140625" height="40" stroke="black" fill="white" stroke-width="0" /><text x="37.63720703125" y="295.0" dominant-baseline="middle" text-anchor="middle" font-size="14px">b_010: </text><rect x="10.0" y="325.0" width="55.2744140625" height="40" stroke="black" fill="white" stroke-width="0" /><text x="37.63720703125" y="345.0" dominant-baseline="middle" text-anchor="middle" font-size="14px">b_011: </text><rect x="10.0" y="375.0" width="55.2744140625" height="40" stroke="black" fill="white" stroke-width="0" /><text x="37.63720703125" y="395.0" dominant-baseline="middle" text-anchor="middle" font-size="14px">b_100: </text><rect x="10.0" y="425.0" width="55.2744140625" height="40" stroke="black" fill="white" stroke-width="0" /><text x="37.63720703125" y="445.0" dominant-baseline="middle" text-anchor="middle" font-size="14px">b_101: </text><rect x="10.0" y="475.0" width="55.2744140625" height="40" stroke="black" fill="white" stroke-width="0" /><text x="37.63720703125" y="495.0" dominant-baseline="middle" text-anchor="middle" font-size="14px">b_110: </text><rect x="10.0" y="525.0" width="55.2744140625" height="40" stroke="black" fill="white" stroke-width="0" /><text x="37.63720703125" y="545.0" dominant-baseline="middle" text-anchor="middle" font-size="14px">b_111: </text><rect x="10.0" y="575.0" width="55.2744140625" height="40" stroke="black" fill="white" stroke-width="0" /><text x="37.63720703125" y="595.0" dominant-baseline="middle" text-anchor="middle" font-size="14px">target: </text><circle cx="105.2744140625" cy="45.0" r="10.0" /><rect x="85.2744140625" y="175.0" width="40" height="40" stroke="black" fill="white" stroke-width="1" /><text x="105.2744140625" y="195.0" dominant-baseline="middle" text-anchor="middle" font-size="18px">X</text><circle cx="165.2744140625" cy="195.0" r="10.0" /><rect x="145.2744140625" y="225.0" width="40" height="40" stroke="black" fill="white" stroke-width="1" /><text x="165.2744140625" y="245.0" dominant-baseline="middle" text-anchor="middle" font-size="18px">X</text><circle cx="225.2744140625" cy="95.0" r="10.0" /><circle cx="225.2744140625" cy="195.0" r="10.0" /><rect x="205.2744140625" y="275.0" width="40" height="40" stroke="black" fill="white" stroke-width="1" /><text x="225.2744140625" y="295.0" dominant-baseline="middle" text-anchor="middle" font-size="18px">X</text><circle cx="285.2744140625" cy="95.0" r="10.0" /><circle cx="285.2744140625" cy="245.0" r="10.0" /><rect x="265.2744140625" y="325.0" width="40" height="40" stroke="black" fill="white" stroke-width="1" /><text x="285.2744140625" y="345.0" dominant-baseline="middle" text-anchor="middle" font-size="18px">X</text><circle cx="335.2744140625" cy="295.0" r="10.0" /><rect x="315.2744140625" y="175.0" width="40" height="40" stroke="black" fill="white" stroke-width="1" /><text x="335.2744140625" y="195.0" dominant-baseline="middle" text-anchor="middle" font-size="18px">X</text><circle cx="375.2744140625" cy="345.0" r="10.0" /><rect x="355.2744140625" y="225.0" width="40" height="40" stroke="black" fill="white" stroke-width="1" /><text x="375.2744140625" y="245.0" dominant-baseline="middle" text-anchor="middle" font-size="18px">X</text><circle cx="445.2744140625" cy="145.0" r="10.0" /><circle cx="445.2744140625" cy="295.0" r="10.0" /><rect x="425.2744140625" y="375.0" width="40" height="40" stroke="black" fill="white" stroke-width="1" /><text x="445.2744140625" y="395.0" dominant-baseline="middle" text-anchor="middle" font-size="18px">X</text><circle cx="505.2744140625" cy="145.0" r="10.0" /><circle cx="505.2744140625" cy="195.0" r="10.0" /><rect x="485.2744140625" y="425.0" width="40" height="40" stroke="black" fill="white" stroke-width="1" /><text x="505.2744140625" y="445.0" dominant-baseline="middle" text-anchor="middle" font-size="18px">X</text><circle cx="565.2744140625" cy="145.0" r="10.0" /><circle cx="565.2744140625" cy="345.0" r="10.0" /><rect x="545.2744140625" y="475.0" width="40" height="40" stroke="black" fill="white" stroke-width="1" /><text x="565.2744140625" y="495.0" dominant-baseline="middle" text-anchor="middle" font-size="18px">X</text><circle cx="625.2744140625" cy="145.0" r="10.0" /><circle cx="625.2744140625" cy="245.0" r="10.0" /><rect x="605.2744140625" y="525.0" width="40" height="40" stroke="black" fill="white" stroke-width="1" /><text x="625.2744140625" y="545.0" dominant-baseline="middle" text-anchor="middle" font-size="18px">X</text><circle cx="675.2744140625" cy="395.0" r="10.0" /><rect x="655.2744140625" y="275.0" width="40" height="40" stroke="black" fill="white" stroke-width="1" /><text x="675.2744140625" y="295.0" dominant-baseline="middle" text-anchor="middle" font-size="18px">X</text><circle cx="715.2744140625" cy="445.0" r="10.0" /><rect x="695.2744140625" y="175.0" width="40" height="40" stroke="black" fill="white" stroke-width="1" /><text x="715.2744140625" y="195.0" dominant-baseline="middle" text-anchor="middle" font-size="18px">X</text><circle cx="755.2744140625" cy="495.0" r="10.0" /><rect x="735.2744140625" y="325.0" width="40" height="40" stroke="black" fill="white" stroke-width="1" /><text x="755.2744140625" y="345.0" dominant-baseline="middle" text-anchor="middle" font-size="18px">X</text><circle cx="795.2744140625" cy="545.0" r="10.0" /><rect x="775.2744140625" y="225.0" width="40" height="40" stroke="black" fill="white" stroke-width="1" /><text x="795.2744140625" y="245.0" dominant-baseline="middle" text-anchor="middle" font-size="18px">X</text><circle cx="865.2744140625" cy="45.0" r="10.0" /><circle cx="865.2744140625" cy="595.0" r="10.0" /><circle cx="915.2744140625" cy="395.0" r="10.0" /><rect x="895.2744140625" y="275.0" width="40" height="40" stroke="black" fill="white" stroke-width="1" /><text x="915.2744140625" y="295.0" dominant-baseline="middle" text-anchor="middle" font-size="18px">X</text><circle cx="955.2744140625" cy="445.0" r="10.0" /><rect x="935.2744140625" y="175.0" width="40" height="40" stroke="black" fill="white" stroke-width="1" /><text x="955.2744140625" y="195.0" dominant-baseline="middle" text-anchor="middle" font-size="18px">X</text><circle cx="995.2744140625" cy="495.0" r="10.0" /><rect x="975.2744140625" y="325.0" width="40" height="40" stroke="black" fill="white" stroke-width="1" /><text x="995.2744140625" y="345.0" dominant-baseline="middle" text-anchor="middle" font-size="18px">X</text><circle cx="1035.2744140625" cy="545.0" r="10.0" /><rect x="1015.2744140625" y="225.0" width="40" height="40" stroke="black" fill="white" stroke-width="1" /><text x="1035.2744140625" y="245.0" dominant-baseline="middle" text-anchor="middle" font-size="18px">X</text><circle cx="1105.2744140625" cy="245.0" r="10.0" /><circle cx="1105.2744140625" cy="145.0" r="10.0" /><rect x="1085.2744140625" y="525.0" width="40" height="40" stroke="black" fill="white" stroke-width="1" /><text x="1105.2744140625" y="545.0" dominant-baseline="middle" text-anchor="middle" font-size="18px">X</text><circle cx="1165.2744140625" cy="345.0" r="10.0" /><circle cx="1165.2744140625" cy="145.0" r="10.0" /><rect x="1145.2744140625" y="475.0" width="40" height="40" stroke="black" fill="white" stroke-width="1" /><text x="1165.2744140625" y="495.0" dominant-baseline="middle" text-anchor="middle" font-size="18px">X</text><circle cx="1225.2744140625" cy="195.0" r="10.0" /><circle cx="1225.2744140625" cy="145.0" r="10.0" /><rect x="1205.2744140625" y="425.0" width="40" height="40" stroke="black" fill="white" stroke-width="1" /><text x="1225.2744140625" y="445.0" dominant-baseline="middle" text-anchor="middle" font-size="18px">X</text><circle cx="1285.2744140625" cy="295.0" r="10.0" /><circle cx="1285.2744140625" cy="145.0" r="10.0" /><rect x="1265.2744140625" y="375.0" width="40" height="40" stroke="black" fill="white" stroke-width="1" /><text x="1285.2744140625" y="395.0" dominant-baseline="middle" text-anchor="middle" font-size="18px">X</text><circle cx="1335.2744140625" cy="295.0" r="10.0" /><rect x="1315.2744140625" y="175.0" width="40" height="40" stroke="black" fill="white" stroke-width="1" /><text x="1335.2744140625" y="195.0" dominant-baseline="middle" text-anchor="middle" font-size="18px">X</text><circle cx="1375.2744140625" cy="345.0" r="10.0" /><rect x="1355.2744140625" y="225.0" width="40" height="40" stroke="black" fill="white" stroke-width="1" /><text x="1375.2744140625" y="245.0" dominant-baseline="middle" text-anchor="middle" font-size="18px">X</text><circle cx="1445.2744140625" cy="245.0" r="10.0" /><circle cx="1445.2744140625" cy="95.0" r="10.0" /><rect x="1425.2744140625" y="325.0" width="40" height="40" stroke="black" fill="white" stroke-width="1" /><text x="1445.2744140625" y="345.0" dominant-baseline="middle" text-anchor="middle" font-size="18px">X</text><circle cx="1505.2744140625" cy="195.0" r="10.0" /><circle cx="1505.2744140625" cy="95.0" r="10.0" /><rect x="1485.2744140625" y="275.0" width="40" height="40" stroke="black" fill="white" stroke-width="1" /><text x="1505.2744140625" y="295.0" dominant-baseline="middle" text-anchor="middle" font-size="18px">X</text><circle cx="1565.2744140625" cy="195.0" r="10.0" /><rect x="1545.2744140625" y="225.0" width="40" height="40" stroke="black" fill="white" stroke-width="1" /><text x="1565.2744140625" y="245.0" dominant-baseline="middle" text-anchor="middle" font-size="18px">X</text><circle cx="1625.2744140625" cy="45.0" r="10.0" /><rect x="1605.2744140625" y="175.0" width="40" height="40" stroke="black" fill="white" stroke-width="1" /><text x="1625.2744140625" y="195.0" dominant-baseline="middle" text-anchor="middle" font-size="18px">X</text></svg>