<svg xmlns="http://www.w3.org/2000/svg" width="3343.3268749999997" height="1090.0"><line x1="41.6634375" x2="3313.3268749999997" y1="45.0" y2="45.0" stroke="#1967d2" stroke-width="1" /><line x1="41.6634375" x2="3313.3268749999997" y1="95.0" y2="95.0" stroke="#1967d2" stroke-width="1" /><line x1="41.6634375" x2="3313.3268749999997" y1="145.0" y2="145.0" stroke="#1967d2" stroke-width="1" /><line x1="41.6634375" x2="3313.3268749999997" y1="195.0" y2="195.0" stroke="#1967d2" stroke-width="1" /><line x1="41.6634375" x2="3313.3268749999997" y1="245.0" y2="245.0" stroke="#1967d2" stroke-width="1" /><line x1="41.6634375" x2="3313.3268749999997" y1="295.0" y2="295.0" stroke="#1967d2" stroke-width="1" /><line x1="41.6634375" x2="3313.3268749999997" y1="345.0" y2="345.0" stroke="#1967d2" stroke-width="1" /><line x1="41.6634375" x2="3313.3268749999997" y1="395.0" y2="395.0" stroke="#1967d2" stroke-width="1" /><line x1="41.6634375" x2="3313.3268749999997" y1="445.0" y2="445.0" stroke="#1967d2" stroke-width="1" /><line x1="41.6634375" x2="3313.3268749999997" y1="495.0" y2="495.0" stroke="#1967d2" stroke-width="1" /><line x1="41.6634375" x2="3313.3268749999997" y1="545.0" y2="545.0" stroke="#1967d2" stroke-width="1" /><line x1="41.6634375" x2="3313.3268749999997" y1="595.0" y2="595.0" stroke="#1967d2" stroke-width="1" /><line x1="41.6634375" x2="3313.3268749999997" y1="645.0" y2="645.0" stroke="#1967d2" stroke-width="1" /><line x1="41.6634375" x2="3313.3268749999997" y1="695.0" y2="695.0" stroke="#1967d2" stroke-width="1" /><line x1="41.6634375" x2="3313.3268749999997" y1="745.0" y2="745.0" stroke="#1967d2" stroke-width="1" /><line x1="41.6634375" x2="3313.3268749999997" y1="795.0" y2="795.0" stroke="#1967d2" stroke-width="1" /><line x1="41.6634375" x2="3313.3268749999997" y1="845.0" y2="845.0" stroke="#1967d2" stroke-width="1" /><line x1="41.6634375" x2="3313.3268749999997" y1="895.0" y2="895.0" stroke="#1967d2" stroke-width="1" /><line x1="41.6634375" x2="3313.3268749999997" y1="945.0" y2="945.0" stroke="#1967d2" stroke-width="1" /><line x1="41.6634375" x2="3313.3268749999997" y1="995.0" y2="995.0" stroke="#1967d2" stroke-width="1" /><line x1="41.6634375" x2="3313.3268749999997" y1="1045.0" y2="1045.0" stroke="#1967d2" stroke-width="1" /><line x1="2963.3268749999997" x2="3053.3268749999997" y1="5.0" y2="5.0" stroke="black" stroke-width="1" /><line x1="2963.3268749999997" x2="3053.3268749999997" y1="1085.0" y2="1085.0" stroke="black" stroke-width="1" /><line x1="2543.3268749999997" x2="2713.3268749999997" y1="5.0" y2="5.0" stroke="black" stroke-width="1" /><line x1="2543.3268749999997" x2="2713.3268749999997" y1="1085.0" y2="1085.0" stroke="black" stroke-width="1" /><line x1="1723.326875" x2="2053.3268749999997" y1="5.0" y2="5.0" stroke="black" stroke-width="1" /><line x1="1723.326875" x2="2053.3268749999997" y1="1085.0" y2="1085.0" stroke="black" stroke-width="1" /><line x1="1323.326875" x2="1653.326875" y1="5.0" y2="5.0" stroke="black" stroke-width="1" /><line x1="1323.326875" x2="1653.326875" y1="1085.0" y2="1085.0" stroke="black" stroke-width="1" /><line x1="663.326875" x2="833.326875" y1="5.0" y2="5.0" stroke="black" stroke-width="1" /><line x1="663.326875" x2="833.326875" y1="1085.0" y2="1085.0" stroke="black" stroke-width="1" /><line x1="323.326875" x2="413.326875" y1="5.0" y2="5.0" stroke="black" stroke-width="1" /><line x1="323.326875" x2="413.326875" y1="1085.0" y2="1085.0" stroke="black" stroke-width="1" /><line x1="113.326875" x2="113.326875" y1="45.0" y2="245.0" stroke="black" stroke-width="3" /><line x1="173.326875" x2="173.326875" y1="245.0" y2="295.0" stroke="black" stroke-width="3" /><line x1="233.326875" x2="233.326875" y1="95.0" y2="345.0" stroke="black" stroke-width="3" /><line x1="293.326875" x2="293.326875" y1="95.0" y2="395.0" stroke="black" stroke-width="3" /><line x1="343.326875" x2="343.326875" y1="245.0" y2="345.0" stroke="black" stroke-width="3" /><line x1="383.326875" x2="383.326875" y1="295.0" y2="395.0" stroke="black" stroke-width="3" /><line x1="453.326875" x2="453.326875" y1="145.0" y2="445.0" stroke="black" stroke-width="3" /><line x1="513.326875" x2="513.326875" y1="145.0" y2="495.0" stroke="black" stroke-width="3" /><line x1="573.326875" x2="573.326875" y1="145.0" y2="545.0" stroke="black" stroke-width="3" /><line x1="633.326875" x2="633.326875" y1="145.0" y2="595.0" stroke="black" stroke-width="3" /><line x1="683.326875" x2="683.326875" y1="345.0" y2="445.0" stroke="black" stroke-width="3" /><line x1="723.326875" x2="723.326875" y1="245.0" y2="495.0" stroke="black" stroke-width="3" /><line x1="763.326875" x2="763.326875" y1="395.0" y2="545.0" stroke="black" stroke-width="3" /><line x1="803.326875" x2="803.326875" y1="295.0" y2="595.0" stroke="black" stroke-width="3" /><line x1="873.326875" x2="873.326875" y1="195.0" y2="645.0" stroke="black" stroke-width="3" /><line x1="933.326875" x2="933.326875" y1="195.0" y2="695.0" stroke="black" stroke-width="3" /><line x1="993.326875" x2="993.326875" y1="195.0" y2="745.0" stroke="black" stroke-width="3" /><line x1="1053.326875" x2="1053.326875" y1="195.0" y2="795.0" stroke="black" stroke-width="3" /><line x1="1113.326875" x2="1113.326875" y1="195.0" y2="845.0" stroke="black" stroke-width="3" /><line x1="1173.326875" x2="1173.326875" y1="195.0" y2="895.0" stroke="black" stroke-width="3" /><line x1="1233.326875" x2="1233.326875" y1="195.0" y2="945.0" stroke="black" stroke-width="3" /><line x1="1293.326875" x2="1293.326875" y1="195.0" y2="995.0" stroke="black" stroke-width="3" /><line x1="1343.326875" x2="1343.326875" y1="445.0" y2="645.0" stroke="black" stroke-width="3" /><line x1="1383.326875" x2="1383.326875" y1="345.0" y2="695.0" stroke="black" stroke-width="3" /><line x1="1423.326875" x2="1423.326875" y1="495.0" y2="745.0" stroke="black" stroke-width="3" /><line x1="1463.326875" x2="1463.326875" y1="245.0" y2="795.0" stroke="black" stroke-width="3" /><line x1="1503.326875" x2="1503.326875" y1="545.0" y2="845.0" stroke="black" stroke-width="3" /><line x1="1543.326875" x2="1543.326875" y1="395.0" y2="895.0" stroke="black" stroke-width="3" /><line x1="1583.326875" x2="1583.326875" y1="595.0" y2="945.0" stroke="black" stroke-width="3" /><line x1="1623.326875" x2="1623.326875" y1="295.0" y2="995.0" stroke="black" stroke-width="3" /><line x1="1693.326875" x2="1693.326875" y1="45.0" y2="1045.0" stroke="black" stroke-width="3" /><line x1="1743.326875" x2="1743.326875" y1="445.0" y2="645.0" stroke="black" stroke-width="3" /><line x1="1783.326875" x2="1783.326875" y1="345.0" y2="695.0" stroke="black" stroke-width="3" /><line x1="1823.326875" x2="1823.326875" y1="495.0" y2="745.0" stroke="black" stroke-width="3" /><line x1="1863.326875" x2="1863.326875" y1="245.0" y2="795.0" stroke="black" stroke-width="3" /><line x1="1903.326875" x2="1903.326875" y1="545.0" y2="845.0" stroke="black" stroke-width="3" /><line x1="1943.326875" x2="1943.326875" y1="395.0" y2="895.0" stroke="black" stroke-width="3" /><line x1="1983.326875" x2="1983.326875" y1="595.0" y2="945.0" stroke="black" stroke-width="3" /><line x1="2023.326875" x2="2023.326875" y1="295.0" y2="995.0" stroke="black" stroke-width="3" /><line x1="2093.3268749999997" x2="2093.3268749999997" y1="195.0" y2="995.0" stroke="black" stroke-width="3" /><line x1="2153.3268749999997" x2="2153.3268749999997" y1="195.0" y2="945.0" stroke="black" stroke-width="3" /><line x1="2213.3268749999997" x2="2213.3268749999997" y1="195.0" y2="895.0" stroke="black" stroke-width="3" /><line x1="2273.3268749999997" x2="2273.3268749999997" y1="195.0" y2="845.0" stroke="black" stroke-width="3" /><line x1="2333.3268749999997" x2="2333.3268749999997" y1="195.0" y2="795.0" stroke="black" stroke-width="3" /><line x1="2393.3268749999997" x2="2393.3268749999997" y1="195.0" y2="745.0" stroke="black" stroke-width="3" /><line x1="2453.3268749999997" x2="2453.3268749999997" y1="195.0" y2="695.0" stroke="black" stroke-width="3" /><line x1="2513.3268749999997" x2="2513.3268749999997" y1="195.0" y2="645.0" stroke="black" stroke-width="3" /><line x1="2563.3268749999997" x2="2563.3268749999997" y1="345.0" y2="445.0" stroke="black" stroke-width="3" /><line x1="2603.3268749999997" x2="2603.3268749999997" y1="245.0" y2="495.0" stroke="black" stroke-width="3" /><line x1="2643.3268749999997" x2="2643.3268749999997" y1="395.0" y2="545.0" stroke="black" stroke-width="3" /><line x1="2683.3268749999997" x2="2683.3268749999997" y1="295.0" y2="595.0" stroke="black" stroke-width="3" /><line x1="2753.3268749999997" x2="2753.3268749999997" y1="145.0" y2="595.0" stroke="black" stroke-width="3" /><line x1="2813.3268749999997" x2="2813.3268749999997" y1="145.0" y2="545.0" stroke="black" stroke-width="3" /><line x1="2873.3268749999997" x2="2873.3268749999997" y1="145.0" y2="495.0" stroke="black" stroke-width="3" /><line x1="2933.3268749999997" x2="2933.3268749999997" y1="145.0" y2="445.0" stroke="black" stroke-width="3" /><line x1="2983.3268749999997" x2="2983.3268749999997" y1="245.0" y2="345.0" stroke="black" stroke-width="3" /><line x1="3023.3268749999997" x2="3023.3268749999997" y1="295.0" y2="395.0" stroke="black" stroke-width="3" /><line x1="3093.3268749999997" x2="3093.3268749999997" y1="95.0" y2="395.0" stroke="black" stroke-width="3" /><line x1="3153.3268749999997" x2="3153.3268749999997" y1="95.0" y2="345.0" stroke="black" stroke-width="3" /><line x1="3213.3268749999997" x2="3213.3268749999997" y1="245.0" y2="295.0" stroke="black" stroke-width="3" /><line x1="3273.3268749999997" x2="3273.3268749999997" y1="45.0" y2="245.0" stroke="black" stroke-width="3" /><line x1="2963.3268749999997" x2="2963.3268749999997" y1="5.0" y2="15.0" stroke="black" stroke-width="3" /><line x1="3053.3268749999997" x2="3053.3268749999997" y1="5.0" y2="15.0" stroke="black" stroke-width="3" /><line x1="2963.3268749999997" x2="2963.3268749999997" y1="1075.0" y2="1085.0" stroke="black" stroke-width="3" /><line x1="3053.3268749999997" x2="3053.3268749999997" y1="1075.0" y2="1085.0" stroke="black" stroke-width="3" /><line x1="2543.3268749999997" x2="2543.3268749999997" y1="5.0" y2="15.0" stroke="black" stroke-width="3" /><line x1="2713.3268749999997" x2="2713.3268749999997" y1="5.0" y2="15.0" stroke="black" stroke-width="3" /><line x1="2543.3268749999997" x2="2543.3268749999997" y1="1075.0" y2="1085.0" stroke="black" stroke-width="3" /><line x1="2713.3268749999997" x2="2713.3268749999997" y1="1075.0" y2="1085.0" stroke="black" stroke-width="3" /><line x1="1723.326875" x2="1723.326875" y1="5.0" y2="15.0" stroke="black" stroke-width="3" /><line x1="2053.3268749999997" x2="2053.3268749999997" y1="5.0" y2="15.0" stroke="black" stroke-width="3" /><line x1="1723.326875" x2="1723.326875" y1="1075.0" y2="1085.0" stroke="black" stroke-width="3" /><line x1="2053.3268749999997" x2="2053.3268749999997" y1="1075.0" y2="1085.0" stroke="black" stroke-width="3" /><line x1="1323.326875" x2="1323.326875" y1="5.0" y2="15.0" stroke="black" stroke-width="3" /><line x1="1653.326875" x2="1653.326875" y1="5.0" y2="15.0" stroke="black" stroke-width="3" /><line x1="1323.326875" x2="1323.326875" y1="1075.0" y2="1085.0" stroke="black" stroke-width="3" /><line x1="1653.326875" x2="1653.326875" y1="1075.0" y2="1085.0" stroke="black" stroke-width="3" /><line x1="663.326875" x2="663.326875" y1="5.0" y2="15.0" stroke="black" stroke-width="3" /><line x1="833.326875" x2="833.326875" y1="5.0" y2="15.0" stroke="black" stroke-width="3" /><line x1="663.326875" x2="663.326875" y1="1075.0" y2="1085.0" stroke="black" stroke-width="3" /><line x1="833.326875" x2="833.326875" y1="1075.0" y2="1085.0" stroke="black" stroke-width="3" /><line x1="323.326875" x2="323.326875" y1="5.0" y2="15.0" stroke="black" stroke-width="3" /><line x1="413.326875" x2="413.326875" y1="5.0" y2="15.0" stroke="black" stroke-width="3" /><line x1="323.326875" x2="323.326875" y1="1075.0" y2="1085.0" stroke="black" stroke-width="3" /><line x1="413.326875" x2="413.326875" y1="1075.0" y2="1085.0" stroke="black" stroke-width="3" /><rect x="10.0" y="25.0" width="63.326875" height="40" stroke="black" fill="white" stroke-width="0" /><text x="41.6634375" y="45.0" dominant-baseline="middle" text-anchor="middle" font-size="14px">a0: </text><rect x="10.0" y="75.0" width="63.326875" height="40" stroke="black" fill="white" stroke-width="0" /><text x="41.6634375" y="95.0" dominant-baseline="middle" text-anchor="middle" font-size="14px">a1: </text><rect x="10.0" y="125.0" width="63.326875" height="40" stroke="black" fill="white" stroke-width="0" /><text x="41.6634375" y="145.0" dominant-baseline="middle" text-anchor="middle" font-size="14px">a2: </text><rect x="10.0" y="175.0" width="63.326875" height="40" stroke="black" fill="white" stroke-width="0" /><text x="41.6634375" y="195.0" dominant-baseline="middle" text-anchor="middle" font-size="14px">a3: </text><rect x="10.0" y="225.0" width="63.326875" height="40" stroke="black" fill="white" stroke-width="0" /><text x="41.6634375" y="245.0" dominant-baseline="middle" text-anchor="middle" font-size="14px">b_0000: </text><rect x="10.0" y="275.0" width="63.326875" height="40" stroke="black" fill="white" stroke-width="0" /><text x="41.6634375" y="295.0" dominant-baseline="middle" text-anchor="middle" font-size="14px">b_0001: </text><rect x="10.0" y="325.0" width="63.326875" height="40" stroke="black" fill="white" stroke-width="0" /><text x="41.6634375" y="345.0" dominant-baseline="middle" text-anchor="middle" font-size="14px">b_0010: </text><rect x="10.0" y="375.0" width="63.326875" height="40" stroke="black" fill="white" stroke-width="0" /><text x="41.6634375" y="395.0" dominant-baseline="middle" text-anchor="middle" font-size="14px">b_0011: </text><rect x="10.0" y="425.0" width="63.326875" height="40" stroke="black" fill="white" stroke-width="0" /><text x="41.6634375" y="445.0" dominant-baseline="middle" text-anchor="middle" font-size="14px">b_0100: </text><rect x="10.0" y="475.0" width="63.326875" height="40" stroke="black" fill="white" stroke-width="0" /><text x="41.6634375" y="495.0" dominant-baseline="middle" text-anchor="middle" font-size="14px">b_0101: </text><rect x="10.0" y="525.0" width="63.326875" height="40" stroke="black" fill="white" stroke-width="0" /><text x="41.6634375" y="545.0" dominant-baseline="middle" text-anchor="middle" font-size="14px">b_0110: </text><rect x="10.0" y="575.0" width="63.326875" height="40" stroke="black" fill="white" stroke-width="0" /><text x="41.6634375" y="595.0" dominant-baseline="middle" text-anchor="middle" font-size="14px">b_0111: </text><rect x="10.0" y="625.0" width="63.326875" height="40" stroke="black" fill="white" stroke-width="0" /><text x="41.6634375" y="645.0" dominant-baseline="middle" text-anchor="middle" font-size="14px">b_1000: </text><rect x="10.0" y="675.0" width="63.326875" height="40" stroke="black" fill="white" stroke-width="0" /><text x="41.6634375" y="695.0" dominant-baseline="middle" text-anchor="middle" font-size="14px">b_1001: </text><rect x="10.0" y="725.0" width="63.326875" height="40" stroke="black" fill="white" stroke-width="0" /><text x="41.6634375" y="745.0" dominant-baseline="middle" text-anchor="middle" font-size="14px">b_1010: </text><rect x="10.0" y="775.0" width="63.326875" height="40" stroke="black" fill="white" stroke-width="0" /><text x="41.6634375" y="795.0" dominant-baseline="middle" text-anchor="middle" font-size="14px">b_1011: </text><rect x="10.0" y="825.0" width="63.326875" height="40" stroke="black" fill="white" stroke-width="0" /><text x="41.6634375" y="845.0" dominant-baseline="middle" text-anchor="middle" font-size="14px">b_1100: </text><rect x="10.0" y="875.0" width="63.326875" height="40" stroke="black" fill="white" stroke-width="0" /><text x="41.6634375" y="895.0" dominant-baseline="middle" text-anchor="middle" font-size="14px">b_1101: </text><rect x="10.0" y="925.0" width="63.326875" height="40" stroke="black" fill="white" stroke-width="0" /><text x="41.6634375" y="945.0" dominant-baseline="middle" text-anchor="middle" font-size="14px">b_1110: </text><rect x="10.0" y="975.0" width="63.326875" height="40" stroke="black" fill="white" stroke-width="0" /><text x="41.6634375" y="995.0" dominant-baseline="middle" text-anchor="middle" font-size="14px">b_1111: </text><rect x="10.0" y="1025.0" width="63.326875" height="40" stroke="black" fill="white" stroke-width="0" /><text x="41.6634375" y="1045.0" dominant-baseline="middle" text-anchor="middle" font-size="14px">target: </text><circle cx="113.326875" cy="45.0" r="10.0" /><rect x="93.326875" y="225.0" width="40" height="40" stroke="black" fill="white" stroke-width="1" /><text x="113.326875" y="245.0" dominant-baseline="middle" text-anchor="middle" font-size="18px">X</text><circle cx="173.326875" cy="245.0" r="10.0" /><rect x="153.326875" y="275.0" width="40" height="40" stroke="black" fill="white" stroke-width="1" /><text x="173.326875" y="295.0" dominant-baseline="middle" text-anchor="middle" font-size="18px">X</text><circle cx="233.326875" cy="95.0" r="10.0" /><circle cx="233.326875" cy="245.0" r="10.0" /><rect x="213.326875" y="325.0" width="40" height="40" stroke="black" fill="white" stroke-width="1" /><text x="233.326875" y="345.0" dominant-baseline="middle" text-anchor="middle" font-size="18px">X</text><circle cx="293.326875" cy="95.0" r="10.0" /><circle cx="293.326875" cy="295.0" r="10.0" /><rect x="273.326875" y="375.0" width="40" height="40" stroke="black" fill="white" stroke-width="1" /><text x="293.326875" y="395.0" dominant-baseline="middle" text-anchor="middle" font-size="18px">X</text><circle cx="343.326875" cy="345.0" r="10.0" /><rect x="323.326875" y="225.0" width="40" height="40" stroke="black" fill="white" stroke-width="1" /><text x="343.326875" y="245.0" dominant-baseline="middle" text-anchor="middle" font-size="18px">X</text><circle cx="383.326875" cy="395.0" r="10.0" /><rect x="363.326875" y="275.0" width="40" height="40" stroke="black" fill="white" stroke-width="1" /><text x="383.326875" y="295.0" dominant-baseline="middle" text-anchor="middle" font-size="18px">X</text><circle cx="453.326875" cy="145.0" r="10.0" /><circle cx="453.326875" cy="345.0" r="10.0" /><rect x="433.326875" y="425.0" width="40" height="40" stroke="black" fill="white" stroke-width="1" /><text x="453.326875" y="445.0" dominant-baseline="middle" text-anchor="middle" font-size="18px">X</text><circle cx="513.326875" cy="145.0" r="10.0" /><circle cx="513.326875" cy="245.0" r="10.0" /><rect x="493.326875" y="475.0" width="40" height="40" stroke="black" fill="white" stroke-width="1" /><text x="513.326875" y="495.0" dominant-baseline="middle" text-anchor="middle" font-size="18px">X</text><circle cx="573.326875" cy="145.0" r="10.0" /><circle cx="573.326875" cy="395.0" r="10.0" /><rect x="553.326875" y="525.0" width="40" height="40" stroke="black" fill="white" stroke-width="1" /><text x="573.326875" y="545.0" dominant-baseline="middle" text-anchor="middle" font-size="18px">X</text><circle cx="633.326875" cy="145.0" r="10.0" /><circle cx="633.326875" cy="295.0" r="10.0" /><rect x="613.326875" y="575.0" width="40" height="40" stroke="black" fill="white" stroke-width="1" /><text x="633.326875" y="595.0" dominant-baseline="middle" text-anchor="middle" font-size="18px">X</text><circle cx="683.326875" cy="445.0" r="10.0" /><rect x="663.326875" y="325.0" width="40" height="40" stroke="black" fill="white" stroke-width="1" /><text x="683.326875" y="345.0" dominant-baseline="middle" text-anchor="middle" font-size="18px">X</text><circle cx="723.326875" cy="495.0" r="10.0" /><rect x="703.326875" y="225.0" width="40" height="40" stroke="black" fill="white" stroke-width="1" /><text x="723.326875" y="245.0" dominant-baseline="middle" text-anchor="middle" font-size="18px">X</text><circle cx="763.326875" cy="545.0" r="10.0" /><rect x="743.326875" y="375.0" width="40" height="40" stroke="black" fill="white" stroke-width="1" /><text x="763.326875" y="395.0" dominant-baseline="middle" text-anchor="middle" font-size="18px">X</text><circle cx="803.326875" cy="595.0" r="10.0" /><rect x="783.326875" y="275.0" width="40" height="40" stroke="black" fill="white" stroke-width="1" /><text x="803.326875" y="295.0" dominant-baseline="middle" text-anchor="middle" font-size="18px">X</text><circle cx="873.326875" cy="195.0" r="10.0" /><circle cx="873.326875" cy="445.0" r="10.0" /><rect x="853.326875" y="625.0" width="40" height="40" stroke="black" fill="white" stroke-width="1" /><text x="873.326875" y="645.0" dominant-baseline="middle" text-anchor="middle" font-size="18px">X</text><circle cx="933.326875" cy="195.0" r="10.0" /><circle cx="933.326875" cy="345.0" r="10.0" /><rect x="913.326875" y="675.0" width="40" height="40" stroke="black" fill="white" stroke-width="1" /><text x="933.326875" y="695.0" dominant-baseline="middle" text-anchor="middle" font-size="18px">X</text><circle cx="993.326875" cy="195.0" r="10.0" /><circle cx="993.326875" cy="495.0" r="10.0" /><rect x="973.326875" y="725.0" width="40" height="40" stroke="black" fill="white" stroke-width="1" /><text x="993.326875" y="745.0" dominant-baseline="middle" text-anchor="middle" font-size="18px">X</text><circle cx="1053.326875" cy="195.0" r="10.0" /><circle cx="1053.326875" cy="245.0" r="10.0" /><rect x="1033.326875" y="775.0" width="40" height="40" stroke="black" fill="white" stroke-width="1" /><text x="1053.326875" y="795.0" dominant-baseline="middle" text-anchor="middle" font-size="18px">X</text><circle cx="1113.326875" cy="195.0" r="10.0" /><circle cx="1113.326875" cy="545.0" r="10.0" /><rect x="1093.326875" y="825.0" width="40" height="40" stroke="black" fill="white" stroke-width="1" /><text x="1113.326875" y="845.0" dominant-baseline="middle" text-anchor="middle" font-size="18px">X</text><circle cx="1173.326875" cy="195.0" r="10.0" /><circle cx="1173.326875" cy="395.0" r="10.0" /><rect x="1153.326875" y="875.0" width="40" height="40" stroke="black" fill="white" stroke-width="1" /><text x="1173.326875" y="895.0" dominant-baseline="middle" text-anchor="middle" font-size="18px">X</text><circle cx="1233.326875" cy="195.0" r="10.0" /><circle cx="1233.326875" cy="595.0" r="10.0" /><rect x="1213.326875" y="925.0" width="40" height="40" stroke="black" fill="white" stroke-width="1" /><text x="1233.326875" y="945.0" dominant-baseline="middle" text-anchor="middle" font-size="18px">X</text><circle cx="1293.326875" cy="195.0" r="10.0" /><circle cx="1293.326875" cy="295.0" r="10.0" /><rect x="1273.326875" y="975.0" width="40" height="40" stroke="black" fill="white" stroke-width="1" /><text x="1293.326875" y="995.0" dominant-baseline="middle" text-anchor="middle" font-size="18px">X</text><circle cx="1343.326875" cy="645.0" r="10.0" /><rect x="1323.326875" y="425.0" width="40" height="40" stroke="black" fill="white" stroke-width="1" /><text x="1343.326875" y="445.0" dominant-baseline="middle" text-anchor="middle" font-size="18px">X</text><circle cx="1383.326875" cy="695.0" r="10.0" /><rect x="1363.326875" y="325.0" width="40" height="40" stroke="black" fill="white" stroke-width="1" /><text x="1383.326875" y="345.0" dominant-baseline="middle" text-anchor="middle" font-size="18px">X</text><circle cx="1423.326875" cy="745.0" r="10.0" /><rect x="1403.326875" y="475.0" width="40" height="40" stroke="black" fill="white" stroke-width="1" /><text x="1423.326875" y="495.0" dominant-baseline="middle" text-anchor="middle" font-size="18px">X</text><circle cx="1463.326875" cy="795.0" r="10.0" /><rect x="1443.326875" y="225.0" width="40" height="40" stroke="black" fill="white" stroke-width="1" /><text x="1463.326875" y="245.0" dominant-baseline="middle" text-anchor="middle" font-size="18px">X</text><circle cx="1503.326875" cy="845.0" r="10.0" /><rect x="1483.326875" y="525.0" width="40" height="40" stroke="black" fill="white" stroke-width="1" /><text x="1503.326875" y="545.0" dominant-baseline="middle" text-anchor="middle" font-size="18px">X</text><circle cx="1543.326875" cy="895.0" r="10.0" /><rect x="1523.326875" y="375.0" width="40" height="40" stroke="black" fill="white" stroke-width="1" /><text x="1543.326875" y="395.0" dominant-baseline="middle" text-anchor="middle" font-size="18px">X</text><circle cx="1583.326875" cy="945.0" r="10.0" /><rect x="1563.326875" y="575.0" width="40" height="40" stroke="black" fill="white" stroke-width="1" /><text x="1583.326875" y="595.0" dominant-baseline="middle" text-anchor="middle" font-size="18px">X</text><circle cx="1623.326875" cy="995.0" r="10.0" /><rect x="1603.326875" y="275.0" width="40" height="40" stroke="black" fill="white" stroke-width="1" /><text x="1623.326875" y="295.0" dominant-baseline="middle" text-anchor="middle" font-size="18px">X</text><circle cx="1693.326875" cy="45.0" r="10.0" /><circle cx="1693.326875" cy="1045.0" r="10.0" /><circle cx="1743.326875" cy="645.0" r="10.0" /><rect x="1723.326875" y="425.0" width="40" height="40" stroke="black" fill="white" stroke-width="1" /><text x="1743.326875" y="445.0" dominant-baseline="middle" text-anchor="middle" font-size="18px">X</text><circle cx="1783.326875" cy="695.0" r="10.0" /><rect x="1763.326875" y="325.0" width="40" height="40" stroke="black" fill="white" stroke-width="1" /><text x="1783.326875" y="345.0" dominant-baseline="middle" text-anchor="middle" font-size="18px">X</text><circle cx="1823.326875" cy="745.0" r="10.0" /><rect x="1803.326875" y="475.0" width="40" height="40" stroke="black" fill="white" stroke-width="1" /><text x="1823.326875" y="495.0" dominant-baseline="middle" text-anchor="middle" font-size="18px">X</text><circle cx="1863.326875" cy="795.0" r="10.0" /><rect x="1843.326875" y="225.0" width="40" height="40" stroke="black" fill="white" stroke-width="1" /><text x="1863.326875" y="245.0" dominant-baseline="middle" text-anchor="middle" font-size="18px">X</text><circle cx="1903.326875" cy="845.0" r="10.0" /><rect x="1883.326875" y="525.0" width="40" height="40" stroke="black" fill="white" stroke-width="1" /><text x="1903.326875" y="545.0" dominant-baseline="middle" text-anchor="middle" font-size="18px">X</text><circle cx="1943.326875" cy="895.0" r="10.0" /><rect x="1923.326875" y="375.0" width="40" height="40" stroke="black" fill="white" stroke-width="1" /><text x="1943.326875" y="395.0" dominant-baseline="middle" text-anchor="middle" font-size="18px">X</text><circle cx="1983.326875" cy="945.0" r="10.0" /><rect x="1963.326875" y="575.0" width="40" height="40" stroke="black" fill="white" stroke-width="1" /><text x="1983.326875" y="595.0" dominant-baseline="middle" text-anchor="middle" font-size="18px">X</text><circle cx="2023.326875" cy="995.0" r="10.0" /><rect x="2003.326875" y="275.0" width="40" height="40" stroke="black" fill="white" stroke-width="1" /><text x="2023.326875" y="295.0" dominant-baseline="middle" text-anchor="middle" font-size="18px">X</text><circle cx="2093.3268749999997" cy="295.0" r="10.0" /><circle cx="2093.3268749999997" cy="195.0" r="10.0" /><rect x="2073.3268749999997" y="975.0" width="40" height="40" stroke="black" fill="white" stroke-width="1" /><text x="2093.3268749999997" y="995.0" dominant-baseline="middle" text-anchor="middle" font-size="18px">X</text><circle cx="2153.3268749999997" cy="595.0" r="10.0" /><circle cx="2153.3268749999997" cy="195.0" r="10.0" /><rect x="2133.3268749999997" y="925.0" width="40" height="40" stroke="black" fill="white" stroke-width="1" /><text x="2153.3268749999997" y="945.0" dominant-baseline="middle" text-anchor="middle" font-size="18px">X</text><circle cx="2213.3268749999997" cy="395.0" r="10.0" /><circle cx="2213.3268749999997" cy="195.0" r="10.0" /><rect x="2193.3268749999997" y="875.0" width="40" height="40" stroke="black" fill="white" stroke-width="1" /><text x="2213.3268749999997" y="895.0" dominant-baseline="middle" text-anchor="middle" font-size="18px">X</text><circle cx="2273.3268749999997" cy="545.0" r="10.0" /><circle cx="2273.3268749999997" cy="195.0" r="10.0" /><rect x="2253.3268749999997" y="825.0" width="40" height="40" stroke="black" fill="white" stroke-width="1" /><text x="2273.3268749999997" y="845.0" dominant-baseline="middle" text-anchor="middle" font-size="18px">X</text><circle cx="2333.3268749999997" cy="245.0" r="10.0" /><circle cx="2333.3268749999997" cy="195.0" r="10.0" /><rect x="2313.3268749999997" y="775.0" width="40" height="40" stroke="black" fill="white" stroke-width="1" /><text x="2333.3268749999997" y="795.0" dominant-baseline="middle" text-anchor="middle" font-size="18px">X</text><circle cx="2393.3268749999997" cy="495.0" r="10.0" /><circle cx="2393.3268749999997" cy="195.0" r="10.0" /><rect x="2373.3268749999997" y="725.0" width="40" height="40" stroke="black" fill="white" stroke-width="1" /><text x="2393.3268749999997" y="745.0" dominant-baseline="middle" text-anchor="middle" font-size="18px">X</text><circle cx="2453.3268749999997" cy="345.0" r="10.0" /><circle cx="2453.3268749999997" cy="195.0" r="10.0" /><rect x="2433.3268749999997" y="675.0" width="40" height="40" stroke="black" fill="white" stroke-width="1" /><text x="2453.3268749999997" y="695.0" dominant-baseline="middle" text-anchor="middle" font-size="18px">X</text><circle cx="2513.3268749999997" cy="445.0" r="10.0" /><circle cx="2513.3268749999997" cy="195.0" r="10.0" /><rect x="2493.3268749999997" y="625.0" width="40" height="40" stroke="black" fill="white" stroke-width="1" /><text x="2513.3268749999997" y="645.0" dominant-baseline="middle" text-anchor="middle" font-size="18px">X</text><circle cx="2563.3268749999997" cy="445.0" r="10.0" /><rect x="2543.3268749999997" y="325.0" width="40" height="40" stroke="black" fill="white" stroke-width="1" /><text x="2563.3268749999997" y="345.0" dominant-baseline="middle" text-anchor="middle" font-size="18px">X</text><circle cx="2603.3268749999997" cy="495.0" r="10.0" /><rect x="2583.3268749999997" y="225.0" width="40" height="40" stroke="black" fill="white" stroke-width="1" /><text x="2603.3268749999997" y="245.0" dominant-baseline="middle" text-anchor="middle" font-size="18px">X</text><circle cx="2643.3268749999997" cy="545.0" r="10.0" /><rect x="2623.3268749999997" y="375.0" width="40" height="40" stroke="black" fill="white" stroke-width="1" /><text x="2643.3268749999997" y="395.0" dominant-baseline="middle" text-anchor="middle" font-size="18px">X</text><circle cx="2683.3268749999997" cy="595.0" r="10.0" /><rect x="2663.3268749999997" y="275.0" width="40" height="40" stroke="black" fill="white" stroke-width="1" /><text x="2683.3268749999997" y="295.0" dominant-baseline="middle" text-anchor="middle" font-size="18px">X</text><circle cx="2753.3268749999997" cy="295.0" r="10.0" /><circle cx="2753.3268749999997" cy="145.0" r="10.0" /><rect x="2733.3268749999997" y="575.0" width="40" height="40" stroke="black" fill="white" stroke-width="1" /><text x="2753.3268749999997" y="595.0" dominant-baseline="middle" text-anchor="middle" font-size="18px">X</text><circle cx="2813.3268749999997" cy="395.0" r="10.0" /><circle cx="2813.3268749999997" cy="145.0" r="10.0" /><rect x="2793.3268749999997" y="525.0" width="40" height="40" stroke="black" fill="white" stroke-width="1" /><text x="2813.3268749999997" y="545.0" dominant-baseline="middle" text-anchor="middle" font-size="18px">X</text><circle cx="2873.3268749999997" cy="245.0" r="10.0" /><circle cx="2873.3268749999997" cy="145.0" r="10.0" /><rect x="2853.3268749999997" y="475.0" width="40" height="40" stroke="black" fill="white" stroke-width="1" /><text x="2873.3268749999997" y="495.0" dominant-baseline="middle" text-anchor="middle" font-size="18px">X</text><circle cx="2933.3268749999997" cy="345.0" r="10.0" /><circle cx="2933.3268749999997" cy="145.0" r="10.0" /><rect x="2913.3268749999997" y="425.0" width="40" height="40" stroke="black" fill="white" stroke-width="1" /><text x="2933.3268749999997" y="445.0" dominant-baseline="middle" text-anchor="middle" font-size="18px">X</text><circle cx="2983.3268749999997" cy="345.0" r="10.0" /><rect x="2963.3268749999997" y="225.0" width="40" height="40" stroke="black" fill="white" stroke-width="1" /><text x="2983.3268749999997" y="245.0" dominant-baseline="middle" text-anchor="middle" font-size="18px">X</text><circle cx="3023.3268749999997" cy="395.0" r="10.0" /><rect x="3003.3268749999997" y="275.0" width="40" height="40" stroke="black" fill="white" stroke-width="1" /><text x="3023.3268749999997" y="295.0" dominant-baseline="middle" text-anchor="middle" font-size="18px">X</text><circle cx="3093.3268749999997" cy="295.0" r="10.0" /><circle cx="3093.3268749999997" cy="95.0" r="10.0" /><rect x="3073.3268749999997" y="375.0" width="40" height="40" stroke="black" fill="white" stroke-width="1" /><text x="3093.3268749999997" y="395.0" dominant-baseline="middle" text-anchor="middle" font-size="18px">X</text><circle cx="3153.3268749999997" cy="245.0" r="10.0" /><circle cx="3153.3268749999997" cy="95.0" r="10.0" /><rect x="3133.3268749999997" y="325.0" width="40" height="40" stroke="black" fill="white" stroke-width="1" /><text x="3153.3268749999997" y="345.0" dominant-baseline="middle" text-anchor="middle" font-size="18px">X</text><circle cx="3213.3268749999997" cy="245.0" r="10.0" /><rect x="3193.3268749999997" y="275.0" width="40" height="40" stroke="black" fill="white" stroke-width="1" /><text x="3213.3268749999997" y="295.0" dominant-baseline="middle" text-anchor="middle" font-size="18px">X</text><circle cx="3273.3268749999997" cy="45.0" r="10.0" /><rect x="3253.3268749999997" y="225.0" width="40" height="40" stroke="black" fill="white" stroke-width="1" /><text x="3273.3268749999997" y="245.0" dominant-baseline="middle" text-anchor="middle" font-size="18px">X</text></svg>