<svg xmlns="http://www.w3.org/2000/svg" width="3859.1962890625" height="640.0"><line x1="37.63720703125" x2="3829.1962890625" y1="45.0" y2="45.0" stroke="#1967d2" stroke-width="1" /><line x1="37.63720703125" x2="3829.1962890625" y1="95.0" y2="95.0" stroke="#1967d2" stroke-width="1" /><line x1="37.63720703125" x2="3829.1962890625" y1="145.0" y2="145.0" stroke="#1967d2" stroke-width="1" /><line x1="37.63720703125" x2="3829.1962890625" y1="195.0" y2="195.0" stroke="#1967d2" stroke-width="1" /><line x1="37.63720703125" x2="3829.1962890625" y1="245.0" y2="245.0" stroke="#1967d2" stroke-width="1" /><line x1="37.63720703125" x2="3829.1962890625" y1="295.0" y2="295.0" stroke="#1967d2" stroke-width="1" /><line x1="37.63720703125" x2="3829.1962890625" y1="345.0" y2="345.0" stroke="#1967d2" stroke-width="1" /><line x1="37.63720703125" x2="3829.1962890625" y1="395.0" y2="395.0" stroke="#1967d2" stroke-width="1" /><line x1="37.63720703125" x2="3829.1962890625" y1="445.0" y2="445.0" stroke="#1967d2" stroke-width="1" /><line x1="37.63720703125" x2="3829.1962890625" y1="495.0" y2="495.0" stroke="#1967d2" stroke-width="1" /><line x1="37.63720703125" x2="3829.1962890625" y1="545.0" y2="545.0" stroke="#1967d2" stroke-width="1" /><line x1="37.63720703125" x2="3829.1962890625" y1="595.0" y2="595.0" stroke="#1967d2" stroke-width="1" /><line x1="2810.2255859375" x2="2900.2255859375" y1="5.0" y2="5.0" stroke="black" stroke-width="1" /><line x1="2810.2255859375" x2="2900.2255859375" y1="635.0" y2="635.0" stroke="black" stroke-width="1" /><line x1="2527.2353515625" x2="2617.2353515625" y1="5.0" y2="5.0" stroke="black" stroke-width="1" /><line x1="2527.2353515625" x2="2617.2353515625" y1="635.0" y2="635.0" stroke="black" stroke-width="1" /><line x1="2427.2353515625" x2="2517.2353515625" y1="5.0" y2="5.0" stroke="black" stroke-width="1" /><line x1="2427.2353515625" x2="2517.2353515625" y1="635.0" y2="635.0" stroke="black" stroke-width="1" /><line x1="2064.2451171875" x2="2234.2451171875" y1="5.0" y2="5.0" stroke="black" stroke-width="1" /><line x1="2064.2451171875" x2="2234.2451171875" y1="635.0" y2="635.0" stroke="black" stroke-width="1" /><line x1="1764.2451171875" x2="1934.2451171875" y1="5.0" y2="5.0" stroke="black" stroke-width="1" /><line x1="1764.2451171875" x2="1934.2451171875" y1="635.0" y2="635.0" stroke="black" stroke-width="1" /><line x1="1524.2451171875" x2="1694.2451171875" y1="5.0" y2="5.0" stroke="black" stroke-width="1" /><line x1="1524.2451171875" x2="1694.2451171875" y1="635.0" y2="635.0" stroke="black" stroke-width="1" /><line x1="1284.2451171875" x2="1454.2451171875" y1="5.0" y2="5.0" stroke="black" stroke-width="1" /><line x1="1284.2451171875" x2="1454.2451171875" y1="635.0" y2="635.0" stroke="black" stroke-width="1" /><line x1="1001.2548828125" x2="1091.2548828125" y1="5.0" y2="5.0" stroke="black" stroke-width="1" /><line x1="1001.2548828125" x2="1091.2548828125" y1="635.0" y2="635.0" stroke="black" stroke-width="1" /><line x1="901.2548828125" x2="991.2548828125" y1="5.0" y2="5.0" stroke="black" stroke-width="1" /><line x1="901.2548828125" x2="991.2548828125" y1="635.0" y2="635.0" stroke="black" stroke-width="1" /><line x1="741.2548828125" x2="831.2548828125" y1="5.0" y2="5.0" stroke="black" stroke-width="1" /><line x1="741.2548828125" x2="831.2548828125" y1="635.0" y2="635.0" stroke="black" stroke-width="1" /><line x1="458.2646484375" x2="548.2646484375" y1="5.0" y2="5.0" stroke="black" stroke-width="1" /><line x1="458.2646484375" x2="548.2646484375" y1="635.0" y2="635.0" stroke="black" stroke-width="1" /><line x1="195.2744140625" x2="325.2744140625" y1="5.0" y2="5.0" stroke="black" stroke-width="1" /><line x1="195.2744140625" x2="325.2744140625" y1="635.0" y2="635.0" stroke="black" stroke-width="1" /><line x1="215.2744140625" x2="215.2744140625" y1="45.0" y2="195.0" stroke="black" stroke-width="3" /><line x1="255.2744140625" x2="255.2744140625" y1="95.0" y2="345.0" stroke="black" stroke-width="3" /><line x1="295.2744140625" x2="295.2744140625" y1="145.0" y2="545.0" stroke="black" stroke-width="3" /><line x1="365.2744140625" x2="365.2744140625" y1="195.0" y2="245.0" stroke="black" stroke-width="3" /><line x1="478.2646484375" x2="478.2646484375" y1="195.0" y2="295.0" stroke="black" stroke-width="3" /><line x1="518.2646484375" x2="518.2646484375" y1="245.0" y2="345.0" stroke="black" stroke-width="3" /><line x1="648.2646484375" x2="648.2646484375" y1="95.0" y2="345.0" stroke="black" stroke-width="3" /><line x1="761.2548828125" x2="761.2548828125" y1="195.0" y2="295.0" stroke="black" stroke-width="3" /><line x1="801.2548828125" x2="801.2548828125" y1="245.0" y2="345.0" stroke="black" stroke-width="3" /><line x1="921.2548828125" x2="921.2548828125" y1="195.0" y2="395.0" stroke="black" stroke-width="3" /><line x1="961.2548828125" x2="961.2548828125" y1="245.0" y2="495.0" stroke="black" stroke-width="3" /><line x1="1021.2548828125" x2="1021.2548828125" y1="195.0" y2="445.0" stroke="black" stroke-width="3" /><line x1="1061.2548828125" x2="1061.2548828125" y1="245.0" y2="545.0" stroke="black" stroke-width="3" /><line x1="1191.2548828125" x2="1191.2548828125" y1="145.0" y2="545.0" stroke="black" stroke-width="3" /><line x1="1304.2451171875" x2="1304.2451171875" y1="195.0" y2="445.0" stroke="black" stroke-width="3" /><line x1="1344.2451171875" x2="1344.2451171875" y1="245.0" y2="545.0" stroke="black" stroke-width="3" /><line x1="1384.2451171875" x2="1384.2451171875" y1="295.0" y2="395.0" stroke="black" stroke-width="3" /><line x1="1424.2451171875" x2="1424.2451171875" y1="345.0" y2="495.0" stroke="black" stroke-width="3" /><line x1="1544.2451171875" x2="1544.2451171875" y1="195.0" y2="445.0" stroke="black" stroke-width="3" /><line x1="1584.2451171875" x2="1584.2451171875" y1="245.0" y2="545.0" stroke="black" stroke-width="3" /><line x1="1624.2451171875" x2="1624.2451171875" y1="295.0" y2="395.0" stroke="black" stroke-width="3" /><line x1="1664.2451171875" x2="1664.2451171875" y1="345.0" y2="495.0" stroke="black" stroke-width="3" /><line x1="1734.2451171875" x2="1734.2451171875" y1="45.0" y2="595.0" stroke="black" stroke-width="3" /><line x1="1784.2451171875" x2="1784.2451171875" y1="195.0" y2="445.0" stroke="black" stroke-width="3" /><line x1="1824.2451171875" x2="1824.2451171875" y1="245.0" y2="545.0" stroke="black" stroke-width="3" /><line x1="1864.2451171875" x2="1864.2451171875" y1="295.0" y2="395.0" stroke="black" stroke-width="3" /><line x1="1904.2451171875" x2="1904.2451171875" y1="345.0" y2="495.0" stroke="black" stroke-width="3" /><line x1="2084.2451171875" x2="2084.2451171875" y1="195.0" y2="445.0" stroke="black" stroke-width="3" /><line x1="2124.2451171875" x2="2124.2451171875" y1="245.0" y2="545.0" stroke="black" stroke-width="3" /><line x1="2164.2451171875" x2="2164.2451171875" y1="295.0" y2="395.0" stroke="black" stroke-width="3" /><line x1="2204.2451171875" x2="2204.2451171875" y1="345.0" y2="495.0" stroke="black" stroke-width="3" /><line x1="2337.2353515625" x2="2337.2353515625" y1="145.0" y2="545.0" stroke="black" stroke-width="3" /><line x1="2447.2353515625" x2="2447.2353515625" y1="195.0" y2="445.0" stroke="black" stroke-width="3" /><line x1="2487.2353515625" x2="2487.2353515625" y1="245.0" y2="545.0" stroke="black" stroke-width="3" /><line x1="2547.2353515625" x2="2547.2353515625" y1="195.0" y2="395.0" stroke="black" stroke-width="3" /><line x1="2587.2353515625" x2="2587.2353515625" y1="245.0" y2="495.0" stroke="black" stroke-width="3" /><line x1="2830.2255859375" x2="2830.2255859375" y1="145.0" y2="545.0" stroke="black" stroke-width="3" /><line x1="2870.2255859375" x2="2870.2255859375" y1="245.0" y2="345.0" stroke="black" stroke-width="3" /><line x1="3063.2158203125" x2="3063.2158203125" y1="95.0" y2="345.0" stroke="black" stroke-width="3" /><line x1="3183.2158203125" x2="3183.2158203125" y1="245.0" y2="345.0" stroke="black" stroke-width="3" /><line x1="3243.2158203125" x2="3243.2158203125" y1="195.0" y2="295.0" stroke="black" stroke-width="3" /><line x1="3366.2060546875" x2="3366.2060546875" y1="95.0" y2="345.0" stroke="black" stroke-width="3" /><line x1="3546.2060546875" x2="3546.2060546875" y1="195.0" y2="295.0" stroke="black" stroke-width="3" /><line x1="3606.2060546875" x2="3606.2060546875" y1="45.0" y2="195.0" stroke="black" stroke-width="3" /><line x1="3729.1962890625" x2="3729.1962890625" y1="95.0" y2="295.0" stroke="black" stroke-width="3" /><line x1="2810.2255859375" x2="2810.2255859375" y1="5.0" y2="15.0" stroke="black" stroke-width="3" /><line x1="2900.2255859375" x2="2900.2255859375" y1="5.0" y2="15.0" stroke="black" stroke-width="3" /><line x1="2810.2255859375" x2="2810.2255859375" y1="625.0" y2="635.0" stroke="black" stroke-width="3" /><line x1="2900.2255859375" x2="2900.2255859375" y1="625.0" y2="635.0" stroke="black" stroke-width="3" /><line x1="2527.2353515625" x2="2527.2353515625" y1="5.0" y2="15.0" stroke="black" stroke-width="3" /><line x1="2617.2353515625" x2="2617.2353515625" y1="5.0" y2="15.0" stroke="black" stroke-width="3" /><line x1="2527.2353515625" x2="2527.2353515625" y1="625.0" y2="635.0" stroke="black" stroke-width="3" /><line x1="2617.2353515625" x2="2617.2353515625" y1="625.0" y2="635.0" stroke="black" stroke-width="3" /><line x1="2427.2353515625" x2="2427.2353515625" y1="5.0" y2="15.0" stroke="black" stroke-width="3" /><line x1="2517.2353515625" x2="2517.2353515625" y1="5.0" y2="15.0" stroke="black" stroke-width="3" /><line x1="2427.2353515625" x2="2427.2353515625" y1="625.0" y2="635.0" stroke="black" stroke-width="3" /><line x1="2517.2353515625" x2="2517.2353515625" y1="625.0" y2="635.0" stroke="black" stroke-width="3" /><line x1="2064.2451171875" x2="2064.2451171875" y1="5.0" y2="15.0" stroke="black" stroke-width="3" /><line x1="2234.2451171875" x2="2234.2451171875" y1="5.0" y2="15.0" stroke="black" stroke-width="3" /><line x1="2064.2451171875" x2="2064.2451171875" y1="625.0" y2="635.0" stroke="black" stroke-width="3" /><line x1="2234.2451171875" x2="2234.2451171875" y1="625.0" y2="635.0" stroke="black" stroke-width="3" /><line x1="1764.2451171875" x2="1764.2451171875" y1="5.0" y2="15.0" stroke="black" stroke-width="3" /><line x1="1934.2451171875" x2="1934.2451171875" y1="5.0" y2="15.0" stroke="black" stroke-width="3" /><line x1="1764.2451171875" x2="1764.2451171875" y1="625.0" y2="635.0" stroke="black" stroke-width="3" /><line x1="1934.2451171875" x2="1934.2451171875" y1="625.0" y2="635.0" stroke="black" stroke-width="3" /><line x1="1524.2451171875" x2="1524.2451171875" y1="5.0" y2="15.0" stroke="black" stroke-width="3" /><line x1="1694.2451171875" x2="1694.2451171875" y1="5.0" y2="15.0" stroke="black" stroke-width="3" /><line x1="1524.2451171875" x2="1524.2451171875" y1="625.0" y2="635.0" stroke="black" stroke-width="3" /><line x1="1694.2451171875" x2="1694.2451171875" y1="625.0" y2="635.0" stroke="black" stroke-width="3" /><line x1="1284.2451171875" x2="1284.2451171875" y1="5.0" y2="15.0" stroke="black" stroke-width="3" /><line x1="1454.2451171875" x2="1454.2451171875" y1="5.0" y2="15.0" stroke="black" stroke-width="3" /><line x1="1284.2451171875" x2="1284.2451171875" y1="625.0" y2="635.0" stroke="black" stroke-width="3" /><line x1="1454.2451171875" x2="1454.2451171875" y1="625.0" y2="635.0" stroke="black" stroke-width="3" /><line x1="1001.2548828125" x2="1001.2548828125" y1="5.0" y2="15.0" stroke="black" stroke-width="3" /><line x1="1091.2548828125" x2="1091.2548828125" y1="5.0" y2="15.0" stroke="black" stroke-width="3" /><line x1="1001.2548828125" x2="1001.2548828125" y1="625.0" y2="635.0" stroke="black" stroke-width="3" /><line x1="1091.2548828125" x2="1091.2548828125" y1="625.0" y2="635.0" stroke="black" stroke-width="3" /><line x1="901.2548828125" x2="901.2548828125" y1="5.0" y2="15.0" stroke="black" stroke-width="3" /><line x1="991.2548828125" x2="991.2548828125" y1="5.0" y2="15.0" stroke="black" stroke-width="3" /><line x1="901.2548828125" x2="901.2548828125" y1="625.0" y2="635.0" stroke="black" stroke-width="3" /><line x1="991.2548828125" x2="991.2548828125" y1="625.0" y2="635.0" stroke="black" stroke-width="3" /><line x1="741.2548828125" x2="741.2548828125" y1="5.0" y2="15.0" stroke="black" stroke-width="3" /><line x1="831.2548828125" x2="831.2548828125" y1="5.0" y2="15.0" stroke="black" stroke-width="3" /><line x1="741.2548828125" x2="741.2548828125" y1="625.0" y2="635.0" stroke="black" stroke-width="3" /><line x1="831.2548828125" x2="831.2548828125" y1="625.0" y2="635.0" stroke="black" stroke-width="3" /><line x1="458.2646484375" x2="458.2646484375" y1="5.0" y2="15.0" stroke="black" stroke-width="3" /><line x1="548.2646484375" x2="548.2646484375" y1="5.0" y2="15.0" stroke="black" stroke-width="3" /><line x1="458.2646484375" x2="458.2646484375" y1="625.0" y2="635.0" stroke="black" stroke-width="3" /><line x1="548.2646484375" x2="548.2646484375" y1="625.0" y2="635.0" stroke="black" stroke-width="3" /><line x1="195.2744140625" x2="195.2744140625" y1="5.0" y2="15.0" stroke="black" stroke-width="3" /><line x1="325.2744140625" x2="325.2744140625" y1="5.0" y2="15.0" stroke="black" stroke-width="3" /><line x1="195.2744140625" x2="195.2744140625" y1="625.0" y2="635.0" stroke="black" stroke-width="3" /><line x1="325.2744140625" x2="325.2744140625" y1="625.0" y2="635.0" stroke="black" stroke-width="3" /><rect x="10.0" y="25.0" width="55.2744140625" height="40" stroke="black" fill="white" stroke-width="0" /><text x="37.63720703125" y="45.0" dominant-baseline="middle" text-anchor="middle" font-size="14px">a0: </text><rect x="10.0" y="75.0" width="55.2744140625" height="40" stroke="black" fill="white" stroke-width="0" /><text x="37.63720703125" y="95.0" dominant-baseline="middle" text-anchor="middle" font-size="14px">a1: </text><rect x="10.0" y="125.0" width="55.2744140625" height="40" stroke="black" fill="white" stroke-width="0" /><text x="37.63720703125" y="145.0" dominant-baseline="middle" text-anchor="middle" font-size="14px">a2: </text><rect x="10.0" y="175.0" width="55.2744140625" height="40" stroke="black" fill="white" stroke-width="0" /><text x="37.63720703125" y="195.0" dominant-baseline="middle" text-anchor="middle" font-size="14px">b_000: </text><rect x="10.0" y="225.0" width="55.2744140625" height="40" stroke="black" fill="white" stroke-width="0" /><text x="37.63720703125" y="245.0" dominant-baseline="middle" text-anchor="middle" font-size="14px">b_001: </text><rect x="10.0" y="275.0" width="55.2744140625" height="40" stroke="black" fill="white" stroke-width="0" /><text x="37.63720703125" y="295.0" dominant-baseline="middle" text-anchor="middle" font-size="14px">b_010: </text><rect x="10.0" y="325.0" width="55.2744140625" height="40" stroke="black" fill="white" stroke-width="0" /><text x="37.63720703125" y="345.0" dominant-baseline="middle" text-anchor="middle" font-size="14px">b_011: </text><rect x="10.0" y="375.0" width="55.2744140625" height="40" stroke="black" fill="white" stroke-width="0" /><text x="37.63720703125" y="395.0" dominant-baseline="middle" text-anchor="middle" font-size="14px">b_100: </text><rect x="10.0" y="425.0" width="55.2744140625" height="40" stroke="black" fill="white" stroke-width="0" /><text x="37.63720703125" y="445.0" dominant-baseline="middle" text-anchor="middle" font-size="14px">b_101: </text><rect x="10.0" y="475.0" width="55.2744140625" height="40" stroke="black" fill="white" stroke-width="0" /><text x="37.63720703125" y="495.0" dominant-baseline="middle" text-anchor="middle" font-size="14px">b_110: </text><rect x="10.0" y="525.0" width="55.2744140625" height="40" stroke="black" fill="white" stroke-width="0" /><text x="37.63720703125" y="545.0" dominant-baseline="middle" text-anchor="middle" font-size="14px">b_111: </text><rect x="10.0" y="575.0" width="55.2744140625" height="40" stroke="black" fill="white" stroke-width="0" /><text x="37.63720703125" y="595.0" dominant-baseline="middle" text-anchor="middle" font-size="14px">target: </text><rect x="85.2744140625" y="275.0" width="40" height="40" stroke="black" fill="white" stroke-width="1" /><text x="105.2744140625" y="295.0" dominant-baseline="middle" text-anchor="middle" font-size="18px">H</text><rect x="85.2744140625" y="325.0" width="40" height="40" stroke="black" fill="white" stroke-width="1" /><text x="105.2744140625" y="345.0" dominant-baseline="middle" text-anchor="middle" font-size="18px">H</text><rect x="85.2744140625" y="375.0" width="40" height="40" stroke="black" fill="white" stroke-width="1" /><text x="105.2744140625" y="395.0" dominant-baseline="middle" text-anchor="middle" font-size="18px">H</text><rect x="85.2744140625" y="425.0" width="40" height="40" stroke="black" fill="white" stroke-width="1" /><text x="105.2744140625" y="445.0" dominant-baseline="middle" text-anchor="middle" font-size="18px">H</text><rect x="85.2744140625" y="475.0" width="40" height="40" stroke="black" fill="white" stroke-width="1" /><text x="105.2744140625" y="495.0" dominant-baseline="middle" text-anchor="middle" font-size="18px">H</text><rect x="85.2744140625" y="525.0" width="40" height="40" stroke="black" fill="white" stroke-width="1" /><text x="105.2744140625" y="545.0" dominant-baseline="middle" text-anchor="middle" font-size="18px">H</text><rect x="145.2744140625" y="275.0" width="40" height="40" stroke="black" fill="white" stroke-width="1" /><text x="165.2744140625" y="295.0" dominant-baseline="middle" text-anchor="middle" font-size="18px">T</text><rect x="145.2744140625" y="325.0" width="40" height="40" stroke="black" fill="white" stroke-width="1" /><text x="165.2744140625" y="345.0" dominant-baseline="middle" text-anchor="middle" font-size="18px">T</text><rect x="145.2744140625" y="375.0" width="40" height="40" stroke="black" fill="white" stroke-width="1" /><text x="165.2744140625" y="395.0" dominant-baseline="middle" text-anchor="middle" font-size="18px">T</text><rect x="145.2744140625" y="425.0" width="40" height="40" stroke="black" fill="white" stroke-width="1" /><text x="165.2744140625" y="445.0" dominant-baseline="middle" text-anchor="middle" font-size="18px">T</text><rect x="145.2744140625" y="475.0" width="40" height="40" stroke="black" fill="white" stroke-width="1" /><text x="165.2744140625" y="495.0" dominant-baseline="middle" text-anchor="middle" font-size="18px">T</text><rect x="145.2744140625" y="525.0" width="40" height="40" stroke="black" fill="white" stroke-width="1" /><text x="165.2744140625" y="545.0" dominant-baseline="middle" text-anchor="middle" font-size="18px">T</text><circle cx="215.2744140625" cy="45.0" r="10.0" /><rect x="195.2744140625" y="175.0" width="40" height="40" stroke="black" fill="white" stroke-width="1" /><text x="215.2744140625" y="195.0" dominant-baseline="middle" text-anchor="middle" font-size="18px">X</text><circle cx="255.2744140625" cy="95.0" r="10.0" /><rect x="235.2744140625" y="325.0" width="40" height="40" stroke="black" fill="white" stroke-width="1" /><text x="255.2744140625" y="345.0" dominant-baseline="middle" text-anchor="middle" font-size="18px">X</text><rect x="235.2744140625" y="275.0" width="40" height="40" stroke="black" fill="white" stroke-width="1" /><text x="255.2744140625" y="295.0" dominant-baseline="middle" text-anchor="middle" font-size="18px">X</text><circle cx="295.2744140625" cy="145.0" r="10.0" /><rect x="275.2744140625" y="525.0" width="40" height="40" stroke="black" fill="white" stroke-width="1" /><text x="295.2744140625" y="545.0" dominant-baseline="middle" text-anchor="middle" font-size="18px">X</text><rect x="275.2744140625" y="475.0" width="40" height="40" stroke="black" fill="white" stroke-width="1" /><text x="295.2744140625" y="495.0" dominant-baseline="middle" text-anchor="middle" font-size="18px">X</text><rect x="275.2744140625" y="425.0" width="40" height="40" stroke="black" fill="white" stroke-width="1" /><text x="295.2744140625" y="445.0" dominant-baseline="middle" text-anchor="middle" font-size="18px">X</text><rect x="275.2744140625" y="375.0" width="40" height="40" stroke="black" fill="white" stroke-width="1" /><text x="295.2744140625" y="395.0" dominant-baseline="middle" text-anchor="middle" font-size="18px">X</text><circle cx="365.2744140625" cy="195.0" r="10.0" /><rect x="345.2744140625" y="225.0" width="40" height="40" stroke="black" fill="white" stroke-width="1" /><text x="365.2744140625" y="245.0" dominant-baseline="middle" text-anchor="middle" font-size="18px">X</text><rect x="405.2744140625" y="275.0" width="42.990234375" height="40" stroke="black" fill="white" stroke-width="1" /><text x="426.76953125" y="295.0" dominant-baseline="middle" text-anchor="middle" font-size="14px">T^-1</text><rect x="405.2744140625" y="325.0" width="42.990234375" height="40" stroke="black" fill="white" stroke-width="1" /><text x="426.76953125" y="345.0" dominant-baseline="middle" text-anchor="middle" font-size="14px">T^-1</text><rect x="405.2744140625" y="375.0" width="42.990234375" height="40" stroke="black" fill="white" stroke-width="1" /><text x="426.76953125" y="395.0" dominant-baseline="middle" text-anchor="middle" font-size="14px">T^-1</text><rect x="405.2744140625" y="425.0" width="42.990234375" height="40" stroke="black" fill="white" stroke-width="1" /><text x="426.76953125" y="445.0" dominant-baseline="middle" text-anchor="middle" font-size="14px">T^-1</text><rect x="405.2744140625" y="475.0" width="42.990234375" height="40" stroke="black" fill="white" stroke-width="1" /><text x="426.76953125" y="495.0" dominant-baseline="middle" text-anchor="middle" font-size="14px">T^-1</text><rect x="405.2744140625" y="525.0" width="42.990234375" height="40" stroke="black" fill="white" stroke-width="1" /><text x="426.76953125" y="545.0" dominant-baseline="middle" text-anchor="middle" font-size="14px">T^-1</text><circle cx="478.2646484375" cy="195.0" r="10.0" /><rect x="458.2646484375" y="275.0" width="40" height="40" stroke="black" fill="white" stroke-width="1" /><text x="478.2646484375" y="295.0" dominant-baseline="middle" text-anchor="middle" font-size="18px">X</text><circle cx="518.2646484375" cy="245.0" r="10.0" /><rect x="498.2646484375" y="325.0" width="40" height="40" stroke="black" fill="white" stroke-width="1" /><text x="518.2646484375" y="345.0" dominant-baseline="middle" text-anchor="middle" font-size="18px">X</text><rect x="568.2646484375" y="275.0" width="40" height="40" stroke="black" fill="white" stroke-width="1" /><text x="588.2646484375" y="295.0" dominant-baseline="middle" text-anchor="middle" font-size="18px">T</text><rect x="568.2646484375" y="325.0" width="40" height="40" stroke="black" fill="white" stroke-width="1" /><text x="588.2646484375" y="345.0" dominant-baseline="middle" text-anchor="middle" font-size="18px">T</text><circle cx="648.2646484375" cy="95.0" r="10.0" /><rect x="628.2646484375" y="325.0" width="40" height="40" stroke="black" fill="white" stroke-width="1" /><text x="648.2646484375" y="345.0" dominant-baseline="middle" text-anchor="middle" font-size="18px">X</text><rect x="628.2646484375" y="275.0" width="40" height="40" stroke="black" fill="white" stroke-width="1" /><text x="648.2646484375" y="295.0" dominant-baseline="middle" text-anchor="middle" font-size="18px">X</text><rect x="688.2646484375" y="275.0" width="42.990234375" height="40" stroke="black" fill="white" stroke-width="1" /><text x="709.759765625" y="295.0" dominant-baseline="middle" text-anchor="middle" font-size="14px">T^-1</text><rect x="688.2646484375" y="325.0" width="42.990234375" height="40" stroke="black" fill="white" stroke-width="1" /><text x="709.759765625" y="345.0" dominant-baseline="middle" text-anchor="middle" font-size="14px">T^-1</text><circle cx="761.2548828125" cy="195.0" r="10.0" /><rect x="741.2548828125" y="275.0" width="40" height="40" stroke="black" fill="white" stroke-width="1" /><text x="761.2548828125" y="295.0" dominant-baseline="middle" text-anchor="middle" font-size="18px">X</text><circle cx="801.2548828125" cy="245.0" r="10.0" /><rect x="781.2548828125" y="325.0" width="40" height="40" stroke="black" fill="white" stroke-width="1" /><text x="801.2548828125" y="345.0" dominant-baseline="middle" text-anchor="middle" font-size="18px">X</text><rect x="851.2548828125" y="275.0" width="40" height="40" stroke="black" fill="white" stroke-width="1" /><text x="871.2548828125" y="295.0" dominant-baseline="middle" text-anchor="middle" font-size="18px">H</text><rect x="851.2548828125" y="325.0" width="40" height="40" stroke="black" fill="white" stroke-width="1" /><text x="871.2548828125" y="345.0" dominant-baseline="middle" text-anchor="middle" font-size="18px">H</text><circle cx="921.2548828125" cy="295.0" r="10.0" /><rect x="901.2548828125" y="375.0" width="40" height="40" stroke="black" fill="white" stroke-width="1" /><text x="921.2548828125" y="395.0" dominant-baseline="middle" text-anchor="middle" font-size="18px">X</text><rect x="901.2548828125" y="175.0" width="40" height="40" stroke="black" fill="white" stroke-width="1" /><text x="921.2548828125" y="195.0" dominant-baseline="middle" text-anchor="middle" font-size="18px">X</text><circle cx="961.2548828125" cy="345.0" r="10.0" /><rect x="941.2548828125" y="475.0" width="40" height="40" stroke="black" fill="white" stroke-width="1" /><text x="961.2548828125" y="495.0" dominant-baseline="middle" text-anchor="middle" font-size="18px">X</text><rect x="941.2548828125" y="225.0" width="40" height="40" stroke="black" fill="white" stroke-width="1" /><text x="961.2548828125" y="245.0" dominant-baseline="middle" text-anchor="middle" font-size="18px">X</text><circle cx="1021.2548828125" cy="195.0" r="10.0" /><rect x="1001.2548828125" y="425.0" width="40" height="40" stroke="black" fill="white" stroke-width="1" /><text x="1021.2548828125" y="445.0" dominant-baseline="middle" text-anchor="middle" font-size="18px">X</text><circle cx="1061.2548828125" cy="245.0" r="10.0" /><rect x="1041.2548828125" y="525.0" width="40" height="40" stroke="black" fill="white" stroke-width="1" /><text x="1061.2548828125" y="545.0" dominant-baseline="middle" text-anchor="middle" font-size="18px">X</text><rect x="1111.2548828125" y="375.0" width="40" height="40" stroke="black" fill="white" stroke-width="1" /><text x="1131.2548828125" y="395.0" dominant-baseline="middle" text-anchor="middle" font-size="18px">T</text><rect x="1111.2548828125" y="475.0" width="40" height="40" stroke="black" fill="white" stroke-width="1" /><text x="1131.2548828125" y="495.0" dominant-baseline="middle" text-anchor="middle" font-size="18px">T</text><rect x="1111.2548828125" y="425.0" width="40" height="40" stroke="black" fill="white" stroke-width="1" /><text x="1131.2548828125" y="445.0" dominant-baseline="middle" text-anchor="middle" font-size="18px">T</text><rect x="1111.2548828125" y="525.0" width="40" height="40" stroke="black" fill="white" stroke-width="1" /><text x="1131.2548828125" y="545.0" dominant-baseline="middle" text-anchor="middle" font-size="18px">T</text><circle cx="1191.2548828125" cy="145.0" r="10.0" /><rect x="1171.2548828125" y="525.0" width="40" height="40" stroke="black" fill="white" stroke-width="1" /><text x="1191.2548828125" y="545.0" dominant-baseline="middle" text-anchor="middle" font-size="18px">X</text><rect x="1171.2548828125" y="475.0" width="40" height="40" stroke="black" fill="white" stroke-width="1" /><text x="1191.2548828125" y="495.0" dominant-baseline="middle" text-anchor="middle" font-size="18px">X</text><rect x="1171.2548828125" y="425.0" width="40" height="40" stroke="black" fill="white" stroke-width="1" /><text x="1191.2548828125" y="445.0" dominant-baseline="middle" text-anchor="middle" font-size="18px">X</text><rect x="1171.2548828125" y="375.0" width="40" height="40" stroke="black" fill="white" stroke-width="1" /><text x="1191.2548828125" y="395.0" dominant-baseline="middle" text-anchor="middle" font-size="18px">X</text><rect x="1231.2548828125" y="375.0" width="42.990234375" height="40" stroke="black" fill="white" stroke-width="1" /><text x="1252.75" y="395.0" dominant-baseline="middle" text-anchor="middle" font-size="14px">T^-1</text><rect x="1231.2548828125" y="425.0" width="42.990234375" height="40" stroke="black" fill="white" stroke-width="1" /><text x="1252.75" y="445.0" dominant-baseline="middle" text-anchor="middle" font-size="14px">T^-1</text><rect x="1231.2548828125" y="475.0" width="42.990234375" height="40" stroke="black" fill="white" stroke-width="1" /><text x="1252.75" y="495.0" dominant-baseline="middle" text-anchor="middle" font-size="14px">T^-1</text><rect x="1231.2548828125" y="525.0" width="42.990234375" height="40" stroke="black" fill="white" stroke-width="1" /><text x="1252.75" y="545.0" dominant-baseline="middle" text-anchor="middle" font-size="14px">T^-1</text><circle cx="1304.2451171875" cy="195.0" r="10.0" /><rect x="1284.2451171875" y="425.0" width="40" height="40" stroke="black" fill="white" stroke-width="1" /><text x="1304.2451171875" y="445.0" dominant-baseline="middle" text-anchor="middle" font-size="18px">X</text><circle cx="1344.2451171875" cy="245.0" r="10.0" /><rect x="1324.2451171875" y="525.0" width="40" height="40" stroke="black" fill="white" stroke-width="1" /><text x="1344.2451171875" y="545.0" dominant-baseline="middle" text-anchor="middle" font-size="18px">X</text><circle cx="1384.2451171875" cy="295.0" r="10.0" /><rect x="1364.2451171875" y="375.0" width="40" height="40" stroke="black" fill="white" stroke-width="1" /><text x="1384.2451171875" y="395.0" dominant-baseline="middle" text-anchor="middle" font-size="18px">X</text><circle cx="1424.2451171875" cy="345.0" r="10.0" /><rect x="1404.2451171875" y="475.0" width="40" height="40" stroke="black" fill="white" stroke-width="1" /><text x="1424.2451171875" y="495.0" dominant-baseline="middle" text-anchor="middle" font-size="18px">X</text><rect x="1474.2451171875" y="375.0" width="40" height="40" stroke="black" fill="white" stroke-width="1" /><text x="1494.2451171875" y="395.0" dominant-baseline="middle" text-anchor="middle" font-size="18px">H</text><rect x="1474.2451171875" y="425.0" width="40" height="40" stroke="black" fill="white" stroke-width="1" /><text x="1494.2451171875" y="445.0" dominant-baseline="middle" text-anchor="middle" font-size="18px">H</text><rect x="1474.2451171875" y="475.0" width="40" height="40" stroke="black" fill="white" stroke-width="1" /><text x="1494.2451171875" y="495.0" dominant-baseline="middle" text-anchor="middle" font-size="18px">H</text><rect x="1474.2451171875" y="525.0" width="40" height="40" stroke="black" fill="white" stroke-width="1" /><text x="1494.2451171875" y="545.0" dominant-baseline="middle" text-anchor="middle" font-size="18px">H</text><circle cx="1544.2451171875" cy="445.0" r="10.0" /><rect x="1524.2451171875" y="175.0" width="40" height="40" stroke="black" fill="white" stroke-width="1" /><text x="1544.2451171875" y="195.0" dominant-baseline="middle" text-anchor="middle" font-size="18px">X</text><circle cx="1584.2451171875" cy="545.0" r="10.0" /><rect x="1564.2451171875" y="225.0" width="40" height="40" stroke="black" fill="white" stroke-width="1" /><text x="1584.2451171875" y="245.0" dominant-baseline="middle" text-anchor="middle" font-size="18px">X</text><circle cx="1624.2451171875" cy="395.0" r="10.0" /><rect x="1604.2451171875" y="275.0" width="40" height="40" stroke="black" fill="white" stroke-width="1" /><text x="1624.2451171875" y="295.0" dominant-baseline="middle" text-anchor="middle" font-size="18px">X</text><circle cx="1664.2451171875" cy="495.0" r="10.0" /><rect x="1644.2451171875" y="325.0" width="40" height="40" stroke="black" fill="white" stroke-width="1" /><text x="1664.2451171875" y="345.0" dominant-baseline="middle" text-anchor="middle" font-size="18px">X</text><circle cx="1734.2451171875" cy="45.0" r="10.0" /><circle cx="1734.2451171875" cy="595.0" r="10.0" /><circle cx="1784.2451171875" cy="445.0" r="10.0" /><rect x="1764.2451171875" y="175.0" width="40" height="40" stroke="black" fill="white" stroke-width="1" /><text x="1784.2451171875" y="195.0" dominant-baseline="middle" text-anchor="middle" font-size="18px">X</text><circle cx="1824.2451171875" cy="545.0" r="10.0" /><rect x="1804.2451171875" y="225.0" width="40" height="40" stroke="black" fill="white" stroke-width="1" /><text x="1824.2451171875" y="245.0" dominant-baseline="middle" text-anchor="middle" font-size="18px">X</text><circle cx="1864.2451171875" cy="395.0" r="10.0" /><rect x="1844.2451171875" y="275.0" width="40" height="40" stroke="black" fill="white" stroke-width="1" /><text x="1864.2451171875" y="295.0" dominant-baseline="middle" text-anchor="middle" font-size="18px">X</text><circle cx="1904.2451171875" cy="495.0" r="10.0" /><rect x="1884.2451171875" y="325.0" width="40" height="40" stroke="black" fill="white" stroke-width="1" /><text x="1904.2451171875" y="345.0" dominant-baseline="middle" text-anchor="middle" font-size="18px">X</text><rect x="1954.2451171875" y="375.0" width="40" height="40" stroke="black" fill="white" stroke-width="1" /><text x="1974.2451171875" y="395.0" dominant-baseline="middle" text-anchor="middle" font-size="18px">H</text><rect x="1954.2451171875" y="425.0" width="40" height="40" stroke="black" fill="white" stroke-width="1" /><text x="1974.2451171875" y="445.0" dominant-baseline="middle" text-anchor="middle" font-size="18px">H</text><rect x="1954.2451171875" y="475.0" width="40" height="40" stroke="black" fill="white" stroke-width="1" /><text x="1974.2451171875" y="495.0" dominant-baseline="middle" text-anchor="middle" font-size="18px">H</text><rect x="1954.2451171875" y="525.0" width="40" height="40" stroke="black" fill="white" stroke-width="1" /><text x="1974.2451171875" y="545.0" dominant-baseline="middle" text-anchor="middle" font-size="18px">H</text><rect x="2014.2451171875" y="375.0" width="40" height="40" stroke="black" fill="white" stroke-width="1" /><text x="2034.2451171875" y="395.0" dominant-baseline="middle" text-anchor="middle" font-size="18px">T</text><rect x="2014.2451171875" y="425.0" width="40" height="40" stroke="black" fill="white" stroke-width="1" /><text x="2034.2451171875" y="445.0" dominant-baseline="middle" text-anchor="middle" font-size="18px">T</text><rect x="2014.2451171875" y="475.0" width="40" height="40" stroke="black" fill="white" stroke-width="1" /><text x="2034.2451171875" y="495.0" dominant-baseline="middle" text-anchor="middle" font-size="18px">T</text><rect x="2014.2451171875" y="525.0" width="40" height="40" stroke="black" fill="white" stroke-width="1" /><text x="2034.2451171875" y="545.0" dominant-baseline="middle" text-anchor="middle" font-size="18px">T</text><circle cx="2084.2451171875" cy="195.0" r="10.0" /><rect x="2064.2451171875" y="425.0" width="40" height="40" stroke="black" fill="white" stroke-width="1" /><text x="2084.2451171875" y="445.0" dominant-baseline="middle" text-anchor="middle" font-size="18px">X</text><circle cx="2124.2451171875" cy="245.0" r="10.0" /><rect x="2104.2451171875" y="525.0" width="40" height="40" stroke="black" fill="white" stroke-width="1" /><text x="2124.2451171875" y="545.0" dominant-baseline="middle" text-anchor="middle" font-size="18px">X</text><circle cx="2164.2451171875" cy="295.0" r="10.0" /><rect x="2144.2451171875" y="375.0" width="40" height="40" stroke="black" fill="white" stroke-width="1" /><text x="2164.2451171875" y="395.0" dominant-baseline="middle" text-anchor="middle" font-size="18px">X</text><circle cx="2204.2451171875" cy="345.0" r="10.0" /><rect x="2184.2451171875" y="475.0" width="40" height="40" stroke="black" fill="white" stroke-width="1" /><text x="2204.2451171875" y="495.0" dominant-baseline="middle" text-anchor="middle" font-size="18px">X</text><rect x="2254.2451171875" y="375.0" width="42.990234375" height="40" stroke="black" fill="white" stroke-width="1" /><text x="2275.740234375" y="395.0" dominant-baseline="middle" text-anchor="middle" font-size="14px">T^-1</text><rect x="2254.2451171875" y="425.0" width="42.990234375" height="40" stroke="black" fill="white" stroke-width="1" /><text x="2275.740234375" y="445.0" dominant-baseline="middle" text-anchor="middle" font-size="14px">T^-1</text><rect x="2254.2451171875" y="475.0" width="42.990234375" height="40" stroke="black" fill="white" stroke-width="1" /><text x="2275.740234375" y="495.0" dominant-baseline="middle" text-anchor="middle" font-size="14px">T^-1</text><rect x="2254.2451171875" y="525.0" width="42.990234375" height="40" stroke="black" fill="white" stroke-width="1" /><text x="2275.740234375" y="545.0" dominant-baseline="middle" text-anchor="middle" font-size="14px">T^-1</text><circle cx="2337.2353515625" cy="145.0" r="10.0" /><rect x="2317.2353515625" y="375.0" width="40" height="40" stroke="black" fill="white" stroke-width="1" /><text x="2337.2353515625" y="395.0" dominant-baseline="middle" text-anchor="middle" font-size="18px">X</text><rect x="2317.2353515625" y="425.0" width="40" height="40" stroke="black" fill="white" stroke-width="1" /><text x="2337.2353515625" y="445.0" dominant-baseline="middle" text-anchor="middle" font-size="18px">X</text><rect x="2317.2353515625" y="475.0" width="40" height="40" stroke="black" fill="white" stroke-width="1" /><text x="2337.2353515625" y="495.0" dominant-baseline="middle" text-anchor="middle" font-size="18px">X</text><rect x="2317.2353515625" y="525.0" width="40" height="40" stroke="black" fill="white" stroke-width="1" /><text x="2337.2353515625" y="545.0" dominant-baseline="middle" text-anchor="middle" font-size="18px">X</text><rect x="2377.2353515625" y="375.0" width="40" height="40" stroke="black" fill="white" stroke-width="1" /><text x="2397.2353515625" y="395.0" dominant-baseline="middle" text-anchor="middle" font-size="18px">T</text><rect x="2377.2353515625" y="425.0" width="40" height="40" stroke="black" fill="white" stroke-width="1" /><text x="2397.2353515625" y="445.0" dominant-baseline="middle" text-anchor="middle" font-size="18px">T</text><rect x="2377.2353515625" y="475.0" width="40" height="40" stroke="black" fill="white" stroke-width="1" /><text x="2397.2353515625" y="495.0" dominant-baseline="middle" text-anchor="middle" font-size="18px">T</text><rect x="2377.2353515625" y="525.0" width="40" height="40" stroke="black" fill="white" stroke-width="1" /><text x="2397.2353515625" y="545.0" dominant-baseline="middle" text-anchor="middle" font-size="18px">T</text><circle cx="2447.2353515625" cy="195.0" r="10.0" /><rect x="2427.2353515625" y="425.0" width="40" height="40" stroke="black" fill="white" stroke-width="1" /><text x="2447.2353515625" y="445.0" dominant-baseline="middle" text-anchor="middle" font-size="18px">X</text><circle cx="2487.2353515625" cy="245.0" r="10.0" /><rect x="2467.2353515625" y="525.0" width="40" height="40" stroke="black" fill="white" stroke-width="1" /><text x="2487.2353515625" y="545.0" dominant-baseline="middle" text-anchor="middle" font-size="18px">X</text><circle cx="2547.2353515625" cy="295.0" r="10.0" /><rect x="2527.2353515625" y="175.0" width="40" height="40" stroke="black" fill="white" stroke-width="1" /><text x="2547.2353515625" y="195.0" dominant-baseline="middle" text-anchor="middle" font-size="18px">X</text><rect x="2527.2353515625" y="375.0" width="40" height="40" stroke="black" fill="white" stroke-width="1" /><text x="2547.2353515625" y="395.0" dominant-baseline="middle" text-anchor="middle" font-size="18px">X</text><circle cx="2587.2353515625" cy="345.0" r="10.0" /><rect x="2567.2353515625" y="225.0" width="40" height="40" stroke="black" fill="white" stroke-width="1" /><text x="2587.2353515625" y="245.0" dominant-baseline="middle" text-anchor="middle" font-size="18px">X</text><rect x="2567.2353515625" y="475.0" width="40" height="40" stroke="black" fill="white" stroke-width="1" /><text x="2587.2353515625" y="495.0" dominant-baseline="middle" text-anchor="middle" font-size="18px">X</text><rect x="2637.2353515625" y="275.0" width="40" height="40" stroke="black" fill="white" stroke-width="1" /><text x="2657.2353515625" y="295.0" dominant-baseline="middle" text-anchor="middle" font-size="18px">H</text><rect x="2637.2353515625" y="325.0" width="40" height="40" stroke="black" fill="white" stroke-width="1" /><text x="2657.2353515625" y="345.0" dominant-baseline="middle" text-anchor="middle" font-size="18px">H</text><rect x="2697.2353515625" y="275.0" width="40" height="40" stroke="black" fill="white" stroke-width="1" /><text x="2717.2353515625" y="295.0" dominant-baseline="middle" text-anchor="middle" font-size="18px">T</text><rect x="2697.2353515625" y="325.0" width="40" height="40" stroke="black" fill="white" stroke-width="1" /><text x="2717.2353515625" y="345.0" dominant-baseline="middle" text-anchor="middle" font-size="18px">T</text><rect x="2757.2353515625" y="425.0" width="42.990234375" height="40" stroke="black" fill="white" stroke-width="1" /><text x="2778.73046875" y="445.0" dominant-baseline="middle" text-anchor="middle" font-size="14px">T^-1</text><rect x="2757.2353515625" y="525.0" width="42.990234375" height="40" stroke="black" fill="white" stroke-width="1" /><text x="2778.73046875" y="545.0" dominant-baseline="middle" text-anchor="middle" font-size="14px">T^-1</text><rect x="2757.2353515625" y="375.0" width="42.990234375" height="40" stroke="black" fill="white" stroke-width="1" /><text x="2778.73046875" y="395.0" dominant-baseline="middle" text-anchor="middle" font-size="14px">T^-1</text><rect x="2757.2353515625" y="475.0" width="42.990234375" height="40" stroke="black" fill="white" stroke-width="1" /><text x="2778.73046875" y="495.0" dominant-baseline="middle" text-anchor="middle" font-size="14px">T^-1</text><circle cx="2830.2255859375" cy="145.0" r="10.0" /><rect x="2810.2255859375" y="375.0" width="40" height="40" stroke="black" fill="white" stroke-width="1" /><text x="2830.2255859375" y="395.0" dominant-baseline="middle" text-anchor="middle" font-size="18px">X</text><rect x="2810.2255859375" y="475.0" width="40" height="40" stroke="black" fill="white" stroke-width="1" /><text x="2830.2255859375" y="495.0" dominant-baseline="middle" text-anchor="middle" font-size="18px">X</text><rect x="2810.2255859375" y="425.0" width="40" height="40" stroke="black" fill="white" stroke-width="1" /><text x="2830.2255859375" y="445.0" dominant-baseline="middle" text-anchor="middle" font-size="18px">X</text><rect x="2810.2255859375" y="525.0" width="40" height="40" stroke="black" fill="white" stroke-width="1" /><text x="2830.2255859375" y="545.0" dominant-baseline="middle" text-anchor="middle" font-size="18px">X</text><circle cx="2870.2255859375" cy="245.0" r="10.0" /><rect x="2850.2255859375" y="325.0" width="40" height="40" stroke="black" fill="white" stroke-width="1" /><text x="2870.2255859375" y="345.0" dominant-baseline="middle" text-anchor="middle" font-size="18px">X</text><rect x="2920.2255859375" y="375.0" width="40" height="40" stroke="black" fill="white" stroke-width="1" /><text x="2940.2255859375" y="395.0" dominant-baseline="middle" text-anchor="middle" font-size="18px">H</text><rect x="2920.2255859375" y="425.0" width="40" height="40" stroke="black" fill="white" stroke-width="1" /><text x="2940.2255859375" y="445.0" dominant-baseline="middle" text-anchor="middle" font-size="18px">H</text><rect x="2920.2255859375" y="475.0" width="40" height="40" stroke="black" fill="white" stroke-width="1" /><text x="2940.2255859375" y="495.0" dominant-baseline="middle" text-anchor="middle" font-size="18px">H</text><rect x="2920.2255859375" y="525.0" width="40" height="40" stroke="black" fill="white" stroke-width="1" /><text x="2940.2255859375" y="545.0" dominant-baseline="middle" text-anchor="middle" font-size="18px">H</text><rect x="2980.2255859375" y="325.0" width="42.990234375" height="40" stroke="black" fill="white" stroke-width="1" /><text x="3001.720703125" y="345.0" dominant-baseline="middle" text-anchor="middle" font-size="14px">T^-1</text><circle cx="3063.2158203125" cy="95.0" r="10.0" /><rect x="3043.2158203125" y="325.0" width="40" height="40" stroke="black" fill="white" stroke-width="1" /><text x="3063.2158203125" y="345.0" dominant-baseline="middle" text-anchor="middle" font-size="18px">X</text><rect x="3103.2158203125" y="325.0" width="40" height="40" stroke="black" fill="white" stroke-width="1" /><text x="3123.2158203125" y="345.0" dominant-baseline="middle" text-anchor="middle" font-size="18px">T</text><circle cx="3183.2158203125" cy="245.0" r="10.0" /><rect x="3163.2158203125" y="325.0" width="40" height="40" stroke="black" fill="white" stroke-width="1" /><text x="3183.2158203125" y="345.0" dominant-baseline="middle" text-anchor="middle" font-size="18px">X</text><circle cx="3243.2158203125" cy="195.0" r="10.0" /><rect x="3223.2158203125" y="225.0" width="40" height="40" stroke="black" fill="white" stroke-width="1" /><text x="3243.2158203125" y="245.0" dominant-baseline="middle" text-anchor="middle" font-size="18px">X</text><rect x="3223.2158203125" y="275.0" width="40" height="40" stroke="black" fill="white" stroke-width="1" /><text x="3243.2158203125" y="295.0" dominant-baseline="middle" text-anchor="middle" font-size="18px">X</text><rect x="3283.2158203125" y="325.0" width="42.990234375" height="40" stroke="black" fill="white" stroke-width="1" /><text x="3304.7109375" y="345.0" dominant-baseline="middle" text-anchor="middle" font-size="14px">T^-1</text><rect x="3283.2158203125" y="275.0" width="42.990234375" height="40" stroke="black" fill="white" stroke-width="1" /><text x="3304.7109375" y="295.0" dominant-baseline="middle" text-anchor="middle" font-size="14px">T^-1</text><circle cx="3366.2060546875" cy="95.0" r="10.0" /><rect x="3346.2060546875" y="275.0" width="40" height="40" stroke="black" fill="white" stroke-width="1" /><text x="3366.2060546875" y="295.0" dominant-baseline="middle" text-anchor="middle" font-size="18px">X</text><rect x="3346.2060546875" y="325.0" width="40" height="40" stroke="black" fill="white" stroke-width="1" /><text x="3366.2060546875" y="345.0" dominant-baseline="middle" text-anchor="middle" font-size="18px">X</text><rect x="3406.2060546875" y="325.0" width="40" height="40" stroke="black" fill="white" stroke-width="1" /><text x="3426.2060546875" y="345.0" dominant-baseline="middle" text-anchor="middle" font-size="18px">H</text><rect x="3466.2060546875" y="275.0" width="40" height="40" stroke="black" fill="white" stroke-width="1" /><text x="3486.2060546875" y="295.0" dominant-baseline="middle" text-anchor="middle" font-size="18px">T</text><circle cx="3546.2060546875" cy="195.0" r="10.0" /><rect x="3526.2060546875" y="275.0" width="40" height="40" stroke="black" fill="white" stroke-width="1" /><text x="3546.2060546875" y="295.0" dominant-baseline="middle" text-anchor="middle" font-size="18px">X</text><circle cx="3606.2060546875" cy="45.0" r="10.0" /><rect x="3586.2060546875" y="175.0" width="40" height="40" stroke="black" fill="white" stroke-width="1" /><text x="3606.2060546875" y="195.0" dominant-baseline="middle" text-anchor="middle" font-size="18px">X</text><rect x="3646.2060546875" y="275.0" width="42.990234375" height="40" stroke="black" fill="white" stroke-width="1" /><text x="3667.701171875" y="295.0" dominant-baseline="middle" text-anchor="middle" font-size="14px">T^-1</text><circle cx="3729.1962890625" cy="95.0" r="10.0" /><rect x="3709.1962890625" y="275.0" width="40" height="40" stroke="black" fill="white" stroke-width="1" /><text x="3729.1962890625" y="295.0" dominant-baseline="middle" text-anchor="middle" font-size="18px">X</text><rect x="3769.1962890625" y="275.0" width="40" height="40" stroke="black" fill="white" stroke-width="1" /><text x="3789.1962890625" y="295.0" dominant-baseline="middle" text-anchor="middle" font-size="18px">H</text></svg>