<svg xmlns="http://www.w3.org/2000/svg" width="2516.2060546875" height="590.0"><line x1="37.63720703125" x2="2486.2060546875" y1="45.0" y2="45.0" stroke="#1967d2" stroke-width="1" /><line x1="37.63720703125" x2="2486.2060546875" y1="95.0" y2="95.0" stroke="#1967d2" stroke-width="1" /><line x1="37.63720703125" x2="2486.2060546875" y1="145.0" y2="145.0" stroke="#1967d2" stroke-width="1" /><line x1="37.63720703125" x2="2486.2060546875" y1="195.0" y2="195.0" stroke="#1967d2" stroke-width="1" /><line x1="37.63720703125" x2="2486.2060546875" y1="245.0" y2="245.0" stroke="#1967d2" stroke-width="1" /><line x1="37.63720703125" x2="2486.2060546875" y1="295.0" y2="295.0" stroke="#1967d2" stroke-width="1" /><line x1="37.63720703125" x2="2486.2060546875" y1="345.0" y2="345.0" stroke="#1967d2" stroke-width="1" /><line x1="37.63720703125" x2="2486.2060546875" y1="395.0" y2="395.0" stroke="#1967d2" stroke-width="1" /><line x1="37.63720703125" x2="2486.2060546875" y1="445.0" y2="445.0" stroke="#1967d2" stroke-width="1" /><line x1="37.63720703125" x2="2486.2060546875" y1="495.0" y2="495.0" stroke="#1967d2" stroke-width="1" /><line x1="37.63720703125" x2="2486.2060546875" y1="545.0" y2="545.0" stroke="#1967d2" stroke-width="1" /><line x1="2253.2158203125" x2="2343.2158203125" y1="5.0" y2="5.0" stroke="black" stroke-width="1" /><line x1="2253.2158203125" x2="2343.2158203125" y1="585.0" y2="585.0" stroke="black" stroke-width="1" /><line x1="1730.2255859375" x2="1820.2255859375" y1="5.0" y2="5.0" stroke="black" stroke-width="1" /><line x1="1730.2255859375" x2="1820.2255859375" y1="585.0" y2="585.0" stroke="black" stroke-width="1" /><line x1="1367.2353515625" x2="1537.2353515625" y1="5.0" y2="5.0" stroke="black" stroke-width="1" /><line x1="1367.2353515625" x2="1537.2353515625" y1="585.0" y2="585.0" stroke="black" stroke-width="1" /><line x1="881.2548828125" x2="1051.2548828125" y1="5.0" y2="5.0" stroke="black" stroke-width="1" /><line x1="881.2548828125" x2="1051.2548828125" y1="585.0" y2="585.0" stroke="black" stroke-width="1" /><line x1="721.2548828125" x2="811.2548828125" y1="5.0" y2="5.0" stroke="black" stroke-width="1" /><line x1="721.2548828125" x2="811.2548828125" y1="585.0" y2="585.0" stroke="black" stroke-width="1" /><line x1="195.2744140625" x2="285.2744140625" y1="5.0" y2="5.0" stroke="black" stroke-width="1" /><line x1="195.2744140625" x2="285.2744140625" y1="585.0" y2="585.0" stroke="black" stroke-width="1" /><line x1="215.2744140625" x2="215.2744140625" y1="45.0" y2="145.0" stroke="black" stroke-width="3" /><line x1="255.2744140625" x2="255.2744140625" y1="95.0" y2="295.0" stroke="black" stroke-width="3" /><line x1="388.2646484375" x2="388.2646484375" y1="145.0" y2="245.0" stroke="black" stroke-width="3" /><line x1="448.2646484375" x2="448.2646484375" y1="195.0" y2="295.0" stroke="black" stroke-width="3" /><line x1="568.2646484375" x2="568.2646484375" y1="95.0" y2="295.0" stroke="black" stroke-width="3" /><line x1="741.2548828125" x2="741.2548828125" y1="145.0" y2="245.0" stroke="black" stroke-width="3" /><line x1="781.2548828125" x2="781.2548828125" y1="195.0" y2="295.0" stroke="black" stroke-width="3" /><line x1="901.2548828125" x2="901.2548828125" y1="145.0" y2="445.0" stroke="black" stroke-width="3" /><line x1="941.2548828125" x2="941.2548828125" y1="195.0" y2="345.0" stroke="black" stroke-width="3" /><line x1="981.2548828125" x2="981.2548828125" y1="245.0" y2="495.0" stroke="black" stroke-width="3" /><line x1="1021.2548828125" x2="1021.2548828125" y1="295.0" y2="395.0" stroke="black" stroke-width="3" /><line x1="1154.2451171875" x2="1154.2451171875" y1="145.0" y2="545.0" stroke="black" stroke-width="3" /><line x1="1337.2353515625" x2="1337.2353515625" y1="345.0" y2="545.0" stroke="black" stroke-width="3" /><line x1="1387.2353515625" x2="1387.2353515625" y1="145.0" y2="445.0" stroke="black" stroke-width="3" /><line x1="1427.2353515625" x2="1427.2353515625" y1="195.0" y2="345.0" stroke="black" stroke-width="3" /><line x1="1467.2353515625" x2="1467.2353515625" y1="245.0" y2="495.0" stroke="black" stroke-width="3" /><line x1="1507.2353515625" x2="1507.2353515625" y1="295.0" y2="395.0" stroke="black" stroke-width="3" /><line x1="1640.2255859375" x2="1640.2255859375" y1="145.0" y2="545.0" stroke="black" stroke-width="3" /><line x1="1750.2255859375" x2="1750.2255859375" y1="145.0" y2="245.0" stroke="black" stroke-width="3" /><line x1="1790.2255859375" x2="1790.2255859375" y1="195.0" y2="295.0" stroke="black" stroke-width="3" /><line x1="1980.2255859375" x2="1980.2255859375" y1="95.0" y2="295.0" stroke="black" stroke-width="3" /><line x1="2103.2158203125" x2="2103.2158203125" y1="195.0" y2="295.0" stroke="black" stroke-width="3" /><line x1="2163.2158203125" x2="2163.2158203125" y1="145.0" y2="245.0" stroke="black" stroke-width="3" /><line x1="2273.2158203125" x2="2273.2158203125" y1="95.0" y2="295.0" stroke="black" stroke-width="3" /><line x1="2313.2158203125" x2="2313.2158203125" y1="45.0" y2="145.0" stroke="black" stroke-width="3" /><line x1="2253.2158203125" x2="2253.2158203125" y1="5.0" y2="15.0" stroke="black" stroke-width="3" /><line x1="2343.2158203125" x2="2343.2158203125" y1="5.0" y2="15.0" stroke="black" stroke-width="3" /><line x1="2253.2158203125" x2="2253.2158203125" y1="575.0" y2="585.0" stroke="black" stroke-width="3" /><line x1="2343.2158203125" x2="2343.2158203125" y1="575.0" y2="585.0" stroke="black" stroke-width="3" /><line x1="1730.2255859375" x2="1730.2255859375" y1="5.0" y2="15.0" stroke="black" stroke-width="3" /><line x1="1820.2255859375" x2="1820.2255859375" y1="5.0" y2="15.0" stroke="black" stroke-width="3" /><line x1="1730.2255859375" x2="1730.2255859375" y1="575.0" y2="585.0" stroke="black" stroke-width="3" /><line x1="1820.2255859375" x2="1820.2255859375" y1="575.0" y2="585.0" stroke="black" stroke-width="3" /><line x1="1367.2353515625" x2="1367.2353515625" y1="5.0" y2="15.0" stroke="black" stroke-width="3" /><line x1="1537.2353515625" x2="1537.2353515625" y1="5.0" y2="15.0" stroke="black" stroke-width="3" /><line x1="1367.2353515625" x2="1367.2353515625" y1="575.0" y2="585.0" stroke="black" stroke-width="3" /><line x1="1537.2353515625" x2="1537.2353515625" y1="575.0" y2="585.0" stroke="black" stroke-width="3" /><line x1="881.2548828125" x2="881.2548828125" y1="5.0" y2="15.0" stroke="black" stroke-width="3" /><line x1="1051.2548828125" x2="1051.2548828125" y1="5.0" y2="15.0" stroke="black" stroke-width="3" /><line x1="881.2548828125" x2="881.2548828125" y1="575.0" y2="585.0" stroke="black" stroke-width="3" /><line x1="1051.2548828125" x2="1051.2548828125" y1="575.0" y2="585.0" stroke="black" stroke-width="3" /><line x1="721.2548828125" x2="721.2548828125" y1="5.0" y2="15.0" stroke="black" stroke-width="3" /><line x1="811.2548828125" x2="811.2548828125" y1="5.0" y2="15.0" stroke="black" stroke-width="3" /><line x1="721.2548828125" x2="721.2548828125" y1="575.0" y2="585.0" stroke="black" stroke-width="3" /><line x1="811.2548828125" x2="811.2548828125" y1="575.0" y2="585.0" stroke="black" stroke-width="3" /><line x1="195.2744140625" x2="195.2744140625" y1="5.0" y2="15.0" stroke="black" stroke-width="3" /><line x1="285.2744140625" x2="285.2744140625" y1="5.0" y2="15.0" stroke="black" stroke-width="3" /><line x1="195.2744140625" x2="195.2744140625" y1="575.0" y2="585.0" stroke="black" stroke-width="3" /><line x1="285.2744140625" x2="285.2744140625" y1="575.0" y2="585.0" stroke="black" stroke-width="3" /><rect x="10.0" y="25.0" width="55.2744140625" height="40" stroke="black" fill="white" stroke-width="0" /><text x="37.63720703125" y="45.0" dominant-baseline="middle" text-anchor="middle" font-size="14px">a0: </text><rect x="10.0" y="75.0" width="55.2744140625" height="40" stroke="black" fill="white" stroke-width="0" /><text x="37.63720703125" y="95.0" dominant-baseline="middle" text-anchor="middle" font-size="14px">a1: </text><rect x="10.0" y="125.0" width="55.2744140625" height="40" stroke="black" fill="white" stroke-width="0" /><text x="37.63720703125" y="145.0" dominant-baseline="middle" text-anchor="middle" font-size="14px">b_00: </text><rect x="10.0" y="175.0" width="55.2744140625" height="40" stroke="black" fill="white" stroke-width="0" /><text x="37.63720703125" y="195.0" dominant-baseline="middle" text-anchor="middle" font-size="14px">b_01: </text><rect x="10.0" y="225.0" width="55.2744140625" height="40" stroke="black" fill="white" stroke-width="0" /><text x="37.63720703125" y="245.0" dominant-baseline="middle" text-anchor="middle" font-size="14px">b_10: </text><rect x="10.0" y="275.0" width="55.2744140625" height="40" stroke="black" fill="white" stroke-width="0" /><text x="37.63720703125" y="295.0" dominant-baseline="middle" text-anchor="middle" font-size="14px">b_11: </text><rect x="10.0" y="325.0" width="55.2744140625" height="40" stroke="black" fill="white" stroke-width="0" /><text x="37.63720703125" y="345.0" dominant-baseline="middle" text-anchor="middle" font-size="14px">m00: </text><rect x="10.0" y="375.0" width="55.2744140625" height="40" stroke="black" fill="white" stroke-width="0" /><text x="37.63720703125" y="395.0" dominant-baseline="middle" text-anchor="middle" font-size="14px">m01: </text><rect x="10.0" y="425.0" width="55.2744140625" height="40" stroke="black" fill="white" stroke-width="0" /><text x="37.63720703125" y="445.0" dominant-baseline="middle" text-anchor="middle" font-size="14px">m10: </text><rect x="10.0" y="475.0" width="55.2744140625" height="40" stroke="black" fill="white" stroke-width="0" /><text x="37.63720703125" y="495.0" dominant-baseline="middle" text-anchor="middle" font-size="14px">m11: </text><rect x="10.0" y="525.0" width="55.2744140625" height="40" stroke="black" fill="white" stroke-width="0" /><text x="37.63720703125" y="545.0" dominant-baseline="middle" text-anchor="middle" font-size="14px">target: </text><rect x="85.2744140625" y="225.0" width="40" height="40" stroke="black" fill="white" stroke-width="1" /><text x="105.2744140625" y="245.0" dominant-baseline="middle" text-anchor="middle" font-size="18px">H</text><rect x="85.2744140625" y="275.0" width="40" height="40" stroke="black" fill="white" stroke-width="1" /><text x="105.2744140625" y="295.0" dominant-baseline="middle" text-anchor="middle" font-size="18px">H</text><rect x="85.2744140625" y="525.0" width="40" height="40" stroke="black" fill="white" stroke-width="1" /><text x="105.2744140625" y="545.0" dominant-baseline="middle" text-anchor="middle" font-size="18px">H</text><rect x="145.2744140625" y="225.0" width="40" height="40" stroke="black" fill="white" stroke-width="1" /><text x="165.2744140625" y="245.0" dominant-baseline="middle" text-anchor="middle" font-size="18px">T</text><rect x="145.2744140625" y="275.0" width="40" height="40" stroke="black" fill="white" stroke-width="1" /><text x="165.2744140625" y="295.0" dominant-baseline="middle" text-anchor="middle" font-size="18px">T</text><rect x="145.2744140625" y="325.0" width="40" height="40" stroke="black" fill="white" stroke-width="1" /><text x="165.2744140625" y="345.0" dominant-baseline="middle" text-anchor="middle" font-size="18px">T</text><rect x="145.2744140625" y="375.0" width="40" height="40" stroke="black" fill="white" stroke-width="1" /><text x="165.2744140625" y="395.0" dominant-baseline="middle" text-anchor="middle" font-size="18px">T</text><rect x="145.2744140625" y="425.0" width="40" height="40" stroke="black" fill="white" stroke-width="1" /><text x="165.2744140625" y="445.0" dominant-baseline="middle" text-anchor="middle" font-size="18px">T</text><rect x="145.2744140625" y="475.0" width="40" height="40" stroke="black" fill="white" stroke-width="1" /><text x="165.2744140625" y="495.0" dominant-baseline="middle" text-anchor="middle" font-size="18px">T</text><circle cx="215.2744140625" cy="45.0" r="10.0" /><rect x="195.2744140625" y="125.0" width="40" height="40" stroke="black" fill="white" stroke-width="1" /><text x="215.2744140625" y="145.0" dominant-baseline="middle" text-anchor="middle" font-size="18px">X</text><circle cx="255.2744140625" cy="95.0" r="10.0" /><rect x="235.2744140625" y="225.0" width="40" height="40" stroke="black" fill="white" stroke-width="1" /><text x="255.2744140625" y="245.0" dominant-baseline="middle" text-anchor="middle" font-size="18px">X</text><rect x="235.2744140625" y="275.0" width="40" height="40" stroke="black" fill="white" stroke-width="1" /><text x="255.2744140625" y="295.0" dominant-baseline="middle" text-anchor="middle" font-size="18px">X</text><rect x="195.2744140625" y="525.0" width="40" height="40" stroke="black" fill="white" stroke-width="1" /><text x="215.2744140625" y="545.0" dominant-baseline="middle" text-anchor="middle" font-size="18px">Z</text><rect x="305.2744140625" y="225.0" width="42.990234375" height="40" stroke="black" fill="white" stroke-width="1" /><text x="326.76953125" y="245.0" dominant-baseline="middle" text-anchor="middle" font-size="14px">T^-1</text><rect x="305.2744140625" y="275.0" width="42.990234375" height="40" stroke="black" fill="white" stroke-width="1" /><text x="326.76953125" y="295.0" dominant-baseline="middle" text-anchor="middle" font-size="14px">T^-1</text><circle cx="388.2646484375" cy="145.0" r="10.0" /><rect x="368.2646484375" y="175.0" width="40" height="40" stroke="black" fill="white" stroke-width="1" /><text x="388.2646484375" y="195.0" dominant-baseline="middle" text-anchor="middle" font-size="18px">X</text><rect x="368.2646484375" y="225.0" width="40" height="40" stroke="black" fill="white" stroke-width="1" /><text x="388.2646484375" y="245.0" dominant-baseline="middle" text-anchor="middle" font-size="18px">X</text><circle cx="448.2646484375" cy="195.0" r="10.0" /><rect x="428.2646484375" y="275.0" width="40" height="40" stroke="black" fill="white" stroke-width="1" /><text x="448.2646484375" y="295.0" dominant-baseline="middle" text-anchor="middle" font-size="18px">X</text><rect x="488.2646484375" y="225.0" width="40" height="40" stroke="black" fill="white" stroke-width="1" /><text x="508.2646484375" y="245.0" dominant-baseline="middle" text-anchor="middle" font-size="18px">T</text><rect x="488.2646484375" y="275.0" width="40" height="40" stroke="black" fill="white" stroke-width="1" /><text x="508.2646484375" y="295.0" dominant-baseline="middle" text-anchor="middle" font-size="18px">T</text><circle cx="568.2646484375" cy="95.0" r="10.0" /><rect x="548.2646484375" y="225.0" width="40" height="40" stroke="black" fill="white" stroke-width="1" /><text x="568.2646484375" y="245.0" dominant-baseline="middle" text-anchor="middle" font-size="18px">X</text><rect x="548.2646484375" y="275.0" width="40" height="40" stroke="black" fill="white" stroke-width="1" /><text x="568.2646484375" y="295.0" dominant-baseline="middle" text-anchor="middle" font-size="18px">X</text><rect x="608.2646484375" y="225.0" width="42.990234375" height="40" stroke="black" fill="white" stroke-width="1" /><text x="629.759765625" y="245.0" dominant-baseline="middle" text-anchor="middle" font-size="14px">T^-1</text><rect x="608.2646484375" y="275.0" width="42.990234375" height="40" stroke="black" fill="white" stroke-width="1" /><text x="629.759765625" y="295.0" dominant-baseline="middle" text-anchor="middle" font-size="14px">T^-1</text><rect x="671.2548828125" y="225.0" width="40" height="40" stroke="black" fill="white" stroke-width="1" /><text x="691.2548828125" y="245.0" dominant-baseline="middle" text-anchor="middle" font-size="18px">H</text><rect x="671.2548828125" y="275.0" width="40" height="40" stroke="black" fill="white" stroke-width="1" /><text x="691.2548828125" y="295.0" dominant-baseline="middle" text-anchor="middle" font-size="18px">H</text><circle cx="741.2548828125" cy="245.0" r="10.0" /><rect x="721.2548828125" y="125.0" width="40" height="40" stroke="black" fill="white" stroke-width="1" /><text x="741.2548828125" y="145.0" dominant-baseline="middle" text-anchor="middle" font-size="18px">X</text><circle cx="781.2548828125" cy="295.0" r="10.0" /><rect x="761.2548828125" y="175.0" width="40" height="40" stroke="black" fill="white" stroke-width="1" /><text x="781.2548828125" y="195.0" dominant-baseline="middle" text-anchor="middle" font-size="18px">X</text><rect x="831.2548828125" y="125.0" width="40" height="40" stroke="black" fill="white" stroke-width="1" /><text x="851.2548828125" y="145.0" dominant-baseline="middle" text-anchor="middle" font-size="18px">T</text><rect x="831.2548828125" y="175.0" width="40" height="40" stroke="black" fill="white" stroke-width="1" /><text x="851.2548828125" y="195.0" dominant-baseline="middle" text-anchor="middle" font-size="18px">T</text><rect x="831.2548828125" y="225.0" width="40" height="40" stroke="black" fill="white" stroke-width="1" /><text x="851.2548828125" y="245.0" dominant-baseline="middle" text-anchor="middle" font-size="18px">T</text><rect x="831.2548828125" y="275.0" width="40" height="40" stroke="black" fill="white" stroke-width="1" /><text x="851.2548828125" y="295.0" dominant-baseline="middle" text-anchor="middle" font-size="18px">T</text><circle cx="901.2548828125" cy="445.0" r="10.0" /><rect x="881.2548828125" y="125.0" width="40" height="40" stroke="black" fill="white" stroke-width="1" /><text x="901.2548828125" y="145.0" dominant-baseline="middle" text-anchor="middle" font-size="18px">X</text><circle cx="941.2548828125" cy="345.0" r="10.0" /><rect x="921.2548828125" y="175.0" width="40" height="40" stroke="black" fill="white" stroke-width="1" /><text x="941.2548828125" y="195.0" dominant-baseline="middle" text-anchor="middle" font-size="18px">X</text><circle cx="981.2548828125" cy="495.0" r="10.0" /><rect x="961.2548828125" y="225.0" width="40" height="40" stroke="black" fill="white" stroke-width="1" /><text x="981.2548828125" y="245.0" dominant-baseline="middle" text-anchor="middle" font-size="18px">X</text><circle cx="1021.2548828125" cy="395.0" r="10.0" /><rect x="1001.2548828125" y="275.0" width="40" height="40" stroke="black" fill="white" stroke-width="1" /><text x="1021.2548828125" y="295.0" dominant-baseline="middle" text-anchor="middle" font-size="18px">X</text><rect x="1071.2548828125" y="125.0" width="42.990234375" height="40" stroke="black" fill="white" stroke-width="1" /><text x="1092.75" y="145.0" dominant-baseline="middle" text-anchor="middle" font-size="14px">T^-1</text><rect x="1071.2548828125" y="175.0" width="42.990234375" height="40" stroke="black" fill="white" stroke-width="1" /><text x="1092.75" y="195.0" dominant-baseline="middle" text-anchor="middle" font-size="14px">T^-1</text><rect x="1071.2548828125" y="225.0" width="42.990234375" height="40" stroke="black" fill="white" stroke-width="1" /><text x="1092.75" y="245.0" dominant-baseline="middle" text-anchor="middle" font-size="14px">T^-1</text><rect x="1071.2548828125" y="275.0" width="42.990234375" height="40" stroke="black" fill="white" stroke-width="1" /><text x="1092.75" y="295.0" dominant-baseline="middle" text-anchor="middle" font-size="14px">T^-1</text><circle cx="1154.2451171875" cy="545.0" r="10.0" /><rect x="1134.2451171875" y="475.0" width="40" height="40" stroke="black" fill="white" stroke-width="1" /><text x="1154.2451171875" y="495.0" dominant-baseline="middle" text-anchor="middle" font-size="18px">X</text><rect x="1134.2451171875" y="225.0" width="40" height="40" stroke="black" fill="white" stroke-width="1" /><text x="1154.2451171875" y="245.0" dominant-baseline="middle" text-anchor="middle" font-size="18px">X</text><rect x="1134.2451171875" y="425.0" width="40" height="40" stroke="black" fill="white" stroke-width="1" /><text x="1154.2451171875" y="445.0" dominant-baseline="middle" text-anchor="middle" font-size="18px">X</text><rect x="1134.2451171875" y="125.0" width="40" height="40" stroke="black" fill="white" stroke-width="1" /><text x="1154.2451171875" y="145.0" dominant-baseline="middle" text-anchor="middle" font-size="18px">X</text><rect x="1134.2451171875" y="375.0" width="40" height="40" stroke="black" fill="white" stroke-width="1" /><text x="1154.2451171875" y="395.0" dominant-baseline="middle" text-anchor="middle" font-size="18px">X</text><rect x="1134.2451171875" y="275.0" width="40" height="40" stroke="black" fill="white" stroke-width="1" /><text x="1154.2451171875" y="295.0" dominant-baseline="middle" text-anchor="middle" font-size="18px">X</text><rect x="1134.2451171875" y="325.0" width="40" height="40" stroke="black" fill="white" stroke-width="1" /><text x="1154.2451171875" y="345.0" dominant-baseline="middle" text-anchor="middle" font-size="18px">X</text><rect x="1134.2451171875" y="175.0" width="40" height="40" stroke="black" fill="white" stroke-width="1" /><text x="1154.2451171875" y="195.0" dominant-baseline="middle" text-anchor="middle" font-size="18px">X</text><rect x="1194.2451171875" y="125.0" width="40" height="40" stroke="black" fill="white" stroke-width="1" /><text x="1214.2451171875" y="145.0" dominant-baseline="middle" text-anchor="middle" font-size="18px">T</text><rect x="1194.2451171875" y="175.0" width="40" height="40" stroke="black" fill="white" stroke-width="1" /><text x="1214.2451171875" y="195.0" dominant-baseline="middle" text-anchor="middle" font-size="18px">T</text><rect x="1194.2451171875" y="225.0" width="40" height="40" stroke="black" fill="white" stroke-width="1" /><text x="1214.2451171875" y="245.0" dominant-baseline="middle" text-anchor="middle" font-size="18px">T</text><rect x="1194.2451171875" y="275.0" width="40" height="40" stroke="black" fill="white" stroke-width="1" /><text x="1214.2451171875" y="295.0" dominant-baseline="middle" text-anchor="middle" font-size="18px">T</text><rect x="1254.2451171875" y="325.0" width="42.990234375" height="40" stroke="black" fill="white" stroke-width="1" /><text x="1275.740234375" y="345.0" dominant-baseline="middle" text-anchor="middle" font-size="14px">T^-1</text><rect x="1254.2451171875" y="375.0" width="42.990234375" height="40" stroke="black" fill="white" stroke-width="1" /><text x="1275.740234375" y="395.0" dominant-baseline="middle" text-anchor="middle" font-size="14px">T^-1</text><rect x="1254.2451171875" y="425.0" width="42.990234375" height="40" stroke="black" fill="white" stroke-width="1" /><text x="1275.740234375" y="445.0" dominant-baseline="middle" text-anchor="middle" font-size="14px">T^-1</text><rect x="1254.2451171875" y="475.0" width="42.990234375" height="40" stroke="black" fill="white" stroke-width="1" /><text x="1275.740234375" y="495.0" dominant-baseline="middle" text-anchor="middle" font-size="14px">T^-1</text><circle cx="1337.2353515625" cy="545.0" r="10.0" /><rect x="1317.2353515625" y="475.0" width="40" height="40" stroke="black" fill="white" stroke-width="1" /><text x="1337.2353515625" y="495.0" dominant-baseline="middle" text-anchor="middle" font-size="18px">X</text><rect x="1317.2353515625" y="425.0" width="40" height="40" stroke="black" fill="white" stroke-width="1" /><text x="1337.2353515625" y="445.0" dominant-baseline="middle" text-anchor="middle" font-size="18px">X</text><rect x="1317.2353515625" y="375.0" width="40" height="40" stroke="black" fill="white" stroke-width="1" /><text x="1337.2353515625" y="395.0" dominant-baseline="middle" text-anchor="middle" font-size="18px">X</text><rect x="1317.2353515625" y="325.0" width="40" height="40" stroke="black" fill="white" stroke-width="1" /><text x="1337.2353515625" y="345.0" dominant-baseline="middle" text-anchor="middle" font-size="18px">X</text><circle cx="1387.2353515625" cy="445.0" r="10.0" /><rect x="1367.2353515625" y="125.0" width="40" height="40" stroke="black" fill="white" stroke-width="1" /><text x="1387.2353515625" y="145.0" dominant-baseline="middle" text-anchor="middle" font-size="18px">X</text><circle cx="1427.2353515625" cy="345.0" r="10.0" /><rect x="1407.2353515625" y="175.0" width="40" height="40" stroke="black" fill="white" stroke-width="1" /><text x="1427.2353515625" y="195.0" dominant-baseline="middle" text-anchor="middle" font-size="18px">X</text><circle cx="1467.2353515625" cy="495.0" r="10.0" /><rect x="1447.2353515625" y="225.0" width="40" height="40" stroke="black" fill="white" stroke-width="1" /><text x="1467.2353515625" y="245.0" dominant-baseline="middle" text-anchor="middle" font-size="18px">X</text><circle cx="1507.2353515625" cy="395.0" r="10.0" /><rect x="1487.2353515625" y="275.0" width="40" height="40" stroke="black" fill="white" stroke-width="1" /><text x="1507.2353515625" y="295.0" dominant-baseline="middle" text-anchor="middle" font-size="18px">X</text><rect x="1557.2353515625" y="125.0" width="42.990234375" height="40" stroke="black" fill="white" stroke-width="1" /><text x="1578.73046875" y="145.0" dominant-baseline="middle" text-anchor="middle" font-size="14px">T^-1</text><rect x="1557.2353515625" y="175.0" width="42.990234375" height="40" stroke="black" fill="white" stroke-width="1" /><text x="1578.73046875" y="195.0" dominant-baseline="middle" text-anchor="middle" font-size="14px">T^-1</text><rect x="1557.2353515625" y="225.0" width="42.990234375" height="40" stroke="black" fill="white" stroke-width="1" /><text x="1578.73046875" y="245.0" dominant-baseline="middle" text-anchor="middle" font-size="14px">T^-1</text><rect x="1557.2353515625" y="275.0" width="42.990234375" height="40" stroke="black" fill="white" stroke-width="1" /><text x="1578.73046875" y="295.0" dominant-baseline="middle" text-anchor="middle" font-size="14px">T^-1</text><circle cx="1640.2255859375" cy="545.0" r="10.0" /><rect x="1620.2255859375" y="225.0" width="40" height="40" stroke="black" fill="white" stroke-width="1" /><text x="1640.2255859375" y="245.0" dominant-baseline="middle" text-anchor="middle" font-size="18px">X</text><rect x="1620.2255859375" y="125.0" width="40" height="40" stroke="black" fill="white" stroke-width="1" /><text x="1640.2255859375" y="145.0" dominant-baseline="middle" text-anchor="middle" font-size="18px">X</text><rect x="1620.2255859375" y="275.0" width="40" height="40" stroke="black" fill="white" stroke-width="1" /><text x="1640.2255859375" y="295.0" dominant-baseline="middle" text-anchor="middle" font-size="18px">X</text><rect x="1620.2255859375" y="175.0" width="40" height="40" stroke="black" fill="white" stroke-width="1" /><text x="1640.2255859375" y="195.0" dominant-baseline="middle" text-anchor="middle" font-size="18px">X</text><rect x="1680.2255859375" y="525.0" width="40" height="40" stroke="black" fill="white" stroke-width="1" /><text x="1700.2255859375" y="545.0" dominant-baseline="middle" text-anchor="middle" font-size="18px">H</text><circle cx="1750.2255859375" cy="245.0" r="10.0" /><rect x="1730.2255859375" y="125.0" width="40" height="40" stroke="black" fill="white" stroke-width="1" /><text x="1750.2255859375" y="145.0" dominant-baseline="middle" text-anchor="middle" font-size="18px">X</text><circle cx="1790.2255859375" cy="295.0" r="10.0" /><rect x="1770.2255859375" y="175.0" width="40" height="40" stroke="black" fill="white" stroke-width="1" /><text x="1790.2255859375" y="195.0" dominant-baseline="middle" text-anchor="middle" font-size="18px">X</text><rect x="1840.2255859375" y="225.0" width="40" height="40" stroke="black" fill="white" stroke-width="1" /><text x="1860.2255859375" y="245.0" dominant-baseline="middle" text-anchor="middle" font-size="18px">H</text><rect x="1840.2255859375" y="275.0" width="40" height="40" stroke="black" fill="white" stroke-width="1" /><text x="1860.2255859375" y="295.0" dominant-baseline="middle" text-anchor="middle" font-size="18px">H</text><rect x="1900.2255859375" y="225.0" width="40" height="40" stroke="black" fill="white" stroke-width="1" /><text x="1920.2255859375" y="245.0" dominant-baseline="middle" text-anchor="middle" font-size="18px">T</text><rect x="1900.2255859375" y="275.0" width="40" height="40" stroke="black" fill="white" stroke-width="1" /><text x="1920.2255859375" y="295.0" dominant-baseline="middle" text-anchor="middle" font-size="18px">T</text><circle cx="1980.2255859375" cy="95.0" r="10.0" /><rect x="1960.2255859375" y="225.0" width="40" height="40" stroke="black" fill="white" stroke-width="1" /><text x="1980.2255859375" y="245.0" dominant-baseline="middle" text-anchor="middle" font-size="18px">X</text><rect x="1960.2255859375" y="275.0" width="40" height="40" stroke="black" fill="white" stroke-width="1" /><text x="1980.2255859375" y="295.0" dominant-baseline="middle" text-anchor="middle" font-size="18px">X</text><rect x="2020.2255859375" y="225.0" width="42.990234375" height="40" stroke="black" fill="white" stroke-width="1" /><text x="2041.720703125" y="245.0" dominant-baseline="middle" text-anchor="middle" font-size="14px">T^-1</text><rect x="2020.2255859375" y="275.0" width="42.990234375" height="40" stroke="black" fill="white" stroke-width="1" /><text x="2041.720703125" y="295.0" dominant-baseline="middle" text-anchor="middle" font-size="14px">T^-1</text><circle cx="2103.2158203125" cy="195.0" r="10.0" /><rect x="2083.2158203125" y="275.0" width="40" height="40" stroke="black" fill="white" stroke-width="1" /><text x="2103.2158203125" y="295.0" dominant-baseline="middle" text-anchor="middle" font-size="18px">X</text><circle cx="2163.2158203125" cy="145.0" r="10.0" /><rect x="2143.2158203125" y="175.0" width="40" height="40" stroke="black" fill="white" stroke-width="1" /><text x="2163.2158203125" y="195.0" dominant-baseline="middle" text-anchor="middle" font-size="18px">X</text><rect x="2143.2158203125" y="225.0" width="40" height="40" stroke="black" fill="white" stroke-width="1" /><text x="2163.2158203125" y="245.0" dominant-baseline="middle" text-anchor="middle" font-size="18px">X</text><rect x="2203.2158203125" y="225.0" width="40" height="40" stroke="black" fill="white" stroke-width="1" /><text x="2223.2158203125" y="245.0" dominant-baseline="middle" text-anchor="middle" font-size="18px">T</text><rect x="2203.2158203125" y="275.0" width="40" height="40" stroke="black" fill="white" stroke-width="1" /><text x="2223.2158203125" y="295.0" dominant-baseline="middle" text-anchor="middle" font-size="18px">T</text><circle cx="2273.2158203125" cy="95.0" r="10.0" /><rect x="2253.2158203125" y="225.0" width="40" height="40" stroke="black" fill="white" stroke-width="1" /><text x="2273.2158203125" y="245.0" dominant-baseline="middle" text-anchor="middle" font-size="18px">X</text><rect x="2253.2158203125" y="275.0" width="40" height="40" stroke="black" fill="white" stroke-width="1" /><text x="2273.2158203125" y="295.0" dominant-baseline="middle" text-anchor="middle" font-size="18px">X</text><circle cx="2313.2158203125" cy="45.0" r="10.0" /><rect x="2293.2158203125" y="125.0" width="40" height="40" stroke="black" fill="white" stroke-width="1" /><text x="2313.2158203125" y="145.0" dominant-baseline="middle" text-anchor="middle" font-size="18px">X</text><rect x="2363.2158203125" y="225.0" width="42.990234375" height="40" stroke="black" fill="white" stroke-width="1" /><text x="2384.7109375" y="245.0" dominant-baseline="middle" text-anchor="middle" font-size="14px">T^-1</text><rect x="2363.2158203125" y="275.0" width="42.990234375" height="40" stroke="black" fill="white" stroke-width="1" /><text x="2384.7109375" y="295.0" dominant-baseline="middle" text-anchor="middle" font-size="14px">T^-1</text><rect x="2426.2060546875" y="225.0" width="40" height="40" stroke="black" fill="white" stroke-width="1" /><text x="2446.2060546875" y="245.0" dominant-baseline="middle" text-anchor="middle" font-size="18px">H</text><rect x="2426.2060546875" y="275.0" width="40" height="40" stroke="black" fill="white" stroke-width="1" /><text x="2446.2060546875" y="295.0" dominant-baseline="middle" text-anchor="middle" font-size="18px">H</text></svg>