<svg xmlns="http://www.w3.org/2000/svg" width="1667.2353515625" height="390.0"><line x1="37.63720703125" x2="1637.2353515625" y1="45.0" y2="45.0" stroke="#1967d2" stroke-width="1" /><line x1="37.63720703125" x2="1637.2353515625" y1="95.0" y2="95.0" stroke="#1967d2" stroke-width="1" /><line x1="37.63720703125" x2="1637.2353515625" y1="145.0" y2="145.0" stroke="#1967d2" stroke-width="1" /><line x1="37.63720703125" x2="1637.2353515625" y1="195.0" y2="195.0" stroke="#1967d2" stroke-width="1" /><line x1="37.63720703125" x2="1637.2353515625" y1="245.0" y2="245.0" stroke="#1967d2" stroke-width="1" /><line x1="37.63720703125" x2="1637.2353515625" y1="295.0" y2="295.0" stroke="#1967d2" stroke-width="1" /><line x1="37.63720703125" x2="1637.2353515625" y1="345.0" y2="345.0" stroke="#1967d2" stroke-width="1" /><line x1="1404.2451171875" x2="1494.2451171875" y1="5.0" y2="5.0" stroke="black" stroke-width="1" /><line x1="1404.2451171875" x2="1494.2451171875" y1="385.0" y2="385.0" stroke="black" stroke-width="1" /><line x1="881.2548828125" x2="971.2548828125" y1="5.0" y2="5.0" stroke="black" stroke-width="1" /><line x1="881.2548828125" x2="971.2548828125" y1="385.0" y2="385.0" stroke="black" stroke-width="1" /><line x1="721.2548828125" x2="811.2548828125" y1="5.0" y2="5.0" stroke="black" stroke-width="1" /><line x1="721.2548828125" x2="811.2548828125" y1="385.0" y2="385.0" stroke="black" stroke-width="1" /><line x1="195.2744140625" x2="285.2744140625" y1="5.0" y2="5.0" stroke="black" stroke-width="1" /><line x1="195.2744140625" x2="285.2744140625" y1="385.0" y2="385.0" stroke="black" stroke-width="1" /><line x1="215.2744140625" x2="215.2744140625" y1="95.0" y2="295.0" stroke="black" stroke-width="3" /><line x1="255.2744140625" x2="255.2744140625" y1="45.0" y2="145.0" stroke="black" stroke-width="3" /><line x1="388.2646484375" x2="388.2646484375" y1="145.0" y2="245.0" stroke="black" stroke-width="3" /><line x1="448.2646484375" x2="448.2646484375" y1="195.0" y2="295.0" stroke="black" stroke-width="3" /><line x1="568.2646484375" x2="568.2646484375" y1="95.0" y2="295.0" stroke="black" stroke-width="3" /><line x1="741.2548828125" x2="741.2548828125" y1="145.0" y2="245.0" stroke="black" stroke-width="3" /><line x1="781.2548828125" x2="781.2548828125" y1="195.0" y2="295.0" stroke="black" stroke-width="3" /><line x1="851.2548828125" x2="851.2548828125" y1="45.0" y2="345.0" stroke="black" stroke-width="3" /><line x1="901.2548828125" x2="901.2548828125" y1="145.0" y2="245.0" stroke="black" stroke-width="3" /><line x1="941.2548828125" x2="941.2548828125" y1="195.0" y2="295.0" stroke="black" stroke-width="3" /><line x1="1131.2548828125" x2="1131.2548828125" y1="95.0" y2="295.0" stroke="black" stroke-width="3" /><line x1="1254.2451171875" x2="1254.2451171875" y1="195.0" y2="295.0" stroke="black" stroke-width="3" /><line x1="1314.2451171875" x2="1314.2451171875" y1="145.0" y2="245.0" stroke="black" stroke-width="3" /><line x1="1424.2451171875" x2="1424.2451171875" y1="95.0" y2="295.0" stroke="black" stroke-width="3" /><line x1="1464.2451171875" x2="1464.2451171875" y1="45.0" y2="145.0" stroke="black" stroke-width="3" /><line x1="1404.2451171875" x2="1404.2451171875" y1="5.0" y2="15.0" stroke="black" stroke-width="3" /><line x1="1494.2451171875" x2="1494.2451171875" y1="5.0" y2="15.0" stroke="black" stroke-width="3" /><line x1="1404.2451171875" x2="1404.2451171875" y1="375.0" y2="385.0" stroke="black" stroke-width="3" /><line x1="1494.2451171875" x2="1494.2451171875" y1="375.0" y2="385.0" stroke="black" stroke-width="3" /><line x1="881.2548828125" x2="881.2548828125" y1="5.0" y2="15.0" stroke="black" stroke-width="3" /><line x1="971.2548828125" x2="971.2548828125" y1="5.0" y2="15.0" stroke="black" stroke-width="3" /><line x1="881.2548828125" x2="881.2548828125" y1="375.0" y2="385.0" stroke="black" stroke-width="3" /><line x1="971.2548828125" x2="971.2548828125" y1="375.0" y2="385.0" stroke="black" stroke-width="3" /><line x1="721.2548828125" x2="721.2548828125" y1="5.0" y2="15.0" stroke="black" stroke-width="3" /><line x1="811.2548828125" x2="811.2548828125" y1="5.0" y2="15.0" stroke="black" stroke-width="3" /><line x1="721.2548828125" x2="721.2548828125" y1="375.0" y2="385.0" stroke="black" stroke-width="3" /><line x1="811.2548828125" x2="811.2548828125" y1="375.0" y2="385.0" stroke="black" stroke-width="3" /><line x1="195.2744140625" x2="195.2744140625" y1="5.0" y2="15.0" stroke="black" stroke-width="3" /><line x1="285.2744140625" x2="285.2744140625" y1="5.0" y2="15.0" stroke="black" stroke-width="3" /><line x1="195.2744140625" x2="195.2744140625" y1="375.0" y2="385.0" stroke="black" stroke-width="3" /><line x1="285.2744140625" x2="285.2744140625" y1="375.0" y2="385.0" stroke="black" stroke-width="3" /><rect x="10.0" y="25.0" width="55.2744140625" height="40" stroke="black" fill="white" stroke-width="0" /><text x="37.63720703125" y="45.0" dominant-baseline="middle" text-anchor="middle" font-size="14px">a0: </text><rect x="10.0" y="75.0" width="55.2744140625" height="40" stroke="black" fill="white" stroke-width="0" /><text x="37.63720703125" y="95.0" dominant-baseline="middle" text-anchor="middle" font-size="14px">a1: </text><rect x="10.0" y="125.0" width="55.2744140625" height="40" stroke="black" fill="white" stroke-width="0" /><text x="37.63720703125" y="145.0" dominant-baseline="middle" text-anchor="middle" font-size="14px">b_00: </text><rect x="10.0" y="175.0" width="55.2744140625" height="40" stroke="black" fill="white" stroke-width="0" /><text x="37.63720703125" y="195.0" dominant-baseline="middle" text-anchor="middle" font-size="14px">b_01: </text><rect x="10.0" y="225.0" width="55.2744140625" height="40" stroke="black" fill="white" stroke-width="0" /><text x="37.63720703125" y="245.0" dominant-baseline="middle" text-anchor="middle" font-size="14px">b_10: </text><rect x="10.0" y="275.0" width="55.2744140625" height="40" stroke="black" fill="white" stroke-width="0" /><text x="37.63720703125" y="295.0" dominant-baseline="middle" text-anchor="middle" font-size="14px">b_11: </text><rect x="10.0" y="325.0" width="55.2744140625" height="40" stroke="black" fill="white" stroke-width="0" /><text x="37.63720703125" y="345.0" dominant-baseline="middle" text-anchor="middle" font-size="14px">target: </text><rect x="85.2744140625" y="225.0" width="40" height="40" stroke="black" fill="white" stroke-width="1" /><text x="105.2744140625" y="245.0" dominant-baseline="middle" text-anchor="middle" font-size="18px">H</text><rect x="85.2744140625" y="275.0" width="40" height="40" stroke="black" fill="white" stroke-width="1" /><text x="105.2744140625" y="295.0" dominant-baseline="middle" text-anchor="middle" font-size="18px">H</text><rect x="145.2744140625" y="225.0" width="40" height="40" stroke="black" fill="white" stroke-width="1" /><text x="165.2744140625" y="245.0" dominant-baseline="middle" text-anchor="middle" font-size="18px">T</text><rect x="145.2744140625" y="275.0" width="40" height="40" stroke="black" fill="white" stroke-width="1" /><text x="165.2744140625" y="295.0" dominant-baseline="middle" text-anchor="middle" font-size="18px">T</text><circle cx="215.2744140625" cy="95.0" r="10.0" /><rect x="195.2744140625" y="225.0" width="40" height="40" stroke="black" fill="white" stroke-width="1" /><text x="215.2744140625" y="245.0" dominant-baseline="middle" text-anchor="middle" font-size="18px">X</text><rect x="195.2744140625" y="275.0" width="40" height="40" stroke="black" fill="white" stroke-width="1" /><text x="215.2744140625" y="295.0" dominant-baseline="middle" text-anchor="middle" font-size="18px">X</text><circle cx="255.2744140625" cy="45.0" r="10.0" /><rect x="235.2744140625" y="125.0" width="40" height="40" stroke="black" fill="white" stroke-width="1" /><text x="255.2744140625" y="145.0" dominant-baseline="middle" text-anchor="middle" font-size="18px">X</text><rect x="305.2744140625" y="225.0" width="42.990234375" height="40" stroke="black" fill="white" stroke-width="1" /><text x="326.76953125" y="245.0" dominant-baseline="middle" text-anchor="middle" font-size="14px">T^-1</text><rect x="305.2744140625" y="275.0" width="42.990234375" height="40" stroke="black" fill="white" stroke-width="1" /><text x="326.76953125" y="295.0" dominant-baseline="middle" text-anchor="middle" font-size="14px">T^-1</text><circle cx="388.2646484375" cy="145.0" r="10.0" /><rect x="368.2646484375" y="175.0" width="40" height="40" stroke="black" fill="white" stroke-width="1" /><text x="388.2646484375" y="195.0" dominant-baseline="middle" text-anchor="middle" font-size="18px">X</text><rect x="368.2646484375" y="225.0" width="40" height="40" stroke="black" fill="white" stroke-width="1" /><text x="388.2646484375" y="245.0" dominant-baseline="middle" text-anchor="middle" font-size="18px">X</text><circle cx="448.2646484375" cy="195.0" r="10.0" /><rect x="428.2646484375" y="275.0" width="40" height="40" stroke="black" fill="white" stroke-width="1" /><text x="448.2646484375" y="295.0" dominant-baseline="middle" text-anchor="middle" font-size="18px">X</text><rect x="488.2646484375" y="225.0" width="40" height="40" stroke="black" fill="white" stroke-width="1" /><text x="508.2646484375" y="245.0" dominant-baseline="middle" text-anchor="middle" font-size="18px">T</text><rect x="488.2646484375" y="275.0" width="40" height="40" stroke="black" fill="white" stroke-width="1" /><text x="508.2646484375" y="295.0" dominant-baseline="middle" text-anchor="middle" font-size="18px">T</text><circle cx="568.2646484375" cy="95.0" r="10.0" /><rect x="548.2646484375" y="225.0" width="40" height="40" stroke="black" fill="white" stroke-width="1" /><text x="568.2646484375" y="245.0" dominant-baseline="middle" text-anchor="middle" font-size="18px">X</text><rect x="548.2646484375" y="275.0" width="40" height="40" stroke="black" fill="white" stroke-width="1" /><text x="568.2646484375" y="295.0" dominant-baseline="middle" text-anchor="middle" font-size="18px">X</text><rect x="608.2646484375" y="225.0" width="42.990234375" height="40" stroke="black" fill="white" stroke-width="1" /><text x="629.759765625" y="245.0" dominant-baseline="middle" text-anchor="middle" font-size="14px">T^-1</text><rect x="608.2646484375" y="275.0" width="42.990234375" height="40" stroke="black" fill="white" stroke-width="1" /><text x="629.759765625" y="295.0" dominant-baseline="middle" text-anchor="middle" font-size="14px">T^-1</text><rect x="671.2548828125" y="225.0" width="40" height="40" stroke="black" fill="white" stroke-width="1" /><text x="691.2548828125" y="245.0" dominant-baseline="middle" text-anchor="middle" font-size="18px">H</text><rect x="671.2548828125" y="275.0" width="40" height="40" stroke="black" fill="white" stroke-width="1" /><text x="691.2548828125" y="295.0" dominant-baseline="middle" text-anchor="middle" font-size="18px">H</text><circle cx="741.2548828125" cy="245.0" r="10.0" /><rect x="721.2548828125" y="125.0" width="40" height="40" stroke="black" fill="white" stroke-width="1" /><text x="741.2548828125" y="145.0" dominant-baseline="middle" text-anchor="middle" font-size="18px">X</text><circle cx="781.2548828125" cy="295.0" r="10.0" /><rect x="761.2548828125" y="175.0" width="40" height="40" stroke="black" fill="white" stroke-width="1" /><text x="781.2548828125" y="195.0" dominant-baseline="middle" text-anchor="middle" font-size="18px">X</text><circle cx="851.2548828125" cy="45.0" r="10.0" /><circle cx="851.2548828125" cy="345.0" r="10.0" /><circle cx="901.2548828125" cy="245.0" r="10.0" /><rect x="881.2548828125" y="125.0" width="40" height="40" stroke="black" fill="white" stroke-width="1" /><text x="901.2548828125" y="145.0" dominant-baseline="middle" text-anchor="middle" font-size="18px">X</text><circle cx="941.2548828125" cy="295.0" r="10.0" /><rect x="921.2548828125" y="175.0" width="40" height="40" stroke="black" fill="white" stroke-width="1" /><text x="941.2548828125" y="195.0" dominant-baseline="middle" text-anchor="middle" font-size="18px">X</text><rect x="991.2548828125" y="225.0" width="40" height="40" stroke="black" fill="white" stroke-width="1" /><text x="1011.2548828125" y="245.0" dominant-baseline="middle" text-anchor="middle" font-size="18px">H</text><rect x="991.2548828125" y="275.0" width="40" height="40" stroke="black" fill="white" stroke-width="1" /><text x="1011.2548828125" y="295.0" dominant-baseline="middle" text-anchor="middle" font-size="18px">H</text><rect x="1051.2548828125" y="225.0" width="40" height="40" stroke="black" fill="white" stroke-width="1" /><text x="1071.2548828125" y="245.0" dominant-baseline="middle" text-anchor="middle" font-size="18px">T</text><rect x="1051.2548828125" y="275.0" width="40" height="40" stroke="black" fill="white" stroke-width="1" /><text x="1071.2548828125" y="295.0" dominant-baseline="middle" text-anchor="middle" font-size="18px">T</text><circle cx="1131.2548828125" cy="95.0" r="10.0" /><rect x="1111.2548828125" y="225.0" width="40" height="40" stroke="black" fill="white" stroke-width="1" /><text x="1131.2548828125" y="245.0" dominant-baseline="middle" text-anchor="middle" font-size="18px">X</text><rect x="1111.2548828125" y="275.0" width="40" height="40" stroke="black" fill="white" stroke-width="1" /><text x="1131.2548828125" y="295.0" dominant-baseline="middle" text-anchor="middle" font-size="18px">X</text><rect x="1171.2548828125" y="225.0" width="42.990234375" height="40" stroke="black" fill="white" stroke-width="1" /><text x="1192.75" y="245.0" dominant-baseline="middle" text-anchor="middle" font-size="14px">T^-1</text><rect x="1171.2548828125" y="275.0" width="42.990234375" height="40" stroke="black" fill="white" stroke-width="1" /><text x="1192.75" y="295.0" dominant-baseline="middle" text-anchor="middle" font-size="14px">T^-1</text><circle cx="1254.2451171875" cy="195.0" r="10.0" /><rect x="1234.2451171875" y="275.0" width="40" height="40" stroke="black" fill="white" stroke-width="1" /><text x="1254.2451171875" y="295.0" dominant-baseline="middle" text-anchor="middle" font-size="18px">X</text><circle cx="1314.2451171875" cy="145.0" r="10.0" /><rect x="1294.2451171875" y="175.0" width="40" height="40" stroke="black" fill="white" stroke-width="1" /><text x="1314.2451171875" y="195.0" dominant-baseline="middle" text-anchor="middle" font-size="18px">X</text><rect x="1294.2451171875" y="225.0" width="40" height="40" stroke="black" fill="white" stroke-width="1" /><text x="1314.2451171875" y="245.0" dominant-baseline="middle" text-anchor="middle" font-size="18px">X</text><rect x="1354.2451171875" y="225.0" width="40" height="40" stroke="black" fill="white" stroke-width="1" /><text x="1374.2451171875" y="245.0" dominant-baseline="middle" text-anchor="middle" font-size="18px">T</text><rect x="1354.2451171875" y="275.0" width="40" height="40" stroke="black" fill="white" stroke-width="1" /><text x="1374.2451171875" y="295.0" dominant-baseline="middle" text-anchor="middle" font-size="18px">T</text><circle cx="1424.2451171875" cy="95.0" r="10.0" /><rect x="1404.2451171875" y="225.0" width="40" height="40" stroke="black" fill="white" stroke-width="1" /><text x="1424.2451171875" y="245.0" dominant-baseline="middle" text-anchor="middle" font-size="18px">X</text><rect x="1404.2451171875" y="275.0" width="40" height="40" stroke="black" fill="white" stroke-width="1" /><text x="1424.2451171875" y="295.0" dominant-baseline="middle" text-anchor="middle" font-size="18px">X</text><circle cx="1464.2451171875" cy="45.0" r="10.0" /><rect x="1444.2451171875" y="125.0" width="40" height="40" stroke="black" fill="white" stroke-width="1" /><text x="1464.2451171875" y="145.0" dominant-baseline="middle" text-anchor="middle" font-size="18px">X</text><rect x="1514.2451171875" y="225.0" width="42.990234375" height="40" stroke="black" fill="white" stroke-width="1" /><text x="1535.740234375" y="245.0" dominant-baseline="middle" text-anchor="middle" font-size="14px">T^-1</text><rect x="1514.2451171875" y="275.0" width="42.990234375" height="40" stroke="black" fill="white" stroke-width="1" /><text x="1535.740234375" y="295.0" dominant-baseline="middle" text-anchor="middle" font-size="14px">T^-1</text><rect x="1577.2353515625" y="225.0" width="40" height="40" stroke="black" fill="white" stroke-width="1" /><text x="1597.2353515625" y="245.0" dominant-baseline="middle" text-anchor="middle" font-size="18px">H</text><rect x="1577.2353515625" y="275.0" width="40" height="40" stroke="black" fill="white" stroke-width="1" /><text x="1597.2353515625" y="295.0" dominant-baseline="middle" text-anchor="middle" font-size="18px">H</text></svg>