<svg xmlns="http://www.w3.org/2000/svg" width="2793.2158203125" height="640.0"><line x1="37.63720703125" x2="2763.2158203125" y1="45.0" y2="45.0" stroke="#1967d2" stroke-width="1" /><line x1="37.63720703125" x2="2763.2158203125" y1="95.0" y2="95.0" stroke="#1967d2" stroke-width="1" /><line x1="37.63720703125" x2="2763.2158203125" y1="145.0" y2="145.0" stroke="#1967d2" stroke-width="1" /><line x1="37.63720703125" x2="2763.2158203125" y1="195.0" y2="195.0" stroke="#1967d2" stroke-width="1" /><line x1="37.63720703125" x2="2763.2158203125" y1="245.0" y2="245.0" stroke="#1967d2" stroke-width="1" /><line x1="37.63720703125" x2="2763.2158203125" y1="295.0" y2="295.0" stroke="#1967d2" stroke-width="1" /><line x1="37.63720703125" x2="2763.2158203125" y1="345.0" y2="345.0" stroke="#1967d2" stroke-width="1" /><line x1="37.63720703125" x2="2763.2158203125" y1="395.0" y2="395.0" stroke="#1967d2" stroke-width="1" /><line x1="37.63720703125" x2="2763.2158203125" y1="445.0" y2="445.0" stroke="#1967d2" stroke-width="1" /><line x1="37.63720703125" x2="2763.2158203125" y1="495.0" y2="495.0" stroke="#1967d2" stroke-width="1" /><line x1="37.63720703125" x2="2763.2158203125" y1="545.0" y2="545.0" stroke="#1967d2" stroke-width="1" /><line x1="37.63720703125" x2="2763.2158203125" y1="595.0" y2="595.0" stroke="#1967d2" stroke-width="1" /><line x1="2490.2255859375" x2="2620.2255859375" y1="5.0" y2="5.0" stroke="black" stroke-width="1" /><line x1="2490.2255859375" x2="2620.2255859375" y1="635.0" y2="635.0" stroke="black" stroke-width="1" /><line x1="1967.2353515625" x2="2057.2353515625" y1="5.0" y2="5.0" stroke="black" stroke-width="1" /><line x1="1967.2353515625" x2="2057.2353515625" y1="635.0" y2="635.0" stroke="black" stroke-width="1" /><line x1="1867.2353515625" x2="1957.2353515625" y1="5.0" y2="5.0" stroke="black" stroke-width="1" /><line x1="1867.2353515625" x2="1957.2353515625" y1="635.0" y2="635.0" stroke="black" stroke-width="1" /><line x1="1444.2451171875" x2="1614.2451171875" y1="5.0" y2="5.0" stroke="black" stroke-width="1" /><line x1="1444.2451171875" x2="1614.2451171875" y1="635.0" y2="635.0" stroke="black" stroke-width="1" /><line x1="1204.2451171875" x2="1374.2451171875" y1="5.0" y2="5.0" stroke="black" stroke-width="1" /><line x1="1204.2451171875" x2="1374.2451171875" y1="635.0" y2="635.0" stroke="black" stroke-width="1" /><line x1="861.2548828125" x2="951.2548828125" y1="5.0" y2="5.0" stroke="black" stroke-width="1" /><line x1="861.2548828125" x2="951.2548828125" y1="635.0" y2="635.0" stroke="black" stroke-width="1" /><line x1="761.2548828125" x2="851.2548828125" y1="5.0" y2="5.0" stroke="black" stroke-width="1" /><line x1="761.2548828125" x2="851.2548828125" y1="635.0" y2="635.0" stroke="black" stroke-width="1" /><line x1="195.2744140625" x2="325.2744140625" y1="5.0" y2="5.0" stroke="black" stroke-width="1" /><line x1="195.2744140625" x2="325.2744140625" y1="635.0" y2="635.0" stroke="black" stroke-width="1" /><line x1="215.2744140625" x2="215.2744140625" y1="95.0" y2="345.0" stroke="black" stroke-width="3" /><line x1="255.2744140625" x2="255.2744140625" y1="45.0" y2="195.0" stroke="black" stroke-width="3" /><line x1="295.2744140625" x2="295.2744140625" y1="145.0" y2="545.0" stroke="black" stroke-width="3" /><line x1="428.2646484375" x2="428.2646484375" y1="195.0" y2="295.0" stroke="black" stroke-width="3" /><line x1="488.2646484375" x2="488.2646484375" y1="245.0" y2="345.0" stroke="black" stroke-width="3" /><line x1="608.2646484375" x2="608.2646484375" y1="95.0" y2="345.0" stroke="black" stroke-width="3" /><line x1="781.2548828125" x2="781.2548828125" y1="195.0" y2="395.0" stroke="black" stroke-width="3" /><line x1="821.2548828125" x2="821.2548828125" y1="245.0" y2="495.0" stroke="black" stroke-width="3" /><line x1="881.2548828125" x2="881.2548828125" y1="195.0" y2="445.0" stroke="black" stroke-width="3" /><line x1="921.2548828125" x2="921.2548828125" y1="245.0" y2="545.0" stroke="black" stroke-width="3" /><line x1="1051.2548828125" x2="1051.2548828125" y1="145.0" y2="545.0" stroke="black" stroke-width="3" /><line x1="1224.2451171875" x2="1224.2451171875" y1="195.0" y2="445.0" stroke="black" stroke-width="3" /><line x1="1264.2451171875" x2="1264.2451171875" y1="245.0" y2="545.0" stroke="black" stroke-width="3" /><line x1="1304.2451171875" x2="1304.2451171875" y1="295.0" y2="395.0" stroke="black" stroke-width="3" /><line x1="1344.2451171875" x2="1344.2451171875" y1="345.0" y2="495.0" stroke="black" stroke-width="3" /><line x1="1414.2451171875" x2="1414.2451171875" y1="45.0" y2="595.0" stroke="black" stroke-width="3" /><line x1="1464.2451171875" x2="1464.2451171875" y1="195.0" y2="445.0" stroke="black" stroke-width="3" /><line x1="1504.2451171875" x2="1504.2451171875" y1="245.0" y2="545.0" stroke="black" stroke-width="3" /><line x1="1544.2451171875" x2="1544.2451171875" y1="295.0" y2="395.0" stroke="black" stroke-width="3" /><line x1="1584.2451171875" x2="1584.2451171875" y1="345.0" y2="495.0" stroke="black" stroke-width="3" /><line x1="1774.2451171875" x2="1774.2451171875" y1="145.0" y2="545.0" stroke="black" stroke-width="3" /><line x1="1887.2353515625" x2="1887.2353515625" y1="195.0" y2="445.0" stroke="black" stroke-width="3" /><line x1="1927.2353515625" x2="1927.2353515625" y1="245.0" y2="545.0" stroke="black" stroke-width="3" /><line x1="1987.2353515625" x2="1987.2353515625" y1="195.0" y2="395.0" stroke="black" stroke-width="3" /><line x1="2027.2353515625" x2="2027.2353515625" y1="245.0" y2="495.0" stroke="black" stroke-width="3" /><line x1="2217.2353515625" x2="2217.2353515625" y1="95.0" y2="345.0" stroke="black" stroke-width="3" /><line x1="2340.2255859375" x2="2340.2255859375" y1="245.0" y2="345.0" stroke="black" stroke-width="3" /><line x1="2400.2255859375" x2="2400.2255859375" y1="195.0" y2="295.0" stroke="black" stroke-width="3" /><line x1="2510.2255859375" x2="2510.2255859375" y1="95.0" y2="345.0" stroke="black" stroke-width="3" /><line x1="2550.2255859375" x2="2550.2255859375" y1="45.0" y2="195.0" stroke="black" stroke-width="3" /><line x1="2590.2255859375" x2="2590.2255859375" y1="145.0" y2="545.0" stroke="black" stroke-width="3" /><line x1="2490.2255859375" x2="2490.2255859375" y1="5.0" y2="15.0" stroke="black" stroke-width="3" /><line x1="2620.2255859375" x2="2620.2255859375" y1="5.0" y2="15.0" stroke="black" stroke-width="3" /><line x1="2490.2255859375" x2="2490.2255859375" y1="625.0" y2="635.0" stroke="black" stroke-width="3" /><line x1="2620.2255859375" x2="2620.2255859375" y1="625.0" y2="635.0" stroke="black" stroke-width="3" /><line x1="1967.2353515625" x2="1967.2353515625" y1="5.0" y2="15.0" stroke="black" stroke-width="3" /><line x1="2057.2353515625" x2="2057.2353515625" y1="5.0" y2="15.0" stroke="black" stroke-width="3" /><line x1="1967.2353515625" x2="1967.2353515625" y1="625.0" y2="635.0" stroke="black" stroke-width="3" /><line x1="2057.2353515625" x2="2057.2353515625" y1="625.0" y2="635.0" stroke="black" stroke-width="3" /><line x1="1867.2353515625" x2="1867.2353515625" y1="5.0" y2="15.0" stroke="black" stroke-width="3" /><line x1="1957.2353515625" x2="1957.2353515625" y1="5.0" y2="15.0" stroke="black" stroke-width="3" /><line x1="1867.2353515625" x2="1867.2353515625" y1="625.0" y2="635.0" stroke="black" stroke-width="3" /><line x1="1957.2353515625" x2="1957.2353515625" y1="625.0" y2="635.0" stroke="black" stroke-width="3" /><line x1="1444.2451171875" x2="1444.2451171875" y1="5.0" y2="15.0" stroke="black" stroke-width="3" /><line x1="1614.2451171875" x2="1614.2451171875" y1="5.0" y2="15.0" stroke="black" stroke-width="3" /><line x1="1444.2451171875" x2="1444.2451171875" y1="625.0" y2="635.0" stroke="black" stroke-width="3" /><line x1="1614.2451171875" x2="1614.2451171875" y1="625.0" y2="635.0" stroke="black" stroke-width="3" /><line x1="1204.2451171875" x2="1204.2451171875" y1="5.0" y2="15.0" stroke="black" stroke-width="3" /><line x1="1374.2451171875" x2="1374.2451171875" y1="5.0" y2="15.0" stroke="black" stroke-width="3" /><line x1="1204.2451171875" x2="1204.2451171875" y1="625.0" y2="635.0" stroke="black" stroke-width="3" /><line x1="1374.2451171875" x2="1374.2451171875" y1="625.0" y2="635.0" stroke="black" stroke-width="3" /><line x1="861.2548828125" x2="861.2548828125" y1="5.0" y2="15.0" stroke="black" stroke-width="3" /><line x1="951.2548828125" x2="951.2548828125" y1="5.0" y2="15.0" stroke="black" stroke-width="3" /><line x1="861.2548828125" x2="861.2548828125" y1="625.0" y2="635.0" stroke="black" stroke-width="3" /><line x1="951.2548828125" x2="951.2548828125" y1="625.0" y2="635.0" stroke="black" stroke-width="3" /><line x1="761.2548828125" x2="761.2548828125" y1="5.0" y2="15.0" stroke="black" stroke-width="3" /><line x1="851.2548828125" x2="851.2548828125" y1="5.0" y2="15.0" stroke="black" stroke-width="3" /><line x1="761.2548828125" x2="761.2548828125" y1="625.0" y2="635.0" stroke="black" stroke-width="3" /><line x1="851.2548828125" x2="851.2548828125" y1="625.0" y2="635.0" stroke="black" stroke-width="3" /><line x1="195.2744140625" x2="195.2744140625" y1="5.0" y2="15.0" stroke="black" stroke-width="3" /><line x1="325.2744140625" x2="325.2744140625" y1="5.0" y2="15.0" stroke="black" stroke-width="3" /><line x1="195.2744140625" x2="195.2744140625" y1="625.0" y2="635.0" stroke="black" stroke-width="3" /><line x1="325.2744140625" x2="325.2744140625" y1="625.0" y2="635.0" stroke="black" stroke-width="3" /><rect x="10.0" y="25.0" width="55.2744140625" height="40" stroke="black" fill="white" stroke-width="0" /><text x="37.63720703125" y="45.0" dominant-baseline="middle" text-anchor="middle" font-size="14px">a0: </text><rect x="10.0" y="75.0" width="55.2744140625" height="40" stroke="black" fill="white" stroke-width="0" /><text x="37.63720703125" y="95.0" dominant-baseline="middle" text-anchor="middle" font-size="14px">a1: </text><rect x="10.0" y="125.0" width="55.2744140625" height="40" stroke="black" fill="white" stroke-width="0" /><text x="37.63720703125" y="145.0" dominant-baseline="middle" text-anchor="middle" font-size="14px">a2: </text><rect x="10.0" y="175.0" width="55.2744140625" height="40" stroke="black" fill="white" stroke-width="0" /><text x="37.63720703125" y="195.0" dominant-baseline="middle" text-anchor="middle" font-size="14px">b_000: </text><rect x="10.0" y="225.0" width="55.2744140625" height="40" stroke="black" fill="white" stroke-width="0" /><text x="37.63720703125" y="245.0" dominant-baseline="middle" text-anchor="middle" font-size="14px">b_001: </text><rect x="10.0" y="275.0" width="55.2744140625" height="40" stroke="black" fill="white" stroke-width="0" /><text x="37.63720703125" y="295.0" dominant-baseline="middle" text-anchor="middle" font-size="14px">b_010: </text><rect x="10.0" y="325.0" width="55.2744140625" height="40" stroke="black" fill="white" stroke-width="0" /><text x="37.63720703125" y="345.0" dominant-baseline="middle" text-anchor="middle" font-size="14px">b_011: </text><rect x="10.0" y="375.0" width="55.2744140625" height="40" stroke="black" fill="white" stroke-width="0" /><text x="37.63720703125" y="395.0" dominant-baseline="middle" text-anchor="middle" font-size="14px">b_100: </text><rect x="10.0" y="425.0" width="55.2744140625" height="40" stroke="black" fill="white" stroke-width="0" /><text x="37.63720703125" y="445.0" dominant-baseline="middle" text-anchor="middle" font-size="14px">b_101: </text><rect x="10.0" y="475.0" width="55.2744140625" height="40" stroke="black" fill="white" stroke-width="0" /><text x="37.63720703125" y="495.0" dominant-baseline="middle" text-anchor="middle" font-size="14px">b_110: </text><rect x="10.0" y="525.0" width="55.2744140625" height="40" stroke="black" fill="white" stroke-width="0" /><text x="37.63720703125" y="545.0" dominant-baseline="middle" text-anchor="middle" font-size="14px">b_111: </text><rect x="10.0" y="575.0" width="55.2744140625" height="40" stroke="black" fill="white" stroke-width="0" /><text x="37.63720703125" y="595.0" dominant-baseline="middle" text-anchor="middle" font-size="14px">target: </text><rect x="85.2744140625" y="275.0" width="40" height="40" stroke="black" fill="white" stroke-width="1" /><text x="105.2744140625" y="295.0" dominant-baseline="middle" text-anchor="middle" font-size="18px">H</text><rect x="85.2744140625" y="325.0" width="40" height="40" stroke="black" fill="white" stroke-width="1" /><text x="105.2744140625" y="345.0" dominant-baseline="middle" text-anchor="middle" font-size="18px">H</text><rect x="85.2744140625" y="375.0" width="40" height="40" stroke="black" fill="white" stroke-width="1" /><text x="105.2744140625" y="395.0" dominant-baseline="middle" text-anchor="middle" font-size="18px">H</text><rect x="85.2744140625" y="425.0" width="40" height="40" stroke="black" fill="white" stroke-width="1" /><text x="105.2744140625" y="445.0" dominant-baseline="middle" text-anchor="middle" font-size="18px">H</text><rect x="85.2744140625" y="475.0" width="40" height="40" stroke="black" fill="white" stroke-width="1" /><text x="105.2744140625" y="495.0" dominant-baseline="middle" text-anchor="middle" font-size="18px">H</text><rect x="85.2744140625" y="525.0" width="40" height="40" stroke="black" fill="white" stroke-width="1" /><text x="105.2744140625" y="545.0" dominant-baseline="middle" text-anchor="middle" font-size="18px">H</text><rect x="145.2744140625" y="275.0" width="40" height="40" stroke="black" fill="white" stroke-width="1" /><text x="165.2744140625" y="295.0" dominant-baseline="middle" text-anchor="middle" font-size="18px">T</text><rect x="145.2744140625" y="325.0" width="40" height="40" stroke="black" fill="white" stroke-width="1" /><text x="165.2744140625" y="345.0" dominant-baseline="middle" text-anchor="middle" font-size="18px">T</text><rect x="145.2744140625" y="375.0" width="40" height="40" stroke="black" fill="white" stroke-width="1" /><text x="165.2744140625" y="395.0" dominant-baseline="middle" text-anchor="middle" font-size="18px">T</text><rect x="145.2744140625" y="425.0" width="40" height="40" stroke="black" fill="white" stroke-width="1" /><text x="165.2744140625" y="445.0" dominant-baseline="middle" text-anchor="middle" font-size="18px">T</text><rect x="145.2744140625" y="475.0" width="40" height="40" stroke="black" fill="white" stroke-width="1" /><text x="165.2744140625" y="495.0" dominant-baseline="middle" text-anchor="middle" font-size="18px">T</text><rect x="145.2744140625" y="525.0" width="40" height="40" stroke="black" fill="white" stroke-width="1" /><text x="165.2744140625" y="545.0" dominant-baseline="middle" text-anchor="middle" font-size="18px">T</text><circle cx="215.2744140625" cy="95.0" r="10.0" /><rect x="195.2744140625" y="275.0" width="40" height="40" stroke="black" fill="white" stroke-width="1" /><text x="215.2744140625" y="295.0" dominant-baseline="middle" text-anchor="middle" font-size="18px">X</text><rect x="195.2744140625" y="325.0" width="40" height="40" stroke="black" fill="white" stroke-width="1" /><text x="215.2744140625" y="345.0" dominant-baseline="middle" text-anchor="middle" font-size="18px">X</text><circle cx="255.2744140625" cy="45.0" r="10.0" /><rect x="235.2744140625" y="175.0" width="40" height="40" stroke="black" fill="white" stroke-width="1" /><text x="255.2744140625" y="195.0" dominant-baseline="middle" text-anchor="middle" font-size="18px">X</text><circle cx="295.2744140625" cy="145.0" r="10.0" /><rect x="275.2744140625" y="375.0" width="40" height="40" stroke="black" fill="white" stroke-width="1" /><text x="295.2744140625" y="395.0" dominant-baseline="middle" text-anchor="middle" font-size="18px">X</text><rect x="275.2744140625" y="475.0" width="40" height="40" stroke="black" fill="white" stroke-width="1" /><text x="295.2744140625" y="495.0" dominant-baseline="middle" text-anchor="middle" font-size="18px">X</text><rect x="275.2744140625" y="425.0" width="40" height="40" stroke="black" fill="white" stroke-width="1" /><text x="295.2744140625" y="445.0" dominant-baseline="middle" text-anchor="middle" font-size="18px">X</text><rect x="275.2744140625" y="525.0" width="40" height="40" stroke="black" fill="white" stroke-width="1" /><text x="295.2744140625" y="545.0" dominant-baseline="middle" text-anchor="middle" font-size="18px">X</text><rect x="345.2744140625" y="275.0" width="42.990234375" height="40" stroke="black" fill="white" stroke-width="1" /><text x="366.76953125" y="295.0" dominant-baseline="middle" text-anchor="middle" font-size="14px">T^-1</text><rect x="345.2744140625" y="325.0" width="42.990234375" height="40" stroke="black" fill="white" stroke-width="1" /><text x="366.76953125" y="345.0" dominant-baseline="middle" text-anchor="middle" font-size="14px">T^-1</text><rect x="345.2744140625" y="375.0" width="42.990234375" height="40" stroke="black" fill="white" stroke-width="1" /><text x="366.76953125" y="395.0" dominant-baseline="middle" text-anchor="middle" font-size="14px">T^-1</text><rect x="345.2744140625" y="425.0" width="42.990234375" height="40" stroke="black" fill="white" stroke-width="1" /><text x="366.76953125" y="445.0" dominant-baseline="middle" text-anchor="middle" font-size="14px">T^-1</text><rect x="345.2744140625" y="475.0" width="42.990234375" height="40" stroke="black" fill="white" stroke-width="1" /><text x="366.76953125" y="495.0" dominant-baseline="middle" text-anchor="middle" font-size="14px">T^-1</text><rect x="345.2744140625" y="525.0" width="42.990234375" height="40" stroke="black" fill="white" stroke-width="1" /><text x="366.76953125" y="545.0" dominant-baseline="middle" text-anchor="middle" font-size="14px">T^-1</text><circle cx="428.2646484375" cy="195.0" r="10.0" /><rect x="408.2646484375" y="225.0" width="40" height="40" stroke="black" fill="white" stroke-width="1" /><text x="428.2646484375" y="245.0" dominant-baseline="middle" text-anchor="middle" font-size="18px">X</text><rect x="408.2646484375" y="275.0" width="40" height="40" stroke="black" fill="white" stroke-width="1" /><text x="428.2646484375" y="295.0" dominant-baseline="middle" text-anchor="middle" font-size="18px">X</text><circle cx="488.2646484375" cy="245.0" r="10.0" /><rect x="468.2646484375" y="325.0" width="40" height="40" stroke="black" fill="white" stroke-width="1" /><text x="488.2646484375" y="345.0" dominant-baseline="middle" text-anchor="middle" font-size="18px">X</text><rect x="528.2646484375" y="275.0" width="40" height="40" stroke="black" fill="white" stroke-width="1" /><text x="548.2646484375" y="295.0" dominant-baseline="middle" text-anchor="middle" font-size="18px">T</text><rect x="528.2646484375" y="325.0" width="40" height="40" stroke="black" fill="white" stroke-width="1" /><text x="548.2646484375" y="345.0" dominant-baseline="middle" text-anchor="middle" font-size="18px">T</text><circle cx="608.2646484375" cy="95.0" r="10.0" /><rect x="588.2646484375" y="275.0" width="40" height="40" stroke="black" fill="white" stroke-width="1" /><text x="608.2646484375" y="295.0" dominant-baseline="middle" text-anchor="middle" font-size="18px">X</text><rect x="588.2646484375" y="325.0" width="40" height="40" stroke="black" fill="white" stroke-width="1" /><text x="608.2646484375" y="345.0" dominant-baseline="middle" text-anchor="middle" font-size="18px">X</text><rect x="648.2646484375" y="275.0" width="42.990234375" height="40" stroke="black" fill="white" stroke-width="1" /><text x="669.759765625" y="295.0" dominant-baseline="middle" text-anchor="middle" font-size="14px">T^-1</text><rect x="648.2646484375" y="325.0" width="42.990234375" height="40" stroke="black" fill="white" stroke-width="1" /><text x="669.759765625" y="345.0" dominant-baseline="middle" text-anchor="middle" font-size="14px">T^-1</text><rect x="711.2548828125" y="275.0" width="40" height="40" stroke="black" fill="white" stroke-width="1" /><text x="731.2548828125" y="295.0" dominant-baseline="middle" text-anchor="middle" font-size="18px">H</text><rect x="711.2548828125" y="325.0" width="40" height="40" stroke="black" fill="white" stroke-width="1" /><text x="731.2548828125" y="345.0" dominant-baseline="middle" text-anchor="middle" font-size="18px">H</text><circle cx="781.2548828125" cy="295.0" r="10.0" /><rect x="761.2548828125" y="175.0" width="40" height="40" stroke="black" fill="white" stroke-width="1" /><text x="781.2548828125" y="195.0" dominant-baseline="middle" text-anchor="middle" font-size="18px">X</text><rect x="761.2548828125" y="375.0" width="40" height="40" stroke="black" fill="white" stroke-width="1" /><text x="781.2548828125" y="395.0" dominant-baseline="middle" text-anchor="middle" font-size="18px">X</text><circle cx="821.2548828125" cy="345.0" r="10.0" /><rect x="801.2548828125" y="225.0" width="40" height="40" stroke="black" fill="white" stroke-width="1" /><text x="821.2548828125" y="245.0" dominant-baseline="middle" text-anchor="middle" font-size="18px">X</text><rect x="801.2548828125" y="475.0" width="40" height="40" stroke="black" fill="white" stroke-width="1" /><text x="821.2548828125" y="495.0" dominant-baseline="middle" text-anchor="middle" font-size="18px">X</text><circle cx="881.2548828125" cy="195.0" r="10.0" /><rect x="861.2548828125" y="425.0" width="40" height="40" stroke="black" fill="white" stroke-width="1" /><text x="881.2548828125" y="445.0" dominant-baseline="middle" text-anchor="middle" font-size="18px">X</text><circle cx="921.2548828125" cy="245.0" r="10.0" /><rect x="901.2548828125" y="525.0" width="40" height="40" stroke="black" fill="white" stroke-width="1" /><text x="921.2548828125" y="545.0" dominant-baseline="middle" text-anchor="middle" font-size="18px">X</text><rect x="971.2548828125" y="375.0" width="40" height="40" stroke="black" fill="white" stroke-width="1" /><text x="991.2548828125" y="395.0" dominant-baseline="middle" text-anchor="middle" font-size="18px">T</text><rect x="971.2548828125" y="425.0" width="40" height="40" stroke="black" fill="white" stroke-width="1" /><text x="991.2548828125" y="445.0" dominant-baseline="middle" text-anchor="middle" font-size="18px">T</text><rect x="971.2548828125" y="475.0" width="40" height="40" stroke="black" fill="white" stroke-width="1" /><text x="991.2548828125" y="495.0" dominant-baseline="middle" text-anchor="middle" font-size="18px">T</text><rect x="971.2548828125" y="525.0" width="40" height="40" stroke="black" fill="white" stroke-width="1" /><text x="991.2548828125" y="545.0" dominant-baseline="middle" text-anchor="middle" font-size="18px">T</text><circle cx="1051.2548828125" cy="145.0" r="10.0" /><rect x="1031.2548828125" y="375.0" width="40" height="40" stroke="black" fill="white" stroke-width="1" /><text x="1051.2548828125" y="395.0" dominant-baseline="middle" text-anchor="middle" font-size="18px">X</text><rect x="1031.2548828125" y="425.0" width="40" height="40" stroke="black" fill="white" stroke-width="1" /><text x="1051.2548828125" y="445.0" dominant-baseline="middle" text-anchor="middle" font-size="18px">X</text><rect x="1031.2548828125" y="475.0" width="40" height="40" stroke="black" fill="white" stroke-width="1" /><text x="1051.2548828125" y="495.0" dominant-baseline="middle" text-anchor="middle" font-size="18px">X</text><rect x="1031.2548828125" y="525.0" width="40" height="40" stroke="black" fill="white" stroke-width="1" /><text x="1051.2548828125" y="545.0" dominant-baseline="middle" text-anchor="middle" font-size="18px">X</text><rect x="1091.2548828125" y="375.0" width="42.990234375" height="40" stroke="black" fill="white" stroke-width="1" /><text x="1112.75" y="395.0" dominant-baseline="middle" text-anchor="middle" font-size="14px">T^-1</text><rect x="1091.2548828125" y="425.0" width="42.990234375" height="40" stroke="black" fill="white" stroke-width="1" /><text x="1112.75" y="445.0" dominant-baseline="middle" text-anchor="middle" font-size="14px">T^-1</text><rect x="1091.2548828125" y="475.0" width="42.990234375" height="40" stroke="black" fill="white" stroke-width="1" /><text x="1112.75" y="495.0" dominant-baseline="middle" text-anchor="middle" font-size="14px">T^-1</text><rect x="1091.2548828125" y="525.0" width="42.990234375" height="40" stroke="black" fill="white" stroke-width="1" /><text x="1112.75" y="545.0" dominant-baseline="middle" text-anchor="middle" font-size="14px">T^-1</text><rect x="1154.2451171875" y="375.0" width="40" height="40" stroke="black" fill="white" stroke-width="1" /><text x="1174.2451171875" y="395.0" dominant-baseline="middle" text-anchor="middle" font-size="18px">H</text><rect x="1154.2451171875" y="425.0" width="40" height="40" stroke="black" fill="white" stroke-width="1" /><text x="1174.2451171875" y="445.0" dominant-baseline="middle" text-anchor="middle" font-size="18px">H</text><rect x="1154.2451171875" y="475.0" width="40" height="40" stroke="black" fill="white" stroke-width="1" /><text x="1174.2451171875" y="495.0" dominant-baseline="middle" text-anchor="middle" font-size="18px">H</text><rect x="1154.2451171875" y="525.0" width="40" height="40" stroke="black" fill="white" stroke-width="1" /><text x="1174.2451171875" y="545.0" dominant-baseline="middle" text-anchor="middle" font-size="18px">H</text><circle cx="1224.2451171875" cy="445.0" r="10.0" /><rect x="1204.2451171875" y="175.0" width="40" height="40" stroke="black" fill="white" stroke-width="1" /><text x="1224.2451171875" y="195.0" dominant-baseline="middle" text-anchor="middle" font-size="18px">X</text><circle cx="1264.2451171875" cy="545.0" r="10.0" /><rect x="1244.2451171875" y="225.0" width="40" height="40" stroke="black" fill="white" stroke-width="1" /><text x="1264.2451171875" y="245.0" dominant-baseline="middle" text-anchor="middle" font-size="18px">X</text><circle cx="1304.2451171875" cy="395.0" r="10.0" /><rect x="1284.2451171875" y="275.0" width="40" height="40" stroke="black" fill="white" stroke-width="1" /><text x="1304.2451171875" y="295.0" dominant-baseline="middle" text-anchor="middle" font-size="18px">X</text><circle cx="1344.2451171875" cy="495.0" r="10.0" /><rect x="1324.2451171875" y="325.0" width="40" height="40" stroke="black" fill="white" stroke-width="1" /><text x="1344.2451171875" y="345.0" dominant-baseline="middle" text-anchor="middle" font-size="18px">X</text><circle cx="1414.2451171875" cy="45.0" r="10.0" /><circle cx="1414.2451171875" cy="595.0" r="10.0" /><circle cx="1464.2451171875" cy="445.0" r="10.0" /><rect x="1444.2451171875" y="175.0" width="40" height="40" stroke="black" fill="white" stroke-width="1" /><text x="1464.2451171875" y="195.0" dominant-baseline="middle" text-anchor="middle" font-size="18px">X</text><circle cx="1504.2451171875" cy="545.0" r="10.0" /><rect x="1484.2451171875" y="225.0" width="40" height="40" stroke="black" fill="white" stroke-width="1" /><text x="1504.2451171875" y="245.0" dominant-baseline="middle" text-anchor="middle" font-size="18px">X</text><circle cx="1544.2451171875" cy="395.0" r="10.0" /><rect x="1524.2451171875" y="275.0" width="40" height="40" stroke="black" fill="white" stroke-width="1" /><text x="1544.2451171875" y="295.0" dominant-baseline="middle" text-anchor="middle" font-size="18px">X</text><circle cx="1584.2451171875" cy="495.0" r="10.0" /><rect x="1564.2451171875" y="325.0" width="40" height="40" stroke="black" fill="white" stroke-width="1" /><text x="1584.2451171875" y="345.0" dominant-baseline="middle" text-anchor="middle" font-size="18px">X</text><rect x="1634.2451171875" y="375.0" width="40" height="40" stroke="black" fill="white" stroke-width="1" /><text x="1654.2451171875" y="395.0" dominant-baseline="middle" text-anchor="middle" font-size="18px">H</text><rect x="1634.2451171875" y="425.0" width="40" height="40" stroke="black" fill="white" stroke-width="1" /><text x="1654.2451171875" y="445.0" dominant-baseline="middle" text-anchor="middle" font-size="18px">H</text><rect x="1634.2451171875" y="475.0" width="40" height="40" stroke="black" fill="white" stroke-width="1" /><text x="1654.2451171875" y="495.0" dominant-baseline="middle" text-anchor="middle" font-size="18px">H</text><rect x="1634.2451171875" y="525.0" width="40" height="40" stroke="black" fill="white" stroke-width="1" /><text x="1654.2451171875" y="545.0" dominant-baseline="middle" text-anchor="middle" font-size="18px">H</text><rect x="1694.2451171875" y="375.0" width="40" height="40" stroke="black" fill="white" stroke-width="1" /><text x="1714.2451171875" y="395.0" dominant-baseline="middle" text-anchor="middle" font-size="18px">T</text><rect x="1694.2451171875" y="425.0" width="40" height="40" stroke="black" fill="white" stroke-width="1" /><text x="1714.2451171875" y="445.0" dominant-baseline="middle" text-anchor="middle" font-size="18px">T</text><rect x="1694.2451171875" y="475.0" width="40" height="40" stroke="black" fill="white" stroke-width="1" /><text x="1714.2451171875" y="495.0" dominant-baseline="middle" text-anchor="middle" font-size="18px">T</text><rect x="1694.2451171875" y="525.0" width="40" height="40" stroke="black" fill="white" stroke-width="1" /><text x="1714.2451171875" y="545.0" dominant-baseline="middle" text-anchor="middle" font-size="18px">T</text><circle cx="1774.2451171875" cy="145.0" r="10.0" /><rect x="1754.2451171875" y="375.0" width="40" height="40" stroke="black" fill="white" stroke-width="1" /><text x="1774.2451171875" y="395.0" dominant-baseline="middle" text-anchor="middle" font-size="18px">X</text><rect x="1754.2451171875" y="425.0" width="40" height="40" stroke="black" fill="white" stroke-width="1" /><text x="1774.2451171875" y="445.0" dominant-baseline="middle" text-anchor="middle" font-size="18px">X</text><rect x="1754.2451171875" y="475.0" width="40" height="40" stroke="black" fill="white" stroke-width="1" /><text x="1774.2451171875" y="495.0" dominant-baseline="middle" text-anchor="middle" font-size="18px">X</text><rect x="1754.2451171875" y="525.0" width="40" height="40" stroke="black" fill="white" stroke-width="1" /><text x="1774.2451171875" y="545.0" dominant-baseline="middle" text-anchor="middle" font-size="18px">X</text><rect x="1814.2451171875" y="375.0" width="42.990234375" height="40" stroke="black" fill="white" stroke-width="1" /><text x="1835.740234375" y="395.0" dominant-baseline="middle" text-anchor="middle" font-size="14px">T^-1</text><rect x="1814.2451171875" y="425.0" width="42.990234375" height="40" stroke="black" fill="white" stroke-width="1" /><text x="1835.740234375" y="445.0" dominant-baseline="middle" text-anchor="middle" font-size="14px">T^-1</text><rect x="1814.2451171875" y="475.0" width="42.990234375" height="40" stroke="black" fill="white" stroke-width="1" /><text x="1835.740234375" y="495.0" dominant-baseline="middle" text-anchor="middle" font-size="14px">T^-1</text><rect x="1814.2451171875" y="525.0" width="42.990234375" height="40" stroke="black" fill="white" stroke-width="1" /><text x="1835.740234375" y="545.0" dominant-baseline="middle" text-anchor="middle" font-size="14px">T^-1</text><circle cx="1887.2353515625" cy="195.0" r="10.0" /><rect x="1867.2353515625" y="425.0" width="40" height="40" stroke="black" fill="white" stroke-width="1" /><text x="1887.2353515625" y="445.0" dominant-baseline="middle" text-anchor="middle" font-size="18px">X</text><circle cx="1927.2353515625" cy="245.0" r="10.0" /><rect x="1907.2353515625" y="525.0" width="40" height="40" stroke="black" fill="white" stroke-width="1" /><text x="1927.2353515625" y="545.0" dominant-baseline="middle" text-anchor="middle" font-size="18px">X</text><circle cx="1987.2353515625" cy="295.0" r="10.0" /><rect x="1967.2353515625" y="175.0" width="40" height="40" stroke="black" fill="white" stroke-width="1" /><text x="1987.2353515625" y="195.0" dominant-baseline="middle" text-anchor="middle" font-size="18px">X</text><rect x="1967.2353515625" y="375.0" width="40" height="40" stroke="black" fill="white" stroke-width="1" /><text x="1987.2353515625" y="395.0" dominant-baseline="middle" text-anchor="middle" font-size="18px">X</text><circle cx="2027.2353515625" cy="345.0" r="10.0" /><rect x="2007.2353515625" y="225.0" width="40" height="40" stroke="black" fill="white" stroke-width="1" /><text x="2027.2353515625" y="245.0" dominant-baseline="middle" text-anchor="middle" font-size="18px">X</text><rect x="2007.2353515625" y="475.0" width="40" height="40" stroke="black" fill="white" stroke-width="1" /><text x="2027.2353515625" y="495.0" dominant-baseline="middle" text-anchor="middle" font-size="18px">X</text><rect x="2077.2353515625" y="275.0" width="40" height="40" stroke="black" fill="white" stroke-width="1" /><text x="2097.2353515625" y="295.0" dominant-baseline="middle" text-anchor="middle" font-size="18px">H</text><rect x="2077.2353515625" y="325.0" width="40" height="40" stroke="black" fill="white" stroke-width="1" /><text x="2097.2353515625" y="345.0" dominant-baseline="middle" text-anchor="middle" font-size="18px">H</text><rect x="2137.2353515625" y="275.0" width="40" height="40" stroke="black" fill="white" stroke-width="1" /><text x="2157.2353515625" y="295.0" dominant-baseline="middle" text-anchor="middle" font-size="18px">T</text><rect x="2137.2353515625" y="325.0" width="40" height="40" stroke="black" fill="white" stroke-width="1" /><text x="2157.2353515625" y="345.0" dominant-baseline="middle" text-anchor="middle" font-size="18px">T</text><circle cx="2217.2353515625" cy="95.0" r="10.0" /><rect x="2197.2353515625" y="275.0" width="40" height="40" stroke="black" fill="white" stroke-width="1" /><text x="2217.2353515625" y="295.0" dominant-baseline="middle" text-anchor="middle" font-size="18px">X</text><rect x="2197.2353515625" y="325.0" width="40" height="40" stroke="black" fill="white" stroke-width="1" /><text x="2217.2353515625" y="345.0" dominant-baseline="middle" text-anchor="middle" font-size="18px">X</text><rect x="2257.2353515625" y="275.0" width="42.990234375" height="40" stroke="black" fill="white" stroke-width="1" /><text x="2278.73046875" y="295.0" dominant-baseline="middle" text-anchor="middle" font-size="14px">T^-1</text><rect x="2257.2353515625" y="325.0" width="42.990234375" height="40" stroke="black" fill="white" stroke-width="1" /><text x="2278.73046875" y="345.0" dominant-baseline="middle" text-anchor="middle" font-size="14px">T^-1</text><circle cx="2340.2255859375" cy="245.0" r="10.0" /><rect x="2320.2255859375" y="325.0" width="40" height="40" stroke="black" fill="white" stroke-width="1" /><text x="2340.2255859375" y="345.0" dominant-baseline="middle" text-anchor="middle" font-size="18px">X</text><circle cx="2400.2255859375" cy="195.0" r="10.0" /><rect x="2380.2255859375" y="225.0" width="40" height="40" stroke="black" fill="white" stroke-width="1" /><text x="2400.2255859375" y="245.0" dominant-baseline="middle" text-anchor="middle" font-size="18px">X</text><rect x="2380.2255859375" y="275.0" width="40" height="40" stroke="black" fill="white" stroke-width="1" /><text x="2400.2255859375" y="295.0" dominant-baseline="middle" text-anchor="middle" font-size="18px">X</text><rect x="2440.2255859375" y="275.0" width="40" height="40" stroke="black" fill="white" stroke-width="1" /><text x="2460.2255859375" y="295.0" dominant-baseline="middle" text-anchor="middle" font-size="18px">T</text><rect x="2440.2255859375" y="325.0" width="40" height="40" stroke="black" fill="white" stroke-width="1" /><text x="2460.2255859375" y="345.0" dominant-baseline="middle" text-anchor="middle" font-size="18px">T</text><rect x="2440.2255859375" y="375.0" width="40" height="40" stroke="black" fill="white" stroke-width="1" /><text x="2460.2255859375" y="395.0" dominant-baseline="middle" text-anchor="middle" font-size="18px">T</text><rect x="2440.2255859375" y="425.0" width="40" height="40" stroke="black" fill="white" stroke-width="1" /><text x="2460.2255859375" y="445.0" dominant-baseline="middle" text-anchor="middle" font-size="18px">T</text><rect x="2440.2255859375" y="475.0" width="40" height="40" stroke="black" fill="white" stroke-width="1" /><text x="2460.2255859375" y="495.0" dominant-baseline="middle" text-anchor="middle" font-size="18px">T</text><rect x="2440.2255859375" y="525.0" width="40" height="40" stroke="black" fill="white" stroke-width="1" /><text x="2460.2255859375" y="545.0" dominant-baseline="middle" text-anchor="middle" font-size="18px">T</text><circle cx="2510.2255859375" cy="95.0" r="10.0" /><rect x="2490.2255859375" y="275.0" width="40" height="40" stroke="black" fill="white" stroke-width="1" /><text x="2510.2255859375" y="295.0" dominant-baseline="middle" text-anchor="middle" font-size="18px">X</text><rect x="2490.2255859375" y="325.0" width="40" height="40" stroke="black" fill="white" stroke-width="1" /><text x="2510.2255859375" y="345.0" dominant-baseline="middle" text-anchor="middle" font-size="18px">X</text><circle cx="2550.2255859375" cy="45.0" r="10.0" /><rect x="2530.2255859375" y="175.0" width="40" height="40" stroke="black" fill="white" stroke-width="1" /><text x="2550.2255859375" y="195.0" dominant-baseline="middle" text-anchor="middle" font-size="18px">X</text><circle cx="2590.2255859375" cy="145.0" r="10.0" /><rect x="2570.2255859375" y="375.0" width="40" height="40" stroke="black" fill="white" stroke-width="1" /><text x="2590.2255859375" y="395.0" dominant-baseline="middle" text-anchor="middle" font-size="18px">X</text><rect x="2570.2255859375" y="475.0" width="40" height="40" stroke="black" fill="white" stroke-width="1" /><text x="2590.2255859375" y="495.0" dominant-baseline="middle" text-anchor="middle" font-size="18px">X</text><rect x="2570.2255859375" y="425.0" width="40" height="40" stroke="black" fill="white" stroke-width="1" /><text x="2590.2255859375" y="445.0" dominant-baseline="middle" text-anchor="middle" font-size="18px">X</text><rect x="2570.2255859375" y="525.0" width="40" height="40" stroke="black" fill="white" stroke-width="1" /><text x="2590.2255859375" y="545.0" dominant-baseline="middle" text-anchor="middle" font-size="18px">X</text><rect x="2640.2255859375" y="275.0" width="42.990234375" height="40" stroke="black" fill="white" stroke-width="1" /><text x="2661.720703125" y="295.0" dominant-baseline="middle" text-anchor="middle" font-size="14px">T^-1</text><rect x="2640.2255859375" y="325.0" width="42.990234375" height="40" stroke="black" fill="white" stroke-width="1" /><text x="2661.720703125" y="345.0" dominant-baseline="middle" text-anchor="middle" font-size="14px">T^-1</text><rect x="2640.2255859375" y="375.0" width="42.990234375" height="40" stroke="black" fill="white" stroke-width="1" /><text x="2661.720703125" y="395.0" dominant-baseline="middle" text-anchor="middle" font-size="14px">T^-1</text><rect x="2640.2255859375" y="425.0" width="42.990234375" height="40" stroke="black" fill="white" stroke-width="1" /><text x="2661.720703125" y="445.0" dominant-baseline="middle" text-anchor="middle" font-size="14px">T^-1</text><rect x="2640.2255859375" y="475.0" width="42.990234375" height="40" stroke="black" fill="white" stroke-width="1" /><text x="2661.720703125" y="495.0" dominant-baseline="middle" text-anchor="middle" font-size="14px">T^-1</text><rect x="2640.2255859375" y="525.0" width="42.990234375" height="40" stroke="black" fill="white" stroke-width="1" /><text x="2661.720703125" y="545.0" dominant-baseline="middle" text-anchor="middle" font-size="14px">T^-1</text><rect x="2703.2158203125" y="275.0" width="40" height="40" stroke="black" fill="white" stroke-width="1" /><text x="2723.2158203125" y="295.0" dominant-baseline="middle" text-anchor="middle" font-size="18px">H</text><rect x="2703.2158203125" y="325.0" width="40" height="40" stroke="black" fill="white" stroke-width="1" /><text x="2723.2158203125" y="345.0" dominant-baseline="middle" text-anchor="middle" font-size="18px">H</text><rect x="2703.2158203125" y="375.0" width="40" height="40" stroke="black" fill="white" stroke-width="1" /><text x="2723.2158203125" y="395.0" dominant-baseline="middle" text-anchor="middle" font-size="18px">H</text><rect x="2703.2158203125" y="425.0" width="40" height="40" stroke="black" fill="white" stroke-width="1" /><text x="2723.2158203125" y="445.0" dominant-baseline="middle" text-anchor="middle" font-size="18px">H</text><rect x="2703.2158203125" y="475.0" width="40" height="40" stroke="black" fill="white" stroke-width="1" /><text x="2723.2158203125" y="495.0" dominant-baseline="middle" text-anchor="middle" font-size="18px">H</text><rect x="2703.2158203125" y="525.0" width="40" height="40" stroke="black" fill="white" stroke-width="1" /><text x="2723.2158203125" y="545.0" dominant-baseline="middle" text-anchor="middle" font-size="18px">H</text></svg>