<svg xmlns="http://www.w3.org/2000/svg" width="355.2744140625" height="450.0"><line x1="37.63720703125" x2="325.2744140625" y1="25.0" y2="25.0" stroke="#1967d2" stroke-width="1" /><line x1="37.63720703125" x2="325.2744140625" y1="75.0" y2="75.0" stroke="#1967d2" stroke-width="1" /><line x1="37.63720703125" x2="325.2744140625" y1="125.0" y2="125.0" stroke="#1967d2" stroke-width="1" /><line x1="37.63720703125" x2="325.2744140625" y1="175.0" y2="175.0" stroke="#1967d2" stroke-width="1" /><line x1="37.63720703125" x2="325.2744140625" y1="225.0" y2="225.0" stroke="#1967d2" stroke-width="1" /><line x1="37.63720703125" x2="325.2744140625" y1="275.0" y2="275.0" stroke="#1967d2" stroke-width="1" /><line x1="37.63720703125" x2="325.2744140625" y1="325.0" y2="325.0" stroke="#1967d2" stroke-width="1" /><line x1="37.63720703125" x2="325.2744140625" y1="375.0" y2="375.0" stroke="#1967d2" stroke-width="1" /><line x1="37.63720703125" x2="325.2744140625" y1="425.0" y2="425.0" stroke="#1967d2" stroke-width="1" /><line x1="105.2744140625" x2="105.2744140625" y1="75.0" y2="425.0" stroke="black" stroke-width="3" /><line x1="165.2744140625" x2="165.2744140625" y1="175.0" y2="425.0" stroke="black" stroke-width="3" /><line x1="225.2744140625" x2="225.2744140625" y1="25.0" y2="425.0" stroke="black" stroke-width="3" /><line x1="285.2744140625" x2="285.2744140625" y1="125.0" y2="425.0" stroke="black" stroke-width="3" /><rect x="10.0" y="5.0" width="55.2744140625" height="40" stroke="black" fill="white" stroke-width="0" /><text x="37.63720703125" y="25.0" dominant-baseline="middle" text-anchor="middle" font-size="14px">b_00: </text><rect x="10.0" y="55.0" width="55.2744140625" height="40" stroke="black" fill="white" stroke-width="0" /><text x="37.63720703125" y="75.0" dominant-baseline="middle" text-anchor="middle" font-size="14px">b_01: </text><rect x="10.0" y="105.0" width="55.2744140625" height="40" stroke="black" fill="white" stroke-width="0" /><text x="37.63720703125" y="125.0" dominant-baseline="middle" text-anchor="middle" font-size="14px">b_10: </text><rect x="10.0" y="155.0" width="55.2744140625" height="40" stroke="black" fill="white" stroke-width="0" /><text x="37.63720703125" y="175.0" dominant-baseline="middle" text-anchor="middle" font-size="14px">b_11: </text><rect x="10.0" y="205.0" width="55.2744140625" height="40" stroke="black" fill="white" stroke-width="0" /><text x="37.63720703125" y="225.0" dominant-baseline="middle" text-anchor="middle" font-size="14px">m00: </text><rect x="10.0" y="255.0" width="55.2744140625" height="40" stroke="black" fill="white" stroke-width="0" /><text x="37.63720703125" y="275.0" dominant-baseline="middle" text-anchor="middle" font-size="14px">m01: </text><rect x="10.0" y="305.0" width="55.2744140625" height="40" stroke="black" fill="white" stroke-width="0" /><text x="37.63720703125" y="325.0" dominant-baseline="middle" text-anchor="middle" font-size="14px">m10: </text><rect x="10.0" y="355.0" width="55.2744140625" height="40" stroke="black" fill="white" stroke-width="0" /><text x="37.63720703125" y="375.0" dominant-baseline="middle" text-anchor="middle" font-size="14px">m11: </text><rect x="10.0" y="405.0" width="55.2744140625" height="40" stroke="black" fill="white" stroke-width="0" /><text x="37.63720703125" y="425.0" dominant-baseline="middle" text-anchor="middle" font-size="14px">target: </text><circle cx="105.2744140625" cy="75.0" r="10.0" /><circle cx="105.2744140625" cy="225.0" r="10.0" /><rect x="85.2744140625" y="405.0" width="40" height="40" stroke="black" fill="white" stroke-width="1" /><text x="105.2744140625" y="425.0" dominant-baseline="middle" text-anchor="middle" font-size="18px">X</text><circle cx="165.2744140625" cy="175.0" r="10.0" /><circle cx="165.2744140625" cy="275.0" r="10.0" /><rect x="145.2744140625" y="405.0" width="40" height="40" stroke="black" fill="white" stroke-width="1" /><text x="165.2744140625" y="425.0" dominant-baseline="middle" text-anchor="middle" font-size="18px">X</text><circle cx="225.2744140625" cy="25.0" r="10.0" /><circle cx="225.2744140625" cy="325.0" r="10.0" /><rect x="205.2744140625" y="405.0" width="40" height="40" stroke="black" fill="white" stroke-width="1" /><text x="225.2744140625" y="425.0" dominant-baseline="middle" text-anchor="middle" font-size="18px">X</text><circle cx="285.2744140625" cy="125.0" r="10.0" /><circle cx="285.2744140625" cy="375.0" r="10.0" /><rect x="265.2744140625" y="405.0" width="40" height="40" stroke="black" fill="white" stroke-width="1" /><text x="285.2744140625" y="425.0" dominant-baseline="middle" text-anchor="middle" font-size="18px">X</text></svg>