<svg xmlns="http://www.w3.org/2000/svg" width="595.2744140625" height="850.0"><line x1="37.63720703125" x2="565.2744140625" y1="25.0" y2="25.0" stroke="#1967d2" stroke-width="1" /><line x1="37.63720703125" x2="565.2744140625" y1="75.0" y2="75.0" stroke="#1967d2" stroke-width="1" /><line x1="37.63720703125" x2="565.2744140625" y1="125.0" y2="125.0" stroke="#1967d2" stroke-width="1" /><line x1="37.63720703125" x2="565.2744140625" y1="175.0" y2="175.0" stroke="#1967d2" stroke-width="1" /><line x1="37.63720703125" x2="565.2744140625" y1="225.0" y2="225.0" stroke="#1967d2" stroke-width="1" /><line x1="37.63720703125" x2="565.2744140625" y1="275.0" y2="275.0" stroke="#1967d2" stroke-width="1" /><line x1="37.63720703125" x2="565.2744140625" y1="325.0" y2="325.0" stroke="#1967d2" stroke-width="1" /><line x1="37.63720703125" x2="565.2744140625" y1="375.0" y2="375.0" stroke="#1967d2" stroke-width="1" /><line x1="37.63720703125" x2="565.2744140625" y1="425.0" y2="425.0" stroke="#1967d2" stroke-width="1" /><line x1="37.63720703125" x2="565.2744140625" y1="475.0" y2="475.0" stroke="#1967d2" stroke-width="1" /><line x1="37.63720703125" x2="565.2744140625" y1="525.0" y2="525.0" stroke="#1967d2" stroke-width="1" /><line x1="37.63720703125" x2="565.2744140625" y1="575.0" y2="575.0" stroke="#1967d2" stroke-width="1" /><line x1="37.63720703125" x2="565.2744140625" y1="625.0" y2="625.0" stroke="#1967d2" stroke-width="1" /><line x1="37.63720703125" x2="565.2744140625" y1="675.0" y2="675.0" stroke="#1967d2" stroke-width="1" /><line x1="37.63720703125" x2="565.2744140625" y1="725.0" y2="725.0" stroke="#1967d2" stroke-width="1" /><line x1="37.63720703125" x2="565.2744140625" y1="775.0" y2="775.0" stroke="#1967d2" stroke-width="1" /><line x1="37.63720703125" x2="565.2744140625" y1="825.0" y2="825.0" stroke="#1967d2" stroke-width="1" /><line x1="105.2744140625" x2="105.2744140625" y1="75.0" y2="825.0" stroke="black" stroke-width="3" /><line x1="165.2744140625" x2="165.2744140625" y1="375.0" y2="825.0" stroke="black" stroke-width="3" /><line x1="225.2744140625" x2="225.2744140625" y1="175.0" y2="825.0" stroke="black" stroke-width="3" /><line x1="285.2744140625" x2="285.2744140625" y1="325.0" y2="825.0" stroke="black" stroke-width="3" /><line x1="345.2744140625" x2="345.2744140625" y1="25.0" y2="825.0" stroke="black" stroke-width="3" /><line x1="405.2744140625" x2="405.2744140625" y1="275.0" y2="825.0" stroke="black" stroke-width="3" /><line x1="465.2744140625" x2="465.2744140625" y1="125.0" y2="825.0" stroke="black" stroke-width="3" /><line x1="525.2744140625" x2="525.2744140625" y1="225.0" y2="825.0" stroke="black" stroke-width="3" /><rect x="10.0" y="5.0" width="55.2744140625" height="40" stroke="black" fill="white" stroke-width="0" /><text x="37.63720703125" y="25.0" dominant-baseline="middle" text-anchor="middle" font-size="14px">b_000: </text><rect x="10.0" y="55.0" width="55.2744140625" height="40" stroke="black" fill="white" stroke-width="0" /><text x="37.63720703125" y="75.0" dominant-baseline="middle" text-anchor="middle" font-size="14px">b_001: </text><rect x="10.0" y="105.0" width="55.2744140625" height="40" stroke="black" fill="white" stroke-width="0" /><text x="37.63720703125" y="125.0" dominant-baseline="middle" text-anchor="middle" font-size="14px">b_010: </text><rect x="10.0" y="155.0" width="55.2744140625" height="40" stroke="black" fill="white" stroke-width="0" /><text x="37.63720703125" y="175.0" dominant-baseline="middle" text-anchor="middle" font-size="14px">b_011: </text><rect x="10.0" y="205.0" width="55.2744140625" height="40" stroke="black" fill="white" stroke-width="0" /><text x="37.63720703125" y="225.0" dominant-baseline="middle" text-anchor="middle" font-size="14px">b_100: </text><rect x="10.0" y="255.0" width="55.2744140625" height="40" stroke="black" fill="white" stroke-width="0" /><text x="37.63720703125" y="275.0" dominant-baseline="middle" text-anchor="middle" font-size="14px">b_101: </text><rect x="10.0" y="305.0" width="55.2744140625" height="40" stroke="black" fill="white" stroke-width="0" /><text x="37.63720703125" y="325.0" dominant-baseline="middle" text-anchor="middle" font-size="14px">b_110: </text><rect x="10.0" y="355.0" width="55.2744140625" height="40" stroke="black" fill="white" stroke-width="0" /><text x="37.63720703125" y="375.0" dominant-baseline="middle" text-anchor="middle" font-size="14px">b_111: </text><rect x="10.0" y="405.0" width="55.2744140625" height="40" stroke="black" fill="white" stroke-width="0" /><text x="37.63720703125" y="425.0" dominant-baseline="middle" text-anchor="middle" font-size="14px">m000: </text><rect x="10.0" y="455.0" width="55.2744140625" height="40" stroke="black" fill="white" stroke-width="0" /><text x="37.63720703125" y="475.0" dominant-baseline="middle" text-anchor="middle" font-size="14px">m001: </text><rect x="10.0" y="505.0" width="55.2744140625" height="40" stroke="black" fill="white" stroke-width="0" /><text x="37.63720703125" y="525.0" dominant-baseline="middle" text-anchor="middle" font-size="14px">m010: </text><rect x="10.0" y="555.0" width="55.2744140625" height="40" stroke="black" fill="white" stroke-width="0" /><text x="37.63720703125" y="575.0" dominant-baseline="middle" text-anchor="middle" font-size="14px">m011: </text><rect x="10.0" y="605.0" width="55.2744140625" height="40" stroke="black" fill="white" stroke-width="0" /><text x="37.63720703125" y="625.0" dominant-baseline="middle" text-anchor="middle" font-size="14px">m100: </text><rect x="10.0" y="655.0" width="55.2744140625" height="40" stroke="black" fill="white" stroke-width="0" /><text x="37.63720703125" y="675.0" dominant-baseline="middle" text-anchor="middle" font-size="14px">m101: </text><rect x="10.0" y="705.0" width="55.2744140625" height="40" stroke="black" fill="white" stroke-width="0" /><text x="37.63720703125" y="725.0" dominant-baseline="middle" text-anchor="middle" font-size="14px">m110: </text><rect x="10.0" y="755.0" width="55.2744140625" height="40" stroke="black" fill="white" stroke-width="0" /><text x="37.63720703125" y="775.0" dominant-baseline="middle" text-anchor="middle" font-size="14px">m111: </text><rect x="10.0" y="805.0" width="55.2744140625" height="40" stroke="black" fill="white" stroke-width="0" /><text x="37.63720703125" y="825.0" dominant-baseline="middle" text-anchor="middle" font-size="14px">target: </text><circle cx="105.2744140625" cy="75.0" r="10.0" /><circle cx="105.2744140625" cy="425.0" r="10.0" /><rect x="85.2744140625" y="805.0" width="40" height="40" stroke="black" fill="white" stroke-width="1" /><text x="105.2744140625" y="825.0" dominant-baseline="middle" text-anchor="middle" font-size="18px">X</text><circle cx="165.2744140625" cy="375.0" r="10.0" /><circle cx="165.2744140625" cy="475.0" r="10.0" /><rect x="145.2744140625" y="805.0" width="40" height="40" stroke="black" fill="white" stroke-width="1" /><text x="165.2744140625" y="825.0" dominant-baseline="middle" text-anchor="middle" font-size="18px">X</text><circle cx="225.2744140625" cy="175.0" r="10.0" /><circle cx="225.2744140625" cy="525.0" r="10.0" /><rect x="205.2744140625" y="805.0" width="40" height="40" stroke="black" fill="white" stroke-width="1" /><text x="225.2744140625" y="825.0" dominant-baseline="middle" text-anchor="middle" font-size="18px">X</text><circle cx="285.2744140625" cy="325.0" r="10.0" /><circle cx="285.2744140625" cy="575.0" r="10.0" /><rect x="265.2744140625" y="805.0" width="40" height="40" stroke="black" fill="white" stroke-width="1" /><text x="285.2744140625" y="825.0" dominant-baseline="middle" text-anchor="middle" font-size="18px">X</text><circle cx="345.2744140625" cy="25.0" r="10.0" /><circle cx="345.2744140625" cy="625.0" r="10.0" /><rect x="325.2744140625" y="805.0" width="40" height="40" stroke="black" fill="white" stroke-width="1" /><text x="345.2744140625" y="825.0" dominant-baseline="middle" text-anchor="middle" font-size="18px">X</text><circle cx="405.2744140625" cy="275.0" r="10.0" /><circle cx="405.2744140625" cy="675.0" r="10.0" /><rect x="385.2744140625" y="805.0" width="40" height="40" stroke="black" fill="white" stroke-width="1" /><text x="405.2744140625" y="825.0" dominant-baseline="middle" text-anchor="middle" font-size="18px">X</text><circle cx="465.2744140625" cy="125.0" r="10.0" /><circle cx="465.2744140625" cy="725.0" r="10.0" /><rect x="445.2744140625" y="805.0" width="40" height="40" stroke="black" fill="white" stroke-width="1" /><text x="465.2744140625" y="825.0" dominant-baseline="middle" text-anchor="middle" font-size="18px">X</text><circle cx="525.2744140625" cy="225.0" r="10.0" /><circle cx="525.2744140625" cy="775.0" r="10.0" /><rect x="505.2744140625" y="805.0" width="40" height="40" stroke="black" fill="white" stroke-width="1" /><text x="525.2744140625" y="825.0" dominant-baseline="middle" text-anchor="middle" font-size="18px">X</text></svg>