<svg xmlns="http://www.w3.org/2000/svg" width="1083.326875" height="1650.0"><line x1="41.6634375" x2="1053.326875" y1="25.0" y2="25.0" stroke="#1967d2" stroke-width="1" /><line x1="41.6634375" x2="1053.326875" y1="75.0" y2="75.0" stroke="#1967d2" stroke-width="1" /><line x1="41.6634375" x2="1053.326875" y1="125.0" y2="125.0" stroke="#1967d2" stroke-width="1" /><line x1="41.6634375" x2="1053.326875" y1="175.0" y2="175.0" stroke="#1967d2" stroke-width="1" /><line x1="41.6634375" x2="1053.326875" y1="225.0" y2="225.0" stroke="#1967d2" stroke-width="1" /><line x1="41.6634375" x2="1053.326875" y1="275.0" y2="275.0" stroke="#1967d2" stroke-width="1" /><line x1="41.6634375" x2="1053.326875" y1="325.0" y2="325.0" stroke="#1967d2" stroke-width="1" /><line x1="41.6634375" x2="1053.326875" y1="375.0" y2="375.0" stroke="#1967d2" stroke-width="1" /><line x1="41.6634375" x2="1053.326875" y1="425.0" y2="425.0" stroke="#1967d2" stroke-width="1" /><line x1="41.6634375" x2="1053.326875" y1="475.0" y2="475.0" stroke="#1967d2" stroke-width="1" /><line x1="41.6634375" x2="1053.326875" y1="525.0" y2="525.0" stroke="#1967d2" stroke-width="1" /><line x1="41.6634375" x2="1053.326875" y1="575.0" y2="575.0" stroke="#1967d2" stroke-width="1" /><line x1="41.6634375" x2="1053.326875" y1="625.0" y2="625.0" stroke="#1967d2" stroke-width="1" /><line x1="41.6634375" x2="1053.326875" y1="675.0" y2="675.0" stroke="#1967d2" stroke-width="1" /><line x1="41.6634375" x2="1053.326875" y1="725.0" y2="725.0" stroke="#1967d2" stroke-width="1" /><line x1="41.6634375" x2="1053.326875" y1="775.0" y2="775.0" stroke="#1967d2" stroke-width="1" /><line x1="41.6634375" x2="1053.326875" y1="825.0" y2="825.0" stroke="#1967d2" stroke-width="1" /><line x1="41.6634375" x2="1053.326875" y1="875.0" y2="875.0" stroke="#1967d2" stroke-width="1" /><line x1="41.6634375" x2="1053.326875" y1="925.0" y2="925.0" stroke="#1967d2" stroke-width="1" /><line x1="41.6634375" x2="1053.326875" y1="975.0" y2="975.0" stroke="#1967d2" stroke-width="1" /><line x1="41.6634375" x2="1053.326875" y1="1025.0" y2="1025.0" stroke="#1967d2" stroke-width="1" /><line x1="41.6634375" x2="1053.326875" y1="1075.0" y2="1075.0" stroke="#1967d2" stroke-width="1" /><line x1="41.6634375" x2="1053.326875" y1="1125.0" y2="1125.0" stroke="#1967d2" stroke-width="1" /><line x1="41.6634375" x2="1053.326875" y1="1175.0" y2="1175.0" stroke="#1967d2" stroke-width="1" /><line x1="41.6634375" x2="1053.326875" y1="1225.0" y2="1225.0" stroke="#1967d2" stroke-width="1" /><line x1="41.6634375" x2="1053.326875" y1="1275.0" y2="1275.0" stroke="#1967d2" stroke-width="1" /><line x1="41.6634375" x2="1053.326875" y1="1325.0" y2="1325.0" stroke="#1967d2" stroke-width="1" /><line x1="41.6634375" x2="1053.326875" y1="1375.0" y2="1375.0" stroke="#1967d2" stroke-width="1" /><line x1="41.6634375" x2="1053.326875" y1="1425.0" y2="1425.0" stroke="#1967d2" stroke-width="1" /><line x1="41.6634375" x2="1053.326875" y1="1475.0" y2="1475.0" stroke="#1967d2" stroke-width="1" /><line x1="41.6634375" x2="1053.326875" y1="1525.0" y2="1525.0" stroke="#1967d2" stroke-width="1" /><line x1="41.6634375" x2="1053.326875" y1="1575.0" y2="1575.0" stroke="#1967d2" stroke-width="1" /><line x1="41.6634375" x2="1053.326875" y1="1625.0" y2="1625.0" stroke="#1967d2" stroke-width="1" /><line x1="113.326875" x2="113.326875" y1="75.0" y2="1625.0" stroke="black" stroke-width="3" /><line x1="173.326875" x2="173.326875" y1="775.0" y2="1625.0" stroke="black" stroke-width="3" /><line x1="233.326875" x2="233.326875" y1="375.0" y2="1625.0" stroke="black" stroke-width="3" /><line x1="293.326875" x2="293.326875" y1="725.0" y2="1625.0" stroke="black" stroke-width="3" /><line x1="353.326875" x2="353.326875" y1="175.0" y2="1625.0" stroke="black" stroke-width="3" /><line x1="413.326875" x2="413.326875" y1="675.0" y2="1625.0" stroke="black" stroke-width="3" /><line x1="473.326875" x2="473.326875" y1="325.0" y2="1625.0" stroke="black" stroke-width="3" /><line x1="533.326875" x2="533.326875" y1="625.0" y2="1625.0" stroke="black" stroke-width="3" /><line x1="593.326875" x2="593.326875" y1="25.0" y2="1625.0" stroke="black" stroke-width="3" /><line x1="653.326875" x2="653.326875" y1="575.0" y2="1625.0" stroke="black" stroke-width="3" /><line x1="713.326875" x2="713.326875" y1="275.0" y2="1625.0" stroke="black" stroke-width="3" /><line x1="773.326875" x2="773.326875" y1="525.0" y2="1625.0" stroke="black" stroke-width="3" /><line x1="833.326875" x2="833.326875" y1="125.0" y2="1625.0" stroke="black" stroke-width="3" /><line x1="893.326875" x2="893.326875" y1="475.0" y2="1625.0" stroke="black" stroke-width="3" /><line x1="953.326875" x2="953.326875" y1="225.0" y2="1625.0" stroke="black" stroke-width="3" /><line x1="1013.326875" x2="1013.326875" y1="425.0" y2="1625.0" stroke="black" stroke-width="3" /><rect x="10.0" y="5.0" width="63.326875" height="40" stroke="black" fill="white" stroke-width="0" /><text x="41.6634375" y="25.0" dominant-baseline="middle" text-anchor="middle" font-size="14px">b_0000: </text><rect x="10.0" y="55.0" width="63.326875" height="40" stroke="black" fill="white" stroke-width="0" /><text x="41.6634375" y="75.0" dominant-baseline="middle" text-anchor="middle" font-size="14px">b_0001: </text><rect x="10.0" y="105.0" width="63.326875" height="40" stroke="black" fill="white" stroke-width="0" /><text x="41.6634375" y="125.0" dominant-baseline="middle" text-anchor="middle" font-size="14px">b_0010: </text><rect x="10.0" y="155.0" width="63.326875" height="40" stroke="black" fill="white" stroke-width="0" /><text x="41.6634375" y="175.0" dominant-baseline="middle" text-anchor="middle" font-size="14px">b_0011: </text><rect x="10.0" y="205.0" width="63.326875" height="40" stroke="black" fill="white" stroke-width="0" /><text x="41.6634375" y="225.0" dominant-baseline="middle" text-anchor="middle" font-size="14px">b_0100: </text><rect x="10.0" y="255.0" width="63.326875" height="40" stroke="black" fill="white" stroke-width="0" /><text x="41.6634375" y="275.0" dominant-baseline="middle" text-anchor="middle" font-size="14px">b_0101: </text><rect x="10.0" y="305.0" width="63.326875" height="40" stroke="black" fill="white" stroke-width="0" /><text x="41.6634375" y="325.0" dominant-baseline="middle" text-anchor="middle" font-size="14px">b_0110: </text><rect x="10.0" y="355.0" width="63.326875" height="40" stroke="black" fill="white" stroke-width="0" /><text x="41.6634375" y="375.0" dominant-baseline="middle" text-anchor="middle" font-size="14px">b_0111: </text><rect x="10.0" y="405.0" width="63.326875" height="40" stroke="black" fill="white" stroke-width="0" /><text x="41.6634375" y="425.0" dominant-baseline="middle" text-anchor="middle" font-size="14px">b_1000: </text><rect x="10.0" y="455.0" width="63.326875" height="40" stroke="black" fill="white" stroke-width="0" /><text x="41.6634375" y="475.0" dominant-baseline="middle" text-anchor="middle" font-size="14px">b_1001: </text><rect x="10.0" y="505.0" width="63.326875" height="40" stroke="black" fill="white" stroke-width="0" /><text x="41.6634375" y="525.0" dominant-baseline="middle" text-anchor="middle" font-size="14px">b_1010: </text><rect x="10.0" y="555.0" width="63.326875" height="40" stroke="black" fill="white" stroke-width="0" /><text x="41.6634375" y="575.0" dominant-baseline="middle" text-anchor="middle" font-size="14px">b_1011: </text><rect x="10.0" y="605.0" width="63.326875" height="40" stroke="black" fill="white" stroke-width="0" /><text x="41.6634375" y="625.0" dominant-baseline="middle" text-anchor="middle" font-size="14px">b_1100: </text><rect x="10.0" y="655.0" width="63.326875" height="40" stroke="black" fill="white" stroke-width="0" /><text x="41.6634375" y="675.0" dominant-baseline="middle" text-anchor="middle" font-size="14px">b_1101: </text><rect x="10.0" y="705.0" width="63.326875" height="40" stroke="black" fill="white" stroke-width="0" /><text x="41.6634375" y="725.0" dominant-baseline="middle" text-anchor="middle" font-size="14px">b_1110: </text><rect x="10.0" y="755.0" width="63.326875" height="40" stroke="black" fill="white" stroke-width="0" /><text x="41.6634375" y="775.0" dominant-baseline="middle" text-anchor="middle" font-size="14px">b_1111: </text><rect x="10.0" y="805.0" width="63.326875" height="40" stroke="black" fill="white" stroke-width="0" /><text x="41.6634375" y="825.0" dominant-baseline="middle" text-anchor="middle" font-size="14px">m0000: </text><rect x="10.0" y="855.0" width="63.326875" height="40" stroke="black" fill="white" stroke-width="0" /><text x="41.6634375" y="875.0" dominant-baseline="middle" text-anchor="middle" font-size="14px">m0001: </text><rect x="10.0" y="905.0" width="63.326875" height="40" stroke="black" fill="white" stroke-width="0" /><text x="41.6634375" y="925.0" dominant-baseline="middle" text-anchor="middle" font-size="14px">m0010: </text><rect x="10.0" y="955.0" width="63.326875" height="40" stroke="black" fill="white" stroke-width="0" /><text x="41.6634375" y="975.0" dominant-baseline="middle" text-anchor="middle" font-size="14px">m0011: </text><rect x="10.0" y="1005.0" width="63.326875" height="40" stroke="black" fill="white" stroke-width="0" /><text x="41.6634375" y="1025.0" dominant-baseline="middle" text-anchor="middle" font-size="14px">m0100: </text><rect x="10.0" y="1055.0" width="63.326875" height="40" stroke="black" fill="white" stroke-width="0" /><text x="41.6634375" y="1075.0" dominant-baseline="middle" text-anchor="middle" font-size="14px">m0101: </text><rect x="10.0" y="1105.0" width="63.326875" height="40" stroke="black" fill="white" stroke-width="0" /><text x="41.6634375" y="1125.0" dominant-baseline="middle" text-anchor="middle" font-size="14px">m0110: </text><rect x="10.0" y="1155.0" width="63.326875" height="40" stroke="black" fill="white" stroke-width="0" /><text x="41.6634375" y="1175.0" dominant-baseline="middle" text-anchor="middle" font-size="14px">m0111: </text><rect x="10.0" y="1205.0" width="63.326875" height="40" stroke="black" fill="white" stroke-width="0" /><text x="41.6634375" y="1225.0" dominant-baseline="middle" text-anchor="middle" font-size="14px">m1000: </text><rect x="10.0" y="1255.0" width="63.326875" height="40" stroke="black" fill="white" stroke-width="0" /><text x="41.6634375" y="1275.0" dominant-baseline="middle" text-anchor="middle" font-size="14px">m1001: </text><rect x="10.0" y="1305.0" width="63.326875" height="40" stroke="black" fill="white" stroke-width="0" /><text x="41.6634375" y="1325.0" dominant-baseline="middle" text-anchor="middle" font-size="14px">m1010: </text><rect x="10.0" y="1355.0" width="63.326875" height="40" stroke="black" fill="white" stroke-width="0" /><text x="41.6634375" y="1375.0" dominant-baseline="middle" text-anchor="middle" font-size="14px">m1011: </text><rect x="10.0" y="1405.0" width="63.326875" height="40" stroke="black" fill="white" stroke-width="0" /><text x="41.6634375" y="1425.0" dominant-baseline="middle" text-anchor="middle" font-size="14px">m1100: </text><rect x="10.0" y="1455.0" width="63.326875" height="40" stroke="black" fill="white" stroke-width="0" /><text x="41.6634375" y="1475.0" dominant-baseline="middle" text-anchor="middle" font-size="14px">m1101: </text><rect x="10.0" y="1505.0" width="63.326875" height="40" stroke="black" fill="white" stroke-width="0" /><text x="41.6634375" y="1525.0" dominant-baseline="middle" text-anchor="middle" font-size="14px">m1110: </text><rect x="10.0" y="1555.0" width="63.326875" height="40" stroke="black" fill="white" stroke-width="0" /><text x="41.6634375" y="1575.0" dominant-baseline="middle" text-anchor="middle" font-size="14px">m1111: </text><rect x="10.0" y="1605.0" width="63.326875" height="40" stroke="black" fill="white" stroke-width="0" /><text x="41.6634375" y="1625.0" dominant-baseline="middle" text-anchor="middle" font-size="14px">target: </text><circle cx="113.326875" cy="75.0" r="10.0" /><circle cx="113.326875" cy="825.0" r="10.0" /><rect x="93.326875" y="1605.0" width="40" height="40" stroke="black" fill="white" stroke-width="1" /><text x="113.326875" y="1625.0" dominant-baseline="middle" text-anchor="middle" font-size="18px">X</text><circle cx="173.326875" cy="775.0" r="10.0" /><circle cx="173.326875" cy="875.0" r="10.0" /><rect x="153.326875" y="1605.0" width="40" height="40" stroke="black" fill="white" stroke-width="1" /><text x="173.326875" y="1625.0" dominant-baseline="middle" text-anchor="middle" font-size="18px">X</text><circle cx="233.326875" cy="375.0" r="10.0" /><circle cx="233.326875" cy="925.0" r="10.0" /><rect x="213.326875" y="1605.0" width="40" height="40" stroke="black" fill="white" stroke-width="1" /><text x="233.326875" y="1625.0" dominant-baseline="middle" text-anchor="middle" font-size="18px">X</text><circle cx="293.326875" cy="725.0" r="10.0" /><circle cx="293.326875" cy="975.0" r="10.0" /><rect x="273.326875" y="1605.0" width="40" height="40" stroke="black" fill="white" stroke-width="1" /><text x="293.326875" y="1625.0" dominant-baseline="middle" text-anchor="middle" font-size="18px">X</text><circle cx="353.326875" cy="175.0" r="10.0" /><circle cx="353.326875" cy="1025.0" r="10.0" /><rect x="333.326875" y="1605.0" width="40" height="40" stroke="black" fill="white" stroke-width="1" /><text x="353.326875" y="1625.0" dominant-baseline="middle" text-anchor="middle" font-size="18px">X</text><circle cx="413.326875" cy="675.0" r="10.0" /><circle cx="413.326875" cy="1075.0" r="10.0" /><rect x="393.326875" y="1605.0" width="40" height="40" stroke="black" fill="white" stroke-width="1" /><text x="413.326875" y="1625.0" dominant-baseline="middle" text-anchor="middle" font-size="18px">X</text><circle cx="473.326875" cy="325.0" r="10.0" /><circle cx="473.326875" cy="1125.0" r="10.0" /><rect x="453.326875" y="1605.0" width="40" height="40" stroke="black" fill="white" stroke-width="1" /><text x="473.326875" y="1625.0" dominant-baseline="middle" text-anchor="middle" font-size="18px">X</text><circle cx="533.326875" cy="625.0" r="10.0" /><circle cx="533.326875" cy="1175.0" r="10.0" /><rect x="513.326875" y="1605.0" width="40" height="40" stroke="black" fill="white" stroke-width="1" /><text x="533.326875" y="1625.0" dominant-baseline="middle" text-anchor="middle" font-size="18px">X</text><circle cx="593.326875" cy="25.0" r="10.0" /><circle cx="593.326875" cy="1225.0" r="10.0" /><rect x="573.326875" y="1605.0" width="40" height="40" stroke="black" fill="white" stroke-width="1" /><text x="593.326875" y="1625.0" dominant-baseline="middle" text-anchor="middle" font-size="18px">X</text><circle cx="653.326875" cy="575.0" r="10.0" /><circle cx="653.326875" cy="1275.0" r="10.0" /><rect x="633.326875" y="1605.0" width="40" height="40" stroke="black" fill="white" stroke-width="1" /><text x="653.326875" y="1625.0" dominant-baseline="middle" text-anchor="middle" font-size="18px">X</text><circle cx="713.326875" cy="275.0" r="10.0" /><circle cx="713.326875" cy="1325.0" r="10.0" /><rect x="693.326875" y="1605.0" width="40" height="40" stroke="black" fill="white" stroke-width="1" /><text x="713.326875" y="1625.0" dominant-baseline="middle" text-anchor="middle" font-size="18px">X</text><circle cx="773.326875" cy="525.0" r="10.0" /><circle cx="773.326875" cy="1375.0" r="10.0" /><rect x="753.326875" y="1605.0" width="40" height="40" stroke="black" fill="white" stroke-width="1" /><text x="773.326875" y="1625.0" dominant-baseline="middle" text-anchor="middle" font-size="18px">X</text><circle cx="833.326875" cy="125.0" r="10.0" /><circle cx="833.326875" cy="1425.0" r="10.0" /><rect x="813.326875" y="1605.0" width="40" height="40" stroke="black" fill="white" stroke-width="1" /><text x="833.326875" y="1625.0" dominant-baseline="middle" text-anchor="middle" font-size="18px">X</text><circle cx="893.326875" cy="475.0" r="10.0" /><circle cx="893.326875" cy="1475.0" r="10.0" /><rect x="873.326875" y="1605.0" width="40" height="40" stroke="black" fill="white" stroke-width="1" /><text x="893.326875" y="1625.0" dominant-baseline="middle" text-anchor="middle" font-size="18px">X</text><circle cx="953.326875" cy="225.0" r="10.0" /><circle cx="953.326875" cy="1525.0" r="10.0" /><rect x="933.326875" y="1605.0" width="40" height="40" stroke="black" fill="white" stroke-width="1" /><text x="953.326875" y="1625.0" dominant-baseline="middle" text-anchor="middle" font-size="18px">X</text><circle cx="1013.326875" cy="425.0" r="10.0" /><circle cx="1013.326875" cy="1575.0" r="10.0" /><rect x="993.326875" y="1605.0" width="40" height="40" stroke="black" fill="white" stroke-width="1" /><text x="1013.326875" y="1625.0" dominant-baseline="middle" text-anchor="middle" font-size="18px">X</text></svg>