<svg xmlns="http://www.w3.org/2000/svg" width="2052.2341015624997" height="3250.0"><line x1="46.11705078125" x2="2022.2341015625" y1="25.0" y2="25.0" stroke="#1967d2" stroke-width="1" /><line x1="46.11705078125" x2="2022.2341015625" y1="75.0" y2="75.0" stroke="#1967d2" stroke-width="1" /><line x1="46.11705078125" x2="2022.2341015625" y1="125.0" y2="125.0" stroke="#1967d2" stroke-width="1" /><line x1="46.11705078125" x2="2022.2341015625" y1="175.0" y2="175.0" stroke="#1967d2" stroke-width="1" /><line x1="46.11705078125" x2="2022.2341015625" y1="225.0" y2="225.0" stroke="#1967d2" stroke-width="1" /><line x1="46.11705078125" x2="2022.2341015625" y1="275.0" y2="275.0" stroke="#1967d2" stroke-width="1" /><line x1="46.11705078125" x2="2022.2341015625" y1="325.0" y2="325.0" stroke="#1967d2" stroke-width="1" /><line x1="46.11705078125" x2="2022.2341015625" y1="375.0" y2="375.0" stroke="#1967d2" stroke-width="1" /><line x1="46.11705078125" x2="2022.2341015625" y1="425.0" y2="425.0" stroke="#1967d2" stroke-width="1" /><line x1="46.11705078125" x2="2022.2341015625" y1="475.0" y2="475.0" stroke="#1967d2" stroke-width="1" /><line x1="46.11705078125" x2="2022.2341015625" y1="525.0" y2="525.0" stroke="#1967d2" stroke-width="1" /><line x1="46.11705078125" x2="2022.2341015625" y1="575.0" y2="575.0" stroke="#1967d2" stroke-width="1" /><line x1="46.11705078125" x2="2022.2341015625" y1="625.0" y2="625.0" stroke="#1967d2" stroke-width="1" /><line x1="46.11705078125" x2="2022.2341015625" y1="675.0" y2="675.0" stroke="#1967d2" stroke-width="1" /><line x1="46.11705078125" x2="2022.2341015625" y1="725.0" y2="725.0" stroke="#1967d2" stroke-width="1" /><line x1="46.11705078125" x2="2022.2341015625" y1="775.0" y2="775.0" stroke="#1967d2" stroke-width="1" /><line x1="46.11705078125" x2="2022.2341015625" y1="825.0" y2="825.0" stroke="#1967d2" stroke-width="1" /><line x1="46.11705078125" x2="2022.2341015625" y1="875.0" y2="875.0" stroke="#1967d2" stroke-width="1" /><line x1="46.11705078125" x2="2022.2341015625" y1="925.0" y2="925.0" stroke="#1967d2" stroke-width="1" /><line x1="46.11705078125" x2="2022.2341015625" y1="975.0" y2="975.0" stroke="#1967d2" stroke-width="1" /><line x1="46.11705078125" x2="2022.2341015625" y1="1025.0" y2="1025.0" stroke="#1967d2" stroke-width="1" /><line x1="46.11705078125" x2="2022.2341015625" y1="1075.0" y2="1075.0" stroke="#1967d2" stroke-width="1" /><line x1="46.11705078125" x2="2022.2341015625" y1="1125.0" y2="1125.0" stroke="#1967d2" stroke-width="1" /><line x1="46.11705078125" x2="2022.2341015625" y1="1175.0" y2="1175.0" stroke="#1967d2" stroke-width="1" /><line x1="46.11705078125" x2="2022.2341015625" y1="1225.0" y2="1225.0" stroke="#1967d2" stroke-width="1" /><line x1="46.11705078125" x2="2022.2341015625" y1="1275.0" y2="1275.0" stroke="#1967d2" stroke-width="1" /><line x1="46.11705078125" x2="2022.2341015625" y1="1325.0" y2="1325.0" stroke="#1967d2" stroke-width="1" /><line x1="46.11705078125" x2="2022.2341015625" y1="1375.0" y2="1375.0" stroke="#1967d2" stroke-width="1" /><line x1="46.11705078125" x2="2022.2341015625" y1="1425.0" y2="1425.0" stroke="#1967d2" stroke-width="1" /><line x1="46.11705078125" x2="2022.2341015625" y1="1475.0" y2="1475.0" stroke="#1967d2" stroke-width="1" /><line x1="46.11705078125" x2="2022.2341015625" y1="1525.0" y2="1525.0" stroke="#1967d2" stroke-width="1" /><line x1="46.11705078125" x2="2022.2341015625" y1="1575.0" y2="1575.0" stroke="#1967d2" stroke-width="1" /><line x1="46.11705078125" x2="2022.2341015625" y1="1625.0" y2="1625.0" stroke="#1967d2" stroke-width="1" /><line x1="46.11705078125" x2="2022.2341015625" y1="1675.0" y2="1675.0" stroke="#1967d2" stroke-width="1" /><line x1="46.11705078125" x2="2022.2341015625" y1="1725.0" y2="1725.0" stroke="#1967d2" stroke-width="1" /><line x1="46.11705078125" x2="2022.2341015625" y1="1775.0" y2="1775.0" stroke="#1967d2" stroke-width="1" /><line x1="46.11705078125" x2="2022.2341015625" y1="1825.0" y2="1825.0" stroke="#1967d2" stroke-width="1" /><line x1="46.11705078125" x2="2022.2341015625" y1="1875.0" y2="1875.0" stroke="#1967d2" stroke-width="1" /><line x1="46.11705078125" x2="2022.2341015625" y1="1925.0" y2="1925.0" stroke="#1967d2" stroke-width="1" /><line x1="46.11705078125" x2="2022.2341015625" y1="1975.0" y2="1975.0" stroke="#1967d2" stroke-width="1" /><line x1="46.11705078125" x2="2022.2341015625" y1="2025.0" y2="2025.0" stroke="#1967d2" stroke-width="1" /><line x1="46.11705078125" x2="2022.2341015625" y1="2075.0" y2="2075.0" stroke="#1967d2" stroke-width="1" /><line x1="46.11705078125" x2="2022.2341015625" y1="2125.0" y2="2125.0" stroke="#1967d2" stroke-width="1" /><line x1="46.11705078125" x2="2022.2341015625" y1="2175.0" y2="2175.0" stroke="#1967d2" stroke-width="1" /><line x1="46.11705078125" x2="2022.2341015625" y1="2225.0" y2="2225.0" stroke="#1967d2" stroke-width="1" /><line x1="46.11705078125" x2="2022.2341015625" y1="2275.0" y2="2275.0" stroke="#1967d2" stroke-width="1" /><line x1="46.11705078125" x2="2022.2341015625" y1="2325.0" y2="2325.0" stroke="#1967d2" stroke-width="1" /><line x1="46.11705078125" x2="2022.2341015625" y1="2375.0" y2="2375.0" stroke="#1967d2" stroke-width="1" /><line x1="46.11705078125" x2="2022.2341015625" y1="2425.0" y2="2425.0" stroke="#1967d2" stroke-width="1" /><line x1="46.11705078125" x2="2022.2341015625" y1="2475.0" y2="2475.0" stroke="#1967d2" stroke-width="1" /><line x1="46.11705078125" x2="2022.2341015625" y1="2525.0" y2="2525.0" stroke="#1967d2" stroke-width="1" /><line x1="46.11705078125" x2="2022.2341015625" y1="2575.0" y2="2575.0" stroke="#1967d2" stroke-width="1" /><line x1="46.11705078125" x2="2022.2341015625" y1="2625.0" y2="2625.0" stroke="#1967d2" stroke-width="1" /><line x1="46.11705078125" x2="2022.2341015625" y1="2675.0" y2="2675.0" stroke="#1967d2" stroke-width="1" /><line x1="46.11705078125" x2="2022.2341015625" y1="2725.0" y2="2725.0" stroke="#1967d2" stroke-width="1" /><line x1="46.11705078125" x2="2022.2341015625" y1="2775.0" y2="2775.0" stroke="#1967d2" stroke-width="1" /><line x1="46.11705078125" x2="2022.2341015625" y1="2825.0" y2="2825.0" stroke="#1967d2" stroke-width="1" /><line x1="46.11705078125" x2="2022.2341015625" y1="2875.0" y2="2875.0" stroke="#1967d2" stroke-width="1" /><line x1="46.11705078125" x2="2022.2341015625" y1="2925.0" y2="2925.0" stroke="#1967d2" stroke-width="1" /><line x1="46.11705078125" x2="2022.2341015625" y1="2975.0" y2="2975.0" stroke="#1967d2" stroke-width="1" /><line x1="46.11705078125" x2="2022.2341015625" y1="3025.0" y2="3025.0" stroke="#1967d2" stroke-width="1" /><line x1="46.11705078125" x2="2022.2341015625" y1="3075.0" y2="3075.0" stroke="#1967d2" stroke-width="1" /><line x1="46.11705078125" x2="2022.2341015625" y1="3125.0" y2="3125.0" stroke="#1967d2" stroke-width="1" /><line x1="46.11705078125" x2="2022.2341015625" y1="3175.0" y2="3175.0" stroke="#1967d2" stroke-width="1" /><line x1="46.11705078125" x2="2022.2341015625" y1="3225.0" y2="3225.0" stroke="#1967d2" stroke-width="1" /><line x1="122.2341015625" x2="122.2341015625" y1="75.0" y2="3225.0" stroke="black" stroke-width="3" /><line x1="182.2341015625" x2="182.2341015625" y1="1575.0" y2="3225.0" stroke="black" stroke-width="3" /><line x1="242.2341015625" x2="242.2341015625" y1="775.0" y2="3225.0" stroke="black" stroke-width="3" /><line x1="302.2341015625" x2="302.2341015625" y1="1525.0" y2="3225.0" stroke="black" stroke-width="3" /><line x1="362.2341015625" x2="362.2341015625" y1="375.0" y2="3225.0" stroke="black" stroke-width="3" /><line x1="422.2341015625" x2="422.2341015625" y1="1475.0" y2="3225.0" stroke="black" stroke-width="3" /><line x1="482.2341015625" x2="482.2341015625" y1="725.0" y2="3225.0" stroke="black" stroke-width="3" /><line x1="542.2341015625" x2="542.2341015625" y1="1425.0" y2="3225.0" stroke="black" stroke-width="3" /><line x1="602.2341015625" x2="602.2341015625" y1="175.0" y2="3225.0" stroke="black" stroke-width="3" /><line x1="662.2341015625" x2="662.2341015625" y1="1375.0" y2="3225.0" stroke="black" stroke-width="3" /><line x1="722.2341015625" x2="722.2341015625" y1="675.0" y2="3225.0" stroke="black" stroke-width="3" /><line x1="782.2341015625" x2="782.2341015625" y1="1325.0" y2="3225.0" stroke="black" stroke-width="3" /><line x1="842.2341015625" x2="842.2341015625" y1="325.0" y2="3225.0" stroke="black" stroke-width="3" /><line x1="902.2341015625" x2="902.2341015625" y1="1275.0" y2="3225.0" stroke="black" stroke-width="3" /><line x1="962.2341015625" x2="962.2341015625" y1="625.0" y2="3225.0" stroke="black" stroke-width="3" /><line x1="1022.2341015625" x2="1022.2341015625" y1="1225.0" y2="3225.0" stroke="black" stroke-width="3" /><line x1="1082.2341015625" x2="1082.2341015625" y1="25.0" y2="3225.0" stroke="black" stroke-width="3" /><line x1="1142.2341015625" x2="1142.2341015625" y1="1175.0" y2="3225.0" stroke="black" stroke-width="3" /><line x1="1202.2341015625" x2="1202.2341015625" y1="575.0" y2="3225.0" stroke="black" stroke-width="3" /><line x1="1262.2341015625" x2="1262.2341015625" y1="1125.0" y2="3225.0" stroke="black" stroke-width="3" /><line x1="1322.2341015625" x2="1322.2341015625" y1="275.0" y2="3225.0" stroke="black" stroke-width="3" /><line x1="1382.2341015625" x2="1382.2341015625" y1="1075.0" y2="3225.0" stroke="black" stroke-width="3" /><line x1="1442.2341015625" x2="1442.2341015625" y1="525.0" y2="3225.0" stroke="black" stroke-width="3" /><line x1="1502.2341015625" x2="1502.2341015625" y1="1025.0" y2="3225.0" stroke="black" stroke-width="3" /><line x1="1562.2341015625" x2="1562.2341015625" y1="125.0" y2="3225.0" stroke="black" stroke-width="3" /><line x1="1622.2341015625" x2="1622.2341015625" y1="975.0" y2="3225.0" stroke="black" stroke-width="3" /><line x1="1682.2341015625" x2="1682.2341015625" y1="475.0" y2="3225.0" stroke="black" stroke-width="3" /><line x1="1742.2341015625" x2="1742.2341015625" y1="925.0" y2="3225.0" stroke="black" stroke-width="3" /><line x1="1802.2341015625" x2="1802.2341015625" y1="225.0" y2="3225.0" stroke="black" stroke-width="3" /><line x1="1862.2341015625" x2="1862.2341015625" y1="875.0" y2="3225.0" stroke="black" stroke-width="3" /><line x1="1922.2341015625" x2="1922.2341015625" y1="425.0" y2="3225.0" stroke="black" stroke-width="3" /><line x1="1982.2341015625" x2="1982.2341015625" y1="825.0" y2="3225.0" stroke="black" stroke-width="3" /><rect x="10.0" y="5.0" width="72.2341015625" height="40" stroke="black" fill="white" stroke-width="0" /><text x="46.11705078125" y="25.0" dominant-baseline="middle" text-anchor="middle" font-size="14px">b_00000: </text><rect x="10.0" y="55.0" width="72.2341015625" height="40" stroke="black" fill="white" stroke-width="0" /><text x="46.11705078125" y="75.0" dominant-baseline="middle" text-anchor="middle" font-size="14px">b_00001: </text><rect x="10.0" y="105.0" width="72.2341015625" height="40" stroke="black" fill="white" stroke-width="0" /><text x="46.11705078125" y="125.0" dominant-baseline="middle" text-anchor="middle" font-size="14px">b_00010: </text><rect x="10.0" y="155.0" width="72.2341015625" height="40" stroke="black" fill="white" stroke-width="0" /><text x="46.11705078125" y="175.0" dominant-baseline="middle" text-anchor="middle" font-size="14px">b_00011: </text><rect x="10.0" y="205.0" width="72.2341015625" height="40" stroke="black" fill="white" stroke-width="0" /><text x="46.11705078125" y="225.0" dominant-baseline="middle" text-anchor="middle" font-size="14px">b_00100: </text><rect x="10.0" y="255.0" width="72.2341015625" height="40" stroke="black" fill="white" stroke-width="0" /><text x="46.11705078125" y="275.0" dominant-baseline="middle" text-anchor="middle" font-size="14px">b_00101: </text><rect x="10.0" y="305.0" width="72.2341015625" height="40" stroke="black" fill="white" stroke-width="0" /><text x="46.11705078125" y="325.0" dominant-baseline="middle" text-anchor="middle" font-size="14px">b_00110: </text><rect x="10.0" y="355.0" width="72.2341015625" height="40" stroke="black" fill="white" stroke-width="0" /><text x="46.11705078125" y="375.0" dominant-baseline="middle" text-anchor="middle" font-size="14px">b_00111: </text><rect x="10.0" y="405.0" width="72.2341015625" height="40" stroke="black" fill="white" stroke-width="0" /><text x="46.11705078125" y="425.0" dominant-baseline="middle" text-anchor="middle" font-size="14px">b_01000: </text><rect x="10.0" y="455.0" width="72.2341015625" height="40" stroke="black" fill="white" stroke-width="0" /><text x="46.11705078125" y="475.0" dominant-baseline="middle" text-anchor="middle" font-size="14px">b_01001: </text><rect x="10.0" y="505.0" width="72.2341015625" height="40" stroke="black" fill="white" stroke-width="0" /><text x="46.11705078125" y="525.0" dominant-baseline="middle" text-anchor="middle" font-size="14px">b_01010: </text><rect x="10.0" y="555.0" width="72.2341015625" height="40" stroke="black" fill="white" stroke-width="0" /><text x="46.11705078125" y="575.0" dominant-baseline="middle" text-anchor="middle" font-size="14px">b_01011: </text><rect x="10.0" y="605.0" width="72.2341015625" height="40" stroke="black" fill="white" stroke-width="0" /><text x="46.11705078125" y="625.0" dominant-baseline="middle" text-anchor="middle" font-size="14px">b_01100: </text><rect x="10.0" y="655.0" width="72.2341015625" height="40" stroke="black" fill="white" stroke-width="0" /><text x="46.11705078125" y="675.0" dominant-baseline="middle" text-anchor="middle" font-size="14px">b_01101: </text><rect x="10.0" y="705.0" width="72.2341015625" height="40" stroke="black" fill="white" stroke-width="0" /><text x="46.11705078125" y="725.0" dominant-baseline="middle" text-anchor="middle" font-size="14px">b_01110: </text><rect x="10.0" y="755.0" width="72.2341015625" height="40" stroke="black" fill="white" stroke-width="0" /><text x="46.11705078125" y="775.0" dominant-baseline="middle" text-anchor="middle" font-size="14px">b_01111: </text><rect x="10.0" y="805.0" width="72.2341015625" height="40" stroke="black" fill="white" stroke-width="0" /><text x="46.11705078125" y="825.0" dominant-baseline="middle" text-anchor="middle" font-size="14px">b_10000: </text><rect x="10.0" y="855.0" width="72.2341015625" height="40" stroke="black" fill="white" stroke-width="0" /><text x="46.11705078125" y="875.0" dominant-baseline="middle" text-anchor="middle" font-size="14px">b_10001: </text><rect x="10.0" y="905.0" width="72.2341015625" height="40" stroke="black" fill="white" stroke-width="0" /><text x="46.11705078125" y="925.0" dominant-baseline="middle" text-anchor="middle" font-size="14px">b_10010: </text><rect x="10.0" y="955.0" width="72.2341015625" height="40" stroke="black" fill="white" stroke-width="0" /><text x="46.11705078125" y="975.0" dominant-baseline="middle" text-anchor="middle" font-size="14px">b_10011: </text><rect x="10.0" y="1005.0" width="72.2341015625" height="40" stroke="black" fill="white" stroke-width="0" /><text x="46.11705078125" y="1025.0" dominant-baseline="middle" text-anchor="middle" font-size="14px">b_10100: </text><rect x="10.0" y="1055.0" width="72.2341015625" height="40" stroke="black" fill="white" stroke-width="0" /><text x="46.11705078125" y="1075.0" dominant-baseline="middle" text-anchor="middle" font-size="14px">b_10101: </text><rect x="10.0" y="1105.0" width="72.2341015625" height="40" stroke="black" fill="white" stroke-width="0" /><text x="46.11705078125" y="1125.0" dominant-baseline="middle" text-anchor="middle" font-size="14px">b_10110: </text><rect x="10.0" y="1155.0" width="72.2341015625" height="40" stroke="black" fill="white" stroke-width="0" /><text x="46.11705078125" y="1175.0" dominant-baseline="middle" text-anchor="middle" font-size="14px">b_10111: </text><rect x="10.0" y="1205.0" width="72.2341015625" height="40" stroke="black" fill="white" stroke-width="0" /><text x="46.11705078125" y="1225.0" dominant-baseline="middle" text-anchor="middle" font-size="14px">b_11000: </text><rect x="10.0" y="1255.0" width="72.2341015625" height="40" stroke="black" fill="white" stroke-width="0" /><text x="46.11705078125" y="1275.0" dominant-baseline="middle" text-anchor="middle" font-size="14px">b_11001: </text><rect x="10.0" y="1305.0" width="72.2341015625" height="40" stroke="black" fill="white" stroke-width="0" /><text x="46.11705078125" y="1325.0" dominant-baseline="middle" text-anchor="middle" font-size="14px">b_11010: </text><rect x="10.0" y="1355.0" width="72.2341015625" height="40" stroke="black" fill="white" stroke-width="0" /><text x="46.11705078125" y="1375.0" dominant-baseline="middle" text-anchor="middle" font-size="14px">b_11011: </text><rect x="10.0" y="1405.0" width="72.2341015625" height="40" stroke="black" fill="white" stroke-width="0" /><text x="46.11705078125" y="1425.0" dominant-baseline="middle" text-anchor="middle" font-size="14px">b_11100: </text><rect x="10.0" y="1455.0" width="72.2341015625" height="40" stroke="black" fill="white" stroke-width="0" /><text x="46.11705078125" y="1475.0" dominant-baseline="middle" text-anchor="middle" font-size="14px">b_11101: </text><rect x="10.0" y="1505.0" width="72.2341015625" height="40" stroke="black" fill="white" stroke-width="0" /><text x="46.11705078125" y="1525.0" dominant-baseline="middle" text-anchor="middle" font-size="14px">b_11110: </text><rect x="10.0" y="1555.0" width="72.2341015625" height="40" stroke="black" fill="white" stroke-width="0" /><text x="46.11705078125" y="1575.0" dominant-baseline="middle" text-anchor="middle" font-size="14px">b_11111: </text><rect x="10.0" y="1605.0" width="72.2341015625" height="40" stroke="black" fill="white" stroke-width="0" /><text x="46.11705078125" y="1625.0" dominant-baseline="middle" text-anchor="middle" font-size="14px">m00000: </text><rect x="10.0" y="1655.0" width="72.2341015625" height="40" stroke="black" fill="white" stroke-width="0" /><text x="46.11705078125" y="1675.0" dominant-baseline="middle" text-anchor="middle" font-size="14px">m00001: </text><rect x="10.0" y="1705.0" width="72.2341015625" height="40" stroke="black" fill="white" stroke-width="0" /><text x="46.11705078125" y="1725.0" dominant-baseline="middle" text-anchor="middle" font-size="14px">m00010: </text><rect x="10.0" y="1755.0" width="72.2341015625" height="40" stroke="black" fill="white" stroke-width="0" /><text x="46.11705078125" y="1775.0" dominant-baseline="middle" text-anchor="middle" font-size="14px">m00011: </text><rect x="10.0" y="1805.0" width="72.2341015625" height="40" stroke="black" fill="white" stroke-width="0" /><text x="46.11705078125" y="1825.0" dominant-baseline="middle" text-anchor="middle" font-size="14px">m00100: </text><rect x="10.0" y="1855.0" width="72.2341015625" height="40" stroke="black" fill="white" stroke-width="0" /><text x="46.11705078125" y="1875.0" dominant-baseline="middle" text-anchor="middle" font-size="14px">m00101: </text><rect x="10.0" y="1905.0" width="72.2341015625" height="40" stroke="black" fill="white" stroke-width="0" /><text x="46.11705078125" y="1925.0" dominant-baseline="middle" text-anchor="middle" font-size="14px">m00110: </text><rect x="10.0" y="1955.0" width="72.2341015625" height="40" stroke="black" fill="white" stroke-width="0" /><text x="46.11705078125" y="1975.0" dominant-baseline="middle" text-anchor="middle" font-size="14px">m00111: </text><rect x="10.0" y="2005.0" width="72.2341015625" height="40" stroke="black" fill="white" stroke-width="0" /><text x="46.11705078125" y="2025.0" dominant-baseline="middle" text-anchor="middle" font-size="14px">m01000: </text><rect x="10.0" y="2055.0" width="72.2341015625" height="40" stroke="black" fill="white" stroke-width="0" /><text x="46.11705078125" y="2075.0" dominant-baseline="middle" text-anchor="middle" font-size="14px">m01001: </text><rect x="10.0" y="2105.0" width="72.2341015625" height="40" stroke="black" fill="white" stroke-width="0" /><text x="46.11705078125" y="2125.0" dominant-baseline="middle" text-anchor="middle" font-size="14px">m01010: </text><rect x="10.0" y="2155.0" width="72.2341015625" height="40" stroke="black" fill="white" stroke-width="0" /><text x="46.11705078125" y="2175.0" dominant-baseline="middle" text-anchor="middle" font-size="14px">m01011: </text><rect x="10.0" y="2205.0" width="72.2341015625" height="40" stroke="black" fill="white" stroke-width="0" /><text x="46.11705078125" y="2225.0" dominant-baseline="middle" text-anchor="middle" font-size="14px">m01100: </text><rect x="10.0" y="2255.0" width="72.2341015625" height="40" stroke="black" fill="white" stroke-width="0" /><text x="46.11705078125" y="2275.0" dominant-baseline="middle" text-anchor="middle" font-size="14px">m01101: </text><rect x="10.0" y="2305.0" width="72.2341015625" height="40" stroke="black" fill="white" stroke-width="0" /><text x="46.11705078125" y="2325.0" dominant-baseline="middle" text-anchor="middle" font-size="14px">m01110: </text><rect x="10.0" y="2355.0" width="72.2341015625" height="40" stroke="black" fill="white" stroke-width="0" /><text x="46.11705078125" y="2375.0" dominant-baseline="middle" text-anchor="middle" font-size="14px">m01111: </text><rect x="10.0" y="2405.0" width="72.2341015625" height="40" stroke="black" fill="white" stroke-width="0" /><text x="46.11705078125" y="2425.0" dominant-baseline="middle" text-anchor="middle" font-size="14px">m10000: </text><rect x="10.0" y="2455.0" width="72.2341015625" height="40" stroke="black" fill="white" stroke-width="0" /><text x="46.11705078125" y="2475.0" dominant-baseline="middle" text-anchor="middle" font-size="14px">m10001: </text><rect x="10.0" y="2505.0" width="72.2341015625" height="40" stroke="black" fill="white" stroke-width="0" /><text x="46.11705078125" y="2525.0" dominant-baseline="middle" text-anchor="middle" font-size="14px">m10010: </text><rect x="10.0" y="2555.0" width="72.2341015625" height="40" stroke="black" fill="white" stroke-width="0" /><text x="46.11705078125" y="2575.0" dominant-baseline="middle" text-anchor="middle" font-size="14px">m10011: </text><rect x="10.0" y="2605.0" width="72.2341015625" height="40" stroke="black" fill="white" stroke-width="0" /><text x="46.11705078125" y="2625.0" dominant-baseline="middle" text-anchor="middle" font-size="14px">m10100: </text><rect x="10.0" y="2655.0" width="72.2341015625" height="40" stroke="black" fill="white" stroke-width="0" /><text x="46.11705078125" y="2675.0" dominant-baseline="middle" text-anchor="middle" font-size="14px">m10101: </text><rect x="10.0" y="2705.0" width="72.2341015625" height="40" stroke="black" fill="white" stroke-width="0" /><text x="46.11705078125" y="2725.0" dominant-baseline="middle" text-anchor="middle" font-size="14px">m10110: </text><rect x="10.0" y="2755.0" width="72.2341015625" height="40" stroke="black" fill="white" stroke-width="0" /><text x="46.11705078125" y="2775.0" dominant-baseline="middle" text-anchor="middle" font-size="14px">m10111: </text><rect x="10.0" y="2805.0" width="72.2341015625" height="40" stroke="black" fill="white" stroke-width="0" /><text x="46.11705078125" y="2825.0" dominant-baseline="middle" text-anchor="middle" font-size="14px">m11000: </text><rect x="10.0" y="2855.0" width="72.2341015625" height="40" stroke="black" fill="white" stroke-width="0" /><text x="46.11705078125" y="2875.0" dominant-baseline="middle" text-anchor="middle" font-size="14px">m11001: </text><rect x="10.0" y="2905.0" width="72.2341015625" height="40" stroke="black" fill="white" stroke-width="0" /><text x="46.11705078125" y="2925.0" dominant-baseline="middle" text-anchor="middle" font-size="14px">m11010: </text><rect x="10.0" y="2955.0" width="72.2341015625" height="40" stroke="black" fill="white" stroke-width="0" /><text x="46.11705078125" y="2975.0" dominant-baseline="middle" text-anchor="middle" font-size="14px">m11011: </text><rect x="10.0" y="3005.0" width="72.2341015625" height="40" stroke="black" fill="white" stroke-width="0" /><text x="46.11705078125" y="3025.0" dominant-baseline="middle" text-anchor="middle" font-size="14px">m11100: </text><rect x="10.0" y="3055.0" width="72.2341015625" height="40" stroke="black" fill="white" stroke-width="0" /><text x="46.11705078125" y="3075.0" dominant-baseline="middle" text-anchor="middle" font-size="14px">m11101: </text><rect x="10.0" y="3105.0" width="72.2341015625" height="40" stroke="black" fill="white" stroke-width="0" /><text x="46.11705078125" y="3125.0" dominant-baseline="middle" text-anchor="middle" font-size="14px">m11110: </text><rect x="10.0" y="3155.0" width="72.2341015625" height="40" stroke="black" fill="white" stroke-width="0" /><text x="46.11705078125" y="3175.0" dominant-baseline="middle" text-anchor="middle" font-size="14px">m11111: </text><rect x="10.0" y="3205.0" width="72.2341015625" height="40" stroke="black" fill="white" stroke-width="0" /><text x="46.11705078125" y="3225.0" dominant-baseline="middle" text-anchor="middle" font-size="14px">target: </text><circle cx="122.2341015625" cy="75.0" r="10.0" /><circle cx="122.2341015625" cy="1625.0" r="10.0" /><rect x="102.2341015625" y="3205.0" width="40" height="40" stroke="black" fill="white" stroke-width="1" /><text x="122.2341015625" y="3225.0" dominant-baseline="middle" text-anchor="middle" font-size="18px">X</text><circle cx="182.2341015625" cy="1575.0" r="10.0" /><circle cx="182.2341015625" cy="1675.0" r="10.0" /><rect x="162.2341015625" y="3205.0" width="40" height="40" stroke="black" fill="white" stroke-width="1" /><text x="182.2341015625" y="3225.0" dominant-baseline="middle" text-anchor="middle" font-size="18px">X</text><circle cx="242.2341015625" cy="775.0" r="10.0" /><circle cx="242.2341015625" cy="1725.0" r="10.0" /><rect x="222.2341015625" y="3205.0" width="40" height="40" stroke="black" fill="white" stroke-width="1" /><text x="242.2341015625" y="3225.0" dominant-baseline="middle" text-anchor="middle" font-size="18px">X</text><circle cx="302.2341015625" cy="1525.0" r="10.0" /><circle cx="302.2341015625" cy="1775.0" r="10.0" /><rect x="282.2341015625" y="3205.0" width="40" height="40" stroke="black" fill="white" stroke-width="1" /><text x="302.2341015625" y="3225.0" dominant-baseline="middle" text-anchor="middle" font-size="18px">X</text><circle cx="362.2341015625" cy="375.0" r="10.0" /><circle cx="362.2341015625" cy="1825.0" r="10.0" /><rect x="342.2341015625" y="3205.0" width="40" height="40" stroke="black" fill="white" stroke-width="1" /><text x="362.2341015625" y="3225.0" dominant-baseline="middle" text-anchor="middle" font-size="18px">X</text><circle cx="422.2341015625" cy="1475.0" r="10.0" /><circle cx="422.2341015625" cy="1875.0" r="10.0" /><rect x="402.2341015625" y="3205.0" width="40" height="40" stroke="black" fill="white" stroke-width="1" /><text x="422.2341015625" y="3225.0" dominant-baseline="middle" text-anchor="middle" font-size="18px">X</text><circle cx="482.2341015625" cy="725.0" r="10.0" /><circle cx="482.2341015625" cy="1925.0" r="10.0" /><rect x="462.2341015625" y="3205.0" width="40" height="40" stroke="black" fill="white" stroke-width="1" /><text x="482.2341015625" y="3225.0" dominant-baseline="middle" text-anchor="middle" font-size="18px">X</text><circle cx="542.2341015625" cy="1425.0" r="10.0" /><circle cx="542.2341015625" cy="1975.0" r="10.0" /><rect x="522.2341015625" y="3205.0" width="40" height="40" stroke="black" fill="white" stroke-width="1" /><text x="542.2341015625" y="3225.0" dominant-baseline="middle" text-anchor="middle" font-size="18px">X</text><circle cx="602.2341015625" cy="175.0" r="10.0" /><circle cx="602.2341015625" cy="2025.0" r="10.0" /><rect x="582.2341015625" y="3205.0" width="40" height="40" stroke="black" fill="white" stroke-width="1" /><text x="602.2341015625" y="3225.0" dominant-baseline="middle" text-anchor="middle" font-size="18px">X</text><circle cx="662.2341015625" cy="1375.0" r="10.0" /><circle cx="662.2341015625" cy="2075.0" r="10.0" /><rect x="642.2341015625" y="3205.0" width="40" height="40" stroke="black" fill="white" stroke-width="1" /><text x="662.2341015625" y="3225.0" dominant-baseline="middle" text-anchor="middle" font-size="18px">X</text><circle cx="722.2341015625" cy="675.0" r="10.0" /><circle cx="722.2341015625" cy="2125.0" r="10.0" /><rect x="702.2341015625" y="3205.0" width="40" height="40" stroke="black" fill="white" stroke-width="1" /><text x="722.2341015625" y="3225.0" dominant-baseline="middle" text-anchor="middle" font-size="18px">X</text><circle cx="782.2341015625" cy="1325.0" r="10.0" /><circle cx="782.2341015625" cy="2175.0" r="10.0" /><rect x="762.2341015625" y="3205.0" width="40" height="40" stroke="black" fill="white" stroke-width="1" /><text x="782.2341015625" y="3225.0" dominant-baseline="middle" text-anchor="middle" font-size="18px">X</text><circle cx="842.2341015625" cy="325.0" r="10.0" /><circle cx="842.2341015625" cy="2225.0" r="10.0" /><rect x="822.2341015625" y="3205.0" width="40" height="40" stroke="black" fill="white" stroke-width="1" /><text x="842.2341015625" y="3225.0" dominant-baseline="middle" text-anchor="middle" font-size="18px">X</text><circle cx="902.2341015625" cy="1275.0" r="10.0" /><circle cx="902.2341015625" cy="2275.0" r="10.0" /><rect x="882.2341015625" y="3205.0" width="40" height="40" stroke="black" fill="white" stroke-width="1" /><text x="902.2341015625" y="3225.0" dominant-baseline="middle" text-anchor="middle" font-size="18px">X</text><circle cx="962.2341015625" cy="625.0" r="10.0" /><circle cx="962.2341015625" cy="2325.0" r="10.0" /><rect x="942.2341015625" y="3205.0" width="40" height="40" stroke="black" fill="white" stroke-width="1" /><text x="962.2341015625" y="3225.0" dominant-baseline="middle" text-anchor="middle" font-size="18px">X</text><circle cx="1022.2341015625" cy="1225.0" r="10.0" /><circle cx="1022.2341015625" cy="2375.0" r="10.0" /><rect x="1002.2341015625" y="3205.0" width="40" height="40" stroke="black" fill="white" stroke-width="1" /><text x="1022.2341015625" y="3225.0" dominant-baseline="middle" text-anchor="middle" font-size="18px">X</text><circle cx="1082.2341015625" cy="25.0" r="10.0" /><circle cx="1082.2341015625" cy="2425.0" r="10.0" /><rect x="1062.2341015625" y="3205.0" width="40" height="40" stroke="black" fill="white" stroke-width="1" /><text x="1082.2341015625" y="3225.0" dominant-baseline="middle" text-anchor="middle" font-size="18px">X</text><circle cx="1142.2341015625" cy="1175.0" r="10.0" /><circle cx="1142.2341015625" cy="2475.0" r="10.0" /><rect x="1122.2341015625" y="3205.0" width="40" height="40" stroke="black" fill="white" stroke-width="1" /><text x="1142.2341015625" y="3225.0" dominant-baseline="middle" text-anchor="middle" font-size="18px">X</text><circle cx="1202.2341015625" cy="575.0" r="10.0" /><circle cx="1202.2341015625" cy="2525.0" r="10.0" /><rect x="1182.2341015625" y="3205.0" width="40" height="40" stroke="black" fill="white" stroke-width="1" /><text x="1202.2341015625" y="3225.0" dominant-baseline="middle" text-anchor="middle" font-size="18px">X</text><circle cx="1262.2341015625" cy="1125.0" r="10.0" /><circle cx="1262.2341015625" cy="2575.0" r="10.0" /><rect x="1242.2341015625" y="3205.0" width="40" height="40" stroke="black" fill="white" stroke-width="1" /><text x="1262.2341015625" y="3225.0" dominant-baseline="middle" text-anchor="middle" font-size="18px">X</text><circle cx="1322.2341015625" cy="275.0" r="10.0" /><circle cx="1322.2341015625" cy="2625.0" r="10.0" /><rect x="1302.2341015625" y="3205.0" width="40" height="40" stroke="black" fill="white" stroke-width="1" /><text x="1322.2341015625" y="3225.0" dominant-baseline="middle" text-anchor="middle" font-size="18px">X</text><circle cx="1382.2341015625" cy="1075.0" r="10.0" /><circle cx="1382.2341015625" cy="2675.0" r="10.0" /><rect x="1362.2341015625" y="3205.0" width="40" height="40" stroke="black" fill="white" stroke-width="1" /><text x="1382.2341015625" y="3225.0" dominant-baseline="middle" text-anchor="middle" font-size="18px">X</text><circle cx="1442.2341015625" cy="525.0" r="10.0" /><circle cx="1442.2341015625" cy="2725.0" r="10.0" /><rect x="1422.2341015625" y="3205.0" width="40" height="40" stroke="black" fill="white" stroke-width="1" /><text x="1442.2341015625" y="3225.0" dominant-baseline="middle" text-anchor="middle" font-size="18px">X</text><circle cx="1502.2341015625" cy="1025.0" r="10.0" /><circle cx="1502.2341015625" cy="2775.0" r="10.0" /><rect x="1482.2341015625" y="3205.0" width="40" height="40" stroke="black" fill="white" stroke-width="1" /><text x="1502.2341015625" y="3225.0" dominant-baseline="middle" text-anchor="middle" font-size="18px">X</text><circle cx="1562.2341015625" cy="125.0" r="10.0" /><circle cx="1562.2341015625" cy="2825.0" r="10.0" /><rect x="1542.2341015625" y="3205.0" width="40" height="40" stroke="black" fill="white" stroke-width="1" /><text x="1562.2341015625" y="3225.0" dominant-baseline="middle" text-anchor="middle" font-size="18px">X</text><circle cx="1622.2341015625" cy="975.0" r="10.0" /><circle cx="1622.2341015625" cy="2875.0" r="10.0" /><rect x="1602.2341015625" y="3205.0" width="40" height="40" stroke="black" fill="white" stroke-width="1" /><text x="1622.2341015625" y="3225.0" dominant-baseline="middle" text-anchor="middle" font-size="18px">X</text><circle cx="1682.2341015625" cy="475.0" r="10.0" /><circle cx="1682.2341015625" cy="2925.0" r="10.0" /><rect x="1662.2341015625" y="3205.0" width="40" height="40" stroke="black" fill="white" stroke-width="1" /><text x="1682.2341015625" y="3225.0" dominant-baseline="middle" text-anchor="middle" font-size="18px">X</text><circle cx="1742.2341015625" cy="925.0" r="10.0" /><circle cx="1742.2341015625" cy="2975.0" r="10.0" /><rect x="1722.2341015625" y="3205.0" width="40" height="40" stroke="black" fill="white" stroke-width="1" /><text x="1742.2341015625" y="3225.0" dominant-baseline="middle" text-anchor="middle" font-size="18px">X</text><circle cx="1802.2341015625" cy="225.0" r="10.0" /><circle cx="1802.2341015625" cy="3025.0" r="10.0" /><rect x="1782.2341015625" y="3205.0" width="40" height="40" stroke="black" fill="white" stroke-width="1" /><text x="1802.2341015625" y="3225.0" dominant-baseline="middle" text-anchor="middle" font-size="18px">X</text><circle cx="1862.2341015625" cy="875.0" r="10.0" /><circle cx="1862.2341015625" cy="3075.0" r="10.0" /><rect x="1842.2341015625" y="3205.0" width="40" height="40" stroke="black" fill="white" stroke-width="1" /><text x="1862.2341015625" y="3225.0" dominant-baseline="middle" text-anchor="middle" font-size="18px">X</text><circle cx="1922.2341015625" cy="425.0" r="10.0" /><circle cx="1922.2341015625" cy="3125.0" r="10.0" /><rect x="1902.2341015625" y="3205.0" width="40" height="40" stroke="black" fill="white" stroke-width="1" /><text x="1922.2341015625" y="3225.0" dominant-baseline="middle" text-anchor="middle" font-size="18px">X</text><circle cx="1982.2341015625" cy="825.0" r="10.0" /><circle cx="1982.2341015625" cy="3175.0" r="10.0" /><rect x="1962.2341015625" y="3205.0" width="40" height="40" stroke="black" fill="white" stroke-width="1" /><text x="1982.2341015625" y="3225.0" dominant-baseline="middle" text-anchor="middle" font-size="18px">X</text></svg>